<?xml version="1.0" encoding="iso-8859-1"?>
<!-- Generator: Adobe Illustrator 16.0.0, SVG Export Plug-In . SVG Version: 6.00 Build 0)  -->
<!DOCTYPE svg PUBLIC "-//W3C//DTD SVG 1.1//EN" "http://www.w3.org/Graphics/SVG/1.1/DTD/svg11.dtd">
<svg version="1.1" id="Layer_1" xmlns="http://www.w3.org/2000/svg" xmlns:xlink="http://www.w3.org/1999/xlink" x="0px" y="0px"
	 width="370.667px" height="141.732px" viewBox="0 0 370.667 141.732" style="enable-background:new 0 0 370.667 141.732;"
	 xml:space="preserve">
<g>
	<path d="M0,33.12h7.747v20.636h22.967V33.12h7.747v49.019h-7.747V59.995H7.747v22.144H0V33.12z"/>
	<path d="M47.476,54.065c1.348-2.812,3.292-5.015,5.828-6.616c2.537-1.599,5.519-2.399,8.946-2.399c3.429,0,6.421,0.8,8.981,2.399
		c2.56,1.601,4.513,3.805,5.862,6.616c1.348,2.811,2.023,5.976,2.023,9.495v0.753c0,3.521-0.675,6.685-2.023,9.496
		c-1.349,2.811-3.291,5.016-5.828,6.616c-2.537,1.6-5.519,2.399-8.947,2.399c-3.428,0-6.422-0.8-8.981-2.399
		c-2.561-1.6-4.514-3.805-5.862-6.616s-2.022-5.976-2.022-9.496V63.56C45.454,60.041,46.127,56.876,47.476,54.065z M55.326,73.295
		c1.6,2.376,3.931,3.564,6.993,3.564c3.017,0,5.324-1.188,6.925-3.564c1.599-2.376,2.399-5.371,2.399-8.982V63.56
		c0-3.565-0.812-6.547-2.434-8.947c-1.623-2.4-3.942-3.6-6.959-3.6c-3.016,0-5.324,1.189-6.924,3.565
		c-1.601,2.377-2.4,5.371-2.4,8.981v0.753C52.926,67.924,53.726,70.919,55.326,73.295z"/>
	<path d="M95.809,75.729c0.662,0.572,1.634,0.856,2.914,0.856c1.005,0,1.964-0.112,2.879-0.343v5.828
		c-1.691,0.502-3.405,0.755-5.141,0.755c-2.789,0-5.005-0.8-6.651-2.399c-1.646-1.6-2.468-4.159-2.468-7.679V51.288h-6.239v-5.553
		h6.239v-8.981h7.473v8.981h6.65v5.553h-6.65v21.115C94.815,74.048,95.146,75.158,95.809,75.729z"/>
	<path d="M113.393,80.527c-2.605-1.531-4.617-3.633-6.033-6.307c-1.418-2.674-2.126-5.701-2.126-9.084
		c0-4.158,0.73-7.757,2.194-10.797c1.462-3.039,3.428-5.348,5.896-6.925c2.468-1.576,5.21-2.365,8.227-2.365
		c5.074,0,8.9,1.623,11.484,4.867c2.582,3.246,3.873,7.565,3.873,12.958v3.291h-24.132c0.183,3.107,1.176,5.667,2.982,7.678
		c1.805,2.012,4.17,3.017,7.096,3.017c3.793,0,6.901-1.576,9.324-4.73l4.114,3.771c-1.327,2.011-3.131,3.668-5.417,4.97
		c-2.286,1.302-5.097,1.955-8.433,1.955C119.015,82.825,115.998,82.06,113.393,80.527z M115.792,53.516
		c-1.508,1.669-2.468,4.011-2.879,7.027h16.591v-0.617c-0.137-2.559-0.846-4.685-2.125-6.376c-1.28-1.69-3.246-2.537-5.896-2.537
		C119.196,51.014,117.3,51.848,115.792,53.516z"/>
	<path d="M143.284,33.12h7.473v49.019h-7.473V33.12z"/>
	<path d="M160.491,62.04l6.291,3.45l-16.067,16.649l-5.239-5.327L160.491,62.04z"/>
	<path d="M181.896,91.678c-0.616-0.96-1.714-1.853-3.29-2.674c-1.576-0.823-3.829-1.668-6.753-2.537
		c-5.165-1.553-9.13-3.474-11.895-5.759c-2.766-2.286-4.148-5.278-4.148-8.98c0-2.605,0.72-4.937,2.159-6.993
		c1.44-2.058,3.462-3.656,6.067-4.799c2.605-1.142,5.576-1.714,8.913-1.714c3.565,0,6.684,0.675,9.358,2.022
		c2.674,1.349,4.719,3.153,6.135,5.417c1.416,2.262,2.125,4.742,2.125,7.438h-7.815c0-2.604-0.822-4.696-2.467-6.272
		c-1.646-1.578-4.115-2.366-7.405-2.366c-3.016,0-5.313,0.663-6.89,1.988c-1.577,1.325-2.365,3.04-2.365,5.142
		c0,1.875,0.857,3.462,2.571,4.764c1.714,1.304,4.466,2.503,8.261,3.601c5.576,1.6,9.655,3.598,12.237,5.998
		c2.582,2.399,3.873,5.519,3.873,9.357c0,2.697-0.709,5.053-2.125,7.062c-1.417,2.014-3.438,3.557-6.067,4.628
		c-2.628,1.074-5.679,1.613-9.152,1.613c-3.2,0-6.25-0.585-9.153-1.75c-2.903-1.165-5.257-2.912-7.062-5.244
		c-1.806-2.33-2.708-5.117-2.708-8.363h7.747c0,3.062,1.039,5.358,3.119,6.891c2.08,1.53,4.765,2.296,8.056,2.296
		c3.062,0,5.426-0.64,7.095-1.921c1.667-1.278,2.503-3.016,2.503-5.21C182.823,93.848,182.514,92.636,181.896,91.678z"/>
	<path d="M229.921,97.572l6.238-26.05h7.269l-10.08,36.404h-6.171l-8.156-25.916l-8.022,25.916h-6.101l-10.147-36.404h7.335
		l6.306,25.639l7.817-25.639h5.759L229.921,97.572z"/>
	<path d="M267.286,78.309c-1.191-1.188-2.904-1.782-5.144-1.782c-2.055,0-3.714,0.514-4.97,1.542
		c-1.258,1.03-1.884,2.298-1.884,3.805h-7.543c0-1.873,0.616-3.668,1.851-5.382c1.234-1.713,2.971-3.085,5.21-4.113
		c2.239-1.028,4.822-1.543,7.747-1.543c4.25,0,7.644,1.063,10.181,3.189c2.537,2.125,3.805,5.199,3.805,9.22v16.453
		c0,3.155,0.456,5.715,1.372,7.68v0.549h-7.747c-0.321-0.73-0.616-1.944-0.891-3.634c-1.19,1.281-2.63,2.319-4.32,3.119
		c-1.69,0.8-3.564,1.201-5.622,1.201c-2.423,0-4.558-0.471-6.409-1.406c-1.851-0.937-3.303-2.229-4.354-3.875
		c-1.054-1.644-1.576-3.497-1.576-5.552c0-3.885,1.449-6.856,4.354-8.912c2.902-2.058,6.958-3.085,12.168-3.085h5.552v-2.605
		C269.066,81.12,268.474,79.499,267.286,78.309z M265.743,101.103c1.483-0.935,2.594-2.089,3.324-3.461v-7.061h-4.729
		c-3.199,0-5.646,0.549-7.336,1.644c-1.693,1.098-2.537,2.674-2.537,4.732c0,1.646,0.549,2.982,1.644,4.009
		c1.098,1.03,2.607,1.543,4.525,1.543C262.554,102.509,264.257,102.042,265.743,101.103z"/>
	<path d="M295.016,101.515c0.66,0.572,1.634,0.857,2.912,0.857c1.004,0,1.965-0.111,2.881-0.342v5.827
		c-1.693,0.502-3.407,0.756-5.144,0.756c-2.788,0-5.003-0.8-6.65-2.399c-1.646-1.6-2.467-4.16-2.467-7.68V77.074h-6.241v-5.552
		h6.241V62.54h7.473v8.982h6.65v5.552h-6.65v21.117C294.022,99.835,294.351,100.945,295.016,101.515z"/>
	<path d="M325.969,100.761c1.462-1.255,2.286-2.845,2.467-4.765h7.062c-0.091,2.286-0.81,4.387-2.159,6.308
		c-1.349,1.92-3.132,3.45-5.348,4.592c-2.215,1.144-4.628,1.716-7.232,1.716c-3.564,0-6.583-0.813-9.049-2.436
		c-2.469-1.62-4.32-3.805-5.555-6.546c-1.232-2.741-1.851-5.827-1.851-9.256v-1.302c0-3.427,0.619-6.513,1.851-9.254
		c1.234-2.744,3.085-4.926,5.555-6.549c2.467-1.62,5.461-2.433,8.979-2.433c2.881,0,5.417,0.572,7.61,1.714
		c2.195,1.144,3.919,2.732,5.177,4.765c1.258,2.035,1.931,4.377,2.021,7.028h-7.062c-0.137-2.195-0.901-3.999-2.296-5.417
		c-1.395-1.417-3.233-2.126-5.519-2.126c-3.199,0-5.475,1.167-6.821,3.497c-1.349,2.333-2.024,5.257-2.024,8.775v1.302
		c0,3.567,0.675,6.502,2.024,8.811c1.346,2.309,3.622,3.461,6.821,3.461C322.723,102.646,324.506,102.02,325.969,100.761z"/>
	<path d="M341.049,58.907h7.473v16.728c1.281-1.553,2.801-2.741,4.561-3.564c1.758-0.823,3.688-1.235,5.793-1.235
		c7.861,0,11.791,4.503,11.791,13.507v23.583h-7.473V84.273c0-2.604-0.56-4.466-1.678-5.586c-1.121-1.121-2.801-1.68-5.04-1.68
		c-1.784,0-3.35,0.435-4.695,1.302c-1.349,0.87-2.436,2.058-3.259,3.564v26.053h-7.473V58.907z"/>
</g>
<text transform="matrix(1 0 0 1 459.334 99.2354)" style="font-family:'Freesentation-7Bold'; font-size:41.5432;">HotelSwatch</text>
</svg>
