<svg width="699" height="211" viewBox="0 0 699 211" fill="none" xmlns="http://www.w3.org/2000/svg">
<path d="M102 105.8C102 81.6001 83.7 63.3001 59.5 63.3001C35.3 63.3001 17 81.6001 17 105.8C17 130 35.3 148.3 59.5 148.3C83.7 148.4 102 130.1 102 105.8ZM-1 105.8C-1 72.2001 26 46.8 59.4 46.8C93 46.8 119.8 72 119.8 105.6V157.3C119.8 162.6 116.1 166.2 110.7 166.2C105 166.2 101.5 162.5 101.5 157.3V142.2H100.6C93.5 154.3 79.3 164.8 58.3 164.8C25.8 164.8 -1 139.7 -1 105.8Z" fill="white"/>
<path d="M246.5 105.8C246.5 81.6001 228.2 63.3001 204 63.3001C179.8 63.3001 161.5 81.6001 161.5 105.8C161.5 130 179.8 148.3 204 148.3C228.2 148.3 246.5 130.1 246.5 105.8ZM166.9 203C162.1 200.7 159.8 196.6 161.6 191.8C163.4 186.8 168 184.7 172.8 187C181 190.9 191.3 193.6 202.3 193.6C229.5 193.6 246 177.4 246 149.7V142.1H245.1C238 154.2 223.8 164.7 202.8 164.7C170.3 164.7 143.6 139.5 143.6 105.7C143.6 72.1001 170.6 46.7001 204 46.7001C237.6 46.7001 264.4 71.9001 264.4 105.5V148.5C264.4 185.6 240.6 210.5 201.7 210.5C189.8 210.6 177.9 208.3 166.9 203Z" fill="white"/>
<path d="M391.1 105.8C391.1 81.6001 372.8 63.3001 348.6 63.3001C324.4 63.3001 306.1 81.6001 306.1 105.8C306.1 130 324.4 148.3 348.6 148.3C372.8 148.4 391.1 130.1 391.1 105.8ZM288.2 105.8C288.2 72.2001 315 46.8 348.6 46.8C382.2 46.8 409 72.2001 409 105.8C409 139.4 382.2 164.8 348.6 164.8C314.9 164.8 288.2 139.4 288.2 105.8Z" fill="white"/>
<path d="M535.7 105.8C535.7 81.6 517.4 63.3 493.2 63.3C469 63.3 450.7 81.6 450.7 105.8C450.7 130 469 148.3 493.2 148.3C517.4 148.4 535.7 130.1 535.7 105.8ZM432.7 105.8C432.7 72.2 459.2 46.8 491.9 46.8C512.9 46.8 527.1 57.3 534.2 69.4H535.1V9.30002C535.1 4.00002 538.8 0.400024 544.3 0.400024C550 0.400024 553.4 4.10002 553.4 9.30002V106C553.4 139.6 526.6 164.8 493 164.8C459.7 164.8 432.7 139.4 432.7 105.8Z" fill="white"/>
<path d="M680.3 105.8C680.3 81.6001 662 63.3001 637.8 63.3001C613.6 63.3001 595.3 81.6001 595.3 105.8C595.3 130 613.6 148.3 637.8 148.3C662 148.4 680.3 130.1 680.3 105.8ZM577.3 105.8C577.3 72.2001 604.3 46.8 637.7 46.8C671.3 46.8 698.1 72 698.1 105.6V157.3C698.1 162.6 694.4 166.2 689 166.2C683.3 166.2 679.8 162.5 679.8 157.3V142.2H678.9C671.8 154.3 657.6 164.8 636.6 164.8C604.1 164.8 577.3 139.7 577.3 105.8Z" fill="white"/>
</svg>
