<?xml version="1.0" encoding="utf-8"?>
<!-- Generator: Adobe Illustrator 28.3.0, SVG Export Plug-In . SVG Version: 6.00 Build 0)  -->
<svg version="1.1" id="레이어_1" xmlns="http://www.w3.org/2000/svg" xmlns:xlink="http://www.w3.org/1999/xlink" x="0px"
	 y="0px" width="941px" height="350px" viewBox="0 0 941 350" style="enable-background:new 0 0 941 350;" xml:space="preserve">
<style type="text/css">
	.st0{fill:#FFFFFF;}
</style>
<g>
	<g>
		<g>
			<g>
				<path d="M576.5,89.8H82c-1.6,0-3.3,0-4.9,0c-1.4,0-2.7,0-4.1,0.1c-3,0.1-6,0.3-9,0.8c-3,0.5-5.8,1.4-8.5,2.8
					c-2.7,1.4-5.1,3.2-7.2,5.3c-2.1,2.1-3.9,4.6-5.3,7.2c-1.4,2.7-2.3,5.5-2.8,8.5c-0.5,3-0.7,6-0.8,8.9c0,1.4,0,2.7-0.1,4.1
					c0,1.6,0,3.2,0,4.9V226c0,1.7,0,3.3,0,4.9c0,1.4,0,2.7,0.1,4.1c0.1,3,0.3,6,0.8,8.9c0.5,3,1.4,5.8,2.8,8.5
					c1.4,2.7,3.1,5.1,5.3,7.2c2.1,2.1,4.6,3.9,7.2,5.3c2.7,1.4,5.5,2.3,8.5,2.8c3,0.5,6,0.7,9,0.8c1.4,0,2.7,0,4.1,0
					c1.6,0,3.3,0,4.9,0h494.5c1.6,0,3.2,0,4.8,0c1.4,0,2.8,0,4.1,0c3-0.1,6-0.3,8.9-0.8c3-0.5,5.8-1.4,8.5-2.8
					c2.7-1.4,5.1-3.1,7.2-5.3c2.1-2.1,3.9-4.6,5.3-7.2c1.4-2.7,2.3-5.5,2.8-8.5c0.6-3,0.7-6,0.8-8.9c0-1.4,0-2.7,0-4.1
					c0-1.6,0-3.2,0-4.9v-93.5c0-1.6,0-3.3,0-4.9c0-1.4,0-2.7,0-4.1c-0.1-3-0.3-6-0.8-8.9c-0.5-3-1.4-5.8-2.8-8.5
					c-1.4-2.7-3.2-5.1-5.3-7.2c-2.1-2.1-4.6-3.9-7.2-5.3c-2.8-1.4-5.5-2.3-8.5-2.8c-2.9-0.5-5.9-0.7-8.9-0.8c-1.4,0-2.8,0-4.1-0.1
					C579.8,89.8,578.1,89.8,576.5,89.8L576.5,89.8z"/>
				<path class="st0" d="M77.1,264.7c-1.4,0-2.7,0-4,0c-2.5-0.1-5.5-0.2-8.4-0.7c-2.7-0.5-5.2-1.3-7.4-2.4c-2.3-1.2-4.4-2.7-6.2-4.5
					c-1.9-1.8-3.4-3.9-4.6-6.2c-1.2-2.3-2-4.7-2.4-7.4c-0.5-3-0.7-6.1-0.7-8.4c0-0.9-0.1-4.1-0.1-4.1V127.6c0,0,0-3.1,0.1-4
					c0.1-2.3,0.2-5.4,0.7-8.4c0.5-2.7,1.3-5.2,2.4-7.4c1.2-2.3,2.7-4.4,4.5-6.2c1.8-1.9,4-3.4,6.3-4.6c2.3-1.2,4.7-2,7.4-2.4
					c3-0.5,6.1-0.7,8.4-0.7l4-0.1h504.2l4.1,0.1c2.3,0.1,5.3,0.2,8.3,0.7c2.7,0.5,5.1,1.3,7.5,2.4c2.3,1.2,4.4,2.7,6.2,4.5
					c1.8,1.8,3.4,3.9,4.6,6.3c1.2,2.3,1.9,4.7,2.4,7.4c0.5,2.8,0.7,5.7,0.8,8.4c0,1.3,0,2.6,0,4c0,1.7,0,3.3,0,4.9V226
					c0,1.6,0,3.2,0,4.8c0,1.5,0,2.8,0,4.2c-0.1,2.6-0.3,5.5-0.8,8.3c-0.5,2.7-1.2,5.2-2.4,7.5c-1.2,2.3-2.7,4.4-4.5,6.2
					c-1.8,1.9-3.9,3.4-6.3,4.6c-2.3,1.2-4.7,2-7.5,2.5c-2.9,0.5-5.8,0.7-8.4,0.7c-1.3,0-2.7,0-4,0l-4.8,0L77.1,264.7z"/>
			</g>
		</g>
	</g>
	<g id="XMLID_20_">
		<g id="XMLID_21_">
			<path id="XMLID_23_" d="M151.1,178.7c-0.1-12.8,10.5-19,11-19.3c-6-8.7-15.3-9.9-18.6-10c-7.8-0.8-15.4,4.7-19.3,4.7
				c-4.1,0-10.2-4.6-16.8-4.5c-8.5,0.1-16.4,5-20.8,12.7c-9,15.6-2.3,38.4,6.3,51c4.3,6.2,9.3,13,15.9,12.8
				c6.4-0.3,8.9-4.1,16.6-4.1c7.7,0,10,4.1,16.7,4c6.9-0.1,11.3-6.2,15.4-12.4c5-7.1,7-14,7.1-14.4
				C164.5,199.1,151.3,194.1,151.1,178.7z"/>
			<path id="XMLID_22_" d="M138.4,141.1c3.5-4.3,5.8-10.2,5.2-16.2c-5,0.2-11.3,3.5-14.9,7.7c-3.2,3.7-6.1,9.9-5.3,15.6
				C129,148.7,134.8,145.4,138.4,141.1z"/>
		</g>
	</g>
	<g>
		<path d="M208.9,202.8h-11.2v15.6c4.6,0,9.5-0.2,13.9-1l0.4,3.4c-3.4,0.7-9.8,1.2-15.9,1.2h-2.4v-22.5h15.3V202.8z M218.3,209.1
			h4.9v3.4h-4.9v17.2h-4.1v-33.4h4.1V209.1z"/>
		<path d="M256.4,212.8v3.3h-12.8v6.3h-4.2v-6.3h-13.3v-3.3H256.4z M229.7,203.9c0-3.9,4.5-6.7,11.6-6.7s11.6,2.8,11.6,6.7
			c0,3.9-4.5,6.7-11.6,6.7C234.2,210.7,229.7,207.9,229.7,203.9z M234.1,225.5H253v3.3h-23v-9.5h4.1V225.5z M234,204
			c0,2.1,3.1,3.5,7.4,3.5c4.4,0,7.4-1.4,7.4-3.5c0-2.2-3-3.6-7.4-3.6C237.1,200.4,234,201.8,234,204z"/>
		<path d="M290.4,222.2v3.3h-30.2v-3.3h13v-5.4h-9.2v-11h18.3v-4.1H264v-3.3h22.6v10.7h-18.4v4.3h19.2v3.3h-10.1v5.4H290.4z"/>
		<path d="M324.4,225.3h-30.2V222h30.2V225.3z M320.5,202.5h-18.3v9.2h18.6v3.3h-22.7v-15.9h22.4V202.5z"/>
		<path d="M357.5,207.6h-19.5v-3.3h19.5V207.6z M348,223.4c-4.6,0-8-3-8-7.1c0-4.2,3.4-7.1,8-7.1c4.6,0,8,2.9,8,7.1
			C356,220.4,352.6,223.4,348,223.4z M353,201.8h-10.1v-3.4H353V201.8z M348,220.1c2.3,0,4.1-1.6,4.1-3.8c0-2.3-1.7-3.8-4.1-3.8
			c-2.3,0-4,1.6-4,3.8C344,218.5,345.7,220.1,348,220.1z M364.3,210.1h4.8v3.4h-4.8v16.2h-4.1v-33.4h4.1V210.1z"/>
		<path d="M374.6,223.6l-2.3-3.2c7.7-3.7,12.5-10.4,13.1-17.2h-11.3v-3.4h15.7C389.5,209.9,384.7,218.1,374.6,223.6z M399.8,229.7
			h-4.1v-33.4h4.1V229.7z"/>
	</g>
	<g>
		<path d="M223.4,163.8h-18.1l-4.3,12.8h-7.7l17.1-47.4h8l17.1,47.4h-7.8L223.4,163.8z M207.2,157.9h14.3l-7.1-20.8h-0.2
			L207.2,157.9z"/>
		<path d="M272.6,159.4c0,10.7-5.8,17.7-14.4,17.7c-4.9,0-8.8-2.2-10.9-6h-0.2v17.1H240v-46h6.9v5.8h0.1c2-3.7,6.2-6.1,11-6.1
			C266.8,141.7,272.6,148.6,272.6,159.4z M265.3,159.4c0-7-3.6-11.6-9.1-11.6c-5.4,0-9.1,4.7-9.1,11.6c0,7,3.6,11.6,9.1,11.6
			C261.6,171,265.3,166.4,265.3,159.4z"/>
		<path d="M310.7,159.4c0,10.7-5.8,17.7-14.4,17.7c-4.9,0-8.8-2.2-10.9-6h-0.2v17.1h-7.1v-46h6.9v5.8h0.1c2-3.7,6.2-6.1,11-6.1
			C304.9,141.7,310.7,148.6,310.7,159.4z M303.4,159.4c0-7-3.6-11.6-9.1-11.6c-5.4,0-9.1,4.7-9.1,11.6c0,7,3.6,11.6,9.1,11.6
			C299.8,171,303.4,166.4,303.4,159.4z"/>
		<path d="M336,163.4c0.5,4.7,5.1,7.8,11.3,7.8c6,0,10.3-3.1,10.3-7.3c0-3.7-2.6-5.9-8.7-7.4l-6.1-1.5c-8.7-2.1-12.8-6.2-12.8-12.8
			c0-8.2,7.1-13.8,17.3-13.8c10,0,16.9,5.6,17.1,13.8h-7.2c-0.4-4.7-4.3-7.6-10.1-7.6c-5.7,0-9.6,2.9-9.6,7.1c0,3.4,2.5,5.3,8.6,6.8
			l5.2,1.3c9.7,2.3,13.8,6.2,13.8,13.2c0,8.9-7.1,14.4-18.3,14.4c-10.5,0-17.6-5.4-18.1-14H336z"/>
		<path d="M380.4,133.9v8.2h6.6v5.6h-6.6v19.1c0,3,1.3,4.3,4.2,4.3c0.7,0,1.9-0.1,2.3-0.2v5.6c-0.8,0.2-2.4,0.3-3.9,0.3
			c-7,0-9.7-2.6-9.7-9.3v-19.8h-5v-5.6h5v-8.2H380.4z"/>
		<path d="M390.9,159.4c0-10.9,6.4-17.7,16.4-17.7c10,0,16.4,6.8,16.4,17.7c0,10.9-6.3,17.7-16.4,17.7
			C397.2,177.1,390.9,170.3,390.9,159.4z M416.5,159.4c0-7.5-3.4-11.9-9.2-11.9s-9.2,4.4-9.2,11.9c0,7.5,3.4,11.9,9.2,11.9
			S416.5,166.8,416.5,159.4z"/>
		<path d="M429.6,142.1h6.8v5.9h0.2c1.1-3.9,4.2-6.2,8.3-6.2c1,0,1.9,0.1,2.4,0.3v6.6c-0.6-0.2-1.8-0.4-3.2-0.4
			c-4.6,0-7.4,3.1-7.4,8v20.5h-7.1V142.1z"/>
		<path d="M480,166.5c-1,6.3-7.1,10.6-14.9,10.6c-10.1,0-16.3-6.7-16.3-17.6c0-10.8,6.3-17.9,16-17.9c9.6,0,15.6,6.6,15.6,17.1v2.4
			H456v0.4c0,5.9,3.7,9.8,9.3,9.8c3.9,0,7-1.9,8-4.9H480z M456,156.2h17.3c-0.2-5.3-3.6-8.8-8.5-8.8
			C459.9,147.4,456.3,150.9,456,156.2z"/>
		<path d="M509.1,130h5.5v44.4h-5.5V152h-4.1c-0.5,7.9-3.7,14.8-10.2,14.8c-7.1,0-10.3-8.3-10.3-17.1c0-8.8,3.2-16.9,10.3-16.9
			c6.4,0,9.6,6.4,10.2,14.1h4.1V130z M499.7,149.7c0-6.5-1.6-11.5-4.8-11.5c-3.2,0-4.6,5-4.6,11.5c0,6.5,1.5,11.5,4.6,11.5
			C498.1,161.1,499.7,156.2,499.7,149.7z M524.3,129.1v47.6h-5.5v-47.6H524.3z"/>
		<path d="M549.3,140.2c0,9.7,4.5,16.6,11.7,20.6l-3.4,4.4c-4.4-2.5-9.8-7.9-11.3-12.8c-1.3,5.2-6.7,11.4-11.4,14l-3.6-4.3
			c7.9-4.7,11.9-12.2,11.9-21.8v-7.4h6.1V140.2z M571.6,176.6h-5.9v-26.1h-9.5v-5h9.5v-16.4h5.9V176.6z"/>
	</g>
</g>
</svg>
