<svg xmlns:xlink="http://www.w3.org/1999/xlink" viewBox="0 0 200 200" width="200" height="200" xmlns="http://www.w3.org/2000/svg" role="presentation" style="width: inherit; height: inherit; line-height: inherit; color: inherit;"><path fill-rule="evenodd" clip-rule="evenodd" d="M169.335 67.042c-8.764-10.922-21.062-17.241-32.665-17.241c-15.356 0-21.844 7.292-32.498 7.292c-10.98 0-19.328-7.28-32.61-7.28c-13.044 0-26.915 7.922-35.709 21.461c-12.374 19.048-10.277 54.881 9.786 85.417c7.176 10.916 16.76 23.195 29.29 23.308c11.136.102 14.29-7.106 29.401-7.19c15.111-.083 17.968 7.268 29.107 7.166c12.527-.121 22.638-13.713 29.811-24.635c5.143-7.819 7.054-11.769 11.049-20.62c-29.008-10.959-33.673-51.948-4.962-67.678zm-44.313-29.443c5.577-7.159 9.815-17.266 8.276-27.599c-9.113.63-19.771 6.427-25.994 13.982c-5.647 6.86-10.311 17.032-8.496 26.922c9.946.307 20.241-5.635 26.214-13.305z"></path></svg>