<svg xmlns:xlink="http://www.w3.org/1999/xlink" width="185" height="62" viewBox="0 0 185 62" fill="none" xmlns="http://www.w3.org/2000/svg" class="react-app-store-sites__icon" role="presentation"> <path d="M169.899 0.000154H14.7087C14.143 0.000154 13.5841 0.000153999 13.0198 0.00323399C12.5476 0.00631398 12.0791 0.015246 11.6023 0.0227919C10.5664 0.0349558 9.53296 0.125925 8.51094 0.294909C7.49035 0.467573 6.50173 0.793102 5.57852 1.26049C4.65647 1.73185 3.81398 2.34432 3.08159 3.07568C2.34536 3.80493 1.73164 4.64785 1.26405 5.57201C0.795147 6.49443 0.470018 7.48289 0.299891 8.50324C0.128134 9.52227 0.0357098 10.553 0.0234482 11.5863C0.00910162 12.0585 0.00755897 12.5322 0 13.0045V48.6003C0.00755897 49.0784 0.00910162 49.5417 0.0234482 50.0202C0.0357214 51.0533 0.128145 52.084 0.299891 53.1029C0.469561 54.1238 0.794708 55.1128 1.26405 56.0355C1.73142 56.9568 2.34522 57.7963 3.08159 58.5215C3.8112 59.2561 4.65424 59.869 5.57852 60.3367C6.50173 60.8054 7.49024 61.1328 8.51094 61.3082C9.53313 61.4758 10.5665 61.5668 11.6023 61.5804C12.0789 61.5909 12.5476 61.5969 13.0199 61.5969C13.5841 61.6 14.143 61.6 14.7087 61.6H169.899C170.454 61.6 171.017 61.6 171.571 61.5969C172.041 61.5969 172.524 61.5909 172.994 61.5804C174.027 61.5675 175.059 61.4765 176.079 61.3082C177.103 61.1316 178.095 60.8042 179.023 60.3367C179.946 59.8687 180.788 59.2559 181.517 58.5215C182.252 57.7935 182.867 56.9545 183.34 56.0355C183.806 55.1121 184.128 54.1232 184.295 53.1029C184.467 52.0838 184.563 51.0533 184.581 50.02C184.588 49.5417 184.588 49.0784 184.588 48.6003C184.6 48.0408 184.6 47.4844 184.6 46.9158V14.6859C184.6 14.1218 184.6 13.5624 184.588 13.0045C184.588 12.5322 184.588 12.0585 184.581 11.5862C184.563 10.5528 184.467 9.52225 184.295 8.50309C184.128 7.48343 183.805 6.49516 183.34 5.57217C182.388 3.71961 180.878 2.21164 179.023 1.26033C178.095 0.794094 177.103 0.468651 176.079 0.294755C175.059 0.125053 174.028 0.0340773 172.994 0.0226379C172.524 0.015092 172.041 0.00600599 171.571 0.00307999C171.017 0 170.454 0 169.899 0L169.899 0.000154Z" fill="black"></path> <path d="M13.0274 60.2525C12.5573 60.2525 12.0987 60.2465 11.6324 60.2361C10.6664 60.2235 9.70261 60.1396 8.74901 59.985C7.85983 59.8321 6.99846 59.5477 6.19331 59.1411C5.39551 58.738 4.66786 58.2094 4.03823 57.5756C3.39943 56.9492 2.8676 56.2228 2.4638 55.425C2.0556 54.622 1.7731 53.7613 1.62614 52.8729C1.4675 51.9183 1.38168 50.953 1.36945 49.9854C1.35958 49.6606 1.34677 48.5794 1.34677 48.5794V13.0044C1.34677 13.0044 1.36035 11.9396 1.36945 11.6267C1.3812 10.6607 1.46655 9.69693 1.62476 8.74383C1.772 7.85297 2.05474 6.9898 2.46319 6.1842C2.86543 5.38694 3.39424 4.65991 4.02913 4.03129C4.66334 3.39669 5.39335 2.86535 6.19254 2.45664C6.99585 2.05146 7.85561 1.76911 8.74299 1.61904C9.69974 1.46291 10.6669 1.37854 11.6362 1.36663L13.0282 1.34753H171.564L172.972 1.36709C173.933 1.37848 174.891 1.46219 175.839 1.6175C176.736 1.76949 177.605 2.05387 178.417 2.46126C180.018 3.2849 181.321 4.588 182.143 6.1879C182.545 6.98797 182.823 7.84414 182.968 8.72735C183.128 9.68825 183.218 10.6595 183.236 11.6335C183.241 12.0696 183.241 12.5381 183.241 13.0044C183.253 13.5819 183.253 14.1315 183.253 14.6857V46.9157C183.253 47.4752 183.253 48.0211 183.241 48.5715C183.241 49.0723 183.241 49.5311 183.235 50.0032C183.217 50.9599 183.129 51.9139 182.971 52.8576C182.827 53.7525 182.546 54.6199 182.138 55.4294C181.731 56.2185 181.203 56.9387 180.571 57.5634C179.941 58.2006 179.212 58.7323 178.413 59.138C177.602 59.5477 176.735 59.8331 175.839 59.9847C174.886 60.1402 173.922 60.2242 172.956 60.2359C172.495 60.2467 172.033 60.2522 171.572 60.2524L169.899 60.2555L13.0274 60.2525Z" fill="#F9FAFB"></path> <path d="M65.2568 41.7952H57.9548L56.2013 46.964H53.1083L60.0248 27.8403H63.2381L70.1544 46.964H67.009L65.2568 41.7952ZM58.711 39.4099H64.4991L61.6458 31.0212H61.5659L58.711 39.4099ZM85.0912 39.9935C85.0912 44.3261 82.7682 47.1098 79.2627 47.1098C78.3746 47.1562 77.4915 46.952 76.7143 46.5206C75.9372 46.0892 75.2974 45.448 74.8683 44.6705H74.8019V51.5764H71.9349V33.0213H74.71V35.3404H74.7628C75.2116 34.5666 75.8622 33.9288 76.6453 33.4947C77.4284 33.0607 78.3147 32.8467 79.2099 32.8755C82.7546 32.8755 85.0912 35.6729 85.0912 39.9935ZM82.1445 39.9935C82.1445 37.1707 80.6833 35.3149 78.4537 35.3149C76.2631 35.3149 74.7899 37.2097 74.7899 39.9934C74.7899 42.8028 76.2631 44.6842 78.4537 44.6842C80.6833 44.6842 82.1445 42.842 82.1445 39.9935ZM100.464 39.9935C100.464 44.3261 98.1405 47.1098 94.6348 47.1098C93.7468 47.1562 92.8637 46.952 92.0865 46.5206C91.3093 46.0892 90.6696 45.448 90.2405 44.6705H90.1741V51.5764H87.3073V33.0213H90.0822V35.3404H90.1349C90.5838 34.5666 91.2343 33.9288 92.0174 33.4947C92.8005 33.0607 93.6869 32.8467 94.5821 32.8755C98.1269 32.8755 100.464 35.6729 100.464 39.9935ZM97.5168 39.9935C97.5168 37.1707 96.0555 35.3149 93.8259 35.3149C91.6353 35.3149 90.1621 37.2097 90.1621 39.9934C90.1621 42.8028 91.6353 44.6842 93.8259 44.6842C96.0555 44.6842 97.5168 42.842 97.5168 39.9935ZM110.623 41.6358C110.835 43.5321 112.68 44.7774 115.202 44.7774C117.619 44.7774 119.357 43.5321 119.357 41.8221C119.357 40.3377 118.309 39.449 115.826 38.8399L113.343 38.2429C109.826 37.3946 108.193 35.7524 108.193 33.0874C108.193 29.7878 111.073 27.5216 115.162 27.5216C119.211 27.5216 121.986 29.7878 122.079 33.0874H119.185C119.012 31.179 117.432 30.027 115.122 30.027C112.813 30.027 111.233 31.1926 111.233 32.8889C111.233 34.241 112.242 35.0366 114.711 35.6455L116.822 36.1629C120.752 37.0908 122.384 38.667 122.384 41.4641C122.384 45.0419 119.53 47.2828 114.99 47.2828C110.741 47.2828 107.873 45.0944 107.688 41.6356L110.623 41.6358ZM128.574 29.7219V33.0213H131.23V35.2878H128.574V42.9742C128.574 44.1683 129.106 44.7247 130.273 44.7247C130.589 44.7192 130.903 44.6971 131.216 44.6585V46.9115C130.691 47.0093 130.158 47.0536 129.624 47.0436C126.796 47.0436 125.693 45.9835 125.693 43.2794V35.2878H123.663V33.0213H125.693V29.7219H128.574ZM132.766 39.9935C132.766 35.6065 135.355 32.8499 139.391 32.8499C143.44 32.8499 146.016 35.6065 146.016 39.9935C146.016 44.3924 143.453 47.1369 139.39 47.1369C135.329 47.1369 132.766 44.3924 132.766 39.9935ZM143.095 39.9935C143.095 36.9842 141.714 35.208 139.39 35.208C137.068 35.208 135.686 36.9976 135.686 39.9935C135.686 43.0148 137.068 44.7774 139.39 44.7774C141.714 44.7774 143.095 43.0148 143.095 39.9935ZM148.38 33.0213H151.114V35.3945H151.18C151.365 34.6533 151.8 33.9983 152.412 33.5395C153.024 33.0808 153.775 32.8463 154.54 32.8755C154.87 32.8743 155.2 32.9101 155.522 32.9822V35.6592C155.105 35.532 154.67 35.4736 154.234 35.4863C153.817 35.4694 153.402 35.5427 153.017 35.7011C152.631 35.8596 152.285 36.0994 152.001 36.4042C151.717 36.7089 151.503 37.0714 151.373 37.4666C151.242 37.8619 151.199 38.2806 151.247 38.6941V46.964H148.38V33.0213ZM168.74 42.8688C168.354 45.4 165.885 47.1369 162.726 47.1369C158.663 47.1369 156.141 44.4195 156.141 40.0596C156.141 35.6863 158.677 32.8499 162.606 32.8499C166.47 32.8499 168.9 35.4998 168.9 39.7273V40.7078H159.035V40.8807C158.99 41.3938 159.054 41.9108 159.224 42.3972C159.394 42.8836 159.666 43.3283 160.021 43.7019C160.376 44.0754 160.807 44.3692 161.285 44.5637C161.763 44.7582 162.277 44.849 162.792 44.83C163.47 44.8934 164.15 44.7367 164.731 44.3834C165.312 44.03 165.763 43.4988 166.018 42.8688H168.74ZM159.049 38.7076H166.031C166.057 38.2462 165.987 37.7845 165.826 37.3515C165.664 36.9184 165.415 36.5233 165.093 36.191C164.771 35.8587 164.384 35.5964 163.956 35.4205C163.528 35.2446 163.068 35.1589 162.606 35.1689C162.139 35.1661 161.676 35.2556 161.244 35.4323C160.812 35.609 160.419 35.8694 160.089 36.1984C159.758 36.5274 159.496 36.9185 159.317 37.3492C159.139 37.7799 159.047 38.2416 159.049 38.7076ZM58.3525 13.4458C58.9536 13.4028 59.5567 13.4934 60.1184 13.7112C60.6801 13.929 61.1864 14.2686 61.6007 14.7054C62.0151 15.1422 62.3271 15.6653 62.5144 16.2371C62.7017 16.8089 62.7595 17.415 62.6837 18.0118C62.6837 20.9473 61.0943 22.6348 58.3525 22.6348H55.0277V13.4457L58.3525 13.4458ZM56.4574 21.3352H58.1929C58.6223 21.3608 59.0521 21.2905 59.4509 21.1294C59.8498 20.9683 60.2076 20.7204 60.4983 20.4039C60.7891 20.0873 61.0055 19.71 61.1318 19.2994C61.2581 18.8888 61.291 18.4553 61.2283 18.0304C61.2865 17.6072 61.2502 17.1763 61.122 16.7688C60.9938 16.3612 60.7768 15.987 60.4867 15.6729C60.1966 15.3589 59.8405 15.1127 59.444 14.9522C59.0474 14.7917 58.6201 14.7207 58.1929 14.7444H56.4574V21.3352ZM64.2987 19.1645C64.255 18.7087 64.3072 18.2489 64.452 17.8146C64.5967 17.3802 64.8308 16.9808 65.1393 16.642C65.4477 16.3032 65.8237 16.0325 66.243 15.8473C66.6624 15.6621 67.1159 15.5664 67.5745 15.5664C68.0331 15.5664 68.4866 15.6621 68.906 15.8473C69.3253 16.0325 69.7013 16.3032 70.0097 16.642C70.3182 16.9808 70.5523 17.3802 70.697 17.8146C70.8418 18.2489 70.894 18.7087 70.8503 19.1645C70.8949 19.6207 70.8434 20.0812 70.6991 20.5164C70.5548 20.9516 70.3209 21.3518 70.0123 21.6914C69.7038 22.0309 69.3275 22.3022 68.9077 22.4879C68.4878 22.6736 68.0337 22.7695 67.5745 22.7695C67.1153 22.7695 66.6612 22.6736 66.2413 22.4879C65.8215 22.3022 65.4452 22.0309 65.1366 21.6914C64.8281 21.3518 64.5942 20.9516 64.4499 20.5164C64.3055 20.0812 64.254 19.6207 64.2987 19.1645ZM69.4403 19.1645C69.4403 17.6613 68.7639 16.7822 67.5768 16.7822C66.3851 16.7822 65.7148 17.6613 65.7148 19.1645C65.7148 20.6797 66.3853 21.5519 67.5768 21.5519C68.7639 21.5519 69.4403 20.6737 69.4403 19.1645ZM79.5595 22.6347H78.1371L76.7016 17.5274H76.5931L75.1635 22.6347H73.7549L71.8402 15.7001H73.2306L74.4751 20.9915H74.5775L76.0057 15.7001H77.3208L78.749 20.9915H78.8574L80.0957 15.7001H81.4666L79.5595 22.6347ZM83.077 15.7002H84.3968V16.8018H84.4992C84.673 16.4061 84.9661 16.0744 85.3377 15.8529C85.7093 15.6315 86.1408 15.5312 86.5722 15.5663C86.9102 15.5409 87.2496 15.5918 87.5652 15.7151C87.8808 15.8385 88.1646 16.0311 88.3955 16.2788C88.6264 16.5265 88.7985 16.8229 88.8991 17.146C88.9997 17.4691 89.0262 17.8107 88.9766 18.1454V22.6345H87.6056V18.4892C87.6056 17.3748 87.1204 16.8206 86.1066 16.8206C85.8771 16.8099 85.6481 16.8489 85.4351 16.9349C85.2221 17.0209 85.0303 17.1518 84.8728 17.3187C84.7152 17.4856 84.5957 17.6846 84.5224 17.9019C84.4491 18.1192 84.4237 18.3498 84.448 18.5779V22.6347H83.077V15.7002ZM91.1609 12.9931H92.5317V22.6347H91.1609V12.9931ZM94.4375 19.1645C94.3938 18.7087 94.4461 18.2488 94.5908 17.8144C94.7356 17.3799 94.9698 16.9805 95.2782 16.6417C95.5867 16.3028 95.9627 16.0321 96.3822 15.8469C96.8016 15.6616 97.2552 15.5659 97.7138 15.5659C98.1725 15.5659 98.626 15.6616 99.0455 15.8469C99.4649 16.0321 99.8409 16.3028 100.149 16.6417C100.458 16.9805 100.692 17.3799 100.837 17.8144C100.982 18.2488 101.034 18.7087 100.99 19.1645C101.034 19.6206 100.983 20.081 100.838 20.5161C100.694 20.9511 100.46 21.3512 100.151 21.6906C99.8428 22.03 99.4665 22.3012 99.0467 22.4868C98.627 22.6724 98.1729 22.7683 97.7138 22.7683C97.2547 22.7683 96.8007 22.6724 96.3809 22.4868C95.9611 22.3012 95.5848 22.03 95.2763 21.6906C94.9677 21.3512 94.7337 20.9511 94.5893 20.5161C94.4448 20.081 94.3931 19.6206 94.4375 19.1645ZM99.5792 19.1645C99.5792 17.6613 98.9027 16.7822 97.7157 16.7822C96.524 16.7822 95.8537 17.6613 95.8537 19.1645C95.8537 20.6797 96.5241 21.5519 97.7157 21.5519C98.9027 21.5519 99.5792 20.6737 99.5792 19.1645ZM102.433 20.6737C102.433 19.4253 103.364 18.7057 105.017 18.6034L106.898 18.4952V17.8966C106.898 17.1642 106.413 16.7507 105.476 16.7507C104.711 16.7507 104.181 17.0311 104.029 17.5214H102.701C102.841 16.3302 103.964 15.5664 105.54 15.5664C107.281 15.5664 108.263 16.4319 108.263 17.8966V22.6347H106.944V21.6602H106.835C106.615 22.0097 106.306 22.2947 105.939 22.486C105.573 22.6773 105.162 22.768 104.749 22.749C104.457 22.7792 104.162 22.7482 103.884 22.6578C103.605 22.5674 103.348 22.4197 103.13 22.2241C102.912 22.0286 102.737 21.7896 102.617 21.5226C102.497 21.2555 102.434 20.9663 102.433 20.6737ZM106.898 20.0811V19.5013L105.202 19.6095C104.246 19.6734 103.812 19.9984 103.812 20.6096C103.812 21.2337 104.354 21.597 105.1 21.597C105.318 21.6191 105.539 21.5971 105.749 21.5323C105.959 21.4675 106.153 21.3612 106.321 21.2197C106.489 21.0783 106.626 20.9046 106.726 20.709C106.825 20.5134 106.884 20.2998 106.898 20.0811ZM110.065 19.1645C110.065 16.9732 111.193 15.5852 112.949 15.5852C113.383 15.5652 113.814 15.669 114.191 15.8844C114.568 16.0999 114.876 16.4181 115.079 16.8018H115.181V12.9929H116.552V22.6345H115.238V21.5388H115.13C114.912 21.92 114.593 22.2342 114.208 22.4475C113.824 22.6607 113.388 22.765 112.949 22.7488C111.181 22.7488 110.065 21.3608 110.065 19.1645ZM111.481 19.1645C111.481 20.6352 112.176 21.5203 113.337 21.5203C114.493 21.5203 115.207 20.6225 115.207 19.1703C115.207 17.7252 114.485 16.8146 113.337 16.8146C112.183 16.8146 111.481 17.7056 111.481 19.1645ZM122.224 19.1645C122.18 18.7087 122.233 18.2489 122.377 17.8146C122.522 17.3802 122.756 16.9808 123.065 16.642C123.373 16.3032 123.749 16.0325 124.168 15.8473C124.588 15.6621 125.041 15.5664 125.5 15.5664C125.958 15.5664 126.412 15.6621 126.831 15.8473C127.251 16.0325 127.627 16.3032 127.935 16.642C128.243 16.9808 128.478 17.3802 128.622 17.8146C128.767 18.2489 128.819 18.7087 128.776 19.1645C128.82 19.6207 128.769 20.0812 128.624 20.5164C128.48 20.9516 128.246 21.3518 127.938 21.6914C127.629 22.0309 127.253 22.3022 126.833 22.4879C126.413 22.6736 125.959 22.7695 125.5 22.7695C125.041 22.7695 124.586 22.6736 124.167 22.4879C123.747 22.3022 123.371 22.0309 123.062 21.6914C122.753 21.3518 122.52 20.9516 122.375 20.5164C122.231 20.0812 122.179 19.6207 122.224 19.1645ZM127.366 19.1645C127.366 17.6613 126.689 16.7822 125.502 16.7822C124.31 16.7822 123.64 17.6613 123.64 19.1645C123.64 20.6797 124.311 21.5519 125.502 21.5519C126.689 21.5519 127.366 20.6737 127.366 19.1645ZM130.615 15.7002H131.935V16.8018H132.037C132.211 16.4061 132.504 16.0744 132.876 15.8529C133.247 15.6315 133.679 15.5312 134.11 15.5663C134.448 15.5409 134.788 15.5918 135.103 15.7151C135.419 15.8385 135.703 16.0311 135.934 16.2788C136.164 16.5265 136.337 16.8229 136.437 17.146C136.538 17.4691 136.564 17.8107 136.515 18.1454V22.6345H135.144V18.4892C135.144 17.3748 134.659 16.8206 133.645 16.8206C133.415 16.8099 133.186 16.8489 132.973 16.9349C132.76 17.0209 132.568 17.1518 132.411 17.3187C132.253 17.4856 132.134 17.6846 132.06 17.9019C131.987 18.1192 131.962 18.3498 131.986 18.5779V22.6347H130.615L130.615 15.7002ZM144.261 13.9737V15.7318H145.766V16.8845H144.261V20.4502C144.261 21.1766 144.561 21.4948 145.243 21.4948C145.418 21.4942 145.592 21.4836 145.766 21.4631V22.6031C145.52 22.6471 145.27 22.6705 145.02 22.673C143.496 22.673 142.889 22.1376 142.889 20.8007V16.8845H141.786V15.7316H142.889V13.9739L144.261 13.9737ZM147.639 12.9931H148.997V16.8146H149.106C149.288 16.4152 149.589 16.0816 149.968 15.8593C150.347 15.637 150.786 15.5368 151.224 15.5723C151.56 15.554 151.896 15.61 152.208 15.7364C152.52 15.8627 152.801 16.0563 153.029 16.3032C153.258 16.5502 153.429 16.8444 153.53 17.1649C153.632 17.4855 153.661 17.8244 153.616 18.1576V22.6347H152.244V18.4952C152.244 17.3875 151.727 16.8266 150.759 16.8266C150.523 16.8073 150.286 16.8397 150.064 16.9214C149.842 17.0031 149.641 17.1322 149.475 17.2996C149.308 17.4671 149.18 17.6688 149.1 17.8908C149.019 18.1128 148.989 18.3496 149.009 18.5846V22.6347H147.639V12.9931ZM161.61 20.7622C161.424 21.396 161.02 21.9442 160.47 22.311C159.92 22.6778 159.258 22.8397 158.6 22.7685C158.142 22.7806 157.687 22.6931 157.267 22.5121C156.847 22.3311 156.471 22.061 156.165 21.7204C155.86 21.3799 155.633 20.9771 155.499 20.54C155.365 20.1029 155.328 19.642 155.391 19.1892C155.33 18.7351 155.367 18.2732 155.501 17.8348C155.634 17.3964 155.86 16.9917 156.164 16.6481C156.468 16.3046 156.842 16.0302 157.261 15.8435C157.68 15.6569 158.135 15.5623 158.594 15.5663C160.527 15.5663 161.693 16.8845 161.693 19.062V19.5396H156.787V19.6163C156.766 19.8708 156.798 20.1269 156.882 20.3683C156.965 20.6097 157.098 20.831 157.272 21.018C157.446 21.2051 157.658 21.3537 157.893 21.4544C158.128 21.5552 158.382 21.6057 158.637 21.6029C158.965 21.6422 159.298 21.5833 159.592 21.4336C159.886 21.2839 160.129 21.0502 160.29 20.7622H161.61ZM156.787 18.5275H160.296C160.313 18.2948 160.282 18.061 160.203 17.8412C160.124 17.6214 160.001 17.4205 159.84 17.2513C159.679 17.0822 159.484 16.9485 159.268 16.8589C159.052 16.7693 158.82 16.7258 158.586 16.7311C158.349 16.7281 158.114 16.7726 157.894 16.8618C157.675 16.951 157.475 17.0833 157.307 17.2507C157.14 17.4181 157.007 17.6173 156.918 17.8366C156.829 18.0559 156.784 18.2908 156.787 18.5275Z" fill="#192024"></path> <path fill-rule="evenodd" clip-rule="evenodd" d="M40.8782 24.4949C39.1868 22.3907 36.8135 21.1733 34.5744 21.1733C31.6109 21.1733 30.3588 22.5782 28.3028 22.5782C26.1838 22.5782 24.5728 21.1757 22.0096 21.1757C19.4923 21.1757 16.8154 22.7018 15.1183 25.3102C12.7304 28.9798 13.135 35.8831 17.0069 41.7659C18.3917 43.8689 20.2413 46.2345 22.6594 46.2562C24.8084 46.2759 25.4171 44.8872 28.3333 44.8711C31.2494 44.8551 31.8008 46.2712 33.9504 46.2516C36.3679 46.2283 38.3192 43.6098 39.7035 41.5056C40.696 39.9993 41.0648 39.2383 41.8357 37.5331C36.2377 35.4219 35.3374 27.5253 40.8782 24.4949ZM32.3265 18.8226C33.4027 17.4434 34.2206 15.4963 33.9236 13.5056C32.165 13.627 30.1081 14.7438 28.9072 16.1993C27.8174 17.5209 26.9173 19.4805 27.2676 21.3858C29.187 21.445 31.1738 20.3003 32.3265 18.8226Z" fill="#192024"></path> </svg>