<?xml version="1.0" encoding="utf-8"?>
<!-- Generator: Adobe Illustrator 28.3.0, SVG Export Plug-In . SVG Version: 6.00 Build 0)  -->
<svg version="1.1" id="레이어_1" xmlns="http://www.w3.org/2000/svg" xmlns:xlink="http://www.w3.org/1999/xlink" x="0px"
	 y="0px" width="1343px" height="552px" viewBox="0 0 1343 552" style="enable-background:new 0 0 1343 552;" xml:space="preserve">
<style type="text/css">
	
		.st0{clip-path:url(#SVGID_00000181078557834914794530000013773078253062848946_);fill:#FFFFFF;stroke:#2E4162;stroke-width:7;stroke-miterlimit:10;}
	.st1{fill:#004365;}
	.st2{clip-path:url(#SVGID_00000129196597641041777360000016701531833854424486_);}
	.st3{fill:#FFFFFF;}
	.st4{fill:#00A2DE;}
	.st5{fill:#2B4160;}
	.st6{fill:#2B618B;}
	.st7{fill:#F0F3F5;}
	.st8{fill:#4088C0;}
	.st9{fill:#EFBB4D;}
	.st10{fill:#3371A7;}
	.st11{fill:none;stroke:#EBEBCB;stroke-width:0.7495;stroke-linecap:round;stroke-linejoin:round;stroke-miterlimit:10;}
	.st12{fill:#EBEBCB;}
	.st13{fill:#3D74A7;}
	.st14{fill:#4A86B7;}
	.st15{fill:#A8A7A7;}
</style>
<g>
	<g>
		<defs>
			<rect id="SVGID_1_" x="-101" y="29.3" width="1434" height="492.7"/>
		</defs>
		<clipPath id="SVGID_00000031197961106075158090000016490427317028882876_">
			<use xlink:href="#SVGID_1_"  style="overflow:visible;"/>
		</clipPath>
		
			<path style="clip-path:url(#SVGID_00000031197961106075158090000016490427317028882876_);fill:#FFFFFF;stroke:#2E4162;stroke-width:7;stroke-miterlimit:10;" d="
			M1245.1,519.4H81.8c-30.9,0-56.1-31.4-56.1-70.2l0,0c0-38.7,25.1-70.2,56.1-70.2h1163.3c30.9,0,56.1,31.4,56.1,70.2l0,0
			C1301.1,488.1,1276,519.4,1245.1,519.4z"/>
	</g>
</g>
<g>
	<path class="st1" d="M328.6,500.1c-3.6-0.1-6.6-0.7-9.1-1.9c-2.5-1.2-4.5-2.7-6.1-4.6c-1.5-1.9-2.6-4-3.3-6.4c-0.7-2.4-1-4.9-1-7.6
		s0.3-5.2,0.9-7.7c0.6-2.4,1.7-4.6,3.1-6.5s3.5-3.4,6.1-4.5s5.8-1.7,9.7-1.8h48.9c3.9,0,7.1,0.6,9.7,1.7s4.6,2.6,6.1,4.5
		s2.5,4,3.1,6.5s0.9,5,0.9,7.7s-0.3,5.2-1,7.6s-1.8,4.5-3.4,6.4s-3.6,3.4-6.1,4.6s-5.5,1.8-9.1,1.9L328.6,500.1L328.6,500.1z
		 M327.1,414.9h13.2v-3.1c0-3.8,0.9-6.4,2.8-7.8s4-2.1,6.5-2.1c1.2,0,2.3,0.2,3.4,0.5c1,0.3,1.9,0.8,2.7,1.6
		c0.8,0.8,1.4,1.8,1.9,3.1c0.5,1.3,0.7,2.9,0.7,4.8v32.3c0,1.1-0.1,2.2-0.2,3.1c-0.2,1-0.6,1.8-1.2,2.5s-1.6,1.3-2.8,1.7
		c-1.2,0.4-2.9,0.6-5,0.6h-30.6c-2.1,0-3.8-0.2-5-0.6s-2.2-1-2.8-1.7c-0.6-0.7-1-1.6-1.2-2.5c-0.2-1-0.2-2-0.2-3.1v-32.3
		c0-3.8,0.8-6.4,2.5-7.8s3.7-2.1,6.2-2.1c1.2,0,2.4,0.2,3.5,0.5s2.1,0.8,2.9,1.6c0.8,0.8,1.5,1.8,2.1,3.1c0.5,1.3,0.8,2.9,0.8,4.8
		v2.9H327.1z M340.4,429.6h-13.2v8h13.2V429.6z M372.8,484.6c2.2-0.2,3.8-0.5,4.8-1s1.5-1.8,1.5-3.9s-0.5-3.5-1.5-4s-2.6-0.9-4.8-1
		h-39.1c-2.2,0.2-3.8,0.5-4.8,1s-1.5,1.9-1.5,4s0.5,3.3,1.5,3.9c1,0.5,2.6,0.9,4.8,1H372.8z M374.7,410.7c0-3.8,0.9-6.4,2.8-7.8
		s4-2.1,6.5-2.1c1.2,0,2.4,0.2,3.5,0.5s2.1,0.8,2.9,1.6c0.8,0.8,1.5,1.8,2.1,3.1c0.5,1.3,0.8,2.9,0.8,4.8v8.5h8.3
		c2.1,0,3.9,0.2,5.3,0.7s2.4,1,3.2,1.8c0.8,0.7,1.3,1.6,1.5,2.5c0.3,1,0.4,1.9,0.4,2.8c0,1.1-0.1,2.2-0.4,3.1
		c-0.3,1-0.8,1.8-1.5,2.5c-0.8,0.7-1.8,1.3-3.2,1.7c-1.4,0.4-3.1,0.6-5.3,0.6h-8.3v10.4c0,2-0.3,3.6-0.8,4.9s-1.2,2.3-2.1,3.1
		c-0.8,0.8-1.8,1.3-2.9,1.6c-1.1,0.3-2.3,0.5-3.5,0.5s-2.4-0.2-3.5-0.5s-2.1-0.8-3-1.6c-0.9-0.8-1.6-1.8-2.1-3.1
		c-0.5-1.3-0.7-2.9-0.7-4.9L374.7,410.7L374.7,410.7z"/>
	<path class="st1" d="M424.2,462.6c-1.9,0-3.4-0.2-4.6-0.5c-1.1-0.3-2-0.8-2.6-1.4s-1-1.3-1.2-2.2c-0.2-0.8-0.3-1.8-0.3-2.9
		c0-0.8,0.1-1.7,0.3-2.5c0.2-0.8,0.6-1.5,1.2-2.2c0.6-0.6,1.5-1.2,2.6-1.6s2.7-0.6,4.6-0.6h22.4v-4.2c0-1.6,0.3-2.9,0.8-3.9
		s1.2-1.8,2.1-2.4s1.9-1,3-1.2s2.3-0.3,3.5-0.3s2.4,0.1,3.5,0.3c1.1,0.2,2.1,0.6,3,1.2s1.6,1.4,2.1,2.4s0.8,2.3,0.8,3.9v4.2h41.9
		c1.9,0,3.4,0.2,4.6,0.6c1.1,0.4,2,1,2.6,1.6s1,1.4,1.2,2.2c0.2,0.8,0.3,1.6,0.3,2.5c0,1.1-0.1,2-0.3,2.9c-0.2,0.8-0.6,1.6-1.2,2.2
		c-0.6,0.6-1.5,1.1-2.6,1.4s-2.7,0.5-4.6,0.5H424.2z M497.7,401.9c2.1,0,3.7,0.2,4.8,0.7c1.1,0.5,2,1.2,2.6,2s1,1.8,1.1,3
		c0.2,1.1,0.2,2.4,0.2,3.8v12.8c0,2.8-0.2,5.7-0.6,8.6s-1,5.5-1.9,7.8c-0.5,1.2-1.1,2.2-2.1,2.8c-0.9,0.6-1.9,1.1-3,1.3
		c-1.1,0.2-2.2,0.3-3.3,0.3c-1.1,0-2.1-0.1-3-0.3c-2-0.4-3.6-1.2-4.9-2.3c-1.3-1.2-1.7-2.9-1.3-5.3l0.3-2.3h-55.4
		c-3.7,0-6.2-0.6-7.5-1.7s-1.9-2.8-1.9-5c0-1.9,0.6-3.4,1.9-4.6s3.7-1.8,7.5-1.8h56.1v-6.3h-54.9c-3.7,0-6.2-0.6-7.5-1.8
		c-1.3-1.2-1.9-2.9-1.9-5.1c0-1.9,0.6-3.5,1.9-4.7c1.3-1.3,3.7-1.9,7.5-1.9H497.7z M489.4,483h-56.1c-2.1,0-3.9-0.2-5.3-0.5
		s-2.4-0.8-3.2-1.5c-0.8-0.6-1.3-1.4-1.5-2.2c-0.3-0.8-0.4-1.7-0.4-2.6c0-1.1,0.1-2.2,0.4-3c0.3-0.9,0.8-1.6,1.5-2.2
		c0.8-0.6,1.8-1.1,3.2-1.4c1.4-0.3,3.1-0.5,5.3-0.5h65.3c2.1,0,3.8,0.3,5,0.8s2.2,1.2,2.8,2.1c0.6,0.9,1,1.8,1.2,2.9
		s0.2,2.2,0.2,3.3v11.9c0,1.9-0.3,3.5-0.8,4.8s-1.2,2.3-2.1,3.1c-0.8,0.8-1.8,1.3-2.9,1.6c-1.1,0.3-2.3,0.5-3.5,0.5
		c-2.4,0-4.6-0.7-6.5-2.1s-2.8-4-2.8-7.8V483H489.4z"/>
	<path class="st1" d="M568.5,454.6c0-3,0.6-5.6,1.7-7.8c1.1-2.1,2.8-3.9,5-5.2c2.2-1.3,4.8-2.3,7.8-2.9s6.4-0.9,10.2-0.9h30.4
		c3.7,0,7.1,0.3,10.2,0.9c3,0.6,5.7,1.6,7.8,2.9c2.2,1.3,3.8,3.1,5,5.2c1.1,2.1,1.7,4.7,1.7,7.8v3.4c0,4.8-2,8.6-6,11.5
		s-10,4.3-18.1,4.4h-6.4v7.8h30.4c2.1,0,3.9,0.2,5.3,0.6c1.4,0.4,2.4,1,3.2,1.7s1.3,1.6,1.5,2.5c0.3,1,0.4,2,0.4,3.1
		c0,0.9-0.1,1.8-0.4,2.8c-0.3,1-0.8,1.8-1.5,2.5c-0.8,0.7-1.8,1.3-3.2,1.8s-3.1,0.7-5.3,0.7h-79.4c-2.1,0-3.9-0.2-5.3-0.7
		s-2.4-1-3.2-1.8c-0.8-0.7-1.3-1.6-1.5-2.5c-0.3-1-0.4-1.9-0.4-2.8c0-1.1,0.1-2.2,0.4-3.1c0.3-1,0.8-1.8,1.5-2.5
		c0.8-0.7,1.8-1.3,3.2-1.7c1.4-0.4,3.1-0.6,5.3-0.6h30.5v-7.8h-6.5c-8.1-0.1-14.1-1.5-18.2-4.2c-4-2.7-6.1-6.6-6.1-11.6L568.5,454.6
		L568.5,454.6z M563.9,425.7c0-1.1,0.1-2.2,0.4-3.1c0.3-0.9,0.8-1.7,1.5-2.3c0.8-0.6,1.8-1.1,3.2-1.5s3.1-0.5,5.3-0.5h68.1
		c2.1,0,3.9,0.2,5.3,0.5s2.4,0.8,3.2,1.5c0.8,0.6,1.3,1.4,1.5,2.3c0.3,0.9,0.4,1.9,0.4,3.1c0,0.9-0.1,1.8-0.4,2.7
		c-0.3,0.9-0.8,1.7-1.5,2.3c-0.8,0.7-1.8,1.2-3.2,1.6s-3.1,0.6-5.3,0.6h-68.1c-2.1,0-3.9-0.2-5.3-0.6c-1.4-0.4-2.4-0.9-3.2-1.6
		s-1.3-1.5-1.5-2.3C564,427.5,563.9,426.6,563.9,425.7z M578.5,407.1c0-1.8,0.4-3.4,1.2-4.7c0.8-1.3,2.5-1.9,5.2-1.9h44.5
		c2.7,0,4.4,0.6,5.2,1.9s1.2,2.9,1.2,4.7c0,0.8-0.1,1.5-0.3,2.3s-0.5,1.4-1,2.1c-0.5,0.6-1.1,1.1-1.9,1.5c-0.8,0.4-1.9,0.6-3.2,0.6
		h-44.5c-1.3,0-2.4-0.2-3.2-0.6s-1.5-0.9-1.9-1.5c-0.5-0.6-0.8-1.3-1-2.1C578.6,408.6,578.5,407.8,578.5,407.1z M587.1,456.3
		c0,1.8,0.8,2.9,2.3,3.5c1.6,0.6,4,0.9,7.3,1h23.5c3.3-0.1,5.7-0.4,7.3-1s2.3-1.7,2.3-3.5v-0.6c0-1.8-0.8-3-2.3-3.6
		c-1.6-0.6-4.1-0.9-7.6-0.9H597c-3.5,0-6,0.3-7.6,0.9s-2.3,1.8-2.3,3.6L587.1,456.3L587.1,456.3z"/>
	<path class="st1" d="M699.7,401.8c2.1,0,3.9,0.2,5.3,0.5s2.4,0.8,3.2,1.4s1.3,1.4,1.5,2.2c0.3,0.9,0.4,1.9,0.4,3
		c0,1.9-0.6,3.4-1.9,4.5c-1.3,1.1-3.6,1.6-7,1.6h-16v4.5h8.9c4.3,0,7.1,0.5,8.4,1.4c1.3,1,2,2.5,2,4.7c0,0.9-0.1,1.7-0.4,2.5
		c-0.3,0.7-0.8,1.3-1.5,1.8c-0.8,0.5-1.8,0.9-3.2,1.1s-3.1,0.3-5.3,0.3h-8.9v4.6h16.9c2.1,0,3.9,0.2,5.3,0.5
		c1.4,0.3,2.4,0.7,3.2,1.3c0.8,0.5,1.3,1.2,1.5,2c0.3,0.8,0.4,1.7,0.4,2.6c0,1.1-0.1,2.1-0.4,3c-0.3,0.8-0.8,1.6-1.5,2.2
		c-0.8,0.6-1.8,1.1-3.2,1.4s-3.1,0.5-5.3,0.5h-24.8c-2.1,0-3.8-0.2-5-0.6s-2.2-0.9-2.8-1.5s-1-1.4-1.2-2.3s-0.2-1.9-0.2-3.1v-32.1
		c0-1.1,0.1-2.2,0.2-3.1c0.2-1,0.6-1.8,1.2-2.5c0.6-0.7,1.6-1.2,2.8-1.6s2.9-0.6,5-0.6h22.4V401.8z M691.1,482.4v4.6h63.3
		c1.8,0,3.3,0.2,4.5,0.5s2.1,0.8,2.7,1.4c0.6,0.6,1.1,1.3,1.3,2.1c0.2,0.8,0.3,1.7,0.3,2.6c0,1.1-0.1,2.1-0.3,2.9s-0.7,1.4-1.3,1.9
		s-1.6,0.9-2.7,1.1c-1.2,0.2-2.7,0.3-4.5,0.3h-72.9c-2.1,0-3.8-0.2-5-0.6s-2.1-0.9-2.7-1.5c-0.6-0.6-0.9-1.4-1-2.3s-0.2-1.9-0.2-3.1
		v-15.2c0-0.8,0.1-1.5,0.3-2.3s0.6-1.4,1.2-2.1c0.6-0.6,1.5-1.1,2.6-1.4s2.7-0.5,4.6-0.5h61.3V467h-61.7c-1.9,0-3.4-0.2-4.6-0.5
		c-1.1-0.3-2-0.7-2.6-1.3c-0.6-0.5-1-1.2-1.2-1.9c-0.2-0.8-0.3-1.6-0.3-2.6c0-0.8,0.1-1.5,0.3-2.3s0.6-1.5,1.2-2.2
		c0.6-0.6,1.5-1.2,2.6-1.5c1.1-0.4,2.7-0.6,4.6-0.6h71.5c1.8,0,3.3,0.2,4.5,0.6c1.1,0.4,2,0.9,2.7,1.5c0.6,0.6,1.1,1.3,1.3,2.1
		s0.3,1.6,0.3,2.3v15.5c0,0.9-0.1,1.8-0.3,2.5c-0.2,0.8-0.6,1.4-1.1,1.9c-0.6,0.5-1.4,1-2.5,1.3s-2.6,0.5-4.4,0.5h-61.8V482.4z
		 M722.5,433.8h-5.3c-2.1,0-3.8-0.2-5.1-0.6s-2.2-1-2.9-1.8s-1.1-1.6-1.3-2.6s-0.3-2-0.3-3.1c0-0.9,0.1-1.8,0.3-2.8s0.6-1.8,1.3-2.6
		c0.7-0.8,1.7-1.4,2.9-1.8s3-0.7,5.1-0.7h5.3v-7.1c0-3.8,0.7-6.4,2.2-7.8c1.4-1.4,3.4-2.1,5.8-2.1c2.4,0,4.3,0.7,5.8,2.1
		s2.2,4,2.2,7.8v30c0,4-0.7,6.6-2.1,8c-1.4,1.4-3.3,2.1-5.8,2.1c-2.4,0-4.4-0.7-5.9-2.1s-2.2-4-2.2-8V433.8z M745.3,410.7
		c0-3.8,0.7-6.4,2.2-7.8c1.4-1.4,3.4-2.1,5.8-2.1c2.4,0,4.3,0.7,5.8,2.1s2.2,4,2.2,7.8v30.2c0,4-0.7,6.6-2.1,8
		c-1.4,1.4-3.3,2.1-5.8,2.1c-2.4,0-4.4-0.7-5.9-2.1s-2.2-4-2.2-8V410.7z"/>
	<path class="st1" d="M818.2,466c-1.9,0-3.4-0.2-4.6-0.5c-1.1-0.3-2-0.7-2.6-1.3c-0.6-0.6-1-1.3-1.2-2.1c-0.2-0.8-0.3-1.7-0.3-2.8
		c0-0.8,0.1-1.7,0.3-2.5s0.6-1.5,1.2-2.2c0.6-0.6,1.5-1.2,2.6-1.5c1.1-0.4,2.7-0.6,4.6-0.6h83c1.9,0,3.4,0.2,4.6,0.6
		c1.1,0.4,2,0.9,2.6,1.5s1,1.4,1.2,2.2c0.2,0.8,0.3,1.6,0.3,2.5c0,1.1-0.1,2-0.3,2.8s-0.6,1.5-1.2,2.1c-0.6,0.6-1.5,1-2.6,1.3
		s-2.7,0.5-4.6,0.5H818.2z M883.4,485.3h-56.1c-2.1,0-3.9-0.2-5.3-0.6c-1.4-0.4-2.4-0.9-3.2-1.5s-1.3-1.4-1.5-2.2
		c-0.3-0.9-0.4-1.8-0.4-2.7c0-1.1,0.1-2.2,0.4-3c0.3-0.9,0.8-1.6,1.5-2.2c0.8-0.6,1.8-1.1,3.2-1.4s3.1-0.5,5.3-0.5h65.3
		c2.1,0,3.8,0.2,5,0.5s2.2,0.8,2.8,1.4s1,1.4,1.2,2.2c0.2,0.9,0.2,1.9,0.2,3v11.8c0,1.9-0.3,3.5-0.8,4.8s-1.2,2.3-2.1,3.1
		c-0.8,0.8-1.8,1.3-2.9,1.6c-1.1,0.3-2.3,0.5-3.5,0.5c-2.4,0-4.6-0.7-6.5-2.1s-2.8-4-2.8-7.8v-4.9H883.4z M893,402.3
		c1.9,0,3.4,0.1,4.6,0.4c1.1,0.3,2,0.7,2.6,1.2s1,1.2,1.2,1.9c0.2,0.8,0.3,1.6,0.3,2.6c0,0.8-0.1,1.6-0.3,2.3
		c-0.2,0.7-0.6,1.3-1.2,1.8c-0.6,0.5-1.5,1-2.6,1.3s-2.7,0.5-4.6,0.5h-57v4.7h55.9c1.9,0,3.4,0.1,4.6,0.3c1.1,0.2,2,0.6,2.6,1.1
		s1,1.1,1.2,1.8c0.2,0.7,0.3,1.6,0.3,2.6c0,0.8-0.1,1.6-0.3,2.2s-0.6,1.2-1.2,1.7c-0.6,0.5-1.5,0.9-2.6,1.1
		c-1.1,0.3-2.7,0.4-4.6,0.4H836v4.8h57c1.9,0,3.4,0.2,4.6,0.5c1.1,0.3,2,0.7,2.6,1.3c0.6,0.5,1,1.2,1.2,1.9c0.2,0.7,0.3,1.5,0.3,2.2
		c0,1-0.1,1.9-0.3,2.6c-0.2,0.8-0.6,1.4-1.2,1.9c-0.6,0.5-1.5,0.9-2.6,1.2c-1.1,0.3-2.7,0.4-4.6,0.4h-66.2c-2.1,0-3.8-0.2-5-0.6
		s-2.2-1-2.8-1.7s-1-1.5-1.2-2.5s-0.2-2-0.2-3.1v-29c0-1.1,0.1-2.2,0.2-3.1c0.2-1,0.6-1.8,1.2-2.5c0.6-0.7,1.6-1.2,2.8-1.7
		c1.2-0.4,2.9-0.6,5-0.6H893V402.3z"/>
	<path class="st1" d="M956.4,402.1c2.1,0,3.7,0.2,4.8,0.6s2,1,2.6,1.7s1,1.6,1.1,2.7c0.2,1.1,0.2,2.3,0.2,3.7v44.5
		c0,2-0.2,4.7-0.6,8.1c-0.4,3.4-1.1,7-2.2,10.7c-1,3.7-2.4,7.4-4.1,11s-3.8,6.5-6.3,8.8c-1.1,1-2.2,1.8-3.5,2.5
		c-1.3,0.6-2.6,1-3.9,1.1c-1.3,0.1-2.6-0.1-3.9-0.5c-1.3-0.5-2.5-1.3-3.6-2.5c-1.4-1.5-2.2-3.4-2.3-5.7c-0.1-2.3,0.6-4.4,2.2-6.3
		c2.1-2.6,3.8-5.1,5-7.4c1.2-2.4,2.1-4.8,2.7-7.2c0.6-2.4,1-5,1.2-7.6s0.3-5.5,0.3-8.7v-33.7h-19.2c-2.1,0-3.9-0.2-5.3-0.6
		c-1.4-0.4-2.4-1-3.2-1.7s-1.3-1.6-1.5-2.5c-0.3-1-0.4-2-0.4-3.1c0-0.9,0.1-1.8,0.3-2.8s0.7-1.8,1.4-2.5s1.7-1.3,3-1.8
		s3-0.7,5.1-0.7h30.1V402.1z M985.1,410.7c0-3.8,0.9-6.4,2.8-7.8c1.9-1.4,4-2.1,6.5-2.1c1.2,0,2.4,0.2,3.5,0.5s2.1,0.8,2.9,1.6
		c0.8,0.8,1.5,1.8,2.1,3.1c0.5,1.3,0.8,2.9,0.8,4.8v27.4h9c2.1,0,3.9,0.2,5.3,0.7c1.4,0.5,2.4,1.1,3.2,1.9s1.3,1.6,1.5,2.6
		c0.3,1,0.4,1.9,0.4,2.8c0,1.1-0.1,2.2-0.4,3.2c-0.3,1-0.8,1.8-1.5,2.6c-0.8,0.7-1.8,1.3-3.2,1.8s-3.1,0.7-5.3,0.7h-9v34.4
		c0,2-0.3,3.6-0.8,4.9s-1.2,2.3-2.1,3.1c-0.8,0.8-1.8,1.3-2.9,1.6c-1.1,0.3-2.3,0.5-3.5,0.5s-2.4-0.2-3.5-0.5s-2.1-0.8-3-1.6
		c-0.9-0.8-1.6-1.8-2.1-3.1c-0.5-1.3-0.7-2.9-0.7-4.9V410.7z"/>
</g>
<g>
	<defs>
		<rect id="SVGID_00000147216013199997708030000006318348083124374965_" x="222" y="-18" width="914" height="395"/>
	</defs>
	<clipPath id="SVGID_00000179603795612660482060000014302275211615069622_">
		<use xlink:href="#SVGID_00000147216013199997708030000006318348083124374965_"  style="overflow:visible;"/>
	</clipPath>
	<g style="clip-path:url(#SVGID_00000179603795612660482060000014302275211615069622_);">
		<g>
			<circle class="st3" cx="618.2" cy="89.3" r="33.8"/>
		</g>
		<g>
			<circle class="st4" cx="618.2" cy="89.3" r="23.1"/>
		</g>
		<g>
			<path class="st3" d="M947.4,378.1c-2.6-16.7-11.8-32.9-21.5-46.6c-18.3-25.9-44.6-45.8-73.9-57.6c-11.1-4.5-22.4-8.7-34.1-11.3
				c-0.7-26.3-2.3-55.6-4.2-86.7l0.1,0l-0.3-3.3c0-0.3,0-0.6-0.1-1l0,0l-1.6-19.4c-0.9-6.6-1.6-13.1-3.4-19.6
				c-3.9-14.1-10.7-27.7-22.3-37c-5.7-4.6-10.4-6.9-19.2-10.3c-15.8-5.4-39.8-9-62.8-10.7c-23-1-47.3-0.3-63.6,3.2
				c-9.2,2.3-14.1,4.1-20.3,7.9c-12.6,7.9-21,20.5-26.5,34.1c-2.5,6.2-4.5,12.9-6.4,19.2l-5.6,20.1l0,0c-6.5,23.9-12.3,51-17.8,79.8
				l-0.2-0.8c-16.2-0.3-51.8-14.6-59.4-24.1l-73,56.6c0,0,31.3,52.5,106.4,75.4c-4.4,47.8,2.5,99.8,43.2,128.9
				c-11.8,12.3-12.4,36.9,13.4,70.2c29.2,37.6,73.2,42.5,88.6,22.7c15.5-19.8,27.6-41.3,49.5-51.5c17.3-8,35.6-18.4,51.5-31.4l0.1,0
				c0.1-0.1,0.3-0.3,0.4-0.4c15.5-12.7,28.7-27.7,36.5-45.4c8.2-18.7,8.4-38,7.3-57.6c0.2-5.2,0.1-10.4-0.1-15.6l35.4,32l12.5,3.8
				l6.9,15.6c0,0,3.6,8.9,16.7,16c14.1,6.4,34.1-1,42.1-16.1C947,406.7,949.8,393,947.4,378.1z"/>
		</g>
		<g>
			<path class="st5" d="M910.7,439.1c-4.4,0-8.8-0.9-12.7-2.7c-0.1,0-0.1-0.1-0.2-0.1c-14-7.6-18.1-17.3-18.2-17.7
				c-0.7-1.7,0.1-3.7,1.9-4.4c1.7-0.7,3.7,0.1,4.4,1.9c0.1,0.2,3.5,7.9,15.1,14.3c12.7,5.7,30.5-1.3,37.5-14.6
				c5.7-10.8,7.7-24,5.6-37.1c-2.1-13.5-8.9-28.2-20.9-45.2c-17.3-24.5-43-44.5-72.4-56.4c-11.9-4.8-23.9-8.3-32.7-10.9l-1.1-0.3
				c-1.8-0.5-2.8-2.4-2.3-4.2c0.5-1.8,2.4-2.8,4.2-2.3l1.1,0.3c8.9,2.6,21.2,6.2,33.4,11.1c30.6,12.4,57.3,33.3,75.4,58.8
				c12.6,17.8,19.8,33.5,22.1,48c2.3,14.5,0,29.2-6.3,41.3C937.9,431.4,924,439.1,910.7,439.1z"/>
		</g>
		<g>
			<polygon class="st3" points="702,546.5 671.6,535.8 763.3,495.3 763.6,501.4 755,531.9 			"/>
		</g>
		<g>
			<path class="st5" d="M563.6,241.5C563.6,241.5,563.6,241.5,563.6,241.5c-16.2-0.3-53.4-14.6-62-25.4c-1.2-1.5-0.9-3.6,0.6-4.8
				c1.5-1.2,3.6-0.9,4.8,0.6c6.9,8.6,41.3,22.5,56.8,22.8c1.9,0,3.4,1.6,3.3,3.5C567,240.1,565.5,241.5,563.6,241.5z"/>
		</g>
		<g>
			<path class="st6" d="M775.5,116.1c0,0,3.5-30.4,29.8-22.2c28.6,8.8,43,30.8,32.1,41.3c-10.3,10-38.3,8.9-38.3,8.9"/>
			<path class="st5" d="M801.6,147.6c-1.4,0-2.4,0-2.5,0c-1.9-0.1-3.3-1.6-3.3-3.5c0.1-1.9,1.7-3.4,3.5-3.3c7.4,0.3,28.2-0.6,35.8-8
				c2.4-2.3,3.1-5.3,2.2-9c-2-8.5-13.2-20.5-33-26.6c-6.3-1.9-11.5-1.6-15.6,1.1c-8.2,5.3-9.8,18.2-9.8,18.3c-0.2,1.9-1.9,3.2-3.8,3
				c-1.9-0.2-3.2-1.9-3-3.8c0.1-0.7,2-16.1,12.8-23.2c5.9-3.8,13.1-4.5,21.4-1.9c19.4,6,34.5,18.7,37.6,31.5c1.4,6,0,11.5-4.1,15.5
				C830.5,146.8,809,147.6,801.6,147.6z"/>
		</g>
		<g>
			<path class="st5" d="M540.8,350.4c-0.3,0-0.6,0-0.9-0.1c-77.8-22.4-110.3-75.7-111.6-77.9c-1-1.6-0.4-3.7,1.2-4.7
				c1.6-1,3.7-0.4,4.7,1.2c0.3,0.5,32.6,53.2,107.6,74.9c1.8,0.5,2.8,2.4,2.3,4.2C543.7,349.4,542.3,350.4,540.8,350.4z"/>
		</g>
		<g>
			<circle class="st3" cx="778.7" cy="98.8" r="33.8"/>
		</g>
		<g>
			<path class="st4" d="M801.4,102c1.7-11.5-6-22.8-17.3-25.6c-11.8-2.9-23.5,3.7-27.3,14.8c-0.4,1.2-0.1,2.5,0.9,3.3
				c6.2,5,19.7,18.4,24.7,25c0.8,1.1,2.2,1.5,3.5,1.1C793.8,117.9,800.1,111,801.4,102z"/>
		</g>
		<g>
			<path class="st3" d="M540.6,324.2c0,0-23.1,102.8,38.3,149.5"/>
			<path class="st5" d="M578.9,477c-0.7,0-1.4-0.2-2.1-0.7c-25.9-19.7-41-52.5-43.5-94.7c-1.9-31.6,3.7-57.1,3.9-58.2
				c0.4-1.8,2.2-3,4.1-2.6c1.8,0.4,3,2.2,2.6,4.1c-0.2,1-21.9,101.2,37.1,146c1.5,1.1,1.8,3.3,0.6,4.8
				C580.9,476.6,579.9,477,578.9,477z"/>
		</g>
		<g>
			<line class="st3" x1="804.3" y1="120.8" x2="801.4" y2="123.9"/>
			<path class="st5" d="M801.4,127.3c-0.9,0-1.7-0.3-2.4-1c-1.3-1.3-1.4-3.5-0.1-4.8l3-3.1c1.3-1.3,3.5-1.4,4.8-0.1
				c1.3,1.3,1.4,3.5,0.1,4.8l-3,3.1C803.1,127,802.2,127.3,801.4,127.3z"/>
		</g>
		<g>
			<g>
				<g>
					<circle class="st5" cx="699.9" cy="160.3" r="10.9"/>
				</g>
				<g>
					<circle class="st3" cx="702.8" cy="157.6" r="4.1"/>
				</g>
			</g>
			<g>
				<g>
					<circle class="st5" cx="618" cy="153.9" r="10.9"/>
				</g>
				<g>
					<circle class="st3" cx="620.9" cy="151.2" r="4.1"/>
				</g>
			</g>
			<g>
				<g>
					<path class="st7" d="M694.4,212.8c-6.7,16.1-26.2,21.3-41.2,20.4l0,0c-15-0.8-33.8-8-38.7-24.8c-4.5-15.4,3.2-37.8,15.6-46.9
						c7.8-5.7,17.9-5.4,26.9-4.9l0.8,0c9,0.5,19.1,1.3,26.2,7.8C695.4,174.9,700.6,197.9,694.4,212.8z"/>
				</g>
				<g>
					<path class="st4" d="M670.2,157.2c-5.4-1-10.8-1.6-16.3-1.9c-5.4-0.3-10.9-0.2-16.4,0.1c-8.1,1-9.4,5.1-7.4,13
						c2.2,8.4,9.2,22.4,20.2,23.3c11,0.3,22.7-12.7,25.8-20.8C679.1,163.3,678.2,159.1,670.2,157.2z"/>
				</g>
				<g>
					<path class="st5" d="M653.8,204.3c0,0-16.2-0.7-25.4,0.3c-2.6,0.3-4.2,2.8-3.6,5.3c1.7,6.2,7.5,16.6,27.7,17.6
						c20.2,1.2,27.1-8.6,29.4-14.5c0.9-2.4-0.5-5.1-3-5.6C669.9,205.4,653.8,204.3,653.8,204.3z"/>
				</g>
			</g>
		</g>
		<g>
			<g>
				<g>
					<g>
						<path class="st3" d="M490.1,263.4l-54,6.6c-2.3,0.3-4.5-1.4-4.8-3.7l-16.2-131.9c-0.3-2.3,1.4-4.5,3.7-4.8l54-6.6
							c2.3-0.3,4.5,1.4,4.8,3.7l16.2,131.9C494.1,260.9,492.5,263.1,490.1,263.4z"/>
					</g>
					<g>
						<path class="st4" d="M493.2,253.2l-14.9-121c-0.7-5.3-5.5-9.1-10.8-8.5l-2,0.2l17.2,140.4l2-0.2
							C490,263.4,493.8,258.5,493.2,253.2z"/>
					</g>
					<g>
						<line class="st8" x1="493.2" y1="253.2" x2="478.3" y2="132.1"/>
					</g>
					<g>
						<g>
							
								<rect x="463.6" y="124.4" transform="matrix(0.9926 -0.1217 0.1217 0.9926 -20.2748 58.1608)" class="st9" width="4.9" height="141.4"/>
						</g>
					</g>
					<g>
						<path class="st5" d="M440.3,272.8c-2.9,0-5.7-1-8.1-2.8c-2.8-2.2-4.5-5.3-4.9-8.7l-14.9-121c-0.4-3.5,0.5-6.9,2.7-9.7
							c2.2-2.8,5.3-4.5,8.7-5l43.2-5.3c7.2-0.9,13.8,4.2,14.6,11.4l14.9,121c0.9,7.2-4.2,13.8-11.4,14.6l0,0l-43.2,5.3
							C441.3,272.8,440.8,272.8,440.3,272.8z M468.7,127c-0.3,0-0.5,0-0.8,0l-43.2,5.3c-1.7,0.2-3.2,1.1-4.2,2.4
							c-1,1.3-1.5,3-1.3,4.7l14.9,121c0.4,3.5,3.6,5.9,7.1,5.5l43.2-5.3c3.5-0.4,5.9-3.6,5.5-7.1l-14.9-121
							C474.5,129.3,471.8,127,468.7,127z M484.7,264L484.7,264L484.7,264z"/>
					</g>
					<g>
						<g>
							<g>
								<path class="st5" d="M436.5,166.9L436.5,166.9c-1.3,0.2-2.5-0.8-2.7-2.1l-3.1-25.1c-0.2-1.3,0.8-2.5,2.1-2.7h0
									c1.3-0.2,2.5,0.8,2.7,2.1l3.1,25.1C438.8,165.5,437.8,166.7,436.5,166.9z"/>
							</g>
						</g>
						<g>
							<g>
								<path class="st5" d="M428.3,167.9L428.3,167.9c-1.3,0.2-2.5-0.8-2.7-2.1l-2-16.2c-0.2-1.3,0.8-2.5,2.1-2.7l0,0
									c1.3-0.2,2.5,0.8,2.7,2.1l2,16.2C430.6,166.5,429.6,167.7,428.3,167.9z"/>
							</g>
						</g>
					</g>
				</g>
				<g>
					<defs>
						<path id="SVGID_00000134956115241970934400000007545410395734343863_" d="M483,284.5l-66.1-16l23.2-95.9l66.1,16
							c0.7,0.2,1.1,0.9,1,1.6l-22.5,93.4C484.4,284.2,483.7,284.7,483,284.5z"/>
					</defs>
					<clipPath id="SVGID_00000132052524293381140460000003624379303579771547_">
						<use xlink:href="#SVGID_00000134956115241970934400000007545410395734343863_"  style="overflow:visible;"/>
					</clipPath>
				</g>
				<g>
					<g>
						<path class="st10" d="M482.5,283.9l-66.2-16.2l23.6-96.3l66.2,16.2c2.3,0.6,3.7,2.9,3.1,5.2l-21.5,88
							C487.1,283.1,484.8,284.5,482.5,283.9z"/>
						<path class="st5" d="M479.5,286.3c-1,0-2.1-0.1-3.1-0.4l0,0L415.5,271c-1.8-0.4-2.9-2.3-2.5-4.1l23.6-96.3
							c0.2-0.9,0.8-1.6,1.5-2.1c0.8-0.5,1.7-0.6,2.6-0.4l60.9,14.9c7,1.7,11.4,8.8,9.6,15.9l-18.9,77.4
							C490.8,282.3,485.4,286.3,479.5,286.3z M478,279.3c3.4,0.8,6.8-1.3,7.7-4.6l18.9-77.4c0.8-3.4-1.3-6.8-4.6-7.7l-57.6-14.1
							l-21.9,89.7L478,279.3z"/>
					</g>
				</g>
				<g>
					<path class="st11" d="M486.2,198"/>
				</g>
				<g>
					<path class="st11" d="M485.6,196.1"/>
				</g>
				<g>
					<path class="st11" d="M493.3,199.8"/>
				</g>
				<g>
					<g>
						<path class="st12" d="M482.1,219.6c-1.1,0-2.2-0.1-3.3-0.4c-3.3-0.8-6.1-2.9-8-5.8c-0.2-0.3-0.1-0.6,0.2-0.8l2.7-1.7
							c0.1-0.1,0.3-0.1,0.4-0.1c0.1,0,0.3,0.1,0.4,0.3c1.2,2,3.1,3.4,5.4,3.9c2.2,0.6,4.6,0.3,6.6-0.9c0.1-0.1,0.3-0.1,0.4-0.1
							c0.1,0,0.3,0.1,0.3,0.3l1.5,2.7c0.2,0.3,0.1,0.6-0.2,0.8C486.6,219,484.4,219.6,482.1,219.6z M472.2,213.2
							c1.7,2.4,4.1,4.1,7,4.8c2.8,0.7,5.8,0.4,8.4-0.9l-1-1.8c-2.1,1.1-4.6,1.3-6.9,0.7c-2.3-0.6-4.4-2-5.7-4L472.2,213.2z"/>
					</g>
					<g>
						<path class="st12" d="M472.9,204c-0.7,2.6-0.2,5.2,1.1,7.4l-1.7,1.1c-1.6-2.6-2.2-5.8-1.4-9c1.1-4.4,4.7-7.6,8.8-8.5l-0.7,1.3
							l1.3,0.7C476.9,197.7,473.9,200.3,472.9,204z"/>
					</g>
					<g>
						<path class="st12" d="M493.3,209.2c-0.8,3.2-2.9,5.7-5.5,7.2l-1-1.8c2.2-1.2,3.9-3.3,4.5-5.9c0.9-3.7-0.4-7.4-3.2-9.7l1.5,0
							l0-1.4C492.8,200.3,494.4,204.8,493.3,209.2z"/>
					</g>
					<g>
						<path class="st12" d="M486.3,207.4c0,0.1-0.1,0.2-0.1,0.4c-0.1-0.3-0.5-1.8-2-2.2c-1.8-0.4-2.5,1.8-4.3,1.1
							c-1.7-0.7-0.9-3-0.9-3.3c1-1.1,2.6-1.6,4.2-1.2C485.5,202.8,486.9,205.1,486.3,207.4z"/>
					</g>
					<g>
						<path class="st12" d="M486.2,207.8c-0.7,2.1-2.9,3.3-5.1,2.7c-2.3-0.6-3.7-2.9-3.1-5.2c0.2-0.7,0.6-1.4,1-1.9
							c-0.1,0.2-0.8,2.6,0.9,3.3c1.8,0.7,2.6-1.4,4.4-0.9C485.8,206.2,486.1,207.5,486.2,207.8z"/>
					</g>
					<g>
						<path class="st12" d="M484.1,198.2c0,0,0.1,0,0.1,0.1l6.2,7.4c0,0,0,0.1,0,0.2l-5.2,8.2c0,0-0.1,0.1-0.1,0.1c0,0,0,0,0,0
							l-9.4-2.4c-0.1,0-0.1-0.1-0.1-0.1L475,202c0-0.1,0-0.1,0.1-0.1L484.1,198.2C484.1,198.3,484.1,198.2,484.1,198.2 M484.1,197.1
							c-0.2,0-0.3,0-0.5,0.1l-9,3.6c-0.5,0.2-0.8,0.7-0.8,1.3l0.6,9.6c0,0.6,0.4,1,1,1.2l9.4,2.4c0.1,0,0.2,0,0.3,0
							c0.4,0,0.8-0.2,1.1-0.6l5.2-8.2c0.3-0.5,0.3-1.1-0.1-1.5l-6.2-7.4C484.9,197.3,484.5,197.1,484.1,197.1L484.1,197.1z"/>
					</g>
					<g>
						<path class="st13" d="M486.6,208.7c-0.3,0-0.5-0.2-0.6-0.5c-0.1-0.3-0.4-1.5-1.9-1.8c-0.6-0.1-1.1,0.1-1.7,0.4
							c-0.7,0.3-1.6,0.8-2.8,0.3c-2.1-0.8-1.8-3.9-1.7-4.2c0.1-0.3,0.4-0.5,0.7-0.4c0.3,0.1,0.5,0.4,0.4,0.7c-0.1,0.3-0.2,2.3,1,2.8
							c0.7,0.3,1.2,0,1.9-0.3c0.7-0.3,1.4-0.7,2.4-0.5c1.7,0.3,2.6,1.6,2.8,2.6c0.1,0.3-0.1,0.6-0.4,0.7
							C486.7,208.7,486.6,208.7,486.6,208.7z"/>
					</g>
				</g>
			</g>
		</g>
		<g>
			<path class="st5" d="M818,266.4c-1.8,0-3.3-1.5-3.4-3.3c-1.4-45.3-4-88.9-5.8-106.8l-1-8.7c-0.1-1.1-0.3-1.9-0.3-2.3
				c0-0.1,0-0.2-0.1-0.3c-0.5-3.4-1.1-7.4-2.2-11.5c-1.1-3.9-2.4-7.7-4-11.4c-0.5-1.2-0.3-2.6,0.6-3.5c4.4-5.1,6.9-11.3,7.3-18
				c0.5-8.1-2.2-15.9-7.6-22s-12.8-9.7-20.9-10.2c-11.1-0.6-21.6,4.8-27.6,14.2c-0.8,1.2-2.2,1.8-3.6,1.5
				c-12.9-2.8-28.7-4.9-45.6-6.1c-20.5-0.9-39.7-0.3-54,1.7c-1.5,0.2-3-0.6-3.6-2.1c-4.5-10.8-14.6-18-26.2-18.7
				c-8.1-0.5-15.9,2.2-22,7.6c-6.1,5.4-9.7,12.8-10.2,20.9c-0.6,9.4,3.2,18.3,10.3,24.6c1.1,1,1.5,2.6,0.8,4
				c-0.8,1.7-1.6,3.4-2.2,5.1c-1.4,3.4-2.7,7.1-3.9,11.2c0,0.1-0.1,0.2-0.1,0.4c-1.3,4-15.1,48.4-25.2,106c-0.3,1.6-1.7,2.8-3.4,2.8
				c-1.9,0-3.4-1.5-3.4-3.4c0-0.3,0-0.5,0.1-0.8c10.6-60.6,25.3-106.6,25.5-107.1c0-0.1,0.1-0.2,0.1-0.3c1.3-4.2,2.6-8,4-11.5
				c0.4-1,0.9-2.1,1.4-3.2c-7.5-7.5-11.3-17.7-10.7-28.4c1.2-20.5,18.8-36.2,39.3-34.9c13.4,0.8,25.1,8.6,31,20.5
				c14.4-1.8,33-2.3,52.8-1.4c16.3,1.2,31.5,3.2,44.3,5.8c7.4-10.3,19.6-16.2,32.4-15.4c9.9,0.6,19,5,25.6,12.4
				c6.6,7.4,9.9,17,9.3,26.9c-0.4,7.5-3.1,14.5-7.6,20.4c1.4,3.4,2.5,6.9,3.5,10.3c1.2,4.3,1.9,8.4,2.4,12c0,0.1,0,0.2,0.1,0.3
				c0,0,0.1,1,0.4,2.8l1,8.9c1.8,18.1,4.4,61.8,5.8,107.3c0.1,1.9-1.4,3.4-3.3,3.5C818,266.4,818,266.4,818,266.4z"/>
		</g>
		<g>
			<path class="st3" d="M511.4,233.9c0,0-11.6-17.2-25.3-1.7c-9.6,10.9,10,30.6,10,30.6"/>
			<path class="st5" d="M496.1,266.2c-0.9,0-1.7-0.3-2.4-1c-0.9-0.9-21.7-22.1-10.1-35.2c4.8-5.4,9.9-7.9,15.4-7.6
				c9.1,0.6,15,9.3,15.3,9.7c1,1.6,0.6,3.7-0.9,4.7s-3.7,0.6-4.7-0.9c-0.1-0.1-4.4-6.3-10.1-6.7c-3.2-0.2-6.5,1.6-9.8,5.3
				c-6.1,6.9,5.3,21.4,9.8,25.9c1.3,1.3,1.3,3.5,0,4.8C497.8,265.9,496.9,266.2,496.1,266.2z"/>
		</g>
		<g>
			<g>
				<path class="st10" d="M791.8,57.1c-12.2-7.5-25.9-12.1-40.2-12.7c-11-0.5-21.4,2.4-30.8,8.3c-9,5.6-16.4,13.7-20.9,23.2
					c0,0,38.4,27.1,58.7,39.3c20.4,12.2,53.9,26.7,53.9,26.7s13.6-27.1,8.3-48.6C817,78.1,805.4,65.5,791.8,57.1z"/>
				<path class="st5" d="M812.5,145.4c-0.5,0-0.9-0.1-1.4-0.3c-0.3-0.1-34-14.8-54.3-26.9c-20.2-12.1-58.6-39.2-59-39.4
					c-1.4-1-1.8-2.7-1.1-4.2c4.7-9.9,12.6-18.7,22.2-24.7c10.1-6.3,21.1-9.3,32.8-8.8c14.4,0.6,28.5,5,41.8,13.2l0,0
					c16,9.8,26.8,23.4,30.5,38.3c5.6,22.5-7.9,49.8-8.5,51C814.9,144.7,813.8,145.4,812.5,145.4z M704.2,74.9
					c8.7,6.1,39,27.2,56.1,37.5c16.4,9.8,41.8,21.3,50.5,25.2c3.2-7.4,10.7-27.3,6.7-43.3c-3.2-13-13.2-25.5-27.5-34.2l0,0
					c-12.3-7.5-25.3-11.7-38.6-12.2c-10.2-0.4-20,2.2-28.9,7.8C714.9,60.4,708.5,67.2,704.2,74.9z"/>
			</g>
			<g>
				<path class="st5" d="M721.2,91.2c-0.6,0-1.2-0.2-1.7-0.5c-1.6-1-2.1-3.1-1.2-4.7c0.3-0.5,7.8-12.9,19.8-23.6
					c16.4-14.6,33.3-18.7,48.8-11.8c1.7,0.8,2.5,2.8,1.7,4.5c-0.8,1.7-2.8,2.5-4.5,1.7c-31.5-14-59.6,32.2-59.9,32.7
					C723.5,90.6,722.4,91.2,721.2,91.2z"/>
			</g>
			<g>
				<path class="st5" d="M778.7,128.7c-0.6,0-1.3-0.2-1.9-0.6c-1.6-1-2-3.1-1-4.7c0.1-0.1,7.6-11.7,12.9-25.6
					c4.6-12.2,8.5-28.9,0.5-38.6c-1.2-1.4-1-3.6,0.5-4.8c1.4-1.2,3.6-1,4.8,0.5c19,22.9-11.6,70.2-12.9,72.2
					C780.9,128.2,779.8,128.7,778.7,128.7z"/>
			</g>
			<g>
				<path class="st3" d="M783.3,49.4c0,0,4.5-5.4,11.1-1.5c6.6,3.9,5.5,7.4,4.2,11.6"/>
				<path class="st5" d="M798.7,62.9c-0.3,0-0.7,0-1-0.2c-1.8-0.6-2.8-2.5-2.2-4.3c1.2-4,1.6-5.2-2.7-7.7c-3.7-2.2-6.1,0.1-6.8,0.8
					c-1.2,1.4-3.4,1.6-4.8,0.3c-1.4-1.2-1.6-3.3-0.4-4.7c2.2-2.6,8.3-6.5,15.4-2.3c9,5.3,7,11.5,5.8,15.6
					C801.5,62,800.1,62.9,798.7,62.9z"/>
			</g>
			<g>
				<path class="st3" d="M739.3,84.4l-2.8,5c-0.4,0.7-0.2,1.5,0.5,1.9l27.9,17.6c0.7,0.4,1.6,0.2,2-0.4l3.2-5.1
					c0.4-0.7,0.2-1.6-0.5-2l-28.3-17.5C740.6,83.4,739.7,83.7,739.3,84.4z"/>
			</g>
		</g>
		<g>
			<path class="st5" d="M655.4,582.5c0,0-0.1,0-0.1,0c-22.4,0-46.9-13.6-63.8-35.4c-21.3-27.5-23.4-46.8-21.3-58.2
				c1.7-9.2,6.5-16.5,14-21.1c14.2-8.8,25.8-4.6,30.5-2.2l33.8-25.3c1.5-1.1,3.6-0.8,4.8,0.7c1.1,1.5,0.8,3.6-0.7,4.8l-35.6,26.6
				c-1.2,0.9-2.8,0.9-4.1,0c-0.4-0.3-11-7.6-25.2,1.1c-5.8,3.6-9.6,9.3-10.9,16.5c-2.6,14.2,4.6,32.9,20,52.8
				c18.7,24.1,42.5,32.8,58.5,32.8c10.8,0,19.7-3.6,24.8-10.1c3.1-4,6.1-8.1,9.1-12.1c12.1-16.4,23.4-31.9,41.7-40.4
				c30.8-14.3,70.8-38.9,86.8-75.4c9.4-21.5,7.9-43.8,6.2-67.4l0-0.7c-0.1-1.9,1.3-3.5,3.2-3.6c1.9-0.1,3.5,1.3,3.6,3.2l0,0.7
				c1.6,23.4,3.3,47.6-6.8,70.6c-16.9,38.4-58.3,64.1-90.1,78.8c-16.7,7.7-27.6,22.6-39.1,38.2c-3,4-6,8.2-9.2,12.2
				C679,578,668.3,582.5,655.4,582.5z"/>
		</g>
		<g>
			<path class="st3" d="M702,546.5c0,0,4,1.9,8.8,11.3c6.8,13.5,59.4,35.2,52.9-56.4"/>
			<path class="st5" d="M734.8,573.6c-12.2,0-23.7-7.6-27.1-14.2c-4-7.9-7.3-9.8-7.3-9.9c-1.7-0.8-2.4-2.8-1.6-4.5
				c0.8-1.7,2.9-2.4,4.6-1.6c0.9,0.4,5.3,2.9,10.4,12.9c2.7,5.3,15.4,12.8,26.5,9.8c15.5-4.3,22.6-27.2,20-64.4
				c-0.1-1.9,1.3-3.5,3.2-3.6c1.9-0.1,3.5,1.3,3.6,3.2c3.7,52.3-11.5,67.7-24.9,71.5C739.7,573.3,737.2,573.6,734.8,573.6z"/>
		</g>
		<g>
			<g>
				<g>
					<g>
						<circle class="st5" cx="941.6" cy="555.5" r="21"/>
					</g>
					<g>
						<path class="st5" d="M941.6,579.9c-13.5,0-24.4-11-24.4-24.4c0-13.5,11-24.4,24.4-24.4c13.5,0,24.4,11,24.4,24.4
							C966,569,955,579.9,941.6,579.9z M941.6,537.9c-9.7,0-17.6,7.9-17.6,17.6c0,9.7,7.9,17.6,17.6,17.6s17.6-7.9,17.6-17.6
							C959.2,545.8,951.3,537.9,941.6,537.9z"/>
					</g>
				</g>
				<g>
					<g>
						<circle class="st5" cx="1026.8" cy="551.1" r="21"/>
					</g>
					<g>
						<path class="st5" d="M1026.8,575.6c-13.5,0-24.4-11-24.4-24.4c0-13.5,11-24.4,24.4-24.4c13.5,0,24.4,11,24.4,24.4
							C1051.2,564.6,1040.3,575.6,1026.8,575.6z M1026.8,533.5c-9.7,0-17.6,7.9-17.6,17.6s7.9,17.6,17.6,17.6s17.6-7.9,17.6-17.6
							S1036.5,533.5,1026.8,533.5z"/>
					</g>
				</g>
				<g>
					<g>
						<g>
							<path class="st4" d="M1048,512.8l-47.4-82.6c-2.4-4.1-6.8-6.6-11.5-6.4l-113.1,4.1c-3.4,0.1-6.7,1.6-9,4.2l-22.7,24.8
								c-3.9,4.3-4.4,10.6-1.3,15.5l51.7,81c2.3,3.6,6.2,5.8,10.4,5.9l112.7,3.3c4.6,0.1,8.9-2.2,11.3-6.1l18.9-30.6
								C1050.2,521.8,1050.3,516.8,1048,512.8z"/>
						</g>
					</g>
					<g>
						<g>
							<path class="st5" d="M1018,565.9c-0.2,0-0.3,0-0.5,0l-112.7-3.3c-5.4-0.2-10.3-3-13.2-7.5l-51.7-81
								c-3.9-6.2-3.2-14.2,1.7-19.6l22.7-24.8c2.9-3.2,7.1-5.1,11.4-5.3l113.1-4.1c6-0.2,11.6,2.9,14.6,8.1l47.4,82.6l0,0
								c3,5.2,2.9,11.5-0.3,16.6l-18.9,30.6C1028.8,563,1023.6,565.9,1018,565.9z M989.5,427.1c-0.1,0-0.2,0-0.3,0L876,431.2
								c-2.5,0.1-4.9,1.2-6.6,3L846.7,459c-2.9,3.1-3.3,7.8-1,11.4l51.7,81c1.7,2.6,4.5,4.2,7.6,4.3l112.7,3.3
								c3.4,0.1,6.5-1.6,8.3-4.4l18.9-30.6c1.8-2.9,1.9-6.6,0.2-9.6l-47.4-82.6C995.9,428.9,992.8,427.1,989.5,427.1z"/>
						</g>
					</g>
				</g>
				<g>
					<g>
						
							<rect x="1025.6" y="563.8" transform="matrix(0.8566 -0.516 0.516 0.8566 -143.9048 610.3351)" class="st14" width="0.8" height="0.4"/>
					</g>
				</g>
				<g>
					<g>
						<g>
							<path class="st5" d="M975.2,543.8c-1.3,0-2.7-0.7-3.4-1.9L939,488.5c-1.2-1.9-0.6-4.4,1.3-5.5s4.4-0.6,5.5,1.3l32.8,53.4
								c1.2,1.9,0.6,4.3-1.3,5.5C976.6,543.6,975.9,543.8,975.2,543.8z"/>
						</g>
					</g>
				</g>
				<g>
					<g>
						<g>
							<path class="st5" d="M946.1,543.6c-1.3,0-2.7-0.7-3.4-1.9l-32.8-53.4c-1.2-1.9-0.6-4.3,1.3-5.5c1.9-1.2,4.4-0.6,5.5,1.3
								l32.8,53.4c1.2,1.9,0.6,4.3-1.3,5.5C947.5,543.4,946.8,543.6,946.1,543.6z"/>
						</g>
					</g>
				</g>
				<g>
					<g>
						<g>
							<path class="st5" d="M918.4,543.3c-1.3,0-2.7-0.7-3.4-1.9L882.2,488c-1.2-1.9-0.6-4.3,1.3-5.5c1.9-1.2,4.4-0.6,5.5,1.3
								l32.8,53.4c1.2,1.9,0.6,4.3-1.3,5.5C919.9,543.1,919.1,543.3,918.4,543.3z"/>
						</g>
					</g>
				</g>
				<g>
					<g>
						<g>
							<path class="st15" d="M948.8,447.5c-2.6-0.1-5.2-1.3-6.8-3.6l-13.3-18.4c-2.8-3.9-1.9-9.3,1.9-12.1c3.9-2.8,9.3-1.9,12.1,1.9
								l13.3,18.4c2.8,3.9,1.9,9.3-1.9,12.1C952.5,447,950.7,447.6,948.8,447.5z"/>
						</g>
						<g>
							<path class="st5" d="M949,450.9c-0.1,0-0.2,0-0.3,0c-3.8-0.1-7.3-1.9-9.5-5l-13.3-18.4c-3.9-5.4-2.7-13,2.7-16.9
								c5.4-3.9,13-2.7,16.9,2.7l13.3,18.4c3.9,5.4,2.7,13-2.7,16.9C954,450.2,951.6,450.9,949,450.9z M935.7,415.2
								c-1.1,0-2.2,0.3-3.1,1c-2.4,1.7-2.9,5-1.2,7.4l13.3,18.4c1,1.3,2.5,2.1,4.1,2.2l0,0c1.2,0,2.3-0.3,3.2-1
								c2.4-1.7,2.9-5,1.2-7.4L940,417.4C939,416,937.3,415.2,935.7,415.2z"/>
						</g>
					</g>
				</g>
				<g>
					<g>
						<g>
							<path class="st15" d="M885.5,451.5c-2.6-0.1-5.2-1.3-6.8-3.6l-13.3-18.4c-2.8-3.9-1.9-9.3,1.9-12.1c3.9-2.8,9.3-1.9,12.1,1.9
								l13.3,18.4c2.8,3.9,1.9,9.3-1.9,12.1C889.2,451,887.3,451.5,885.5,451.5z"/>
						</g>
						<g>
							<path class="st5" d="M885.7,454.9c-0.1,0-0.2,0-0.3,0c-3.8-0.1-7.3-1.9-9.5-5l-13.3-18.4c-3.9-5.4-2.7-13,2.7-16.9
								c5.4-3.9,13-2.7,16.9,2.7l13.3,18.4c3.9,5.4,2.7,13-2.7,16.9C890.7,454.1,888.2,454.9,885.7,454.9z M872.3,419.1
								c-1.1,0-2.2,0.3-3.1,1c-2.4,1.7-2.9,5-1.2,7.4l13.3,18.4c1,1.3,2.5,2.1,4.2,2.2l0,0c1.2,0,2.3-0.3,3.2-1
								c2.4-1.7,2.9-5,1.2-7.4l-13.3-18.4C875.6,419.9,874,419.1,872.3,419.1z"/>
						</g>
					</g>
				</g>
				<g>
					<g>
						<g>
							<path class="st5" d="M870.8,433.2c-3.7-0.1-7.3-2-9.4-5.3l-6.8-11c-2.2-3.5-2.3-8-0.3-11.6c2-3.6,5.9-5.8,10-5.8l65.1,0.9
								c0,0,0.1,0,0.1,0c3.5,0.1,6.8,1.8,8.9,4.6l6.4,8.7c3.7,5,2.6,12.1-2.4,15.9c-5,3.7-12.1,2.6-15.9-2.4l-3-4.1l-41.1-0.6
								c-0.2,3.6-2.1,7-5.3,9C875.1,432.7,872.9,433.3,870.8,433.2z"/>
						</g>
						<g>
							<path class="st5" d="M871.1,436.6c-0.1,0-0.2,0-0.4,0c-5-0.1-9.5-2.7-12.2-6.9l-6.8-11c-2.9-4.6-3-10.3-0.3-15
								c2.6-4.7,7.7-7.6,13-7.5l65.1,0.9c4.7,0.1,9,2.4,11.7,6l6.4,8.7c4.8,6.5,3.4,15.8-3.1,20.6c-3.2,2.3-7.1,3.3-11,2.7
								c-3.9-0.6-7.3-2.7-9.7-5.8l-2-2.8l-36.5-0.5c-1,3.5-3.3,6.5-6.4,8.5C876.5,435.9,873.8,436.6,871.1,436.6z M864.2,403
								c-2.9,0-5.5,1.5-6.9,4c-1.4,2.5-1.4,5.6,0.2,8.1l6.8,11c1.4,2.3,3.9,3.7,6.6,3.7l0,0c1.6,0,3.1-0.4,4.4-1.2
								c2.2-1.4,3.6-3.7,3.7-6.3c0.1-1.8,1.6-3.2,3.4-3.2l41.1,0.6c1.1,0,2.1,0.5,2.7,1.4l3,4.1c1.3,1.7,3.1,2.8,5.2,3.1
								c2.1,0.3,4.2-0.2,5.9-1.5c3.5-2.6,4.3-7.6,1.7-11.1l-6.4-8.7c-1.4-2-3.8-3.2-6.2-3.2l-65.2-0.9
								C864.3,403,864.3,403,864.2,403z"/>
						</g>
					</g>
				</g>
				<g>
					<g>
						<g>
							<path class="st5" d="M964.3,467.4c-0.7,0-1.5-0.2-2.1-0.7c-1.5-1.2-1.7-3.3-0.5-4.8l30.4-38.2c1.2-1.5,3.3-1.7,4.8-0.5
								c1.5,1.2,1.7,3.3,0.5,4.8l-30.4,38.2C966.3,466.9,965.3,467.4,964.3,467.4z"/>
						</g>
					</g>
				</g>
				<g>
					<g>
						<path class="st5" d="M1024.1,565.8c-1.1,0-2.3-0.6-2.9-1.6l-58.8-96.8l-120.9,0.2c0,0,0,0,0,0c-1.9,0-3.4-1.5-3.4-3.4
							c0-1.9,1.5-3.4,3.4-3.4l122.8-0.2c0,0,0,0,0,0c1.2,0,2.3,0.6,2.9,1.6l59.8,98.4c1,1.6,0.5,3.7-1.1,4.7
							C1025.3,565.6,1024.7,565.8,1024.1,565.8z"/>
					</g>
				</g>
			</g>
		</g>
		<g>
			<path class="st5" d="M862.2,406.7c-1.2,0-2.4-0.6-3-1.8c-0.1-0.2-13-23-47.3-40.6c-1.7-0.9-2.3-2.9-1.5-4.6
				c0.9-1.7,2.9-2.3,4.6-1.5c36.3,18.6,49.6,42.3,50.1,43.4c0.9,1.7,0.3,3.7-1.4,4.6C863.3,406.6,862.8,406.7,862.2,406.7z"/>
		</g>
		<g>
			<path class="st3" d="M900,394.6c1.3,6.5,2.2,16.9-0.5,23.1c-3,6.8-10.4,10.4-17.6,9.6c-2.3-0.3-4.5-1-6.3-2.4
				c-4.9-3.7-5-7.7-7.4-12.9c-2.3-4.9-7.7-13-11.6-16.7"/>
			<path class="st5" d="M883.9,430.8c-0.8,0-1.6,0-2.4-0.1c-3.1-0.3-5.8-1.4-8-3c-4.4-3.3-5.7-6.9-7-10.4c-0.4-1.2-0.9-2.5-1.5-3.8
				c-2.1-4.5-7.1-12.1-10.9-15.7c-1.4-1.3-1.4-3.5-0.1-4.8c1.3-1.4,3.5-1.4,4.8-0.1c4.4,4.2,10,12.7,12.3,17.8
				c0.7,1.5,1.2,3,1.7,4.3c1.2,3.2,1.9,5.3,4.7,7.4c1.2,0.9,2.8,1.5,4.6,1.7c6.1,0.7,11.9-2.4,14.1-7.6c2.2-5.1,1.5-14.5,0.3-21
				c-0.4-1.8,0.8-3.6,2.7-4c1.9-0.4,3.6,0.8,4,2.7c0.8,3.8,2.9,16.9-0.7,25.1C899.5,426.2,892,430.8,883.9,430.8z"/>
		</g>
		<g>
			<path class="st7" d="M633.2,522.6c14.6,18.8,24.9,38,17.5,44.7s-28.3-2.6-44.4-20.2s-24.4-35.5-15.7-44.1
				C600.3,493.5,618.2,503.3,633.2,522.6z"/>
		</g>
	</g>
</g>
</svg>
