<svg xmlns:xlink="http://www.w3.org/1999/xlink" version="1.1" id="Layer_1" xmlns="http://www.w3.org/2000/svg" x="0" y="0" viewBox="0 0 16 16" xml:space="preserve" width="16"  height="16" ><path fill="#FFFFFF" d="M12.8 0H3.2C1.4 0 0 1.4 0 3.2v9.6C0 14.6 1.4 16 3.2 16h9.6c1.8 0 3.2-1.4 3.2-3.2V3.2C16 1.4 14.6 0 12.8 0zm1.9 3.4v5.2c0 1.2-1 2.2-2.2 2.2H9.3s-.9 1.4-1.1 1.9c0 .1-.2.2-.3.2-.1 0-.2-.1-.3-.2 0-.1-1.1-1.9-1.1-1.9H3.3c-1.2 0-2.2-1-2.2-2.2V3.4c0-1.2 1-2.2 2.2-2.2h9.4c1.2 0 2.2 1 2 2.2z"></path><path fill="#FFFFFF" d="M4.2 5s-.4 0-.7.3V4h-.9v3.5h.8v-.3s.2.4.7.4c0 0 1.2 0 1.2-1.3 0 0 0-1.3-1.1-1.3zM4 6.8c-.3 0-.5-.2-.5-.5s.2-.5.5-.5.5.2.5.5-.2.5-.5.5zM5.6 3.9v.8s.4 0 .4.7v2.1h.8V5.2s.1-1.3-1.2-1.3zM8.8 5S7.4 5 7.4 6.3c0 0 0 1.3 1.4 1.3 0 0 1.4 0 1.4-1.3 0 0 .1-1.3-1.4-1.3zm0 1.8c-.3 0-.5-.2-.5-.5s.2-.5.5-.5.5.2.5.5-.2.5-.5.5zM12.5 5.3s-.2-.3-.7-.3c0 0-1.2-.1-1.2 1.3 0 0 0 1.2 1.2 1.2 0 0 .5 0 .7-.3v.2s.1.6-.5.6h-.2v.7h.3s1.2 0 1.2-1.3V5.1h-.8v.2zM12 6.8c-.3 0-.5-.2-.5-.5s.2-.5.5-.5.5.2.5.5-.2.5-.5.5z"></path></svg>