<svg xmlns:xlink="http://www.w3.org/1999/xlink" viewBox="0 0 24 24" xmlns="http://www.w3.org/2000/svg" width="24"  height="24" ><path d="M5.47 22.433c.38-.176.627-.457.7-.887a1.54 1.54 0 01.293-.645c.1-.124.3-.235.465-.248.28-.02.56-.046.84-.079a17.028 17.028 0 003.96-.919c1.903-.691 3.573-1.734 4.858-3.3.639-.775 1.058-1.662.998-2.692-.033-.659-.353-1.135-.885-1.363a.327.327 0 00-.073-.026c-.02-.007-.04-.02-.06-.026l-.127-.04c-.006 0-.013-.006-.02-.006-.033-.006-.06-.013-.093-.02-.02-.006-.04-.006-.066-.012-.007 0-.02 0-.027-.007l-.14-.02a3.803 3.803 0 00-1.444.157 5.49 5.49 0 00-1.038.43c-1.425.73-2.59 1.78-3.714 2.882-.087.085-.173.163-.313.294l-.007.006c.02-.13.014-.182.034-.215.06-.117.12-.235.186-.345a28.567 28.567 0 014.726-6.032 6.82 6.82 0 00.838-1.01c.266-.398.366-.835.08-1.272a.142.142 0 01.02-.033V7c.086-.046.173-.098.26-.144 1.817-1.023 3.134-2.47 3.866-4.4.127-.32.16-.68.187-1.018.02-.248-.133-.424-.353-.437-.033 0-.067 0-.107.007-.306.052-.632.15-.891.306a9.585 9.585 0 00-2.276 1.937c-1.411 1.63-2.59 3.416-3.681 5.262-2.156 3.644-4.273 7.309-6.403 10.967-.073.124-.146.235-.233.378-.326-.163-.632-.313-.918-.463h-.007c-.253.222-.186.392.067.541.193.118.38.242.592.379-.512.873-1.012 1.734-1.564 2.673h.007c.18-.033.266-.033.34-.065a15.5 15.5 0 001.124-.49zm6.976-8.177c.599-.424 1.264-.75 1.917-1.095.2-.105.439-.15.665-.183.666-.104 1.032.274.939.933a4.597 4.597 0 01-.606 1.688 5.677 5.677 0 01-.492.711 2.639 2.639 0 01-.174.209 9.046 9.046 0 01-2.928 2.282 11.45 11.45 0 01-2.423.86c-.732.17-1.484.28-2.302.437.08-.15.106-.221.146-.28.166-.241.333-.476.5-.71 1.337-1.84 2.861-3.522 4.758-4.852zM17.684 4c-.732 1.057-1.67 1.904-2.722 2.648-.286.202-.453.378-.253.743.133.241.02.49-.166.685-.194.202-.393.404-.593.606-.366.378-.739.75-1.105 1.128 1.491-2.901 3.468-5.451 5.764-7.766 0 .007-.007.013-.007.02l.02-.02c-.186.718-.526 1.357-.938 1.956zm2.255 18.706c-.034-.012-.06-.026-.093-.026-4.446 0-8.892 0-13.338.007-.12 0-.24.13-.36.196.08.084.114.097.147.097 4.446 0 8.892 0 13.338-.006.033 0 .06-.007.086-.02.027-.013.06-.026.093-.039.014-.006.027-.02.047-.026.033-.02.06-.039.093-.052.013-.007.033-.02.047-.026-.027-.033-.04-.072-.06-.105z" fill="#FFFFFF"></path></svg>