<svg width="60" height="47" viewBox="0 0 60 47" fill="none" xmlns="http://www.w3.org/2000/svg">
<path d="M0 44.8636C0 45.4302 0.225765 45.9736 0.627628 46.3743C1.02949 46.7749 1.57454 47 2.14286 47H57.8571C58.4255 47 58.9705 46.7749 59.3724 46.3743C59.7742 45.9736 60 45.4302 60 44.8636V18.9602H0V44.8636ZM8.83929 26.4375C8.83929 26.1542 8.95217 25.8825 9.1531 25.6822C9.35403 25.4819 9.62655 25.3693 9.91071 25.3693H22.2321C22.5163 25.3693 22.7888 25.4819 22.9898 25.6822C23.1907 25.8825 23.3036 26.1542 23.3036 26.4375V34.983C23.3036 35.2663 23.1907 35.538 22.9898 35.7383C22.7888 35.9386 22.5163 36.0511 22.2321 36.0511H9.91071C9.62655 36.0511 9.35403 35.9386 9.1531 35.7383C8.95217 35.538 8.83929 35.2663 8.83929 34.983V26.4375ZM57.8571 0H2.14286C1.57454 0 1.02949 0.225081 0.627628 0.625727C0.225765 1.02637 0 1.56976 0 2.13636V10.9489H60V2.13636C60 1.56976 59.7742 1.02637 59.3724 0.625727C58.9705 0.225081 58.4255 0 57.8571 0Z" fill="#222222"/>
</svg>
