<?xml version="1.0" encoding="utf-8"?>
<!-- Generator: Adobe Illustrator 28.3.0, SVG Export Plug-In . SVG Version: 6.00 Build 0)  -->
<svg version="1.1" id="레이어_1" xmlns="http://www.w3.org/2000/svg" xmlns:xlink="http://www.w3.org/1999/xlink" x="0px"
	 y="0px" width="1343px" height="552px" viewBox="0 0 1343 552" style="enable-background:new 0 0 1343 552;" xml:space="preserve">
<style type="text/css">
	
		.st0{clip-path:url(#SVGID_00000005964631878308422670000011948489709185304238_);fill:#FFFFFF;stroke:#2E4162;stroke-width:7;stroke-miterlimit:10;}
	.st1{fill:#004365;}
	.st2{clip-path:url(#SVGID_00000142134453140868369860000001906882412934373554_);}
	.st3{fill:#FFFFFF;}
	.st4{fill:#00A2DE;}
	.st5{fill:#2B4160;}
	.st6{fill:#F0F3F5;}
	.st7{fill:#CE3B36;}
</style>
<g>
	<g>
		<defs>
			<rect id="SVGID_1_" x="-101" y="29.3" width="1434" height="492.7"/>
		</defs>
		<clipPath id="SVGID_00000062911079669779897280000009743920465347703471_">
			<use xlink:href="#SVGID_1_"  style="overflow:visible;"/>
		</clipPath>
		
			<path style="clip-path:url(#SVGID_00000062911079669779897280000009743920465347703471_);fill:#FFFFFF;stroke:#2E4162;stroke-width:7;stroke-miterlimit:10;" d="
			M1245.1,519.4H81.8c-30.9,0-56.1-31.4-56.1-70.2l0,0c0-38.7,25.1-70.2,56.1-70.2h1163.3c30.9,0,56.1,31.4,56.1,70.2l0,0
			C1301.1,488.1,1276,519.4,1245.1,519.4z"/>
	</g>
</g>
<g>
	<path class="st1" d="M321.7,483.6h18.6c2.2,0,4.1,0.2,5.5,0.7s2.5,1.1,3.3,1.8c0.8,0.8,1.3,1.6,1.6,2.6c0.3,1,0.4,2,0.4,2.9
		c0,1.2-0.1,2.3-0.4,3.3s-0.8,1.9-1.6,2.6c-0.8,0.8-1.9,1.4-3.3,1.8s-3.3,0.7-5.5,0.7h-28.2c-2.2,0-4-0.2-5.2-0.7
		c-1.3-0.4-2.2-1-2.9-1.8c-0.7-0.8-1.1-1.6-1.3-2.6c-0.2-1-0.2-2.1-0.2-3.3V411c0-1.2,0.1-2.3,0.2-3.4c0.2-1.1,0.6-2,1.3-2.9
		c0.7-0.9,1.6-1.6,2.9-2.1s3-0.8,5.2-0.8H338c2.2,0,4.1,0.2,5.5,0.7c1.4,0.4,2.5,1,3.3,1.8s1.3,1.6,1.6,2.6c0.3,1,0.4,2.1,0.4,3.3
		c0,1-0.1,1.9-0.4,2.9s-0.8,1.9-1.6,2.6c-0.8,0.8-1.9,1.4-3.3,1.8s-3.3,0.7-5.5,0.7h-16.2L321.7,483.6L321.7,483.6z M367.8,411.1
		c0-4,1-6.7,2.9-8.2s4.2-2.2,6.7-2.2c1.3,0,2.5,0.2,3.6,0.5c1.2,0.3,2.2,0.9,3,1.7c0.9,0.8,1.6,1.9,2.1,3.2c0.6,1.4,0.8,3,0.8,5
		v28.6h7.5c2.2,0,4.1,0.2,5.5,0.7s2.5,1.1,3.3,1.8c0.8,0.8,1.3,1.6,1.6,2.6c0.3,1,0.4,2,0.4,2.9c0,1.2-0.1,2.3-0.4,3.3
		s-0.8,1.9-1.6,2.6c-0.8,0.8-1.9,1.4-3.3,1.8s-3.3,0.7-5.5,0.7h-7.5v36.3c0,2.1-0.3,3.8-0.8,5.1c-0.6,1.4-1.3,2.4-2.1,3.2
		c-0.9,0.8-1.9,1.4-3,1.7c-1.2,0.3-2.4,0.5-3.6,0.5c-1.3,0-2.5-0.2-3.6-0.5c-1.2-0.3-2.2-0.9-3.1-1.7c-0.9-0.8-1.6-1.9-2.1-3.2
		c-0.5-1.4-0.8-3.1-0.8-5.1V411.1z"/>
	<path class="st1" d="M432.9,504.4c-3.7-0.1-6.9-0.8-9.5-2.1c-2.6-1.3-4.7-3-6.3-5c-1.6-2-2.7-4.3-3.5-7c-0.7-2.6-1.1-5.3-1.1-8.1
		c0-2.8,0.3-5.5,1-8.2c0.6-2.7,1.7-5,3.3-7c1.5-2,3.7-3.7,6.3-4.9c2.7-1.3,6-1.9,10.1-2h51c4.1,0,7.4,0.6,10.1,1.9s4.8,2.9,6.3,5
		s2.6,4.4,3.3,7.1c0.6,2.7,1,5.4,1,8.2c0,2.8-0.4,5.5-1.1,8.1s-1.9,4.9-3.5,7c-1.6,2-3.7,3.7-6.3,5c-2.6,1.3-5.7,2-9.5,2.1h-51.6
		V504.4z M432.2,435.8h21c2.2,0,4.1,0.2,5.5,0.7c1.4,0.4,2.5,1,3.3,1.8s1.3,1.6,1.6,2.6c0.3,1,0.4,1.9,0.4,2.9
		c0,1.2-0.1,2.3-0.4,3.3s-0.8,1.9-1.6,2.6c-0.8,0.8-1.9,1.4-3.3,1.8s-3.3,0.7-5.5,0.7h-30.6c-2.2,0-4-0.2-5.2-0.7
		c-1.3-0.4-2.2-1-2.9-1.8c-0.7-0.8-1.1-1.6-1.3-2.6c-0.2-1-0.2-2.1-0.2-3.3v-31.3c0-4,1-6.7,2.9-8.2s4.2-2.2,6.7-2.2
		c1.3,0,2.5,0.2,3.6,0.5c1.2,0.3,2.2,0.9,3,1.7c0.9,0.8,1.6,1.9,2.1,3.2c0.6,1.4,0.8,3,0.8,5v23.3H432.2z M479,488.2
		c2.3-0.2,4-0.7,5-1.5s1.5-2.3,1.5-4.5s-0.5-3.8-1.5-4.6c-1-0.8-2.7-1.3-5-1.5h-40.8c-2.3,0.2-4,0.7-5,1.5s-1.5,2.4-1.5,4.6
		c0,2.1,0.5,3.6,1.5,4.5c1,0.8,2.7,1.3,5,1.5H479z M479.9,411.1c0-4,1-6.7,2.9-8.2s4.2-2.2,6.7-2.2c1.3,0,2.5,0.2,3.6,0.5
		c1.2,0.3,2.2,0.9,3,1.7c0.9,0.8,1.6,1.9,2.1,3.2c0.6,1.4,0.8,3,0.8,5v8.5h9.9c2.2,0,4.1,0.3,5.5,0.8s2.5,1.2,3.3,2s1.3,1.7,1.6,2.7
		s0.4,2,0.4,2.9c0,1.2-0.1,2.3-0.4,3.3c-0.3,1-0.8,1.9-1.6,2.7c-0.8,0.8-1.9,1.4-3.3,1.8c-1.4,0.5-3.3,0.7-5.5,0.7H499v8.3
		c0,2.1-0.3,3.8-0.8,5.1c-0.6,1.4-1.3,2.4-2.1,3.2c-0.9,0.8-1.9,1.4-3,1.7c-1.2,0.3-2.4,0.5-3.6,0.5c-1.3,0-2.5-0.2-3.6-0.5
		c-1.2-0.3-2.2-0.9-3.1-1.7c-0.9-0.8-1.6-1.9-2.1-3.2c-0.5-1.4-0.8-3.1-0.8-5.1L479.9,411.1L479.9,411.1z"/>
	<path class="st1" d="M570.1,456.9c0-3.2,0.6-5.9,1.8-8.1s2.9-4,5.2-5.4s5-2.4,8.1-3s6.7-1,10.7-1h31.7c3.9,0,7.4,0.3,10.6,1
		c3.2,0.6,5.9,1.6,8.2,3s4,3.2,5.2,5.4c1.2,2.2,1.8,4.9,1.8,8.1v3.6c0,5-2.1,9-6.3,12s-10.5,4.5-18.9,4.6h-6.7v8.1h31.7
		c2.2,0,4.1,0.2,5.5,0.7s2.5,1,3.3,1.8s1.3,1.6,1.6,2.6s0.4,2.1,0.4,3.3c0,1-0.1,1.9-0.4,2.9c-0.3,1-0.8,1.9-1.6,2.6
		c-0.8,0.8-1.9,1.4-3.3,1.8s-3.3,0.7-5.5,0.7h-82.8c-2.2,0-4.1-0.2-5.5-0.7s-2.5-1.1-3.3-1.8c-0.8-0.8-1.3-1.6-1.6-2.6
		s-0.4-2-0.4-2.9c0-1.2,0.1-2.3,0.4-3.3c0.3-1,0.8-1.9,1.6-2.6c0.8-0.8,1.9-1.4,3.3-1.8s3.3-0.7,5.5-0.7h31.8V477h-6.8
		c-8.4-0.1-14.7-1.5-18.9-4.4s-6.3-6.9-6.3-12.2L570.1,456.9L570.1,456.9z M565.2,426.7c0-1.2,0.1-2.3,0.4-3.2
		c0.3-1,0.8-1.8,1.6-2.4c0.8-0.7,1.9-1.2,3.3-1.5c1.4-0.4,3.3-0.5,5.5-0.5h71c2.2,0,4.1,0.2,5.5,0.5c1.4,0.4,2.5,0.9,3.3,1.5
		c0.8,0.7,1.3,1.5,1.6,2.4c0.3,1,0.4,2,0.4,3.2c0,1-0.1,1.9-0.4,2.8c-0.3,0.9-0.8,1.7-1.6,2.4c-0.8,0.7-1.9,1.3-3.3,1.7
		c-1.4,0.4-3.3,0.6-5.5,0.6h-71c-2.2,0-4.1-0.2-5.5-0.6s-2.5-1-3.3-1.7s-1.3-1.5-1.6-2.4C565.3,428.6,565.2,427.7,565.2,426.7z
		 M580.4,407.3c0-1.9,0.4-3.5,1.3-4.9c0.8-1.3,2.6-2,5.4-2h46.5c2.8,0,4.6,0.7,5.4,2c0.8,1.4,1.3,3,1.3,4.9c0,0.8-0.1,1.6-0.3,2.4
		s-0.5,1.5-1,2.1s-1.2,1.2-2,1.5c-0.9,0.4-2,0.6-3.3,0.6h-46.5c-1.4,0-2.5-0.2-3.3-0.6c-0.9-0.4-1.5-0.9-2-1.5s-0.8-1.3-1-2.1
		C580.5,408.9,580.4,408.1,580.4,407.3z M589.4,458.7c0,1.8,0.8,3,2.4,3.6c1.6,0.6,4.2,0.9,7.6,1h24.5c3.4-0.1,5.9-0.4,7.6-1
		c1.6-0.6,2.4-1.8,2.4-3.6v-0.6c0-1.9-0.8-3.2-2.4-3.8c-1.6-0.6-4.3-0.9-7.9-0.9h-23.8c-3.7,0-6.3,0.3-7.9,0.9
		c-1.6,0.6-2.4,1.8-2.4,3.8L589.4,458.7L589.4,458.7z"/>
	<path class="st1" d="M706.9,401.8c2.2,0,4.1,0.2,5.5,0.5c1.4,0.4,2.5,0.9,3.3,1.5s1.3,1.4,1.6,2.3s0.4,2,0.4,3.2c0,2-0.7,3.5-2,4.6
		s-3.8,1.7-7.3,1.7h-16.7v4.6h9.3c4.4,0,7.4,0.5,8.8,1.5c1.4,1,2.1,2.6,2.1,4.9c0,1-0.1,1.8-0.4,2.6c-0.3,0.8-0.8,1.4-1.6,1.9
		s-1.9,0.9-3.3,1.1c-1.4,0.2-3.3,0.4-5.5,0.4h-9.3v4.8h17.6c2.2,0,4.1,0.2,5.5,0.5s2.5,0.8,3.3,1.3c0.8,0.6,1.3,1.3,1.6,2.1
		c0.3,0.8,0.4,1.7,0.4,2.7c0,1.2-0.1,2.2-0.4,3.1c-0.3,0.9-0.8,1.6-1.6,2.3c-0.8,0.6-1.9,1.1-3.3,1.4c-1.4,0.3-3.3,0.5-5.5,0.5
		h-25.9c-2.2,0-4-0.2-5.2-0.6c-1.3-0.4-2.2-0.9-2.9-1.6s-1.1-1.5-1.3-2.4c-0.2-1-0.2-2-0.2-3.2V410c0-1.2,0.1-2.3,0.2-3.3
		c0.2-1,0.6-1.8,1.3-2.6c0.7-0.7,1.6-1.3,2.9-1.7c1.3-0.4,3-0.6,5.2-0.6L706.9,401.8L706.9,401.8z M697.9,486v4.8h66
		c1.9,0,3.5,0.2,4.7,0.5c1.2,0.4,2.2,0.8,2.9,1.4s1.1,1.3,1.4,2.2c0.2,0.9,0.4,1.8,0.4,2.7c0,1.2-0.1,2.2-0.4,3
		c-0.2,0.8-0.7,1.5-1.4,2c-0.7,0.6-1.6,1-2.9,1.2c-1.2,0.2-2.8,0.4-4.7,0.4h-76c-2.2,0-4-0.2-5.2-0.6c-1.3-0.4-2.2-0.9-2.8-1.6
		s-1-1.5-1.1-2.4c-0.1-1-0.2-2-0.2-3.2v-15.8c0-0.8,0.1-1.6,0.3-2.4s0.6-1.5,1.3-2.1c0.6-0.6,1.5-1.1,2.7-1.5s2.8-0.5,4.8-0.5h64
		V470h-64.4c-2,0-3.6-0.2-4.8-0.5s-2.1-0.8-2.7-1.3c-0.6-0.6-1.1-1.2-1.3-2s-0.3-1.7-0.3-2.7c0-0.8,0.1-1.6,0.3-2.4s0.6-1.6,1.3-2.3
		c0.6-0.7,1.5-1.2,2.7-1.6s2.8-0.6,4.8-0.6h74.6c1.9,0,3.5,0.2,4.6,0.7c1.2,0.4,2.1,1,2.8,1.6s1.1,1.4,1.3,2.2
		c0.2,0.8,0.3,1.7,0.3,2.4v16.2c0,1-0.1,1.8-0.3,2.6c-0.2,0.8-0.6,1.5-1.2,2c-0.6,0.6-1.5,1-2.6,1.3c-1.2,0.3-2.7,0.5-4.6,0.5h-64.3
		V486z M730.7,435.2h-5.5c-2.2,0-4-0.2-5.3-0.7c-1.3-0.4-2.3-1.1-3-1.8c-0.7-0.8-1.2-1.7-1.4-2.7s-0.3-2.1-0.3-3.3
		c0-1,0.1-1.9,0.3-2.9s0.7-1.9,1.4-2.7c0.7-0.8,1.7-1.4,3-1.9s3.1-0.7,5.3-0.7h5.5v-7.4c0-4,0.8-6.7,2.3-8.2s3.5-2.2,6.1-2.2
		c2.5,0,4.5,0.7,6,2.2s2.3,4.2,2.3,8.2v31.3c0,4.1-0.7,6.9-2.2,8.3s-3.5,2.1-6,2.1s-4.6-0.7-6.1-2.1s-2.3-4.2-2.3-8.3L730.7,435.2
		L730.7,435.2z M754.5,411.1c0-4,0.8-6.7,2.3-8.2s3.5-2.2,6.1-2.2c2.5,0,4.5,0.7,6,2.2s2.3,4.2,2.3,8.2v31.5c0,4.1-0.7,6.9-2.2,8.3
		s-3.5,2.1-6,2.1s-4.6-0.7-6.1-2.1s-2.3-4.2-2.3-8.3L754.5,411.1L754.5,411.1z"/>
	<path class="st1" d="M830.6,468.8c-2,0-3.6-0.2-4.8-0.5s-2.1-0.8-2.7-1.4c-0.6-0.6-1.1-1.3-1.3-2.1c-0.2-0.8-0.3-1.8-0.3-2.9
		c0-0.9,0.1-1.7,0.3-2.6c0.2-0.8,0.6-1.6,1.3-2.3c0.6-0.7,1.5-1.2,2.7-1.6s2.8-0.6,4.8-0.6h86.6c2,0,3.6,0.2,4.8,0.6
		s2.1,0.9,2.7,1.6c0.6,0.7,1.1,1.4,1.3,2.3c0.2,0.8,0.3,1.7,0.3,2.6c0,1.1-0.1,2.1-0.3,2.9s-0.6,1.5-1.3,2.1
		c-0.6,0.6-1.5,1.1-2.7,1.4s-2.8,0.5-4.8,0.5H830.6z M898.6,489h-58.5c-2.2,0-4.1-0.2-5.5-0.6s-2.5-0.9-3.3-1.5s-1.3-1.4-1.6-2.3
		s-0.4-1.8-0.4-2.8c0-1.2,0.1-2.2,0.4-3.2c0.3-0.9,0.8-1.7,1.6-2.3c0.8-0.6,1.9-1.1,3.3-1.4c1.4-0.3,3.3-0.5,5.5-0.5h68.2
		c2.2,0,4,0.2,5.2,0.5c1.3,0.3,2.2,0.8,2.9,1.4s1.1,1.4,1.3,2.3s0.2,2,0.2,3.2V494c0,2-0.3,3.7-0.8,5c-0.6,1.3-1.3,2.4-2.1,3.2
		c-0.9,0.8-1.9,1.4-3,1.7c-1.2,0.3-2.4,0.5-3.6,0.5c-2.5,0-4.8-0.7-6.7-2.2s-2.9-4.2-2.9-8.2v-5H898.6z M908.6,402.3
		c2,0,3.6,0.1,4.8,0.4s2.1,0.7,2.7,1.3c0.6,0.6,1.1,1.2,1.3,2s0.3,1.7,0.3,2.7c0,0.9-0.1,1.7-0.3,2.4c-0.2,0.7-0.6,1.4-1.3,1.9
		c-0.6,0.6-1.5,1-2.7,1.3s-2.8,0.5-4.8,0.5h-59.5v4.9h58.3c2,0,3.6,0.1,4.8,0.4c1.2,0.2,2.1,0.6,2.7,1.1c0.6,0.5,1.1,1.2,1.3,1.9
		c0.2,0.8,0.3,1.7,0.3,2.7c0,0.9-0.1,1.7-0.3,2.3c-0.2,0.7-0.6,1.3-1.3,1.8c-0.6,0.5-1.5,0.9-2.7,1.2c-1.2,0.3-2.8,0.4-4.8,0.4
		h-58.3v5h59.5c2,0,3.6,0.2,4.8,0.5s2.1,0.8,2.7,1.3c0.6,0.6,1.1,1.2,1.3,2s0.3,1.5,0.3,2.3c0,1-0.1,1.9-0.3,2.7
		c-0.2,0.8-0.6,1.5-1.3,2c-0.6,0.6-1.5,1-2.7,1.3s-2.8,0.4-4.8,0.4h-69.1c-2.2,0-4-0.2-5.2-0.7c-1.3-0.4-2.2-1-2.9-1.7
		s-1.1-1.6-1.3-2.6s-0.2-2.1-0.2-3.3v-30.3c0-1.2,0.1-2.3,0.2-3.3c0.2-1,0.6-1.8,1.3-2.6c0.7-0.7,1.6-1.3,2.9-1.7
		c1.3-0.4,3-0.7,5.2-0.7h69.1V402.3z"/>
	<path class="st1" d="M974.8,402.2c2.1,0,3.8,0.2,5,0.7c1.2,0.4,2.1,1,2.7,1.8c0.6,0.8,1,1.7,1.2,2.8c0.2,1.1,0.2,2.4,0.2,3.8v46.5
		c0,2.1-0.2,4.9-0.7,8.5c-0.4,3.6-1.2,7.3-2.3,11.2c-1.1,3.9-2.5,7.7-4.3,11.4c-1.8,3.7-4,6.8-6.6,9.2c-1.1,1-2.3,1.9-3.6,2.6
		s-2.7,1.1-4.1,1.2c-1.4,0.1-2.7-0.1-4.1-0.5c-1.3-0.5-2.6-1.4-3.8-2.6c-1.5-1.6-2.3-3.6-2.4-6c-0.1-2.4,0.7-4.6,2.3-6.6
		c2.2-2.7,4-5.3,5.2-7.7c1.3-2.5,2.2-5,2.9-7.5c0.6-2.5,1.1-5.2,1.3-7.9c0.2-2.7,0.3-5.8,0.3-9.1v-35.2h-20c-2.2,0-4.1-0.2-5.5-0.7
		c-1.4-0.4-2.5-1-3.3-1.8s-1.3-1.6-1.6-2.6s-0.4-2.1-0.4-3.3c0-1,0.1-1.9,0.4-2.9c0.2-1,0.7-1.9,1.5-2.6c0.8-0.8,1.8-1.4,3.2-1.8
		c1.3-0.5,3.1-0.7,5.4-0.7h31.1V402.2z M1004.7,411.1c0-4,1-6.7,2.9-8.2s4.2-2.2,6.7-2.2c1.3,0,2.5,0.2,3.6,0.5
		c1.2,0.3,2.2,0.9,3,1.7c0.9,0.8,1.6,1.9,2.1,3.2c0.6,1.4,0.8,3,0.8,5v28.6h9.4c2.2,0,4.1,0.3,5.5,0.8s2.5,1.2,3.3,2
		s1.3,1.7,1.6,2.7c0.3,1,0.4,2,0.4,2.9c0,1.2-0.1,2.3-0.4,3.3s-0.8,1.9-1.6,2.7c-0.8,0.8-1.9,1.4-3.3,1.8c-1.4,0.5-3.3,0.7-5.5,0.7
		h-9.4v35.9c0,2.1-0.3,3.8-0.8,5.1c-0.6,1.4-1.3,2.4-2.1,3.2c-0.9,0.8-1.9,1.4-3,1.7c-1.2,0.3-2.4,0.5-3.6,0.5
		c-1.3,0-2.5-0.2-3.6-0.5c-1.2-0.3-2.2-0.9-3.1-1.7c-0.9-0.8-1.6-1.9-2.1-3.2c-0.5-1.4-0.8-3.1-0.8-5.1L1004.7,411.1L1004.7,411.1z"
		/>
</g>
<g>
	<defs>
		<rect id="SVGID_00000134225644804431571320000004859397955048945085_" x="67" y="-47" width="1177" height="422"/>
	</defs>
	<clipPath id="SVGID_00000034066870053394782040000010955273809605584787_">
		<use xlink:href="#SVGID_00000134225644804431571320000004859397955048945085_"  style="overflow:visible;"/>
	</clipPath>
	<g style="clip-path:url(#SVGID_00000034066870053394782040000010955273809605584787_);">
		<g>
			<circle class="st3" cx="608.3" cy="62" r="40"/>
		</g>
		<g>
			<circle class="st4" cx="608.3" cy="62" r="27.3"/>
		</g>
		<g>
			<path class="st3" d="M861.6,279.4l10.1-1.1c-4-32.9-15.1-24.8-10-45.9c7.1-29.3-9.5-26.1-10-31.2c-4-37.4-6.8-56.9-9.5-73.8
				c-0.1-0.6-0.2-1.2-0.3-1.7l-0.4-2.8c-0.3-1.8-0.7-3.6-1-5.4c0,0,0-0.1,0-0.1c0-0.1,0-0.2-0.1-0.3c-0.4-2-0.6-3.2-0.6-3.2h0
				c-1-4.7-2-9.3-3.6-13.9c-5.6-16.4-14.6-31.9-29-42.1c-7.1-5-12.8-7.4-23.4-10.8c-19-5.3-47.7-7.9-75-8.3c-27.3,0.4-56,2.9-75,8.3
				c-10.7,3.4-16.4,5.8-23.4,10.8C596,68,587,83.5,581.4,99.9c-1.5,4.6-2.8,9.2-3.9,13.9h0c0,0-18.1,74.8-25.7,156.5h0
				c0,0-64.2,199.2,29.8,252.6l0,0l-0.7,34.4h-0.2c0,0-5.7,5-8.7,13.8c-3.3,9.8-3.3,23.7,10.4,28.6c16.5,6.2,85.2,7.3,109,1.5
				c1.9,2.9,4.9,5.2,9.1,6.8c18.5,7,100.8,7.5,113.9-0.9c0,0,15.9-8.8,17.8-44.7l4.4-40.5C902.5,431.2,872.1,312.7,861.6,279.4z"/>
		</g>
		<g>
			<path class="st3" d="M560.4,226.3l-6.7-5.8c-5.8,5.7-9.3,12.9-9.4,22.3c-0.1,4.2,0.8,8.7,2.2,13.5c0,0-28,16.2-40,22.1
				c-11.9,5.9-37.2,11.5-37.2,11.5s-31.6,4.3-44.8,12.4c-13.4,8.3-28.1,24-24.8,56.1c5.9,49.7,70.6,44.7,70.6,44.7l0.6,7.5
				c0.2,2.9,2.1,5.7,5.7,6.2c14.8,1.5,36.5-1.2,52.3-6.4l11.9-1.5l31.7-77L560.4,226.3z"/>
		</g>
		<g>
			<g>
				<path class="st5" d="M624.7,608.1c-1.7,0-3.3-1.1-3.9-2.9c-0.7-2.4-1.1-4.9-1.1-7.5c0-5.3,1.6-10.5,4.5-14.5
					c1.3-1.8,3.8-2.2,5.6-0.9c1.8,1.3,2.2,3.8,0.9,5.6c-1.9,2.7-3,6.2-3,9.8c0,1.8,0.3,3.5,0.8,5.2c0.6,2.1-0.6,4.4-2.7,5
					C625.5,608,625.1,608.1,624.7,608.1z"/>
			</g>
			<g>
				<path class="st5" d="M593,605.4c-1.7,0-3.3-1.1-3.9-2.9c-0.7-2.4-1.1-4.9-1.1-7.5c0-5.3,1.6-10.5,4.5-14.5
					c1.3-1.8,3.8-2.2,5.6-0.9c1.8,1.3,2.2,3.8,0.9,5.6c-1.9,2.7-3,6.2-3,9.8c0,1.8,0.3,3.5,0.8,5.2c0.6,2.1-0.6,4.4-2.7,5
					C593.8,605.3,593.4,605.4,593,605.4z"/>
			</g>
		</g>
		<g>
			<g>
				<path class="st5" d="M749.3,615.2c-1.7,0-3.3-1.1-3.9-2.9l-0.1-0.4c-1-3-3.9-12,2.2-24.9c1-2,3.4-2.9,5.4-1.9
					c2,1,2.9,3.4,1.9,5.4c-4.7,10-2.6,16.7-1.8,18.9l0.2,0.6c0.6,2.1-0.6,4.4-2.7,5C750.1,615.2,749.7,615.2,749.3,615.2z"/>
			</g>
			<g>
				<path class="st5" d="M712.6,612.5c-1.7,0-3.3-1.1-3.9-2.8l-0.1-0.4c-1-3-4.1-11.9,1.9-24.9c0.9-2,3.3-2.9,5.3-2
					c2,0.9,2.9,3.3,2,5.3c-4.6,10.1-2.3,16.7-1.6,18.9l0.2,0.6c0.7,2.1-0.5,4.4-2.6,5.1C713.4,612.5,713,612.5,712.6,612.5z"/>
			</g>
		</g>
		<g>
			<path class="st5" d="M689.1,603.9c-1.4,0-2.8-0.7-3.5-2.1c-9.9-17.8-0.1-32.1,7.8-38.3l0.6-35.8c-7,0.8-16.1,0.6-23.8-1.8
				c-2.1-0.7-3.3-2.9-2.7-5s2.9-3.3,5-2.7c7.9,2.4,18.4,2.2,24.6,0.8c1.2-0.3,2.5,0,3.4,0.8c1,0.8,1.5,2,1.5,3.2l-0.7,42.7
				c0,1.3-0.7,2.6-1.8,3.3c-0.7,0.5-16.6,11.5-6.9,29c1.1,1.9,0.4,4.4-1.6,5.5C690.4,603.7,689.7,603.9,689.1,603.9z"/>
		</g>
		<g>
			<circle class="st3" cx="798.7" cy="62" r="40"/>
		</g>
		<g>
			<path class="st4" d="M825.7,64.2c1.1-13.7-8.6-26.5-22.2-29c-14.1-2.6-27.5,6.1-31.2,19.4c-0.4,1.5,0.1,3,1.3,3.9
				c7.7,5.4,24.5,20.3,30.9,27.8c1,1.2,2.8,1.6,4.2,1C817.9,83.6,824.8,75,825.7,64.2z"/>
		</g>
		<g>
			<path class="st3" d="M856.6,247c0,0,3.8,14.3,16.3,30.3l-27.4-1.8C845.5,275.5,832.4,245.1,856.6,247z"/>
		</g>
		<g>
			<line class="st3" x1="830.5" y1="86.3" x2="827.2" y2="90.1"/>
			<path class="st5" d="M827.2,94.1c-0.9,0-1.9-0.3-2.6-1c-1.7-1.5-1.9-4-0.4-5.7l3.3-3.8c1.5-1.7,4-1.9,5.7-0.4
				c1.7,1.5,1.9,4,0.4,5.7l-3.3,3.8C829.5,93.7,828.3,94.1,827.2,94.1z"/>
		</g>
		<g>
			<path class="st5" d="M557.3,226.8c-0.2,0-0.4,0-0.6,0c-2.2-0.3-3.7-2.3-3.4-4.5c8.5-61.1,20.1-108.9,20.2-109.4
				c0-0.1,0.1-0.2,0.1-0.3c1.2-5.1,2.5-9.6,4-13.9c0.4-1.3,0.9-2.6,1.4-3.8c-9.3-8.4-14.6-20.1-14.6-32.7c0-24.3,19.8-44,44-44
				c15.9,0,30.2,8.4,38.1,22c16.9-3.1,38.8-5,62.3-5.3c19.3,0.3,37.5,1.6,52.8,3.7c8.1-12.7,22.1-20.5,37.2-20.5
				c24.3,0,44,19.8,44,44c0,8.8-2.6,17.3-7.6,24.6c1.8,3.9,3.5,7.9,4.8,12c1.7,5,2.8,9.8,3.6,14c0,0.1,0.1,0.2,0.1,0.3
				c0,0,0.2,1.2,0.6,3.2l1.8,10.4c1.2,7.5,5.4,35.1,10,76.1c0.2,2.2-1.3,4.2-3.6,4.5c-2.2,0.2-4.2-1.3-4.5-3.6
				c-4.6-40.8-8.8-68.3-9.9-75.7l-1.8-10.2c-0.3-1.3-0.4-2.3-0.5-2.7c0-0.1-0.1-0.3-0.1-0.4c-0.8-4-1.9-8.7-3.5-13.4
				c-1.5-4.5-3.4-8.9-5.5-13.2c-0.7-1.4-0.5-3,0.4-4.2c4.8-6.3,7.4-13.9,7.4-21.8c0-19.8-16.1-36-36-36c-13.1,0-25.2,7.2-31.6,18.7
				c-0.8,1.5-2.5,2.3-4.1,2c-15.5-2.4-34.2-3.8-54.3-4c-24.3,0.3-46.9,2.4-63.7,5.7c-1.8,0.4-3.6-0.5-4.4-2.2
				c-6.1-12.5-18.5-20.2-32.3-20.2c-19.8,0-36,16.1-36,36c0,11.1,5.1,21.5,13.9,28.3c1.4,1.1,1.9,3,1.3,4.7
				c-0.8,2.1-1.6,4.1-2.3,6.1c-1.4,4.1-2.7,8.5-3.8,13.5c0,0.1-0.1,0.3-0.1,0.4c-1.1,4.5-11.9,50.3-19.9,108.2
				C561,225.4,559.3,226.8,557.3,226.8z"/>
		</g>
		<g>
			<path class="st5" d="M640.6,609c-24.5,0-49.7-1.8-59.6-5.5c-16-5.7-16.9-21.7-12.8-33.7c2.5-7.3,6.7-12.3,8.7-14.4l0.6-32.6
				c0-2.2,1.8-3.9,4-3.9c0,0,0.1,0,0.1,0c2.2,0,4,1.9,3.9,4.1l-0.7,34.4c0,1.5-0.8,2.7-2,3.4c-1.3,1.3-5,5.4-7.1,11.6
				c-1.5,4.3-5.2,18.8,8,23.5c15.5,5.8,81.5,6.9,105.4,1.7c2.2-0.5,4.3,0.9,4.8,3.1c0.5,2.2-0.9,4.3-3.1,4.8
				C680.3,607.8,660.7,609,640.6,609z"/>
		</g>
		<g>
			<path class="st5" d="M767.5,615.8c-6.3,0-12.7-0.1-19.2-0.2c-23.5-0.5-42.2-2.5-50.1-5.5c-5.3-1.9-9.3-4.4-12.2-7.5
				c-1.5-1.6-1.4-4.2,0.3-5.7c1.6-1.5,4.2-1.4,5.7,0.3c2,2.2,4.8,3.9,9,5.4c7,2.6,25.2,4.5,47.5,5c25,0.5,52.7,0.6,63.9-4.5
				c16.8-7.7,16.6-16.8,16.1-31.8c-0.1-2.8-0.2-5.8-0.1-8.8c0-0.1,0-0.3,0-0.4c0.5-4.9,1.3-12.7,2.1-20.5c0.8-7.8,1.6-15.7,2.1-20.6
				c0-0.5,0-1.7,0.8-2.9c1.3-1.8,3.8-2.2,5.6-0.9c1.3,1,1.9,2.6,1.6,4.2c0,0.2,0,0.4,0,0.5c-0.5,4.9-1.3,12.7-2.1,20.6
				c-0.8,7.7-1.6,15.5-2.1,20.4c0,2.9,0.1,5.7,0.1,8.3c0.4,15.1,0.9,29.3-20.8,39.3C806,614.8,787.7,615.8,767.5,615.8z
				 M839.9,522.7C839.9,522.7,839.9,522.7,839.9,522.7C839.9,522.7,839.9,522.7,839.9,522.7z"/>
		</g>
		<g>
			<g>
				<path class="st6" d="M734.1,203.9c-6.9,19.5-29.6,26.8-47.4,26.8h0c-17.8,0-40.5-7.3-47.4-26.8c-6.3-17.9,1.3-44.9,15.4-56.4
					c8.8-7.3,20.8-7.5,31.5-7.5h1c10.7,0,22.7,0.3,31.5,7.5C732.8,159.1,740.4,186,734.1,203.9z"/>
			</g>
			<g>
				<path class="st4" d="M702,139.9c-6.5-0.8-12.9-1.2-19.4-1.2c-6.5,0-12.9,0.4-19.4,1.2c-9.5,1.7-10.8,6.7-7.9,15.8
					c3.1,9.8,12.3,25.9,25.4,26.2c13.1-0.4,26-16.5,29.1-26.2C712.8,146.5,711.5,141.6,702,139.9z"/>
			</g>
			<g>
				<g>
					<polygon class="st5" points="724.5,129.3 728.1,148.5 749.5,148 751,127.8 					"/>
				</g>
				<g>
					<path class="st5" d="M722.3,131.9c-2.2,0-3.9-1.7-4-3.9c-0.1-2.2,1.6-4.1,3.9-4.2l29.3-1.2c2.2-0.1,4.1,1.6,4.2,3.9
						c0.1,2.2-1.6,4.1-3.9,4.2l-29.3,1.2C722.4,131.9,722.4,131.9,722.3,131.9z"/>
				</g>
				<g>
					<path class="st5" d="M729.1,154.1c-2.2,0-4-1.7-4-3.9c-0.1-2.2,1.7-4.1,3.9-4.1l18.7-0.5c2.2-0.1,4.1,1.7,4.1,3.9
						c0.1,2.2-1.7,4.1-3.9,4.1l-18.7,0.5C729.2,154.1,729.1,154.1,729.1,154.1z"/>
				</g>
				<g>
					
						<ellipse transform="matrix(0.7071 -0.7071 0.7071 0.7071 120.1928 558.1216)" class="st3" cx="733.8" cy="134" rx="5" ry="4.2"/>
				</g>
				<g>
					
						<ellipse transform="matrix(0.8308 -0.5566 0.5566 0.8308 46.677 437.386)" class="st3" cx="742.7" cy="141.9" rx="3.4" ry="2.8"/>
				</g>
			</g>
			<g>
				<g>
					<polygon class="st5" points="649.9,129.5 646.3,148.7 625,148.2 623.5,128 					"/>
				</g>
				<g>
					<path class="st5" d="M652.1,132.1c-0.1,0-0.1,0-0.2,0l-29.3-1.2c-2.2-0.1-4-2-3.9-4.2c0.1-2.2,2-4.1,4.2-3.9l29.3,1.2
						c2.2,0.1,4,2,3.9,4.2C656.1,130.4,654.3,132.1,652.1,132.1z"/>
				</g>
				<g>
					<path class="st5" d="M645.3,154.3c0,0-0.1,0-0.1,0l-18.7-0.5c-2.2-0.1-4-1.9-3.9-4.1c0.1-2.2,1.8-4.1,4.1-3.9l18.7,0.5
						c2.2,0.1,4,1.9,3.9,4.1C649.3,152.6,647.5,154.3,645.3,154.3z"/>
				</g>
				<g>
					
						<ellipse transform="matrix(0.7071 -0.7071 0.7071 0.7071 92.7489 492.2941)" class="st3" cx="640.6" cy="134.2" rx="4.2" ry="5"/>
				</g>
				<g>
					
						<ellipse transform="matrix(0.5566 -0.8308 0.8308 0.5566 162.0367 587.8746)" class="st3" cx="631.7" cy="142.1" rx="2.8" ry="3.4"/>
				</g>
			</g>
			<g>
				<path class="st5" d="M658.6,120.1c-0.8,0-1.7-0.3-2.4-0.8l-12.6-9.5c-1.8-1.3-2.1-3.9-0.8-5.6c1.3-1.8,3.9-2.1,5.6-0.8l12.6,9.5
					c1.8,1.3,2.1,3.9,0.8,5.6C661,119.6,659.8,120.1,658.6,120.1z"/>
			</g>
			<g>
				<path class="st5" d="M717.4,120.1c-1.2,0-2.4-0.6-3.2-1.6c-1.3-1.8-1-4.3,0.8-5.6l12.6-9.5c1.8-1.3,4.3-1,5.6,0.8
					c1.3,1.8,1,4.3-0.8,5.6l-12.6,9.5C719.1,119.9,718.2,120.1,717.4,120.1z"/>
			</g>
			<g>
				<path class="st5" d="M683.2,210.9c-25,0-32.2-6.2-33.4-7.5c-1.5-1.6-1.5-4.2,0.2-5.7c1.6-1.5,4-1.5,5.6,0.1
					c0.3,0.3,6.4,5.1,27.6,5.1c0.4,0,0.9,0,1.4,0c23.3-0.2,31.3-7.9,31.3-7.9c1.6-1.5,4.1-1.6,5.7,0c1.6,1.5,1.6,4,0.1,5.6
					c-1,1-10.4,10.2-37.1,10.4C684.2,210.9,683.7,210.9,683.2,210.9z"/>
			</g>
			<g>
				<path class="st5" d="M722.5,205.8c-0.8,0-1.7-0.3-2.4-0.8c-6.7-5.1-7.8-14.1-7.8-14.5c-0.2-2.2,1.4-4.2,3.6-4.4
					c2.2-0.2,4.2,1.3,4.4,3.5l0,0c0,0.1,0.8,6,4.7,8.9c1.8,1.3,2.1,3.9,0.8,5.6C725,205.2,723.7,205.8,722.5,205.8z"/>
			</g>
		</g>
		<g>
			<path class="st3" d="M542.1,334.5c-8.6,23.1-22,93.7-4.2,180.9c0.8,4.1,3.7,7.5,7.6,9c14.9,5.9,57.5,19.9,135.8,24.9
				c91.1,5.8,167.4-8.9,189.4-20.6c3.1-1.6,5.2-4.5,5.8-8c1.4-7.6,3.9-23.3,3.4-36.5"/>
			<path class="st5" d="M722.7,554.6c-13.4,0-27.4-0.4-41.7-1.3c-79-5-122.1-19.2-137-25.1c-5.2-2-8.9-6.5-10-12
				c-7.8-38.1-10.5-78.1-7.9-115.6c2.2-31.5,7.8-55.6,12.2-67.6c0.8-2.1,3.1-3.1,5.2-2.4c2.1,0.8,3.1,3.1,2.4,5.2
				c-21.5,57.5-10.2,148.5-4,178.7c0.6,2.8,2.5,5,5.1,6.1c14.5,5.7,56.7,19.7,134.6,24.6c87.3,5.5,164.8-8.1,187.2-20.1
				c2-1.1,3.4-2.9,3.8-5.1c1.4-7.9,3.8-23,3.3-35.6c-0.1-2.2,1.6-4.1,3.9-4.2c2.3-0.1,4.1,1.6,4.2,3.9c0.5,13.4-1.9,29.1-3.4,37.3
				c-0.8,4.6-3.7,8.6-7.9,10.8C853.6,542.4,796.1,554.6,722.7,554.6z"/>
		</g>
		<g>
			<path class="st5" d="M602.7,542.3c-1.9,0-3.6-1.4-4-3.3c-0.1-0.6-10.8-61.5-10.4-129c0.1-25.5,3.1-45.5,9.4-63
				c11.8-32.7,41.5-48.8,67.7-63c29.3-15.9,60.3-29.2,83.9-39c14.6-6.1,29.6-11.9,44-17.6c5.7-2.2,11.4-4.4,17-6.7
				c30.1-11.9,43.4-23.1,43.5-23.3c0.8-0.7,2-1.1,3.1-1c1.1,0.1,2.1,0.7,2.8,1.6c9.1,12.2,8.7,33.3,6.3,43.7c-0.5,2.2-2.6,3.5-4.8,3
				c-2.2-0.5-3.5-2.7-3-4.8c1.9-8.3,2.1-23.6-2.8-33.5c-6,4.3-19.4,12.8-42.1,21.8c-5.7,2.2-11.4,4.5-17.1,6.7
				c-14.4,5.6-29.3,11.5-43.9,17.5c-24.9,10.4-54.3,23.1-83.2,38.7c-25,13.5-53.2,28.8-64,58.6c-6,16.6-8.8,35.7-8.9,60.3
				c-0.4,66.7,10.2,126.9,10.3,127.5c0.4,2.2-1.1,4.3-3.3,4.7C603.2,542.3,603,542.3,602.7,542.3z"/>
		</g>
		<g>
			<path class="st5" d="M628.1,546.5c-2,0-3.7-1.4-4-3.5c-3.2-22.2-8.5-66.6-8.2-114.8c0.1-21.5,1.2-48.8,8.4-69
				c4.1-11.3,11.1-21.2,20.9-29.4c21.8-18.2,51.1-30.1,76.9-40.6c3.1-1.2,6.1-2.5,9.1-3.7c19.9-8.2,41.5-15.8,62.4-23.1
				c17.8-6.2,36.1-12.6,53.1-19.3c3.9-1.5,10.6-4.4,13.7-5.9c2-0.9,4.4-0.1,5.4,1.9c1,2,0.1,4.4-1.9,5.4c-3.3,1.6-10.2,4.5-14.2,6.1
				c-17.1,6.8-35.6,13.2-53.4,19.5c-20.8,7.3-42.3,14.8-62,22.9c-3,1.2-6,2.5-9.1,3.7c-25.3,10.3-54,22-74.8,39.4
				c-8.7,7.2-14.9,16-18.5,25.9c-6.8,19-7.8,45.4-8,66.3c-0.3,47.7,5,91.7,8.1,113.7c0.3,2.2-1.2,4.2-3.4,4.6
				C628.5,546.5,628.3,546.5,628.1,546.5z"/>
		</g>
		<g>
			<polygon class="st3" points="632.2,455.4 582.9,451.9 583.2,419.6 632.8,423.2 			"/>
		</g>
		<g>
			<path class="st5" d="M655.5,296.7c-0.7,0-1.3-0.2-1.9-0.5l-0.3-0.2c-30.2-16.7-57-32.2-80.3-52.2c-3.3-2.9-6.5-6-9.5-9
				c-3.2-3.1-6.2-6.1-9.3-8.8c-3.5,4.4-9.3,15-2.6,31.9c0.8,2.1-0.2,4.4-2.3,5.2c-2.1,0.8-4.4-0.2-5.2-2.3
				c-11.1-28.2,6.5-42.9,7.3-43.5c1.5-1.2,3.5-1.2,5,0c4.6,3.6,8.8,7.7,12.9,11.7c3,2.9,6,5.9,9.1,8.6c22.7,19.6,49.2,34.8,79,51.3
				l0.3,0.1c2,1.1,2.7,3.5,1.6,5.5C658.3,295.9,656.9,296.7,655.5,296.7z"/>
		</g>
		<g>
			<path class="st5" d="M628.5,316c-0.6,0-1.2-0.1-1.8-0.4c-25.6-12.8-60.6-32.4-81.8-53.3c-1.6-1.6-1.6-4.1,0-5.7
				c1.6-1.6,4.1-1.6,5.7,0c16.2,16,43.8,33.9,79.8,51.8c2,1,2.8,3.4,1.8,5.4C631.4,315.2,629.9,316,628.5,316z"/>
		</g>
		<g>
			<path class="st5" d="M486.3,421.4c-4.1,0-7.4-0.2-9.9-0.5c-5.2-0.5-9.1-4.7-9.4-10c-1.3-29.9-18.4-115.8-18.6-116.7
				c-0.2-1.1,0-2.2,0.6-3c0.6-0.9,1.5-1.5,2.6-1.7c0.2,0,21.1-4,39.4-9.5c18-5.4,53.1-26.9,53.4-27.1c1.9-1.2,4.4-0.6,5.5,1.3
				c1.2,1.9,0.6,4.4-1.3,5.5c-1.5,0.9-36.3,22.2-55.3,28c-13.9,4.2-29.2,7.5-36.3,8.9c3.5,17.5,16.8,86.8,18,114
				c0,1.2,0.9,2.2,2.1,2.3c8.3,0.8,25.8,1.2,50.3-6c2.1-0.6,4.4,0.6,5,2.7c0.6,2.1-0.6,4.4-2.7,5
				C511.3,420.1,496.5,421.4,486.3,421.4z"/>
		</g>
		<g>
			<path class="st5" d="M504.6,419.2c-2.1,0-3.9-1.7-4-3.8c0-0.3-2-34.5-5.7-64.6c-3.6-29-13.6-62.3-13.7-62.7
				c-0.6-2.1,0.6-4.4,2.7-5c2.1-0.6,4.4,0.6,5,2.7c0.1,0.3,10.4,34.3,14,64c3.7,30.4,5.7,64.8,5.8,65.1c0.1,2.2-1.6,4.1-3.8,4.3
				C504.7,419.2,504.6,419.2,504.6,419.2z"/>
		</g>
		<g>
			<path class="st5" d="M463,407.6c-7.9,0-22.5-1.3-39.2-8.8c-13.7-6.2-23.3-18.3-27-34.1c-4.3-18.5,0.1-39.9,11-53.1
				c17.3-21,44.2-22,45.3-22c0,0,0.1,0,0.1,0c2.2,0,4,1.7,4,3.9c0.1,2.2-1.7,4.1-3.9,4.1c-0.3,0-24.5,1-39.3,19.1
				c-9.4,11.4-13.2,29.9-9.4,46.2c2.2,9.4,7.9,22,22.4,28.6c22.2,10.1,40.8,7.9,41,7.8c2.2-0.3,4.2,1.3,4.5,3.5
				c0.3,2.2-1.3,4.2-3.5,4.5C468.9,407.3,466.7,407.6,463,407.6z"/>
		</g>
		<g>
			<path class="st5" d="M722.6,429.9c-103.2,0-192.1-11.7-193.3-11.8c-2.2-0.3-3.8-2.3-3.5-4.5c0.3-2.2,2.3-3.8,4.5-3.5
				c1.4,0.2,145.8,19.2,279.9,8.5c2.2-0.2,4.2,1.5,4.3,3.7c0.2,2.2-1.5,4.2-3.7,4.3C781.5,429,751.5,429.9,722.6,429.9z"/>
		</g>
		<g>
			<path class="st5" d="M725.9,462.3c-104.2,0-195.5-11.7-196.6-11.8c-2.2-0.3-3.8-2.3-3.5-4.5c0.3-2.2,2.3-3.8,4.5-3.5
				c1.5,0.2,149.7,19.2,283.8,8.5c2.2-0.1,4.2,1.5,4.3,3.7c0.2,2.2-1.5,4.2-3.7,4.3C785.3,461.3,755.1,462.3,725.9,462.3z"/>
		</g>
		<g>
			<path class="st3" d="M755.5,419.9c-17.1,2.6-46.2,40.1-47.3,50.2s9.5,22.8,17.7,25.6c8.3,2.8,23.1,5.7,25.6,1.8
				c2.6-3.9,6.1-30.9,4.9-40"/>
			<path class="st5" d="M744.9,503.5c-8.3,0-18.6-3.3-20.2-3.9c-10.3-3.5-21.7-18-20.5-29.9c1.3-11.9,32-50.9,50.7-53.7
				c2.2-0.3,4.3,1.2,4.6,3.4c0.3,2.2-1.2,4.2-3.4,4.6c-14.8,2.2-42.9,37.9-43.8,46.6c-0.8,7.8,8,19,15,21.4c8.8,3,18.7,4.2,21.1,3.2
				c1.9-4.2,5.3-28.6,4.1-37c-0.3-2.2,1.3-4.2,3.5-4.5c2.2-0.3,4.2,1.3,4.5,3.5c1.2,9.1-2,37.5-5.5,42.8
				C753.1,502.5,749.3,503.5,744.9,503.5z"/>
		</g>
		<g>
			<path class="st5" d="M742.2,465.1c-0.2,0-0.4,0-0.6,0c-2.2-0.3-3.7-2.3-3.4-4.6c2.1-15.3,14.5-22.9,15-23.2
				c1.9-1.1,4.4-0.5,5.5,1.4c1.1,1.9,0.5,4.4-1.4,5.5c-0.2,0.1-9.6,6-11.2,17.4C745.9,463.7,744.2,465.1,742.2,465.1z"/>
		</g>
		<g>
			<path class="st3" d="M784.7,419.5c8.5,3.5,32.6,39.5,31.9,59.9c-0.7,20.4-7.2,19.2-18.5,21.7c-11.3,2.6-24.7,6.9-25-13.4
				c-0.4-20.3,0.2-29,0.2-29"/>
			<path class="st5" d="M784.9,507.4c-3.5,0-6.8-0.8-9.6-2.9c-4.1-3.2-6.1-8.6-6.2-16.6c-0.4-20.2,0.2-29,0.3-29.4
				c0.2-2.2,2.1-3.9,4.3-3.7c2.2,0.2,3.9,2.1,3.7,4.3c0,0.1-0.6,8.9-0.2,28.7c0.1,3.7,0.7,8.5,3.1,10.4c3,2.3,9.3,0.9,15-0.4l2-0.5
				c1.3-0.3,2.5-0.5,3.6-0.8c8.3-1.7,11.2-2.2,11.7-17.2c0.7-19.6-23.4-53.5-29.4-56c-2.1-0.8-3-3.2-2.2-5.3c0.8-2.1,3.2-3,5.3-2.2
				c10.2,4.2,35.2,41.5,34.4,63.7c-0.7,20.3-7.4,22.7-18.2,24.8c-1.1,0.2-2.2,0.4-3.4,0.7l-2,0.5
				C793.1,506.4,788.9,507.4,784.9,507.4z"/>
		</g>
		<g>
			<path class="st5" d="M790.5,468.1c-0.1,0-0.3,0-0.4,0c-2.2-0.2-3.8-2.2-3.6-4.4c0.5-5.4,0.3-8.8-2.3-13.2
				c-1.1-1.9-0.5-4.4,1.4-5.5c1.9-1.1,4.4-0.5,5.5,1.4c4.1,6.9,4,12.8,3.4,18.1C794.3,466.6,792.6,468.1,790.5,468.1z"/>
		</g>
		<g>
			<path class="st3" d="M755.6,422c-2.7-8.3,27.1-6.4,29.1-2.6c2.8,5.4,3.9,29.6,1.7,35.5c-2.2,5.9-30.2,5.4-29.9,2.6
				C757.1,451.1,757.1,426.5,755.6,422z"/>
			<path class="st5" d="M768.8,463.5c-5.1,0-9.4-0.5-11-0.8c-5-1.2-5.5-4-5.3-5.6c0.7-7.3,0.4-30.6-0.7-33.8c-1-3-0.2-7,5-9.2
				c6.9-2.9,28.2-2.7,31.5,3.5c3.3,6.3,4.6,31.7,1.9,38.8C788,462.1,777.4,463.5,768.8,463.5z M760.7,455.1
				c5.5,0.9,19.3,0.4,22.1-1.9c1.6-5.3,0.7-26-1.4-31.3c-3.7-1.8-18.1-2.4-21.7-0.3C761.1,427.6,761.1,446.7,760.7,455.1z
				 M782.9,453.1L782.9,453.1L782.9,453.1z M781.7,422.1L781.7,422.1L781.7,422.1z M759.4,420.8l-3.8,1.3L759.4,420.8
				C759.4,420.8,759.4,420.8,759.4,420.8z"/>
		</g>
		<g>
			<g>
				<path class="st7" d="M387.5,220.4h70c0,0,4.1,13.9-2,27c-6.1,13.1-17.1,41.6-29.3,41.4c-12.3-0.2-26.8-12.8-32.1-28.5
					C388.8,244.6,387.5,220.4,387.5,220.4z"/>
			</g>
			<g>
				<path class="st5" d="M452.1,372.6h-58c23.9-5.2,26.4-14.3,26.8-27c0.3-8.4-0.6-35.4-1.2-41.7c-0.3-3.2-1.7-10.3-3.9-12.7
					c-10.9-11.7-20.3-25-23.1-33c4.2,9.1,9.2,15.2,14,19.2c9.5,8.1,23.3,8.1,32.8,0c4.8-4.1,9.8-10.1,14-19.2
					c-2.7,8-12.2,21.3-23.1,33c-2.2,2.4-3.6,9.5-3.9,12.7c-0.6,6.4-1.5,33.4-1.3,41.7C425.7,358.2,428.1,367.4,452.1,372.6z"/>
				<path class="st5" d="M452.1,376.6h-58c-2.1,0-3.8-1.6-4-3.6c-0.2-2,1.1-3.9,3.1-4.4c23-5,23.3-13.4,23.6-23.2
					c0.3-8-0.6-35-1.2-41.2c-0.4-4.1-1.8-9.3-2.8-10.4c-11.7-12.5-21.1-26-23.9-34.4c-0.7-2,0.3-4.2,2.3-5c2-0.8,4.3,0.1,5.2,2.1
					c3.4,7.5,7.8,13.5,12.9,17.8c8,6.8,19.6,6.8,27.6,0c5.1-4.4,9.5-10.4,12.9-17.8c0.9-1.9,3.1-2.8,5.2-2.1c2,0.8,3,3,2.3,5
					c-2.9,8.4-12.3,22-23.9,34.4c-1,1.1-2.4,6.3-2.8,10.4c-0.6,6.3-1.5,33.2-1.2,41.2c0.3,9.8,0.6,18.2,23.6,23.2
					c2,0.4,3.4,2.3,3.1,4.4C455.8,375.1,454.1,376.6,452.1,376.6z M415.1,368.6H431c-4.1-3-6.5-6.7-8-10.9
					C421.6,361.9,419.2,365.5,415.1,368.6z M417.3,286.9c0.5,0.5,0.9,1,1.4,1.5c2.4,2.6,3.7,7.8,4.4,11.3c0.7-3.6,2-8.7,4.4-11.3
					c0.5-0.5,0.9-1,1.4-1.5C425,287.6,421.1,287.6,417.3,286.9z"/>
			</g>
			<g>
				<path class="st5" d="M423.1,287.2c-7.3,0-14.5-2.6-20.3-7.9c-5.5-5-10.1-11.5-13.7-19.5c-15.2-33,2-71.5,2.7-73.1
					c0.7-1.4,2.1-2.4,3.7-2.4l28.5,0l26.9,0c1.6,0,3,0.9,3.7,2.4c0.7,1.6,17.9,40,2.7,73.1l0,0c-3.6,7.9-8.3,14.5-13.7,19.5
					C437.6,284.6,430.3,287.2,423.1,287.2z M398.1,192.4c-3.3,8.5-13.4,38.7-1.8,64c3.2,6.9,7.2,12.6,11.9,16.9
					c8.5,7.8,21.3,7.8,29.8,0c4.7-4.3,8.7-10,11.9-16.9l0,0c11.7-25.3,1.6-55.5-1.8-64l-25.8,0L398.1,192.4z M453.5,258.1
					L453.5,258.1L453.5,258.1z"/>
			</g>
		</g>
		<g>
			<g>
				<g>
					<path class="st3" d="M909,339.4c-13.3-55.2-31.8-86.5-46.8-98.5l-52,123.3c5.7,40.2,11.3,67.3,11.3,67.3
						c-5.7,15.8,8,34.4,8,34.4c-2.2,20,18.6,23.5,18.6,23.5c7.6,1.9,38.4,6.8,55.8-28.7c3.6-6.3,5.8-18.4,5.8-18.4
						c0.5-1.8,1.3-6.7,1.3-6.7s8.4-2.4,9.6-7.3C924,391.6,909,339.4,909,339.4z"/>
				</g>
				<g>
					<path class="st3" d="M849.1,465.5c0,0-8.9,17.3-24.6,12.2c0,0-18.9-4.6-10.5-27c0,0,3.3-6.7,6.9-16.8"/>
					<path class="st5" d="M830.1,482.7c-2.1,0-4.4-0.3-6.8-1.1c-1.4-0.4-9.2-2.8-13.2-10.4c-3.2-6-3.1-13.3,0.1-21.9
						c0-0.1,0.1-0.2,0.1-0.3c0-0.1,3.2-6.7,6.7-16.4c0.8-2.1,3.1-3.2,5.2-2.4c2.1,0.8,3.2,3.1,2.4,5.2c-3.4,9.4-6.4,15.9-7,17
						c-2.3,6.2-2.5,11.2-0.5,15c2.6,5,8.2,6.4,8.2,6.5c0.1,0,0.2,0.1,0.3,0.1c12.2,4,19.4-9.7,19.7-10.2c1-2,3.5-2.7,5.4-1.7
						c2,1,2.7,3.4,1.7,5.4C849.6,473.3,841.5,482.7,830.1,482.7z"/>
				</g>
			</g>
			<g>
				<path class="st5" d="M881.6,442.7c-29,0-63.4-5.7-69-8.1c-6.3-2.8-6.3-10.8-6.4-24.2c0-13.9-0.1-33-6.3-56.8
					c-0.6-2.2,0.7-4.4,2.9-4.9c2.1-0.6,4.4,0.7,4.9,2.9c6.5,24.9,6.5,45.3,6.5,58.8c0,6.7,0,15.8,1.5,16.8
					c6.5,2.8,79.4,13.6,98.1,2.6c2.8-1.6,3-3.1,3-3.6c2.3-22.8-5.4-67.5-19.8-113.7c-16.8-54.1-37-68.2-37.2-68.4
					c-1.8-1.2-2.3-3.7-1.1-5.6c1.2-1.8,3.7-2.4,5.5-1.1c0.9,0.6,22.6,15.3,40.4,72.7c14.9,47.9,22.6,92.7,20.1,116.9
					c-0.3,2.7-1.7,6.7-7,9.7C910.6,441.2,896.8,442.7,881.6,442.7z"/>
			</g>
			<g>
				<path class="st5" d="M861.5,494.8c-0.8,0-1.5,0-2.3-0.1c-1.9,0.1-22.5,0-31.2-13.9c-1.2-1.9-0.6-4.4,1.3-5.6
					c1.9-1.2,4.4-0.6,5.6,1.3c6.2,9.8,22.5,10.1,24.1,10.2c0.2,0,0.3,0,0.5,0c13.6,0.7,31.6-7.5,40.9-27.7c0.1-0.1,0.1-0.3,0.2-0.4
					c2.8-4.6,5.4-16.8,6.1-21.1c0.4-2.2,2.5-3.6,4.7-3.3c2.2,0.4,3.6,2.5,3.3,4.7c-0.3,1.7-3.1,16.8-7,23.6
					C900,478.9,882.9,494.8,861.5,494.8z"/>
			</g>
			<g>
				<path class="st5" d="M858.8,412.5c-24.7,0-46.9-2.1-47.2-2.2c-2.2-0.2-3.8-2.2-3.6-4.4c0.2-2.2,2.2-3.8,4.4-3.6
					c0.3,0,31.4,3,60.6,1.8c28.8-1.1,45.8-6.8,45.9-6.8c2.1-0.7,4.4,0.4,5.1,2.5c0.7,2.1-0.4,4.4-2.5,5.1
					c-0.7,0.2-18.1,6.1-48.2,7.3C868.5,412.4,863.6,412.5,858.8,412.5z"/>
			</g>
		</g>
		<g>
			<path class="st3" d="M435.9,317.3c0,0-28.4,4.8-19.4,27.6c6.3,16,35.6,6.1,35.6,6.1"/>
			<path class="st5" d="M434,358c-8.7,0-17.7-2.5-21.4-11.7c-2.9-7.3-2.7-13.8,0.4-19.4c6.1-10.8,21.4-13.6,22.1-13.7
				c2.2-0.4,4.3,1.1,4.6,3.3c0.4,2.2-1.1,4.3-3.3,4.6c-0.2,0-12.3,2.2-16.4,9.7c-1.9,3.4-1.9,7.5,0.1,12.4
				c4.8,12.1,30.3,3.9,30.5,3.8c2.1-0.7,4.4,0.4,5.1,2.5c0.7,2.1-0.4,4.4-2.5,5.1C452.6,355,443.6,358,434,358z"/>
		</g>
	</g>
</g>
</svg>
