<svg width="17" height="17" viewBox="0 0 17 17" fill="none" xmlns="http://www.w3.org/2000/svg">
<mask id="mask0_80_73" style="mask-type:alpha" maskUnits="userSpaceOnUse" x="0" y="0" width="17" height="17">
<rect width="16.5079" height="16.5079" fill="#D9D9D9"/>
</mask>
<g mask="url(#mask0_80_73)">
<path d="M11.8662 12.3085H15.1333V13.6822H10.4905L11.8662 12.3085ZM3.26827 13.6822L1.80663 12.2226C1.54296 11.9593 1.40826 11.6331 1.40253 11.2439C1.39679 10.8547 1.52576 10.5227 1.78943 10.2479L9.35557 2.41796C9.61924 2.14323 9.94309 2.00586 10.3271 2.00586C10.7112 2.00586 11.035 2.1375 11.2987 2.40079L14.7206 5.81783C14.9843 6.08112 15.1162 6.40736 15.1162 6.79657C15.1162 7.18578 14.9843 7.51203 14.7206 7.77532L8.94287 13.6822H3.26827ZM8.35821 12.3085L13.7577 6.7794L10.3529 3.37954L2.75239 11.2095L3.85292 12.3085H8.35821Z" fill="#222222"/>
</g>
</svg>
