<?xml version="1.0" encoding="utf-8"?>
<!-- Generator: Adobe Illustrator 28.3.0, SVG Export Plug-In . SVG Version: 6.00 Build 0)  -->
<svg version="1.1" id="레이어_1" xmlns="http://www.w3.org/2000/svg" xmlns:xlink="http://www.w3.org/1999/xlink" x="0px"
	 y="0px" width="1920px" height="2945.9px" viewBox="0 0 1920 2945.9" style="enable-background:new 0 0 1920 2945.9;"
	 xml:space="preserve">
<style type="text/css">
	.st0{fill:#191E3B;stroke:#191E3B;stroke-width:12.8341;stroke-linecap:round;stroke-linejoin:round;stroke-miterlimit:10;}
	.st1{fill:#FFFFFF;}
	.st2{fill:#71CCFF;}
	.st3{opacity:0.1;}
	.st4{fill:#FFFFFF;stroke:#B3B3B3;stroke-width:0.4871;stroke-miterlimit:10;}
	.st5{fill:#BC002D;}
	.st6{fill:#F2F2F2;}
	.st7{fill:#DA251D;}
	.st8{fill:#FFFF00;}
	.st9{fill:#2D2A4A;}
	.st10{fill:#F4F5F8;}
	.st11{fill:#A51931;}
	.st12{fill:#191E3B;}
	.st13{fill:#2E4162;}
	.st14{fill:#2CABE1;}
	.st15{fill:#C9EAF7;}
</style>
<g>
	<path class="st0" d="M363.7,564.6H251V534h112.7V564.6z M360.1,640.8c0,27-22.4,45-51.7,45s-51.7-18.1-51.7-45v-22.9
		c0-27,22.4-45,51.7-45s51.7,18.1,51.7,45V640.8z M354.4,522.1h-92.8v-30.6h92.8L354.4,522.1L354.4,522.1z M308.4,602.6
		c-10.7,0-16.7,6.6-16.7,17.4v18.7c0,10.7,5.9,17.4,16.7,17.4c10.5,0,16.7-6.4,16.7-16.9v-19.7C325.1,609,318.9,602.6,308.4,602.6z
		 M375.2,490.3H411v81.4h15.1v-81.4h36.1v195h-36.1v-80.7H411v80.7h-35.9v-195L375.2,490.3L375.2,490.3z"/>
	<path class="st0" d="M624.3,543.6v19.2c0,30.6-20.3,50.5-50.3,56.2v32.7h33c13.9,0,29.5-5,39.5-14.4v-147h36.6v195h-36.6v-14.4
		c-8.9,6.9-23.8,11.4-37.9,11.4H480.8v-30.6h56.5v-32.5c-30.4-5.5-50.8-25.6-50.8-56.5v-19.2c0-36.8,29-58.3,68.8-58.3
		C595.3,485.3,624.3,506.8,624.3,543.6z M587.5,562.1V544c0-17.1-13.7-27.4-32.2-27.4c-18.7,0-32.2,10.3-32.2,27.4v18.1
		c0,17.1,13.5,27.4,32,27.4C573.8,589.5,587.5,579.3,587.5,562.1z"/>
	<path class="st0" d="M861.2,600.1h-31.3c-29.7,0-55.6-22.4-55.6-56.2c0-33.6,25.4-55.8,55.3-55.8h31.5c29.7,0,55.1,22.2,55.1,55.8
		C916.3,577.7,890.9,600.1,861.2,600.1z M796.5,686v-72.7h37.9v41.6h145.4V686H796.5z M854.5,569.2c13.3,0,25.8-8.7,25.8-25.1
		c0-16.7-12.6-25.1-25.8-25.1h-18.3c-13.5,0-25.8,8.9-25.8,25.1c0,16.5,12.3,25.1,25.8,25.1H854.5z M976.8,630h-36.6V489.6h36.6V630
		z"/>
	<path class="st0" d="M1009.8,491.5h123.7v56.2c0,57.6-33.4,128.5-127.8,135.6v-33.1c76.4-4.3,91-68.8,91-101.5v-26.1h-86.9
		L1009.8,491.5L1009.8,491.5z M1203.6,685.3h-36.8v-195h36.8V685.3z"/>
	<path class="st0" d="M1232.6,682.4v-29h81.4v-15.1h-23.5c-28.6,0-46.2-14.9-46.2-37.9c0-22.9,17.1-37.5,46-37.5h86.4
		c28.8,0,46,14.6,46,37.5c0,23.1-17.1,37.9-46,37.9h-23.8v15.1h81.2v29H1232.6z M1431.8,554.8H1235v-28.1h196.8V554.8z M1408.9,518
		h-151.1v-28.3h151.1V518z M1373.5,609.7c6.6,0,10.7-3.7,10.7-9.1c0-5.3-4.1-8.9-10.7-8.9h-80c-6.9,0-10.7,3.9-10.7,8.9
		c0,5.3,3.9,9.1,10.7,9.1H1373.5z"/>
	<path class="st0" d="M1560.9,560.1v25.1h-104.5v-94.4h97.8v24.9h-60.8v9.1h54.2v24.9h-54.2V560L1560.9,560.1L1560.9,560.1z
		 M1660.1,593.9V654h-148.4v8h151.1v26.3h-190v-60.8h147.9v-7.3h-147.9v-26.3H1660.1z M1553.8,520.3h22.9v-30.6h36.1V587h-36.1
		v-36.1h-22.9V520.3z M1624,489.6h36.1V587H1624V489.6z"/>
</g>
<g>
	<path class="st0" d="M363.2,547H250.5v-30.6h112.7V547z M359.5,623.1c0,27-22.4,45-51.7,45s-51.7-18.1-51.7-45v-22.9
		c0-27,22.4-45,51.7-45s51.7,18.1,51.7,45V623.1z M353.8,504.5H261v-30.6h92.8V504.5z M307.9,584.9c-10.7,0-16.7,6.6-16.7,17.4V621
		c0,10.7,5.9,17.4,16.7,17.4c10.5,0,16.7-6.4,16.7-16.9v-19.7C324.6,591.3,318.4,584.9,307.9,584.9z M374.6,472.7h35.9v81.4h15.1
		v-81.4h36.1v195h-36.1V587h-15.1v80.7h-35.9V472.7z"/>
	<path class="st0" d="M623.8,525.9v19.2c0,30.6-20.3,50.5-50.3,56.2V634h32.9c13.9,0,29.5-5,39.5-14.4v-147h36.6v195H646v-14.4
		c-8.9,6.9-23.8,11.4-37.9,11.4H480.2V634h56.5v-32.5c-30.4-5.5-50.8-25.6-50.8-56.5v-19.2c0-36.8,29-58.3,68.8-58.3
		C594.8,467.7,623.8,489.1,623.8,525.9z M587,544.5v-18.1c0-17.1-13.7-27.4-32.2-27.4c-18.7,0-32.2,10.3-32.2,27.4v18.1
		c0,17.1,13.5,27.4,32,27.4C573.3,571.9,587,561.6,587,544.5z"/>
	<path class="st0" d="M860.6,582.4h-31.3c-29.7,0-55.6-22.4-55.6-56.2c0-33.6,25.4-55.8,55.3-55.8h31.5c29.7,0,55.1,22.2,55.1,55.8
		C915.7,560,890.3,582.4,860.6,582.4z M795.9,668.4v-72.7h37.9v41.6h145.4v31.1L795.9,668.4L795.9,668.4z M854,551.5
		c13.3,0,25.8-8.7,25.8-25.1c0-16.7-12.6-25.1-25.8-25.1h-18.3c-13.5,0-25.8,8.9-25.8,25.1c0,16.5,12.3,25.1,25.8,25.1H854z
		 M976.3,612.4h-36.6V472h36.6V612.4z"/>
	<path class="st0" d="M1009.2,473.8h123.7V530c0,57.6-33.4,128.5-127.8,135.6v-33.1c76.4-4.3,91-68.8,91-101.5v-26.1h-86.9
		L1009.2,473.8L1009.2,473.8z M1203.1,667.7h-36.8v-195h36.8V667.7z"/>
	<path class="st0" d="M1232.1,664.7v-29h81.4v-15.1H1290c-28.6,0-46.2-14.9-46.2-37.9c0-22.9,17.1-37.5,46-37.5h86.4
		c28.8,0,46,14.6,46,37.5c0,23.1-17.1,37.9-46,37.9h-23.8v15.1h81.2v29H1232.1z M1431.2,537.1h-196.8V509h196.8V537.1z
		 M1408.4,500.3h-151.1V472h151.1V500.3z M1372.9,592c6.6,0,10.7-3.7,10.7-9.1c0-5.3-4.1-8.9-10.7-8.9h-80c-6.9,0-10.7,3.9-10.7,8.9
		c0,5.3,3.9,9.1,10.7,9.1H1372.9z"/>
	<path class="st0" d="M1560.4,542.4v25.1h-104.5v-94.4h97.8V498h-60.8v9.1h54.2V532h-54.2v10.3h67.5V542.4z M1659.6,576.2v60.1
		h-148.4v8h151.1v26.3h-190v-60.8h147.9v-7.3h-147.9v-26.3H1659.6z M1553.3,502.6h22.9V472h36.1v97.4h-36.1v-36.1h-22.9V502.6z
		 M1623.5,472h36.1v97.4h-36.1V472z"/>
</g>
<g>
	<path class="st1" d="M363.2,547H250.5v-30.6h112.7V547z M359.5,623.1c0,27-22.4,45-51.7,45s-51.7-18.1-51.7-45v-22.9
		c0-27,22.4-45,51.7-45s51.7,18.1,51.7,45V623.1z M353.8,504.5H261v-30.6h92.8V504.5z M307.9,584.9c-10.7,0-16.7,6.6-16.7,17.4V621
		c0,10.7,5.9,17.4,16.7,17.4c10.5,0,16.7-6.4,16.7-16.9v-19.7C324.6,591.3,318.4,584.9,307.9,584.9z M374.6,472.7h35.9v81.4h15.1
		v-81.4h36.1v195h-36.1V587h-15.1v80.7h-35.9V472.7z"/>
	<path class="st1" d="M623.8,525.9v19.2c0,30.6-20.3,50.5-50.3,56.2V634h32.9c13.9,0,29.5-5,39.5-14.4v-147h36.6v195H646v-14.4
		c-8.9,6.9-23.8,11.4-37.9,11.4H480.2V634h56.5v-32.5c-30.4-5.5-50.8-25.6-50.8-56.5v-19.2c0-36.8,29-58.3,68.8-58.3
		C594.8,467.7,623.8,489.1,623.8,525.9z M587,544.5v-18.1c0-17.1-13.7-27.4-32.2-27.4c-18.7,0-32.2,10.3-32.2,27.4v18.1
		c0,17.1,13.5,27.4,32,27.4C573.3,571.9,587,561.6,587,544.5z"/>
	<path class="st1" d="M860.6,582.4h-31.3c-29.7,0-55.6-22.4-55.6-56.2c0-33.6,25.4-55.8,55.3-55.8h31.5c29.7,0,55.1,22.2,55.1,55.8
		C915.7,560,890.3,582.4,860.6,582.4z M795.9,668.4v-72.7h37.9v41.6h145.4v31.1L795.9,668.4L795.9,668.4z M854,551.5
		c13.3,0,25.8-8.7,25.8-25.1c0-16.7-12.6-25.1-25.8-25.1h-18.3c-13.5,0-25.8,8.9-25.8,25.1c0,16.5,12.3,25.1,25.8,25.1H854z
		 M976.3,612.4h-36.6V472h36.6V612.4z"/>
	<path class="st1" d="M1009.2,473.8h123.7V530c0,57.6-33.4,128.5-127.8,135.6v-33.1c76.4-4.3,91-68.8,91-101.5v-26.1h-86.9
		L1009.2,473.8L1009.2,473.8z M1203.1,667.7h-36.8v-195h36.8V667.7z"/>
	<path class="st1" d="M1232.1,664.7v-29h81.4v-15.1H1290c-28.6,0-46.2-14.9-46.2-37.9c0-22.9,17.1-37.5,46-37.5h86.4
		c28.8,0,46,14.6,46,37.5c0,23.1-17.1,37.9-46,37.9h-23.8v15.1h81.2v29H1232.1z M1431.2,537.1h-196.8V509h196.8V537.1z
		 M1408.4,500.3h-151.1V472h151.1V500.3z M1372.9,592c6.6,0,10.7-3.7,10.7-9.1c0-5.3-4.1-8.9-10.7-8.9h-80c-6.9,0-10.7,3.9-10.7,8.9
		c0,5.3,3.9,9.1,10.7,9.1H1372.9z"/>
	<path class="st1" d="M1560.4,542.4v25.1h-104.5v-94.4h97.8V498h-60.8v9.1h54.2V532h-54.2v10.3h67.5V542.4z M1659.6,576.2v60.1
		h-148.4v8h151.1v26.3h-190v-60.8h147.9v-7.3h-147.9v-26.3H1659.6z M1553.3,502.6h22.9V472h36.1v97.4h-36.1v-36.1h-22.9V502.6z
		 M1623.5,472h36.1v97.4h-36.1V472z"/>
</g>
<g>
	<g>
		<g>
			<g>
				<path class="st2" d="M619.1,1178.6c0-13.4,7.9-24.9,19.3-30.2v-69c0-19.4-15.7-35.1-35.1-35.1H121.9
					c-19.4,0-35.1,15.7-35.1,35.1v69c11.4,5.3,19.3,16.8,19.3,30.2c0,13.4-7.9,24.9-19.3,30.3v69c0,19.4,15.7,35.1,35.1,35.1h481.5
					c19.4,0,35.1-15.7,35.1-35.1v-69C627.1,1203.6,619.1,1192.1,619.1,1178.6z"/>
				<path class="st1" d="M629.7,1143.2v-63.9c0-14.5-11.8-26.4-26.4-26.4h-84.7v3.8c0,1.2-1,2.3-2.2,2.3s-2.3-1-2.3-2.3v-3.8H121.9
					c-14.5,0-26.4,11.8-26.4,26.4v63.9c11.9,7.7,19.3,21,19.3,35.4s-7.4,27.7-19.3,35.4v63.9c0,14.5,11.8,26.4,26.4,26.4h392.3v-3.8
					c0-1.2,1-2.3,2.3-2.3c1.2,0,2.2,1,2.2,2.3v3.8h84.7c14.5,0,26.4-11.8,26.4-26.4V1214c-11.9-7.7-19.3-21-19.3-35.4
					C610.4,1164.3,617.8,1150.9,629.7,1143.2z M518.6,1290.7c0,1.2-1,2.2-2.2,2.2s-2.3-1-2.3-2.2v-9.7c0-1.2,1-2.3,2.3-2.3
					c1.2,0,2.2,1,2.2,2.3V1290.7z M518.6,1271.2c0,1.2-1,2.3-2.2,2.3s-2.3-1-2.3-2.3v-9.7c0-1.2,1-2.3,2.3-2.3c1.2,0,2.2,1,2.2,2.3
					V1271.2z M518.6,1251.8c0,1.2-1,2.3-2.2,2.3s-2.3-1-2.3-2.3v-9.7c0-1.2,1-2.3,2.3-2.3c1.2,0,2.2,1,2.2,2.3V1251.8z
					 M518.6,1232.3c0,1.2-1,2.3-2.2,2.3s-2.3-1-2.3-2.3v-9.7c0-1.2,1-2.3,2.3-2.3c1.2,0,2.2,1,2.2,2.3V1232.3z M518.6,1212.8
					c0,1.2-1,2.3-2.2,2.3s-2.3-1-2.3-2.3v-9.7c0-1.2,1-2.3,2.3-2.3c1.2,0,2.2,1,2.2,2.3V1212.8z M518.6,1193.3c0,1.2-1,2.2-2.2,2.2
					s-2.3-1-2.3-2.2v-9.7c0-1.2,1-2.3,2.3-2.3c1.2,0,2.2,1,2.2,2.3V1193.3z M518.6,1173.8c0,1.2-1,2.3-2.2,2.3s-2.3-1-2.3-2.3v-9.7
					c0-1.2,1-2.3,2.3-2.3c1.2,0,2.2,1,2.2,2.3V1173.8z M518.6,1154.3c0,1.2-1,2.3-2.2,2.3s-2.3-1-2.3-2.3v-9.7c0-1.2,1-2.3,2.3-2.3
					c1.2,0,2.2,1,2.2,2.3V1154.3z M518.6,1134.8c0,1.2-1,2.3-2.2,2.3s-2.3-1-2.3-2.3v-9.7c0-1.2,1-2.3,2.3-2.3c1.2,0,2.2,1,2.2,2.3
					V1134.8z M518.6,1115.3c0,1.2-1,2.3-2.2,2.3s-2.3-1-2.3-2.3v-9.7c0-1.2,1-2.3,2.3-2.3c1.2,0,2.2,1,2.2,2.3V1115.3z
					 M518.6,1095.8c0,1.2-1,2.2-2.2,2.2s-2.3-1-2.3-2.2v-9.7c0-1.2,1-2.3,2.3-2.3c1.2,0,2.2,1,2.2,2.3V1095.8z M518.6,1076.3
					c0,1.2-1,2.3-2.2,2.3s-2.3-1-2.3-2.3v-9.7c0-1.2,1-2.3,2.3-2.3c1.2,0,2.2,1,2.2,2.3V1076.3z"/>
			</g>
		</g>
	</g>
	<g>
		<path class="st2" d="M569.7,1232.9h1.3c3,0,4.1-2.3,4.1-4.6c0-2.5-1.3-4.1-3-4.2c-1.2-0.1-2.8-0.1-3.7,2.5l-2.6,7
			c-0.8,2.3-2.6,4.2-5.8,4.2h-1.2c-4.9,0-6.8-5-6.8-9.3c0-4.6,2.1-9,6.9-9h2.2v4.9h-1.5c-2.5,0-3.6,2.1-3.6,4.1
			c0,2.5,1.4,3.9,2.8,3.9c1.2,0,2.5-0.1,3.2-2.1l2.4-6.6c1.1-3.2,3.3-4.9,6.1-4.9h1.3c4.4,0,7.5,3.4,7.5,9.6c0,4.6-2.3,9.3-7.9,9.3
			h-1.6v-4.8H569.7z"/>
		<path class="st2" d="M573.5,1191.9v9.8l4.8,1.6v5.1l-25.3-8.9v-5.4l25.3-8.9v5.1L573.5,1191.9z M569.3,1200.3v-7l-10.5,3.5
			L569.3,1200.3z"/>
		<path class="st2" d="M574.2,1169.1v-12.2h4.1v17.3H553v-5.1L574.2,1169.1L574.2,1169.1z"/>
		<path class="st2" d="M553,1145.1v-17.3h4v12.3h6.2v-12h4v12h7v-12.8h4v17.8H553z"/>
	</g>
	<g id="XMLID_00000181786055600020842650000009100343897635872178_">
		<g id="XMLID_00000068663861830920882970000011788729650955898255_" class="st3">
			<g id="XMLID_00000161612737518874652830000000200604175307050626_">
				<rect id="XMLID_00000110454130715095863010000010552535160331678344_" x="243.4" y="1092.4" width="150.2" height="75.1"/>
			</g>
		</g>
		<g id="XMLID_00000027588186865404191000000011763028509180463254_">
			
				<rect id="XMLID_00000031165040737140720740000006629828813381950383_" x="243.4" y="1091.9" class="st4" width="150.2" height="75.1"/>
			
				<ellipse id="XMLID_00000101066751355001353320000002074329763512910506_" transform="matrix(0.7071 -0.7071 0.7071 0.7071 -705.4036 556.02)" class="st5" cx="318.5" cy="1129.5" rx="22.7" ry="22.7"/>
		</g>
	</g>
</g>
<g>
	<g>
		<g>
			<g>
				<path class="st2" d="M1216,1178.6c0-13.4,7.9-24.9,19.3-30.2v-69c0-19.4-15.7-35.1-35.1-35.1H718.7c-19.4,0-35.1,15.7-35.1,35.1
					v69c11.4,5.3,19.3,16.8,19.3,30.2c0,13.4-7.9,24.9-19.3,30.3v69c0,19.4,15.7,35.1,35.1,35.1h481.5c19.4,0,35.1-15.7,35.1-35.1
					v-69C1223.9,1203.6,1216,1192.1,1216,1178.6z"/>
				<path class="st6" d="M1226.5,1143.2v-63.9c0-14.5-11.8-26.4-26.4-26.4h-84.7v3.8c0,1.2-1,2.3-2.2,2.3s-2.3-1-2.3-2.3v-3.8H718.7
					c-14.5,0-26.4,11.8-26.4,26.4v63.9c11.9,7.7,19.3,21,19.3,35.4s-7.4,27.7-19.3,35.4v63.9c0,14.5,11.8,26.4,26.4,26.4H1111v-3.8
					c0-1.2,1-2.3,2.3-2.3c1.2,0,2.2,1,2.2,2.3v3.8h84.7c14.5,0,26.4-11.8,26.4-26.4V1214c-11.9-7.7-19.3-21-19.3-35.4
					C1207.2,1164.3,1214.6,1150.9,1226.5,1143.2z M1115.5,1290.7c0,1.2-1,2.2-2.2,2.2s-2.3-1-2.3-2.2v-9.7c0-1.2,1-2.3,2.3-2.3
					c1.2,0,2.2,1,2.2,2.3V1290.7z M1115.5,1271.2c0,1.2-1,2.3-2.2,2.3s-2.3-1-2.3-2.3v-9.7c0-1.2,1-2.3,2.3-2.3c1.2,0,2.2,1,2.2,2.3
					V1271.2z M1115.5,1251.8c0,1.2-1,2.3-2.2,2.3s-2.3-1-2.3-2.3v-9.7c0-1.2,1-2.3,2.3-2.3c1.2,0,2.2,1,2.2,2.3V1251.8z
					 M1115.5,1232.3c0,1.2-1,2.3-2.2,2.3s-2.3-1-2.3-2.3v-9.7c0-1.2,1-2.3,2.3-2.3c1.2,0,2.2,1,2.2,2.3V1232.3z M1115.5,1212.8
					c0,1.2-1,2.3-2.2,2.3s-2.3-1-2.3-2.3v-9.7c0-1.2,1-2.3,2.3-2.3c1.2,0,2.2,1,2.2,2.3V1212.8z M1115.5,1193.3c0,1.2-1,2.2-2.2,2.2
					s-2.3-1-2.3-2.2v-9.7c0-1.2,1-2.3,2.3-2.3c1.2,0,2.2,1,2.2,2.3V1193.3z M1115.5,1173.8c0,1.2-1,2.3-2.2,2.3s-2.3-1-2.3-2.3v-9.7
					c0-1.2,1-2.3,2.3-2.3c1.2,0,2.2,1,2.2,2.3V1173.8z M1115.5,1154.3c0,1.2-1,2.3-2.2,2.3s-2.3-1-2.3-2.3v-9.7c0-1.2,1-2.3,2.3-2.3
					c1.2,0,2.2,1,2.2,2.3V1154.3z M1115.5,1134.8c0,1.2-1,2.3-2.2,2.3s-2.3-1-2.3-2.3v-9.7c0-1.2,1-2.3,2.3-2.3c1.2,0,2.2,1,2.2,2.3
					V1134.8z M1115.5,1115.3c0,1.2-1,2.3-2.2,2.3s-2.3-1-2.3-2.3v-9.7c0-1.2,1-2.3,2.3-2.3c1.2,0,2.2,1,2.2,2.3V1115.3z
					 M1115.5,1095.8c0,1.2-1,2.2-2.2,2.2s-2.3-1-2.3-2.2v-9.7c0-1.2,1-2.3,2.3-2.3c1.2,0,2.2,1,2.2,2.3V1095.8z M1115.5,1076.3
					c0,1.2-1,2.3-2.2,2.3s-2.3-1-2.3-2.3v-9.7c0-1.2,1-2.3,2.3-2.3c1.2,0,2.2,1,2.2,2.3V1076.3z"/>
			</g>
		</g>
	</g>
	<g>
		<path class="st2" d="M1166.6,1232.9h1.3c3,0,4.1-2.3,4.1-4.6c0-2.5-1.3-4.1-3-4.2c-1.2-0.1-2.8-0.1-3.7,2.5l-2.6,7
			c-0.8,2.3-2.6,4.2-5.8,4.2h-1.2c-4.9,0-6.8-5-6.8-9.3c0-4.6,2.1-9,6.9-9h2.2v4.9h-1.5c-2.5,0-3.6,2.1-3.6,4.1
			c0,2.5,1.4,3.9,2.8,3.9c1.2,0,2.5-0.1,3.2-2.1l2.4-6.6c1.1-3.2,3.3-4.9,6.1-4.9h1.3c4.4,0,7.5,3.4,7.5,9.6c0,4.6-2.3,9.3-7.9,9.3
			h-1.6v-4.8H1166.6z"/>
		<path class="st2" d="M1170.3,1191.9v9.8l4.8,1.6v5.1l-25.3-8.9v-5.4l25.3-8.9v5.1L1170.3,1191.9z M1166.1,1200.3v-7l-10.5,3.5
			L1166.1,1200.3z"/>
		<path class="st2" d="M1171.1,1169.1v-12.2h4.1v17.3h-25.3v-5.1L1171.1,1169.1L1171.1,1169.1z"/>
		<path class="st2" d="M1149.9,1145.1v-17.3h4v12.3h6.2v-12h4v12h7v-12.8h4v17.8H1149.9z"/>
	</g>
</g>
<g>
	<g>
		<g>
			<path class="st2" d="M1812.8,1176.5c0-13.4,7.9-24.9,19.3-30.2v-69c0-19.4-15.7-35.1-35.1-35.1h-481.5
				c-19.4,0-35.1,15.7-35.1,35.1v69c11.4,5.3,19.3,16.8,19.3,30.2c0,13.4-7.9,24.9-19.3,30.3v69c0,19.4,15.7,35.1,35.1,35.1H1797
				c19.4,0,35.1-15.7,35.1-35.1v-69C1820.7,1201.5,1812.8,1189.9,1812.8,1176.5z"/>
			<path class="st6" d="M1823.4,1141.1v-63.9c0-14.5-11.8-26.4-26.4-26.4h-84.7v3.8c0,1.2-1,2.3-2.2,2.3s-2.3-1-2.3-2.3v-3.8h-392.3
				c-14.5,0-26.4,11.8-26.4,26.4v63.9c11.9,7.7,19.3,21,19.3,35.4s-7.4,27.7-19.3,35.4v63.9c0,14.5,11.8,26.4,26.4,26.4h392.3v-3.8
				c0-1.2,1-2.3,2.3-2.3c1.2,0,2.2,1,2.2,2.3v3.8h84.7c14.5,0,26.4-11.8,26.4-26.4v-63.9c-11.9-7.7-19.3-21-19.3-35.4
				C1804,1162.1,1811.5,1148.8,1823.4,1141.1z M1712.3,1288.6c0,1.2-1,2.2-2.2,2.2s-2.3-1-2.3-2.2v-9.7c0-1.2,1-2.3,2.3-2.3
				c1.2,0,2.2,1,2.2,2.3V1288.6z M1712.3,1269.1c0,1.2-1,2.3-2.2,2.3s-2.3-1-2.3-2.3v-9.7c0-1.2,1-2.3,2.3-2.3c1.2,0,2.2,1,2.2,2.3
				V1269.1z M1712.3,1249.6c0,1.2-1,2.3-2.2,2.3s-2.3-1-2.3-2.3v-9.7c0-1.2,1-2.3,2.3-2.3c1.2,0,2.2,1,2.2,2.3V1249.6z
				 M1712.3,1230.1c0,1.2-1,2.3-2.2,2.3s-2.3-1-2.3-2.3v-9.7c0-1.2,1-2.3,2.3-2.3c1.2,0,2.2,1,2.2,2.3V1230.1z M1712.3,1210.6
				c0,1.2-1,2.3-2.2,2.3s-2.3-1-2.3-2.3v-9.7c0-1.2,1-2.3,2.3-2.3c1.2,0,2.2,1,2.2,2.3V1210.6z M1712.3,1191.1c0,1.2-1,2.2-2.2,2.2
				s-2.3-1-2.3-2.2v-9.7c0-1.2,1-2.3,2.3-2.3c1.2,0,2.2,1,2.2,2.3V1191.1z M1712.3,1171.6c0,1.2-1,2.3-2.2,2.3s-2.3-1-2.3-2.3v-9.7
				c0-1.2,1-2.3,2.3-2.3c1.2,0,2.2,1,2.2,2.3V1171.6z M1712.3,1152.1c0,1.2-1,2.3-2.2,2.3s-2.3-1-2.3-2.3v-9.7c0-1.2,1-2.3,2.3-2.3
				c1.2,0,2.2,1,2.2,2.3V1152.1z M1712.3,1132.7c0,1.2-1,2.3-2.2,2.3s-2.3-1-2.3-2.3v-9.7c0-1.2,1-2.3,2.3-2.3c1.2,0,2.2,1,2.2,2.3
				V1132.7z M1712.3,1113.2c0,1.2-1,2.3-2.2,2.3s-2.3-1-2.3-2.3v-9.7c0-1.2,1-2.3,2.3-2.3c1.2,0,2.2,1,2.2,2.3V1113.2z
				 M1712.3,1093.7c0,1.2-1,2.2-2.2,2.2s-2.3-1-2.3-2.2v-9.7c0-1.2,1-2.3,2.3-2.3c1.2,0,2.2,1,2.2,2.3V1093.7z M1712.3,1074.2
				c0,1.2-1,2.3-2.2,2.3s-2.3-1-2.3-2.3v-9.7c0-1.2,1-2.3,2.3-2.3c1.2,0,2.2,1,2.2,2.3V1074.2z"/>
		</g>
	</g>
</g>
<g>
	<path class="st2" d="M1763.4,1230.8h1.3c3,0,4.1-2.3,4.1-4.6c0-2.5-1.3-4.1-3-4.2c-1.2-0.1-2.8-0.1-3.7,2.5l-2.6,7
		c-0.8,2.3-2.6,4.2-5.8,4.2h-1.2c-4.9,0-6.8-5-6.8-9.3c0-4.6,2.1-9,6.9-9h2.2v4.9h-1.5c-2.5,0-3.6,2.1-3.6,4.1
		c0,2.5,1.4,3.9,2.8,3.9c1.2,0,2.5-0.1,3.2-2.1l2.4-6.6c1.1-3.2,3.3-4.9,6.1-4.9h1.3c4.4,0,7.5,3.4,7.5,9.6c0,4.6-2.3,9.3-7.9,9.3
		h-1.6v-4.8H1763.4z"/>
	<path class="st2" d="M1767.2,1189.8v9.8l4.8,1.6v5.1l-25.3-8.9v-5.4l25.3-8.9v5.1L1767.2,1189.8z M1762.9,1198.2v-7l-10.5,3.5
		L1762.9,1198.2z"/>
	<path class="st2" d="M1767.9,1166.9v-12.2h4.1v17.3h-25.3v-5.1L1767.9,1166.9L1767.9,1166.9z"/>
	<path class="st2" d="M1746.7,1143v-17.3h4v12.3h6.2v-12h4v12h7v-12.8h4v17.8H1746.7z"/>
</g>
<g id="XMLID_00000088854387622885985530000011925232082410614658_">
	<g id="XMLID_00000012467899030223363090000009616794860144123797_" class="st3">
		<g id="XMLID_00000031912058435876833730000008336032849591525044_">
			<rect id="XMLID_00000065785945272452305210000000643965071958299293_" x="846.6" y="1097.5" width="149.6" height="74.8"/>
		</g>
	</g>
	<g id="XMLID_00000147179864888543454070000017597139231936378513_">
		<g id="XMLID_00000054265977509836710900000017771764614693988010_">
			
				<rect id="XMLID_00000169538000899979513000000010486096494035445168_" x="846.6" y="1096.8" class="st7" width="149.6" height="74.8"/>
		</g>
		<polygon id="XMLID_00000110454783274674342030000001445854509486448270_" class="st8" points="921.4,1114 926.4,1129.4 
			942.7,1129.4 929.5,1139 934.5,1154.5 921.4,1144.9 908.2,1154.5 913.2,1139 900.1,1129.4 916.4,1129.4 		"/>
	</g>
</g>
<g id="XMLID_00000054971613948456766740000002816056294258403463_">
	<g id="XMLID_00000161614551762096771220000010744493594406015929_" class="st3">
		<g id="XMLID_00000078027393808979052580000005031414451700388777_">
			<rect id="XMLID_00000107575960584283110160000008539508105134594465_" x="1437.5" y="1097.6" width="149.4" height="74.7"/>
		</g>
	</g>
	<g id="XMLID_00000101804628139034796550000006329258416568822431_">
		
			<rect id="XMLID_00000087401070129052865340000011324412253671799685_" x="1437.5" y="1096.8" class="st9" width="149.4" height="74.7"/>
		
			<rect id="XMLID_00000051384702515068931060000001159236858011858611_" x="1437.5" y="1146.6" class="st10" width="149.4" height="24.9"/>
		
			<rect id="XMLID_00000011722798430577409180000000809757843856327328_" x="1437.5" y="1159.1" class="st11" width="149.4" height="12.4"/>
		
			<rect id="XMLID_00000160154232072189841130000016263895558172230530_" x="1437.5" y="1096.8" class="st10" width="149.4" height="24.9"/>
		
			<rect id="XMLID_00000011730396933852114490000003619280274206970558_" x="1437.5" y="1096.8" class="st11" width="149.4" height="12.4"/>
	</g>
</g>
<g>
	<path class="st12" d="M607.4,791.3H461.3v-24.2h146.1V791.3z M467.3,820.8c0-16.2,13.9-26.1,35.7-26.1h64.2
		c21.7,0,35.7,9.8,35.7,26.1s-13.9,26.7-35.7,26.7H503C481.2,847.5,467.3,837,467.3,820.8z M658.9,853.5v54.9H516v5.9h145.6V939H478
		v-55.1h142.7v-5.7H478v-24.7H658.9L658.9,853.5z M589.8,763.9H478.9v-24.7h110.9V763.9z M567.2,821c0-3.4-3.4-4.6-9.1-4.6h-46
		c-5.7,0-9.1,1.1-9.1,4.6c0,3.9,3.4,4.8,9.1,4.8h46C563.8,825.8,567.2,824.9,567.2,821z M658.9,782.6h24v31.8h-24v33.4h-36.6V740.3
		h36.6V782.6z"/>
	<path class="st12" d="M776.4,850.7h-31.3c-29.7,0-55.6-22.4-55.6-56.2c0-33.6,25.4-55.8,55.3-55.8h31.5c29.7,0,55.1,22.2,55.1,55.8
		C831.4,828.3,806.1,850.7,776.4,850.7z M711.7,936.7V864h37.9v41.6H895v31.1L711.7,936.7L711.7,936.7z M769.7,819.9
		c13.3,0,25.8-8.7,25.8-25.1c0-16.7-12.6-25.1-25.8-25.1h-18.3c-13.5,0-25.8,8.9-25.8,25.1c0,16.5,12.3,25.1,25.8,25.1H769.7z
		 M892,880.7h-36.6V740.3H892V880.7z"/>
	<path class="st12" d="M1193.6,839.5v29.7H988.1v-29.7H1193.6z M992.4,832.7V741h195.9v26.7h-158.7v5.5h158.7v26.7h-158.7v6.2h160.7
		v26.6H992.4z M1149.2,940.1v-35H992.6v-29H1189v64H1149.2z"/>
	<path class="st12" d="M1216.9,742.2h123.7v56.2c0,57.6-33.4,128.5-127.8,135.6v-33.1c76.4-4.3,91-68.8,91-101.5v-26.1h-86.9
		L1216.9,742.2L1216.9,742.2z M1406.2,816.9h24.2v32.9h-24.2V936h-36.9V741h36.8L1406.2,816.9L1406.2,816.9z"/>
</g>
<g>
	<path class="st12" d="M267.7,1232.6c-3.5,0-6.6-0.4-9.3-1.2c-2.7-0.8-5-2-6.9-3.5s-3.3-3.2-4.3-5.3c-1-2.1-1.4-4.4-1.4-6.9
		s0.5-4.8,1.4-6.8s2.4-3.9,4.3-5.4c1.9-1.5,4.2-2.6,6.9-3.5c2.7-0.8,5.8-1.2,9.3-1.2h3.2c3.5,0,6.6,0.4,9.3,1.2c2.7,0.8,5,2,6.9,3.5
		s3.3,3.3,4.3,5.4s1.4,4.4,1.4,6.8c0,2.5-0.5,4.8-1.4,6.9c-1,2.1-2.4,3.8-4.3,5.3s-4.2,2.6-6.9,3.5c-2.7,0.8-5.8,1.2-9.3,1.2H267.7z
		 M252.3,1249.2h48.5v-4.4h-48.5v-8.3h59.6v20.7h-48.5v4.8h50.1v8.3h-61.2V1249.2z M271.4,1223.9c3.2,0,5.7-0.7,7.6-2.2
		s2.9-3.5,2.9-6s-1-4.5-2.9-6s-4.4-2.2-7.6-2.2h-4.2c-3.2,0-5.7,0.7-7.6,2.2s-2.9,3.5-2.9,6s1,4.5,2.9,6s4.4,2.2,7.6,2.2H271.4z
		 M300.9,1198.7h11v34.9h-11V1198.7z"/>
	<path class="st12" d="M321.9,1238.9H352v-6.4h-24.9v-33.7h11v8.2h39.3v-8.2h11v33.7h-24.9v6.4h30.1v8.6h-71.7L321.9,1238.9
		L321.9,1238.9z M327.2,1250.6h11v10.7h51.1v9h-62v-19.7H327.2z M377.4,1224v-8.4h-39.3v8.4H377.4z"/>
</g>
<g>
	<path class="st12" d="M811.1,1199.6h10.3v23H833v-23h10.3v26.7h7.6v-28.1h10.3v69.9h-10.3v-32h-7.6v28.5h-32.2L811.1,1199.6
		L811.1,1199.6z M833.1,1255.4v-23.6h-11.6v23.6H833.1z M866.1,1197.8h10.3v71.9h-10.3V1197.8z"/>
	<path class="st12" d="M884.8,1257.7h71.7v9.3h-71.7V1257.7z M890.9,1199.3h60v9.2h-49v9.7h48.4v9h-48.4v10.5h50.2v9.2h-61.2V1199.3
		z"/>
	<path class="st12" d="M963.7,1198.6h11v25.1h34.9v8.7h-45.8v-33.8H963.7z M965.8,1239.5h59.6v29.8h-59.6L965.8,1239.5L965.8,1239.5
		z M1014.4,1260.6v-12.4h-37.7v12.4H1014.4z M1014.4,1197.8h11v13.6h9.7v9.8h-9.7v15.5h-11V1197.8z"/>
</g>
<g>
	<path class="st12" d="M1441.9,1199.8h31.8v9.2h-21.3v18.1h20.9v9h-20.9v19.7h22.5v9.2H1442L1441.9,1199.8L1441.9,1199.8z
		 M1478.9,1198.2h10.3v26.1h7.7v-26.5h10.3v71.9h-10.3v-35.6h-7.7v34h-10.3V1198.2z"/>
	<path class="st12" d="M1520,1242.8h24.9v-9.2h-29.3v-8.6h55.5v-17.9H1520v-9h62v26.9h5.2v8.6h-30.9v9.2h25.7v26.9h-11v-17.9h-51
		V1242.8z"/>
</g>
<g>
	<g>
		<polygon class="st13" points="738.4,317.4 738.4,259.5 750.2,259.5 750.2,283 768.9,283 768.9,259.5 780.7,259.5 780.7,317.4 
			768.9,317.4 768.9,293.6 750.2,293.6 750.2,317.4 		"/>
		<path class="st13" d="M787.6,298.3c0-11.6,6.3-21.8,18.4-21.8c12.2,0,18.5,10.3,18.5,21.8c0,10.8-5.6,19.9-18.5,19.9
			C793.2,318.2,787.6,309.1,787.6,298.3 M798.4,298.1c0,7.2,2.3,10.1,7.6,10.1c5.3,0,7.6-2.8,7.6-10c0-7-2-11.5-7.6-11.5
			C800.4,286.6,798.4,291.2,798.4,298.1"/>
		<path class="st13" d="M831,286.6h-5.2v-9.3h5.2v-9.6h10.1v9.6H852v9.3h-10.9v14.5c0,6.5,0.3,7.6,2.2,7.6c1.3,0,1.8-0.7,1.8-2.1
			c0-0.7-0.2-1.4-0.2-1.4h7.5c0,0,0.6,1.4,0.6,3.5c0,6.6-4.6,9.5-10.3,9.5c-7.9,0-11.7-4.1-11.7-13.2V286.6z"/>
		<path class="st13" d="M879.5,305.5c0-0.6-0.2-1.2-0.2-1.2h8.3c0,0,0.6,1.4,0.6,3.4c0,7.6-7.7,10.6-14,10.6
			c-12.7,0-18.8-8.5-18.8-20.1c0-11.5,5.7-21.7,18.2-21.7c9.4,0,15.4,6.6,15.4,15.3c0,4.4-1.2,8.1-1.2,8.1h-22.4
			c0.1,6,3,9.3,8.8,9.3C878.5,309.2,879.5,307.1,879.5,305.5 M865.9,292.3h13.6c0.4-2.5-0.5-6.8-6.4-6.8
			C867.4,285.5,865.9,290.2,865.9,292.3"/>
		<rect x="895.2" y="259.5" class="st13" width="10.4" height="57.9"/>
		<path class="st13" d="M911.7,306.9c0-2.5,1-4.3,1-4.3h9.4c0,0-0.6,1-0.6,2.6c0,2.8,2.3,4.1,5.9,4.1c3.4,0,5.5-1.4,5.5-3.5
			c0-2.7-2.6-3.7-7.1-4.8c-6.3-1.5-13.5-3-13.5-12c0-8.1,6.1-12.4,14.8-12.4c7.5,0,14.4,3.5,14.4,10.7c0,2.1-0.7,3.8-0.7,3.8h-9.4
			c0,0,0.4-1,0.4-2.1c0-2.2-1.9-3.5-4.7-3.5c-3.7,0-5.2,1.5-5.2,3.3c0,2.1,2.4,3.1,6.9,4.2c6.3,1.4,13.8,3.2,13.8,12.3
			c0,8.7-6.1,13-15.5,13C917.4,318.2,911.7,313.6,911.7,306.9"/>
		<path class="st14" d="M948.5,290.5c0-16.6,9.4-30.1,25.3-30.1c12.5,0,18.8,7.1,18.8,15.6c0,3.5-0.8,5.5-0.8,5.5h-9.9
			c0,0,0.3-0.9,0.3-3c0-4.1-2.6-7.3-8.5-7.3c-9.3,0-13.6,7.9-13.6,19.2c0,9.2,3.2,16.9,13.3,16.9c4.5,0,8.7-2.2,8.7-8.3
			c0-1.2-0.2-2.2-0.2-2.2H992c0,0,0.6,1.8,0.6,4.3c0,12.1-10,17.1-19.6,17.1C954.4,318.2,948.5,305.6,948.5,290.5"/>
		<path class="st14" d="M998.8,298.3c0-11.6,6.3-21.8,18.4-21.8c12.2,0,18.4,10.3,18.4,21.8c0,10.8-5.6,19.9-18.4,19.9
			C1004.4,318.2,998.8,309.1,998.8,298.3 M1009.6,298.1c0,7.2,2.3,10.1,7.6,10.1c5.3,0,7.6-2.8,7.6-10c0-7-2-11.5-7.6-11.5
			C1011.6,286.6,1009.6,291.2,1009.6,298.1"/>
		<path class="st14" d="M1070.1,281.9c2.1-3,5.5-5.5,10.1-5.5c8.7,0,13.7,6.3,13.7,15.7v25.2l-10.4-0.1v-23.3c0-5.1-1.8-7.5-5.3-7.5
			c-3.5,0-5.3,3-5.3,7.3v23.5h-10.3v-23.3c0-5.1-1.8-7.5-5.5-7.5c-3.5,0-5.4,3-5.4,7v23.8h-10.3v-40.1h10v3.8h0.2
			c1-1.6,4.1-4.6,9-4.6C1065.3,276.5,1068.5,279,1070.1,281.9"/>
		<path class="st14" d="M1100.9,259.5h10.4v20.5h0.2c2-2,5.1-3.4,8.8-3.4c11.3,0,16.4,9.7,16.4,21.1c0,11.2-5.2,20.6-16.5,20.6
			c-3.9,0-7.4-1.9-9.2-4.3h-0.2v3.5h-9.9V259.5z M1111.4,298.1c0,5.1,1.8,10.2,7.6,10.2c5.1,0,7.6-4.9,7.6-10
			c0-6.3-1.8-11.8-7.6-11.8C1113.4,286.4,1111.4,292.4,1111.4,298.1"/>
		<path class="st14" d="M1149.1,259.5c3.6,0,6.5,2.9,6.5,6.5c0,3.6-2.9,6.5-6.5,6.5c-3.6,0-6.5-2.9-6.5-6.5
			C1142.6,262.4,1145.4,259.5,1149.1,259.5"/>
		<rect x="1143.9" y="277.3" class="st14" width="10.3" height="40.1"/>
		<path class="st14" d="M1173.8,317.4h-10.4v-40.1h10.4v3.9h0.2c1.8-2.2,4.5-4.7,9.9-4.7c7.6,0,12.8,6.3,12.8,14.4v26.6H1186v-23.9
			c0-4.3-2.1-6.9-5.6-6.9c-3,0-6.6,1.4-6.6,8.3V317.4z"/>
		<path class="st14" d="M1225.6,305.5c0-0.6-0.2-1.2-0.2-1.2h8.3c0,0,0.6,1.4,0.6,3.4c0,7.6-7.7,10.6-14,10.6
			c-12.7,0-18.9-8.5-18.9-20.1c0-11.5,5.7-21.7,18.2-21.7c9.4,0,15.4,6.6,15.4,15.3c0,4.4-1.2,8.1-1.2,8.1h-22.4
			c0.1,6,3,9.3,8.8,9.3C1224.5,309.2,1225.6,307.1,1225.6,305.5 M1211.9,292.3h13.6c0.4-2.5-0.5-6.8-6.4-6.8
			C1213.4,285.5,1211.9,290.2,1211.9,292.3"/>
		<path class="st14" d="M1274.8,317.4h-9.6V314h-0.2c-1.6,1.9-5.2,4.2-9.6,4.2c-7.6,0-15.8-6.2-15.8-20.9c0-12.4,6.7-20.8,15.2-20.8
			c4.4,0,7.5,1.4,9.4,3.4h0.2v-20.5h10.4V317.4z M1249.5,298.1c0,7.2,3.9,10.1,7.9,10.1c4.2,0,7.5-3.6,7.5-9.9
			c0-7.7-3.1-11.6-7.5-11.6C1252.6,286.6,1249.5,290.5,1249.5,298.1"/>
		<path class="st14" d="M720.2,299.9c0-12.5-1.8-30.1-4-39.7c-0.9-4-2.7-6.8-5.7-8.9c-1.6-1.2-3.5-2.1-5.7-2.8
			c-0.1-0.1-0.3-0.1-0.4-0.1c-7.8-2.5-15-3.6-22.6-3.4c-7.5-0.1-14.8,0.9-22.6,3.4c-0.1,0-0.3,0.1-0.4,0.1c-2.1,0.6-4,1.5-5.6,2.8
			c-3,2.1-4.8,4.9-5.7,8.9c-2.2,9.6-4.1,27.2-4,39.7c0,3.2,0.1,6.1,0.4,8.4c0.3,2.6,0.8,4.5,1.5,5.3c1.2,1.4,3,3.8,10.5,3.8h0.1
			h51.6h0.1c7.5,0,9.3-2.4,10.5-3.8c0.7-0.8,1.2-2.7,1.5-5.3C720.1,306,720.2,303.1,720.2,299.9"/>
		<path class="st14" d="M651.9,259.5L651.9,259.5c-4.9,0-8.9-4-8.9-8.9c0-4.9,4-8.9,8.9-8.9c4.9,0,8.9,4,8.9,8.9
			C660.7,255.5,656.7,259.5,651.9,259.5"/>
		<path class="st14" d="M711.8,259.5L711.8,259.5c-4.9,0-8.9-4-8.9-8.9c0-4.9,4-8.9,8.9-8.9c4.9,0,8.9,4,8.9,8.9
			C720.6,255.5,716.7,259.5,711.8,259.5"/>
		<path class="st13" d="M657.7,274c-0.1,0.4-0.1,0.9-0.1,1.3c0.1,2.7,2.3,4.9,5,5c3,0.1,5.4-2.3,5.4-5.2c0-0.4,0-0.8-0.1-1.1
			c-0.1-0.3-0.3-0.5-0.6-0.5h-9C658,273.5,657.8,273.7,657.7,274"/>
		<path class="st13" d="M693.7,274c-0.1,0.4-0.1,0.9-0.1,1.3c0.1,2.7,2.3,4.9,5,5c3,0.1,5.4-2.3,5.4-5.2c0-0.4,0-0.8-0.1-1.1
			c-0.1-0.3-0.3-0.5-0.6-0.5h-9C694,273.5,693.8,273.7,693.7,274"/>
		<path class="st15" d="M695.1,297.5c0.1-0.2,0.1-0.4,0.1-0.6c0-0.3,0-0.7,0-1.1c0-4.6-2.1-16.6-3.3-21.3c0,0,0,0,0,0
			c-0.1-0.5-0.5-0.8-1.1-1c0,0,0,0,0,0c0,0-0.1,0-0.1,0c0,0-0.1,0-0.1,0c0,0,0,0,0,0c-0.1,0-0.1,0-0.2,0h-19h0c-0.1,0-0.1,0-0.2,0
			c0,0,0,0,0,0c0,0-0.1,0-0.1,0c0,0-0.1,0-0.1,0c0,0,0,0,0,0c-0.6,0.1-1,0.5-1.1,1c0,0,0,0,0,0c-1.2,4.6-3.4,16.7-3.3,21.3
			c0,0.4,0,0.7,0,1c0,0,0,0.1,0,0.1c0,3,6.5,6.6,14.4,6.6c7.2,0,13.2-3,14.3-5.8C695.1,297.7,695.1,297.6,695.1,297.5"/>
		<path class="st13" d="M690.8,273.6C690.8,273.6,690.8,273.6,690.8,273.6c0,0-0.1,0-0.1,0c0,0-0.1,0-0.1,0c0,0,0,0,0,0
			c-0.1,0-0.1,0-0.2,0h0h-19h0c-0.1,0-0.1,0-0.2,0c0,0,0,0,0,0c0,0-0.1,0-0.1,0c0,0-0.1,0-0.1,0c0,0,0,0,0,0
			c-0.7,0.1-1.1,0.6-1.1,1.2c0,0.2,0,0.5,0.1,0.7c0.6,1.5,1.4,2.9,2.2,4.3c1.4,2.4,3,4.5,5.2,6.6c0.7,0.7,1.4,1.4,2.2,2
			c0.5,0.4,1,0.6,1.5,0.6c0.5,0,1-0.2,1.5-0.6c0.8-0.6,1.5-1.3,2.2-2c2.2-2.1,3.8-4.3,5.2-6.6c0.8-1.4,1.6-2.8,2.2-4.3
			c0.1-0.2,0.1-0.5,0.1-0.7C692,274.2,691.5,273.7,690.8,273.6"/>
	</g>
	<g>
		<path class="st13" d="M1148.8,226.6v-3.6c-1.5,0.4-3.6,0.6-6.3,0.6c-1,0-1.3-0.7-1.3-1.7h5.7v-3.7h-5.7v-1.4h6.2v-4h-10.9v9.2
			c0,2.9,1.3,5.4,5.7,5.4C1144.9,227.6,1147,227.3,1148.8,226.6z"/>
		<rect x="1270.4" y="211.6" class="st13" width="5" height="22.1"/>
		<path class="st13" d="M1123.2,233.2c5.6-0.6,7.8-3,7.8-5.8c0-3.4-3.6-6.5-10.3-6.5c-6.8,0-10.3,3.1-10.3,6.5
			c0,2.8,2.2,5.3,7.8,5.8v2.9H1107v4.1h27.3v-4.1h-11.1V233.2z M1115.6,227.2c0-1.4,1.3-2.3,5-2.3c3.8,0,5.1,0.9,5.1,2.3
			c0,1.5-1.3,2-5.1,2C1116.8,229.3,1115.6,228.7,1115.6,227.2z"/>
		<polygon class="st13" points="1132.8,215.6 1123.2,215.6 1123.2,211.7 1118.1,211.7 1118.1,215.6 1108.6,215.6 1108.6,219.7 
			1132.8,219.7 		"/>
		<polygon class="st13" points="1150.6,227.4 1155.1,227.4 1155.1,211.7 1150.6,211.7 1150.6,217.5 1147.9,217.5 1147.9,221.5 
			1150.6,221.5 		"/>
		<rect x="1156.6" y="211.6" class="st13" width="4.6" height="15.8"/>
		<path class="st13" d="M1177.9,224c2.6,3.4,6.7,5.2,10.9,5.2c0.5,0,1-0.1,1.5-0.3V225h-0.6c-5.9,0-9.4-2.8-9.4-8.4v-0.7v-2v-1h-5.1
			v1v2v0.7c0,5.6-3.5,8.4-9.4,8.4h-0.6v3.9c0.5,0.2,1,0.3,1.5,0.3C1171.2,229.1,1175.4,227.4,1177.9,224z"/>
		<path class="st13" d="M1208.6,213.1h-3.2h-1.9h-8.6v4.3h8.9c0,0.7-0.1,1.3-0.2,1.9h-9.6v4.1h7.6c-1.5,1.5-4,2.2-7.3,2.2h-0.6v3.7
			c0.5,0.2,1,0.3,1.5,0.3C1204.3,229.5,1209.6,223.4,1208.6,213.1z"/>
		<path class="st13" d="M1267.9,221.6c0-4.6-2.9-8.7-8.4-8.7c-5.6,0-8.4,4.1-8.4,8.7c0,4.1,2.6,7.7,8.4,7.7
			C1265.3,229.3,1267.9,225.7,1267.9,221.6z M1256.1,221.3c0-2.5,0.9-4.1,3.4-4.1s3.4,1.6,3.4,4.1c0,2.7-1.1,3.7-3.4,3.7
			C1257.2,225,1256.1,223.9,1256.1,221.3z"/>
		<polygon class="st13" points="1245.2,211.6 1240.2,211.6 1240.2,240.6 1245.2,240.6 1245.2,225.5 1249.1,225.5 1249.1,221.1 
			1245.2,221.1 		"/>
		<path class="st13" d="M1145.7,237.3h15.4v-8.6h-20.5v3.9h15.6v1.2h-15.5v3.9c0,2.9,1.8,4.9,6.3,4.9h14.6v-4H1147
			C1146,238.6,1145.7,238,1145.7,237.3z"/>
		<path class="st13" d="M1262.4,238.1c-1.5,0-2.3-0.9-2.3-2.6v-4.1h-5.2v4.2c0,4.7,2.4,6.8,7.5,6.8h13.5v-4.2H1262.4z"/>
		<path class="st13" d="M1231.9,219.8h-4.5V213h-5v15.1c0,4.1,2.7,6.8,8.3,6.8c2.8,0,6.2-1.1,6.2-3.9v-18h-5V219.8z M1231.9,229.8
			c0,0.7-0.8,1-1.7,1c-1.8,0-2.8-0.8-2.8-2.5v-4.5h4.5V229.8z"/>
		<rect x="1164.3" y="234.5" class="st13" width="27.3" height="4.2"/>
		<polygon class="st13" points="1213.2,218.8 1208.8,218.8 1208.8,223.1 1213.2,223.1 1213.2,228.8 1218.2,228.8 1218.2,211.6 
			1213.2,211.6 		"/>
		<path class="st13" d="M1198.1,236c0,4.3,3.7,6.8,11.5,6.8c3.9,0,8.6-1.1,8.6-3.9v-8.7h-20V236z M1203.1,234.1h10v3.6
			c0,0.7-1.9,1-3.9,1c-4.1,0-6.2-0.9-6.2-2.6V234.1z"/>
	</g>
</g>
</svg>
