<?xml version="1.0" encoding="UTF-8"?>
<svg id="_레이어_1" data-name="레이어 1" xmlns="http://www.w3.org/2000/svg" width="1704" height="1380.9" version="1.1" xmlns:xlink="http://www.w3.org/1999/xlink" viewBox="0 0 1704 1380.9">
  <defs>
    <style>
      .cls-1, .cls-2, .cls-3, .cls-4, .cls-5, .cls-6, .cls-7, .cls-8, .cls-9, .cls-10, .cls-11, .cls-12, .cls-13, .cls-14, .cls-15, .cls-16, .cls-17, .cls-18, .cls-19, .cls-20, .cls-21, .cls-22, .cls-23, .cls-24, .cls-25, .cls-26 {
        stroke-width: 0px;
      }

      .cls-1, .cls-10 {
        fill: #287dfa;
      }

      .cls-2 {
        fill: #000;
      }

      .cls-27 {
        fill: #7ec0ff;
      }

      .cls-27, .cls-28 {
        stroke-miterlimit: 10;
      }

      .cls-27, .cls-28, .cls-29, .cls-30, .cls-31 {
        stroke: #2e4162;
      }

      .cls-3 {
        fill: #f0f3f5;
      }

      .cls-4, .cls-16, .cls-29 {
        fill: #2e4162;
      }

      .cls-5 {
        fill: #ffb400;
      }

      .cls-6 {
        fill: #0493dc;
      }

      .cls-7 {
        fill: #00de5a;
      }

      .cls-8 {
        fill: #fcb615;
      }

      .cls-9 {
        fill: url(#_무제_그라디언트_2);
      }

      .cls-10, .cls-20 {
        fill-rule: evenodd;
      }

      .cls-11, .cls-20 {
        fill: #121013;
      }

      .cls-32, .cls-33, .cls-34, .cls-29, .cls-30, .cls-31, .cls-35 {
        stroke-linecap: round;
        stroke-linejoin: round;
      }

      .cls-32, .cls-33, .cls-34, .cls-35 {
        stroke: #2b4160;
      }

      .cls-32, .cls-33, .cls-30, .cls-31 {
        fill: none;
      }

      .cls-32, .cls-35 {
        stroke-width: 3.8px;
      }

      .cls-12 {
        fill: #595a5a;
      }

      .cls-28, .cls-34, .cls-21, .cls-35 {
        fill: #fff;
      }

      .cls-13 {
        fill: #02af56;
      }

      .cls-14 {
        fill: #ed353f;
      }

      .cls-15 {
        fill: #2cabe1;
      }

      .cls-16 {
        isolation: isolate;
        opacity: .3;
      }

      .cls-17 {
        fill: #a14699;
      }

      .cls-18 {
        fill: url(#_무제_그라디언트);
      }

      .cls-33, .cls-34 {
        stroke-width: 3.9px;
      }

      .cls-19 {
        fill: #00a8df;
      }

      .cls-29 {
        stroke-width: 4.1px;
      }

      .cls-30 {
        stroke-dasharray: 0 0 9.4 9.4;
        stroke-width: 3.9px;
      }

      .cls-22 {
        fill: #191e3b;
      }

      .cls-31 {
        stroke-width: 4.5px;
      }

      .cls-23 {
        fill: #2b4160;
      }

      .cls-24 {
        fill: #00a2de;
      }

      .cls-25 {
        fill: #fddb32;
      }

      .cls-26 {
        fill: #ef3346;
      }
    </style>
    <linearGradient id="_무제_그라디언트" data-name="무제 그라디언트" x1="306.9" y1="-150" x2="313.7" y2="-218.9" gradientTransform="translate(0 1130.6)" gradientUnits="userSpaceOnUse">
      <stop offset="0" stop-color="#08f"/>
      <stop offset="0" stop-color="#018bf5"/>
      <stop offset=".2" stop-color="#0393db"/>
      <stop offset=".3" stop-color="#059bc1"/>
      <stop offset=".4" stop-color="#07a2aa"/>
      <stop offset=".6" stop-color="#0aad88"/>
      <stop offset="1" stop-color="#08b964"/>
    </linearGradient>
    <radialGradient id="_무제_그라디언트_2" data-name="무제 그라디언트 2" cx="-1166.9" cy="1582.2" fx="-1166.9" fy="1582.2" r=".6" gradientTransform="translate(142557.7 101289.3) rotate(-24.8) scale(73.9 -95.5)" gradientUnits="userSpaceOnUse">
      <stop offset="0" stop-color="#5578ff"/>
      <stop offset=".4" stop-color="#8828ff"/>
      <stop offset="1" stop-color="#d25aff"/>
    </radialGradient>
  </defs>
  <path class="cls-16" d="M1560.2,638.1H133.4c-16.6,0-30-18.7-30-41.8V198.5c0-23.1,13.4-41.8,30-41.8h1426.8c16.6,0,30,18.7,30,41.8v397.8c0,23.1-13.4,41.8-30,41.8Z"/>
  <g>
    <path class="cls-21" d="M1546,626.2H119.2c-16.6,0-30-19.3-30-43.1V173.9c0-23.8,13.4-43.1,30-43.1h1426.8c16.6,0,30,19.3,30,43.1v409.3c0,23.7-13.4,43-30,43Z"/>
    <path class="cls-30" d="M1546,626.2H119.2c-16.6,0-30-19.3-30-43.1V173.9c0-23.8,13.4-43.1,30-43.1h1426.8c16.6,0,30,19.3,30,43.1v409.3c0,23.7-13.4,43-30,43Z"/>
  </g>
  <g>
    <path class="cls-4" d="M1123.1,327.5v-9.2h24.5v-8.7h-22.8v-24.5h45.3v-5.8h-45.3v-9.3h57v24.3h-45.5v6h46.4v9.3h-23.4v8.7h24.4v9.2h-60.6Z"/>
    <path class="cls-4" d="M1247.4,314.5h-5.6c-.8,9.6-6.7,14.4-15.5,14.4s-15.8-5.7-15.8-16.9v-26.8c0-11.2,6.2-16.9,15.8-16.9s14.7,5,15.5,14.7h5.6v-13.1h10.8v58.7h-10.8v-14.1ZM1221.2,311.8c0,5.2,1.8,7.6,5.2,7.6s5-2.4,5-7.6v-26.4c0-5.2-1.9-7.6-5-7.6s-5.2,2.4-5.2,7.6v26.4ZM1242,304.8h5.4v-12.4h-5.4v12.4ZM1262.2,269.8h10.9v58.7h-10.9v-58.7Z"/>
    <path class="cls-4" d="M1303.7,302h-9.7c-8.9,0-16.5-6.6-16.5-16.6s7.5-16.4,16.4-16.4h9.8c8.9,0,16.4,6.5,16.4,16.4,0,10-7.4,16.6-16.4,16.6ZM1325.8,329.7v-13.7h-43.1v-9.6h54.4v23.3h-11.3ZM1301.6,292.7c4,0,7.7-2.4,7.7-7.3s-3.7-7.2-7.7-7.2h-5.5c-4.1,0-7.7,2.5-7.7,7.2s3.6,7.3,7.7,7.3h5.5ZM1337.1,274.7h7.2v9.1h-7.2v3.4h7.2v9.1h-7.2v6.5h-11v-33.2h11v5.1Z"/>
    <path class="cls-4" d="M1373.3,290c0,9.7,4.1,20.4,16.4,26.7v10.5c-9.6-2-18.8-10.7-21.8-16.6-2.8,7.1-12.9,15.5-21.5,17.4v-10.1c12.7-6.3,15.6-18.1,15.6-27.4v-20.6h11.2v20.1h.1ZM1407.4,328.4h-11.1v-58.7h11.1v58.7Z"/>
  </g>
  <circle class="cls-7" cx="967.2" cy="391.5" r="30.5"/>
  <path class="cls-4" d="M970.1,389.7h13.9v4.5h-13.9v15.8h-5v-15.8h-13.9v-4.5h13.9v-15.1h5v15.1Z"/>
  <g>
    <path class="cls-16" d="M1575.9,1295.4H149.1c-16.6,0-30-18.7-30-41.8v-397.8c0-23.1,13.4-41.8,30-41.8h1426.8c16.6,0,30,18.7,30,41.8v397.8c0,23-13.5,41.8-30,41.8Z"/>
    <g>
      <path class="cls-21" d="M1561.7,1283.5H134.9c-16.6,0-30-19.3-30-43.1v-409.3c0-23.8,13.4-43.1,30-43.1h1426.8c16.6,0,30,19.3,30,43.1v409.3c0,23.8-13.4,43.1-30,43.1Z"/>
      <path class="cls-30" d="M1561.7,1283.5H134.9c-16.6,0-30-19.3-30-43.1v-409.3c0-23.8,13.4-43.1,30-43.1h1426.8c16.6,0,30,19.3,30,43.1v409.3c0,23.8-13.4,43.1-30,43.1Z"/>
    </g>
    <g>
      <path class="cls-2" d="M757.9,1161.9l-8.8,20.2-10-20.2h-7.7l14.1,28-5.8,13.1h7.5l18.2-41h-7.5ZM727.1,1193.1h-7.3v-2.9c-2.6,2.3-5.8,3.6-9.7,3.6-8.7,0-15.6-7.1-15.6-16.2s6.9-16.2,15.6-16.2,7,1.2,9.7,3.6v-2.9h7.3v31ZM720.6,1177.6c0-5.9-4.1-10.3-9.5-10.3s-9.5,4.5-9.5,10.3,4.1,10.3,9.5,10.3,9.5-4.5,9.5-10.3ZM658.2,1203h7.7v-12.5c2.6,2.1,5.6,3.4,9.3,3.4,8.7,0,15.6-7.1,15.6-16.2s-6.9-16.2-15.6-16.2-7,1.2-9.7,3.6v-2.9h-7.3v40.8h0ZM674.1,1167.2c5.4,0,9.5,4.5,9.5,10.3s-4.1,10.3-9.5,10.3-9.5-4.5-9.5-10.3,4.1-10.3,9.5-10.3Z"/>
      <path class="cls-2" d="M644.5,1178.5c0,17.6-14.2,31.8-31.8,31.8s-31.8-14.2-31.8-31.8,14.2-31.8,31.8-31.8c17.5,0,31.8,14.2,31.8,31.8ZM618,1163.5v16l-11.1-16h-9.2v29.9h9.7v-16l11.1,16h9.2v-29.9h-9.7Z"/>
    </g>
    <g>
      <rect class="cls-6" x="275.9" y="889.3" width="7.1" height="19.2" transform="translate(-607.6 584.1) rotate(-53.2)"/>
      <rect class="cls-6" x="324.6" y="895" width="19.2" height="7.1" transform="translate(-471.8 379.4) rotate(-36.8)"/>
      <rect class="cls-6" x="304" y="880.1" width="7.1" height="19.2"/>
      <path class="cls-18" d="M360.9,962.5c-.9-.9-2-1.3-3.1-1.3h-80.1c0,0-.1-.4-.1-.6v-12.1c0-7.4,5.5-13.9,12.6-15.5,1.3,0,2.3-.4,3.7-.4h29.1c8.1,0,14.6,5.5,16.1,13.5.1.9.1,2,.1,3.1v8.4h9.5v-.6c0-3.1.1-6,0-8.9-.1-5.3-2-10.2-5.1-14.5-4.1-5.3-9.2-8.5-15.8-9.8-1.3,0-2.7,0-4.1-.6h-13.5v-2.8h7.5c2,0,3.4-1.6,3.4-3.4v-9.2c0-2-1.6-3.4-3.4-3.4h-21.6c-2,0-3.4,1.6-3.4,3.4v9.2c0,2,1.6,3.4,3.4,3.4h7.1v2.7h-11.2c-1.3,0-2.3,0-3.7.6-5.1.9-9.5,3.1-13.1,6.7-4.3,4.1-7,9.2-7.8,15.1-.1,1.3-.1,2.7-.1,3.8v16.8c0,2.7,1.4,4.5,3.8,4.8.6,0,1,0,1.6,0h78.9v6.7h-88.9v-6.5h-9.5v12.1c.1.9.6,2,1.3,2.7.9.9,1.8,1.3,2.8,1.6h99.7c.6,0,1.3-.4,1.8-.6,1.3-.6,2-1.6,2.3-3.1,0,0,.1,0,.1-.4v-17.8c1.2-1.3.7-2.3-.3-3.2ZM300.7,913.5v-2.3h14.6v2.3h-14.6Z"/>
    </g>
    <g>
      <g>
        <path class="cls-2" d="M406.8,986.1h-29.2v-62.5h28c12.3,0,19.2,7.3,19.2,16.9s-1.9,8.5-5.3,11.1c5.5,2.5,9.1,8.2,9.1,15,0,11.1-7.8,19.5-21.8,19.5ZM394.3,937.7v10.3h8.6c4.1,0,5.8-2.4,5.8-5.2s-1.5-5.1-5.8-5.1h-8.6ZM394.3,959.1v13h10.4c5.3,0,7.4-3.1,7.4-6.6s-1.8-6.4-7.3-6.4h-10.5Z"/>
        <path class="cls-2" d="M465.3,987.2c-19.5,0-33.4-14-33.4-32.6s13.9-32.3,33.4-32.3,33.6,13.8,33.6,32.3c0,18.6-14,32.6-33.6,32.6ZM465.3,970.7c9.3,0,15.6-6.8,15.6-15.8s-6.3-15.8-15.6-15.8-15.4,6.8-15.4,15.8c0,9,6.2,15.8,15.4,15.8Z"/>
        <path class="cls-2" d="M535.9,987.2c-19.5,0-33.4-14-33.4-32.6s13.9-32.3,33.4-32.3,33.6,13.8,33.6,32.3-13.9,32.6-33.6,32.6ZM535.9,970.7c9.3,0,15.6-6.8,15.6-15.8s-6.3-15.8-15.6-15.8-15.4,6.8-15.4,15.8,6.3,15.8,15.4,15.8Z"/>
        <path class="cls-2" d="M597.9,960.2h-5.3v25.9h-17.8v-62.5h17.8v23.3h4.4l11.8-23.3h19.3l-14.9,28.7,16.5,33.8h-20l-11.8-25.9Z"/>
      </g>
      <g>
        <path class="cls-2" d="M694.3,961.4l-6.7,24.7h-20.9l-14.4-62.5h17.8l7.5,40.3h2.9l5.4-20.8v-10.9h16.8v10.8l5.3,20.9h3l7.4-40.3h17.8l-14.3,62.5h-21l-6.6-24.7Z"/>
        <path class="cls-2" d="M740.8,986.1v-62.5h17.8v62.5h-17.8Z"/>
        <path class="cls-2" d="M774.8,986.1v-48.3h-11.1v-14.3h39.8v14.3h-11v48.3h-17.7Z"/>
        <path class="cls-2" d="M841.9,960.2h-15.6v25.9h-17.8v-62.5h17.8v23.3h15.6v-23.3h17.8v62.5h-17.8v-25.9Z"/>
        <path class="cls-2" d="M916.1,960.2h-15.6v25.9h-17.8v-62.5h17.8v23.3h15.6v-23.3h17.8v62.5h-17.8v-25.9Z"/>
        <path class="cls-2" d="M972.7,987.2c-19.5,0-33.4-14-33.4-32.6s13.9-32.3,33.4-32.3,33.6,13.8,33.6,32.3c0,18.6-13.9,32.6-33.6,32.6ZM972.7,970.7c9.3,0,15.6-6.8,15.6-15.8s-6.3-15.8-15.6-15.8-15.4,6.8-15.4,15.8c0,9,6.2,15.8,15.4,15.8Z"/>
        <path class="cls-2" d="M1016.8,986.1v-48.3h-11.1v-14.3h39.8v14.3h-11v48.3h-17.7Z"/>
        <path class="cls-2" d="M1091.4,986.1h-40.8v-62.5h40.3v14.3h-22.5v9.8h21.5v12.3h-21.5v11.9h23.1v14.2h0Z"/>
        <path class="cls-2" d="M1127.4,986.1h-30.3v-62.5h17.8v48.3h12.5v14.2Z"/>
      </g>
    </g>
    <g>
      <path class="cls-4" d="M1138.8,984.8v-9.2h24.5v-8.7h-22.8v-24.5h45.3v-5.8h-45.3v-9.3h57v24.3h-45.5v6h46.4v9.3h-23.4v8.7h24.4v9.2h-60.6Z"/>
      <path class="cls-4" d="M1263.1,971.7h-5.6c-.8,9.6-6.7,14.4-15.5,14.4s-15.8-5.7-15.8-16.9v-26.8c0-11.2,6.2-16.9,15.8-16.9s14.7,5,15.5,14.7h5.6v-13.1h10.8v58.7h-10.8v-14.1ZM1236.9,969c0,5.2,1.8,7.6,5.2,7.6s5-2.4,5-7.6v-26.4c0-5.2-1.9-7.6-5-7.6s-5.2,2.4-5.2,7.6v26.4ZM1257.6,962.1h5.4v-12.4h-5.4v12.4ZM1277.9,927h10.9v58.7h-10.9v-58.7Z"/>
      <path class="cls-4" d="M1319.4,959.3h-9.7c-8.9,0-16.5-6.6-16.5-16.6s7.5-16.4,16.4-16.4h9.8c8.9,0,16.4,6.5,16.4,16.4,0,10-7.4,16.6-16.4,16.6ZM1341.5,986.9v-13.7h-43.1v-9.6h54.4v23.3h-11.3ZM1317.3,950c4,0,7.7-2.4,7.7-7.3s-3.7-7.2-7.7-7.2h-5.5c-4.1,0-7.7,2.5-7.7,7.2s3.6,7.3,7.7,7.3h5.5ZM1352.8,931.9h7.2v9.1h-7.2v3.4h7.2v9.1h-7.2v6.5h-11v-33.2h11v5.1Z"/>
      <path class="cls-4" d="M1389,947.2c0,9.7,4.1,20.4,16.4,26.7v10.5c-9.6-2-18.8-10.7-21.8-16.6-2.8,7.1-12.9,15.5-21.5,17.4v-10.1c12.7-6.3,15.6-18.1,15.6-27.4v-20.6h11.2v20.1h.1ZM1423.1,985.7h-11.1v-58.7h11.1v58.7Z"/>
    </g>
    <g>
      <g>
        <circle class="cls-7" cx="497.3" cy="1073" r="45.7"/>
        <g>
          <path class="cls-4" d="M279.4,1049h-80.4v-13.3h80.4v13.3ZM202.2,1065.2c0-8.9,7.7-14.4,19.6-14.4h35.4c12,0,19.6,5.4,19.6,14.4s-7.7,14.7-19.6,14.7h-35.4c-11.9,0-19.6-5.7-19.6-14.7ZM307.7,1083.2v30.2h-78.7v3.3h80.2v13.6h-101.1v-30.3h78.5v-3.1h-78.5v-13.6h99.6ZM269.7,1033.9h-61.1v-13.6h61.1v13.6ZM257.2,1065.4c0-1.9-1.9-2.5-5-2.5h-25.3c-3.1,0-5,.6-5,2.5s1.9,2.6,5,2.6h25.3c3.2,0,5-.5,5-2.6ZM307.7,1044.2h13.2v17.5h-13.2v18.4h-20.1v-59.2h20.1v23.3Z"/>
          <path class="cls-4" d="M372.4,1081.7h-17.2c-16.4,0-30.6-12.3-30.6-31s14-30.7,30.5-30.7h17.4c16.4,0,30.3,12.2,30.3,30.7s-14,31-30.4,31ZM336.8,1129.1v-40h20.9v22.9h80.1v17.1h-101ZM368.8,1064.7c7.3,0,14.2-4.8,14.2-13.8s-6.9-13.8-14.2-13.8h-10.1c-7.4,0-14.2,4.9-14.2,13.8s6.8,13.8,14.2,13.8h10.1ZM436.1,1098.2h-20.1v-77.3h20.1v77.3Z"/>
        </g>
        <g>
          <path class="cls-4" d="M632.4,1037.8h-25.4v.3c0,14.7,7.4,26.6,28.4,29.2v16.2c-17.1-.4-31.5-8.3-38.4-18.5-6.9,11-23.4,19.9-39.5,21v-16.2c20.5-2.8,28.8-16,28.8-31v-1h-24.5v-16.2h70.6v16.2h0ZM649.2,1131v-23.3h-78.9v-17.1h99.6v40.4h-20.7ZM627.4,1043.1h22.2v-22.2h20.3v63.3h-20.3v-24.2h-22.2v-16.9Z"/>
          <path class="cls-4" d="M755.5,1062.5c6.9,0,14.2-3.3,18.6-8.1v-33.5h20.3v58.2h-20.3v-7c-4.4,3.7-11.7,5.8-19.5,5.8h-68v-36.1h50.1v-4.8h-50.1v-15.4h71v35.4h-50.4v5.5h48.3ZM694.9,1082.9h20.1v9.2h59.2v-9.2h20.3v46.7h-99.6v-46.7ZM774.2,1114.2v-6.9h-59.2v6.9h59.2Z"/>
        </g>
        <path class="cls-4" d="M501.7,1070.3h20.8v6.7h-20.8v23.7h-7.6v-23.7h-20.8v-6.7h20.8v-22.7h7.6v22.7Z"/>
      </g>
      <g>
        <path class="cls-4" d="M952.3,1021.9h68.5v17.1h-47.8v70.7h42.3c7.3,0,15.6-3.9,20.4-8.4v-80.1h20.3v41.8h13.3v18.1h-13.3v47.5h-20.3v-8.2c-4.7,3.4-12.5,6.2-19.5,6.2h-63.8v-104.7h0Z"/>
        <path class="cls-4" d="M1113.8,1127.1v-17.5h110.9v17.5h-110.9ZM1118.3,1087.3v-65.4h101.6v17.4h-80.7v30.7h81.3v17.2h-102.2Z"/>
        <path class="cls-4" d="M1310.6,1127.3h-70.5v-60.9h40.8v-27.6h-40.8v-16.9h61.2v61.3h-40.5v27.2h49.8v16.9ZM1304.4,1043.6h20.6v-22.3h20.3v107.4h-20.3v-27.1h-22v-18.4h22v-21.3h-20.6v-18.3Z"/>
        <path class="cls-4" d="M1440.3,1084.1h-43.4c-18.9,0-34.4-12.5-34.4-32.1s15.4-31.7,34.2-31.7h43.6c18.9,0,34.2,12.1,34.2,31.6.1,19.5-15.3,32.2-34.2,32.2ZM1363.1,1127.1v-16.9h22.5v-20.9h20.3v20.9h25.4v-20.9h20.4v20.9h22.3v16.9h-110.9ZM1438.2,1067.1c7.6,0,16-4.3,16-15s-8.4-14.9-16-14.9h-39.3c-7.7,0-16,4.4-16,14.9s8.3,15,16,15h39.3Z"/>
      </g>
    </g>
    <g>
      <g>
        <g>
          <g>
            <path class="cls-21" d="M815.9,1099.4c-.9,0-1.8,0-2.6.6-3.9,2.3-20.3,12.9-26.4,33.9,0,0-8.3,25.9-2.9,39.7,0,0,2.7,8.9,11.1,13,4.1,2,8.8,2.8,13.2,1.2,1.3-.5,2.7-.9,3.6-1.9,2.1-2.2,2-6.3,2-6.7,0,0,.4-6.5-1.7-12.3,0,0,2.1-9.9,4.1-24.5,0,0,3.5-20.7,2.9-39.3,0-.8-.4-1.6-.9-2.2-.4-.6-1.2-1.3-2.4-1.5Z"/>
            <path class="cls-32" d="M796.2,1174.9s2.1,6.7,7.6,5.1c0,0,4.7-1,1.6-9.2"/>
          </g>
          <path class="cls-21" d="M806,1108.3s-12.1,62.5,10.9,92h46.3v-92h-57.2Z"/>
          <circle class="cls-21" cx="820.3" cy="1032.5" r="14.6"/>
          <circle class="cls-21" cx="906.1" cy="1032.5" r="14.6"/>
          <path class="cls-21" d="M920.4,1108.3s12.1,62.5-10.9,92h-46.3v-92h57.2Z"/>
          <g>
            <polygon class="cls-21" points="816.4 1197.6 816.9 1200.3 816.6 1215.8 863.2 1215.8 863.2 1197.6 816.4 1197.6"/>
            <path class="cls-21" d="M816.6,1215.8s-5.4,8.7,4.2,12.1c6.7,2.5,35.7,3,40.5,0,0,0,3.2-1.5,2-12.1h-46.7Z"/>
            <path class="cls-32" d="M837.8,1229.8c-.2-.7-.3-1.5-.3-2.3,0-1.7.5-3.2,1.4-4.4"/>
            <path class="cls-32" d="M824.3,1228.8c-.2-.7-.3-1.5-.3-2.3,0-1.7.5-3.2,1.4-4.4"/>
          </g>
          <g>
            <polygon class="cls-21" points="910 1197.6 909.5 1200.3 909.8 1215.8 863.2 1215.8 863.2 1197.6 910 1197.6"/>
            <path class="cls-21" d="M909.8,1215.8s5.4,8.7-4.2,12.1c-6.7,2.5-35.7,3-40.5,0,0,0-3.2-1.5-2-12.1h46.7Z"/>
            <path class="cls-32" d="M888.6,1229.8c.2-.7.3-1.5.3-2.3,0-1.7-.5-3.2-1.4-4.4"/>
            <path class="cls-32" d="M902.1,1228.8c.2-.7.3-1.5.3-2.3,0-1.7-.5-3.2-1.4-4.4"/>
            <line class="cls-32" x1="863.2" y1="1223.9" x2="863.2" y2="1201.9"/>
          </g>
          <path class="cls-32" d="M850.1,1199.1c6,3.6,20.2,3.8,26.2,0"/>
          <path class="cls-21" d="M919.5,1099.9c-3.1-26.3-8.5-48.6-8.5-48.6h-95.6s-8.1,33.4-10.1,66.6h115.8c-.4-6-.9-12.1-1.6-18"/>
          <circle class="cls-24" cx="820.3" cy="1032.5" r="9.9"/>
          <circle class="cls-24" cx="906.1" cy="1032.5" r="9.9"/>
          <path class="cls-21" d="M911.7,1054.6c-.5-2.8-1.2-5.6-2.1-8.3-2-6-5.3-11.6-10.5-15.3-2.6-1.8-4.6-2.7-8.5-3.9-6.9-1.9-17.4-2.9-27.3-3-9.9,0-20.4,1.1-27.3,3-3.9,1.2-6,2.1-8.5,3.9-5.2,3.7-8.5,9.4-10.5,15.3-.9,2.7-1.6,5.5-2.1,8.3l-2.2,10.1h101.4l-2.4-10.1Z"/>
          <g>
            <path class="cls-3" d="M880.4,1080.3c-2.5,7.1-10.8,9.8-17.2,9.8h0c-6.5,0-14.7-2.7-17.2-9.8-2.3-6.5.5-16.3,5.6-20.5,3.2-2.7,7.6-2.7,11.5-2.7h.4c3.9,0,8.3,0,11.5,2.7,5,4.2,7.7,14,5.4,20.5Z"/>
            <path class="cls-23" d="M874.3,1076.8h-22.2s-3.4.6-1.6,4.3c1.4,2.9,5.4,6.7,12.7,7h0c7.4-.3,11.3-4.1,12.7-7,1.8-3.7-1.6-4.3-1.6-4.3Z"/>
            <path class="cls-24" d="M870.2,1057c-2.4-.3-4.7-.4-7.1-.4s-4.7,0-7.1.4c-3.5.6-3.9,2.4-2.9,5.7,1.1,3.6,5.2,9.4,9.9,9.6,4.8,0,8.8-6,9.9-9.6,1.3-3.3.8-5.1-2.7-5.7Z"/>
            <g>
              <circle class="cls-23" cx="845.5" cy="1056.9" r="4.7"/>
              <circle class="cls-21" cx="846.6" cy="1055.7" r="1.8"/>
            </g>
            <path class="cls-35" d="M876.2,1056.9s.7-2.1,3.3-2.5c3.2-.5,5,2.5,5,2.5"/>
          </g>
          <path class="cls-32" d="M804,1137.3s-2.8,21.8,2.9,42.4c0,0,2.1,6.6,3.8,10.4"/>
        </g>
        <path class="cls-21" d="M807.3,1096.4s-.8,7.3-4,11l8-.6c.1,0,4.8-11-4-10.4Z"/>
        <path class="cls-32" d="M919.1,1096.4h0c-3.1-24.7-8.1-45.1-8.1-45.1h0c-.4-1.6-.8-3.2-1.3-4.7,6.3-1.6,11-7.3,11-14.1s-6.5-14.6-14.6-14.6-11.7,4.1-13.7,9.7c-.6-.2-1.2-.4-1.9-.6-6.9-1.9-17.4-2.9-27.3-3-9.9,0-20.4,1.1-27.3,3-.7.2-1.3.4-1.9.6-2-5.7-7.4-9.7-13.7-9.7s-14.6,6.5-14.6,14.6,4.7,12.5,11,14.1c-.5,1.6-1,3.1-1.3,4.7h0s-4.9,20.4-8.1,45.2c0,.9-1,7.4-3.9,10.9h0c-6,5.6-13,14.3-16.5,26.4,0,0-8.3,25.9-2.9,39.7,0,0,2.7,8.9,11.1,13,4.1,2,8.8,2.8,13.2,1.2.4-.2.9-.3,1.3-.5,1.9,4.7,4.3,9.1,7.3,13h0l-.3,15.5s-5.4,8.7,4.2,12.1c.9.3,2.1.6,3.5.9h0c10.2,1.7,32.8,1.8,36.9-.9,0,0,1.4-.7,2-4,.6,3.4,2,4,2,4,4.2,2.7,26.8,2.6,36.9.9h0c1.5-.3,2.7-.5,3.5-.9,9.5-3.4,4.2-12.1,4.2-12.1l-.3-15.5c3-3.8,5.4-8.2,7.3-13,11.8-27.1,2.3-90.8,2.3-90.8Z"/>
      </g>
      <g>
        <path class="cls-35" d="M939,1076.8c0,9.5-4.6,17.2-10.4,17.2s-10.4-7.7-10.4-17.2,4.6-13.5,10.4-13.5,10.4,4,10.4,13.5Z"/>
        <path class="cls-21" d="M918.4,1135.4s-10.5-7.4-11.2-32.3,7.8-30.2,19.6-30.8c11.8-.6,27.2,4.9,22,37.3-5.3,32.4-30.4,25.8-30.4,25.8"/>
        <path class="cls-35" d="M926.8,1124s-18.9,4-19.6-20.8c-.7-24.9,7.8-30.2,19.6-30.8,11.8-.6,27.2,4.9,22,37.3s-30.4,25.8-30.4,25.8"/>
      </g>
      <path class="cls-35" d="M907.5,1105.1s2.7-2,8.5-1.3"/>
      <path class="cls-35" d="M907.5,1091.9s2.7-2,8.5-1.3"/>
    </g>
    <g>
      <path class="cls-21" d="M815.9,1099.4c-.9,0-1.8,0-2.6.6-3.9,2.3-20.3,13-26.4,34.2,0,0-8.3,26.1-2.9,40.1,0,0,2.7,9,11.1,13.1,4.1,2,8.8,2.8,13.2,1.2,1.3-.5,2.7-.9,3.6-1.9,2.1-2.2,2-6.4,2-6.7,0,0,.4-6.6-1.7-12.4,0,0,2.1-10,4.1-24.7,0,0,3.5-20.8,2.9-39.6,0-.8-.4-1.6-.9-2.2-.4-.8-1.2-1.5-2.4-1.7Z"/>
      <path class="cls-34" d="M816.3,1142.8c-2.1,14.8-4.1,24.7-4.1,24.7,2.1,5.8,1.7,12.4,1.7,12.4,0,.3.2,4.5-2,6.7-1,1-2.4,1.4-3.6,1.9-4.4,1.6-9.1.8-13.2-1.2-8.4-4.1-11.1-13.1-11.1-13.1-5.4-13.9,2.9-40.1,2.9-40.1,0,0,3.7-17.8,18.9-29.4"/>
      <path class="cls-33" d="M796.2,1175.6s2.1,6.8,7.6,5.1c0,0,4.7-1,1.6-9.2"/>
    </g>
  </g>
  <g>
    <g>
      <path class="cls-28" d="M1680.9,767.3c6.7,2.9,9.5,10.9,6.2,17.4l-15.3,29.9c-7.9,15.5-24.8,24.4-42.1,22-11.7-1.6-26-3.7-41.7-6.4l-5-9.6c-3.3-6.4-9.3-11-16.3-12.7l-11.7-2.8c-6.7-1.6-12.2,5.6-8.9,11.6l3.4,6.2c-32.5-6.8-65.5-15.5-88.2-26.3,16.7-15,2.1-29.7,2.1-29.7,2.1-1,4.3-2,6.5-3,6.8,8.7,16.3,13.3,21.7,15.4,1,.4,2.1.6,3.2.6,1.6,0,3.3-.5,4.7-1.4,6-3.7,5.6-12.5-.6-15.7-6.2-3.3-9.4-6.1-9.4-6.1,12.9-3.9,26.2-5.9,37.3-3.3,29.5,6.7,83.4,22.4,98.4,26.7,2.6.8,5.3.7,7.9-.3l37.3-13.4c3.1-1.1,6.4-.9,9.4.4l1.1.5ZM1633.7,811.1c3.5-.5,5.9-3.7,5.4-7.2s-3.7-5.9-7.2-5.4-5.9,3.7-5.4,7.2,3.7,5.9,7.2,5.4ZM1607.4,805.9c3.5-.5,5.9-3.7,5.4-7.2s-3.7-5.9-7.2-5.4-5.9,3.7-5.4,7.2c.5,3.5,3.7,5.9,7.2,5.4ZM1580.2,799.7c3.5-.5,5.9-3.7,5.4-7.2s-3.7-5.9-7.2-5.4-5.9,3.7-5.4,7.2c.4,3.5,3.7,5.9,7.2,5.4ZM1553.9,794.5c3.5-.5,5.9-3.7,5.4-7.2s-3.7-5.9-7.2-5.4-5.9,3.7-5.4,7.2c.5,3.5,3.7,5.9,7.2,5.4ZM1527.2,788.5c3.5-.5,5.9-3.7,5.4-7.2s-3.7-5.9-7.2-5.4-5.9,3.7-5.4,7.2c.5,3.5,3.7,5.9,7.2,5.4Z"/>
      <path class="cls-27" d="M1639.1,803.9c.5,3.5-1.9,6.7-5.4,7.2s-6.7-1.9-7.2-5.4,1.9-6.7,5.4-7.2,6.8,2,7.2,5.4Z"/>
      <path class="cls-27" d="M1612.8,798.7c.5,3.5-1.9,6.7-5.4,7.2s-6.7-1.9-7.2-5.4,1.9-6.7,5.4-7.2c3.5-.5,6.8,1.9,7.2,5.4Z"/>
      <path class="cls-28" d="M1604.4,861.9c3.1,6-2.1,12.9-8.7,11.6l-9.8-2c-7.2-1.4-13.4-6-16.9-12.4l-19.5-36c13.1,2.7,26.2,5.1,38.5,7.2l16.4,31.6Z"/>
      <path class="cls-28" d="M1583,820.6l5,9.6c-12.2-2.1-25.3-4.5-38.5-7.2l-3.4-6.2c-3.3-6.1,2.1-13.2,8.9-11.6l11.7,2.8c7,1.6,12.9,6.2,16.3,12.6Z"/>
      <path class="cls-27" d="M1585.6,792.6c.5,3.5-1.9,6.7-5.4,7.2s-6.7-1.9-7.2-5.4,1.9-6.7,5.4-7.2c3.5-.6,6.7,1.9,7.2,5.4Z"/>
      <path class="cls-27" d="M1559.3,787.3c.5,3.5-1.9,6.7-5.4,7.2s-6.7-1.9-7.2-5.4,1.9-6.7,5.4-7.2c3.5-.5,6.7,1.9,7.2,5.4Z"/>
      <path class="cls-27" d="M1532.6,781.4c.5,3.5-1.9,6.7-5.4,7.2s-6.7-1.9-7.2-5.4,1.9-6.7,5.4-7.2c3.5-.6,6.7,1.9,7.2,5.4Z"/>
      <path class="cls-27" d="M1498.9,762.8c6.2,3.3,6.6,12.1.6,15.7-1.4.9-3.1,1.4-4.7,1.4s-2.1-.2-3.2-.6c-5.5-2.1-15-6.7-21.7-15.4,6.2-2.7,12.8-5.2,19.6-7.2,0,0,3.2,2.9,9.4,6.1Z"/>
      <path class="cls-28" d="M1463.4,766.9s14.6,14.7-2.1,29.7c-2.2-1-4.3-2.1-6.4-3.2-9-4.8-9-17.8,0-22.5,2.6-1.2,5.4-2.6,8.4-4Z"/>
    </g>
    <g>
      <path class="cls-31" d="M1549.5,823c-32.5-6.8-65.5-15.5-88.2-26.3-2.2-1-4.3-2.1-6.4-3.2-9-4.8-9-17.8,0-22.5,2.6-1.3,5.4-2.7,8.3-4.1,2.1-1,4.3-2,6.5-3,6.2-2.7,12.8-5.2,19.6-7.2,12.9-3.9,26.2-5.9,37.3-3.3,29.5,6.7,83.4,22.4,98.4,26.7,2.6.8,5.3.7,7.9-.3l37.3-13.4c3.1-1.1,6.4-.9,9.4.4l1,.5c6.7,2.9,9.5,10.9,6.2,17.4l-15.3,29.9c-7.9,15.5-24.8,24.4-42.1,22-11.7-1.6-26-3.7-41.7-6.4"/>
      <path class="cls-31" d="M1588,830.2l-5-9.6c-3.3-6.4-9.3-11-16.3-12.7l-11.7-2.8c-6.7-1.6-12.2,5.6-8.9,11.6l3.4,6.2,19.5,36c3.5,6.5,9.7,11,16.9,12.4l9.8,2c6.6,1.3,11.7-5.6,8.7-11.6l-16.4-31.5Z"/>
      <path class="cls-31" d="M1489.5,756.7s3.2,2.8,9.4,6.1c6.2,3.3,6.6,12.1.6,15.7-1.4.9-3.1,1.4-4.7,1.4s-2.1-.2-3.2-.6c-5.5-2.1-15-6.7-21.7-15.4"/>
      <path class="cls-31" d="M1626.5,805.7c.5,3.5,3.7,5.9,7.2,5.4s5.9-3.7,5.4-7.2-3.7-5.9-7.2-5.4c-3.4.5-5.9,3.7-5.4,7.2Z"/>
      <path class="cls-31" d="M1600.2,800.5c.5,3.5,3.7,5.9,7.2,5.4s5.9-3.7,5.4-7.2-3.7-5.9-7.2-5.4c-3.4.5-5.9,3.7-5.4,7.2Z"/>
      <path class="cls-31" d="M1573,794.3c.5,3.5,3.7,5.9,7.2,5.4s5.9-3.7,5.4-7.2-3.7-5.9-7.2-5.4c-3.5.5-5.9,3.7-5.4,7.2Z"/>
      <path class="cls-31" d="M1546.7,789.1c.5,3.5,3.7,5.9,7.2,5.4s5.9-3.7,5.4-7.2-3.7-5.9-7.2-5.4-5.9,3.7-5.4,7.2Z"/>
      <path class="cls-31" d="M1520,783.1c.5,3.5,3.7,5.9,7.2,5.4s5.9-3.7,5.4-7.2-3.7-5.9-7.2-5.4c-3.4.5-5.9,3.7-5.4,7.2Z"/>
    </g>
  </g>
  <g>
    <path class="cls-26" d="M219.6,310.2h-23.2c-4.5,0-8.1-3.6-8.1-8.1v-23.2c0-4.5,3.6-8.1,8.1-8.1h23.2c4.5,0,8.1,3.6,8.1,8.1v23.2c0,4.5-3.5,8.1-8.1,8.1Z"/>
    <path class="cls-22" d="M202.4,288.3c0-.3-.3-.6-.6-.6h-3.8c-.3,0-.6.3-.6.6v3.8c0,.3.3.6.6.6h3.8c.3,0,.6-.3.6-.6v-3.8Z"/>
    <path class="cls-22" d="M210.9,296.7c0-.3-.3-.6-.6-.6h-3.8c-.3,0-.6.3-.6.6v3.8c0,.3.3.6.6.6h3.8c.3,0,.6-.3.6-.6v-3.8Z"/>
    <path class="cls-25" d="M210.9,288.3c0-.3-.3-.6-.6-.6h-3.8c-.3,0-.6.3-.6.6v3.8c0,.3.3.6.6.6h3.8c.3,0,.6-.3.6-.6v-3.8Z"/>
    <path class="cls-22" d="M320.9,292.6c.6-3.9,2.6-6.5,6.7-6.5s6.3,2.4,6.7,6.5h-13.4ZM327.7,282.4c-6.5,0-11.7,4.7-11.7,12.4s4.6,12.8,12.3,12.8,8.1-1.9,10.4-4.7c.1-.1.2-.3.2-.4s-.1-.3-.2-.4l-2.2-2.1c-.1-.1-.3-.2-.4-.2s-.3.1-.4.3c-1.8,1.9-4.1,3.5-7.4,3.5-4.9,0-7.1-3-7.5-7.3h17.9c.3,0,.6-.3.6-.6v-.8c0-7.2-4.4-12.5-11.6-12.5Z"/>
    <path class="cls-22" d="M265.7,274.2h-3.9c-.3,0-.6.3-.6.6v13.1h-15.7v-13.1c0-.3-.3-.6-.6-.6h-3.9c-.3,0-.6.3-.6.6v31.5c0,.3.3.6.6.6h3.9c.3,0,.6-.3.6-.6v-14.1h15.7v14.1c0,.3.3.6.6.6h3.9c.3,0,.6-.3.6-.6v-31.6c0-.3-.2-.5-.6-.5Z"/>
    <path class="cls-22" d="M347.7,274.2h-3.7c-.3,0-.6.3-.6.6v31.5c0,.3.3.6.6.6h3.7c.3,0,.6-.3.6-.6v-31.6c0-.3-.2-.5-.6-.5Z"/>
    <path class="cls-22" d="M283.4,303.4c-5.1,0-7.9-3.9-7.9-8.5s2.8-8.5,7.9-8.5,7.9,3.9,7.9,8.5-2.7,8.5-7.9,8.5ZM283.4,282.4c-6.9,0-12.8,5.1-12.8,12.6s5.8,12.6,12.8,12.6,12.8-5.1,12.8-12.6c0-7.6-5.8-12.6-12.8-12.6Z"/>
    <path class="cls-22" d="M313.1,283.1h-6v-7.9c0-.4-.4-.6-.7-.3l-3.8,3.8c-.3.3-.3.4-.3.8v3.6h-4.2c-.3,0-.6.3-.6.6v2.6c0,.3.3.6.6.6h4.2v12.8c0,4.4,2.1,7.3,6.5,7.3h4.4c.3,0,.6-.3.6-.6v-3c0-.3-.3-.6-.6-.6h-3.2c-2.2,0-3-.8-3-3v-12.8h6c.3,0,.6-.3.6-.6v-2.6c.1-.5-.1-.7-.5-.7Z"/>
    <path class="cls-22" d="M376.1,304.8h-1.6c-.1,0-.3.1-.3.3v1.5c0,.1.1.3.3.3h1.6c.1,0,.3-.1.3-.3v-1.5c0-.2-.2-.3-.3-.3Z"/>
    <path class="cls-22" d="M390.6,305.6c-1.5,0-2.3-1-2.3-2.4s.8-2.4,2.3-2.4,2.2,1,2.2,2.4-.7,2.4-2.2,2.4ZM390.6,299.4c-2.1,0-3.9,1.5-3.9,3.8s1.8,3.8,3.9,3.8,3.9-1.5,3.9-3.8-1.8-3.8-3.9-3.8Z"/>
    <path class="cls-22" d="M363.2,292.6c-3.8-.8-5.7-1.5-5.7-3.5s1.7-3,4.7-3,4.8,1.2,6.1,3.1c.2.3.6.3.8.1l2.5-1.6c.3-.2.3-.4.2-.8-2-3.1-5.3-4.7-9.6-4.7s-9,2.3-9,7.1,4,6.3,9.2,7.4c3.7.8,5.3,1.4,5.3,3.6s-1.9,3.3-5.1,3.3-5.5-1.3-7-3.5c-.2-.3-.6-.4-.8-.2l-2.5,1.8c-.3.2-.3.4-.2.8,1.9,3.2,5.5,5.1,10.5,5.1s9.9-3.1,9.9-7.4c-.1-4.8-4.1-6.4-9.3-7.6Z"/>
    <path class="cls-22" d="M404.1,299.4c-1,0-1.8.4-2.4,1.1-.3-.6-1.2-1.1-2.2-1.1s-1.7.5-2,1v-.5c0-.1,0-.3-.3-.3h-1c0,0-.3.1-.3.3v6.7c0,.1,0,.3.3.3h1.1c0,0,.3-.1.3-.3v-3.5c0-1.3.3-2.2,1.5-2.2s1.3.6,1.3,1.5v4.2c0,.1,0,.3.3.3h1.1c0,0,.3-.1.3-.3v-3.5c0-1.3.4-2.2,1.6-2.2s1.3.6,1.3,1.5v4.2c0,.1,0,.3.3.3h1.1c0,0,.3-.1.3-.3v-4.4c.1-1.7-.9-2.8-2.6-2.8Z"/>
    <path class="cls-22" d="M385,304.5c-.1-.1-.3-.1-.4,0-.8.8-1.2,1.1-2,1.1-1.3,0-2-1-2-2.4s.6-2.4,2-2.4,1.4.3,1.9.9c.1.1.3.1.4.1l.6-.6c.1-.1.3-.3.1-.5-.6-.8-1.6-1.4-3.1-1.4-2.2,0-3.7,1.5-3.7,3.8s1.5,3.9,3.6,3.9,2.6-.6,3.3-1.6c.1-.1.1-.3,0-.3l-.7-.6Z"/>
    <path class="cls-22" d="M220.7,280.4c0-1.4-1.1-2.5-2.5-2.5h-18.9c-.3,0-.6.1-.8.3l-3.8,3.8c-.3.3-.1.7.3.7h20.8v20.8c0,.4.4.6.7.3l3.8-3.8c.3-.3.3-.4.3-.8v-18.8h.1Z"/>
  </g>
  <g>
    <path class="cls-20" d="M984.1,280.5c0,1.9-1.6,3.5-3.5,3.5s-3.5-1.6-3.5-3.5,1.6-3.5,3.5-3.5c1.9.1,3.5,1.6,3.5,3.5ZM1022.6,307.3v1.3h-5.9v-30.2h5.9v8.5c1.8-1.1,3.9-1.6,6.1-1.6,6.6,0,12,5.4,12,12s-5.4,12-12,12c-2.2-.3-4.3-1-6.1-2ZM1034.7,297c0,3.5-2.8,6.3-6.3,6.3s-6.3-2.8-6.3-6.3,2.8-6.3,6.3-6.3c3.5,0,6.3,2.8,6.3,6.3ZM958.4,278.3v4.9h-8.3v25.3h-6.1v-25.3h-8.3v-4.9h22.7ZM964.9,289c.7-1.2,1.7-2.2,3-2.9,1.2-.7,3.4-1.1,4.9-1.1v6.1h-2.3c-1.9,0-3.2.4-4.2,1.3-.9.9-1.4,2.4-1.4,4.5v11.5h-5.9v-23.1h5.9v3.7h0ZM983.8,308.5v-23.1h-6.4v23.1h6.4ZM1051.6,290.2v11.2c0,.8.2,1.4.6,1.7.4.3,1.1.5,2,.5h2.7v4.9h-3.7c-4.9,0-7.4-2.4-7.4-7.2v-11.1h-2.8v-4.8h2.8v-5.1h5.9v5.1h5.2v4.8h-5.3ZM1101.9,303.8h-10.3l10.3-13.6v-4.7h-17v4.8h10.2l-10.2,13.6v4.7h17.1v-4.8h0ZM1071.1,309c6.6,0,12-5.4,12-12s-5.4-12-12-12-12,5.4-12,12c0,6.6,5.5,12,12,12ZM1071.1,303.3c3.5,0,6.3-2.8,6.3-6.3s-2.8-6.3-6.3-6.3-6.3,2.8-6.3,6.3,2.9,6.3,6.3,6.3ZM1001.6,309c6.6,0,12-5.4,12-12s-5.4-12-12-12-4.4.7-6.1,1.6v-1.3h-5.9v30.1h5.9v-8.3c1.7,1.2,3.8,1.9,6.1,1.9ZM1007.5,297c0,3.5-2.8,6.3-6.3,6.3s-6.3-2.8-6.3-6.3,2.8-6.3,6.3-6.3,6.3,2.8,6.3,6.3Z"/>
    <path class="cls-9" d="M929.7,307.7l-26-16.9c-.4-.2-.9.1-.9.5v33.9c0,.5.6.7.9.5l26-16.9c.4-.3.4-.8,0-1.1Z"/>
    <path class="cls-11" d="M886.5,308.1v-18.4l18.5-12.3,11.9,7.9v14l6.3,4.1v-21.3l-18.1-11.9-24.8,16.2v27.9h22.6v-6.3h-16.4Z"/>
  </g>
  <g>
    <path class="cls-8" d="M488.6,303c-5.7,0-10.3,4.6-10.3,10.3s4.6,10.3,10.3,10.3,10.3-4.6,10.3-10.3-4.6-10.3-10.3-10.3"/>
    <path class="cls-14" d="M459.7,303c-5.7,0-10.3,4.6-10.3,10.3s4.6,10.3,10.3,10.3,10.3-4.6,10.3-10.3-4.6-10.3-10.3-10.3"/>
    <path class="cls-13" d="M517.4,303c-5.7,0-10.3,4.6-10.3,10.3s4.6,10.3,10.3,10.3,10.3-4.6,10.3-10.3-4.6-10.3-10.3-10.3"/>
    <path class="cls-19" d="M575.1,303c-5.7,0-10.3,4.6-10.3,10.3s4.6,10.3,10.3,10.3,10.3-4.6,10.3-10.3-4.6-10.3-10.3-10.3"/>
    <path class="cls-17" d="M546.3,303c-5.7,0-10.3,4.6-10.3,10.3s4.6,10.3,10.3,10.3,10.3-4.6,10.3-10.3-4.6-10.3-10.3-10.3"/>
    <path class="cls-12" d="M468.3,273.7c0-4.8-3.7-8.5-8.5-8.5s-8.5,3.7-8.5,8.5,3.7,8.5,8.5,8.5,8.5-3.6,8.5-8.5M447.9,273.7c0-6.7,5.4-11.7,12-11.7s12,5,12,11.7v10.3c0,1.1-.7,1.7-1.8,1.7s-1.8-.7-1.8-1.7v-3h-.2c-1.4,2.4-4.2,4.5-8.4,4.5-6.5,0-11.8-5-11.8-11.8"/>
    <path class="cls-12" d="M497.1,273.7c0-4.8-3.7-8.5-8.5-8.5s-8.5,3.7-8.5,8.5,3.7,8.5,8.5,8.5,8.5-3.6,8.5-8.5M481.3,293.1c-.9-.5-1.4-1.3-1.1-2.3.3-1,1.3-1.4,2.3-.9,1.6.8,3.7,1.3,5.8,1.3,5.4,0,8.7-3.2,8.7-8.7v-1.6h-.2c-1.4,2.4-4.2,4.5-8.4,4.5-6.5,0-11.8-5-11.8-11.7s5.4-11.7,12-11.7,12,5,12,11.7v8.6c0,7.4-4.8,12.3-12.5,12.3-2.2,0-4.7-.4-6.8-1.5"/>
    <path class="cls-12" d="M525.9,273.7c0-4.8-3.7-8.5-8.5-8.5s-8.5,3.7-8.5,8.5,3.7,8.5,8.5,8.5,8.5-3.6,8.5-8.5M505.4,273.7c0-6.7,5.3-11.7,12-11.7s12,5.1,12,11.7-5.3,11.7-12,11.7c-6.7.1-12-4.9-12-11.7"/>
    <path class="cls-12" d="M554.6,273.7c0-4.8-3.7-8.5-8.5-8.5s-8.5,3.7-8.5,8.5,3.7,8.5,8.5,8.5,8.5-3.6,8.5-8.5M534.2,273.7c0-6.7,5.3-11.7,11.8-11.7s7,2.1,8.4,4.5h.2v-11.9c0-1.1.7-1.7,1.8-1.7s1.8.7,1.8,1.7v19.3c0,6.7-5.3,11.7-12,11.7-6.7-.1-12-5.1-12-11.9"/>
    <path class="cls-12" d="M583.4,273.7c0-4.8-3.7-8.5-8.5-8.5s-8.5,3.7-8.5,8.5,3.7,8.5,8.5,8.5,8.5-3.6,8.5-8.5M562.9,273.7c0-6.7,5.4-11.7,12-11.7s12,5,12,11.7v10.3c0,1.1-.7,1.7-1.8,1.7s-1.8-.7-1.8-1.7v-3h-.2c-1.4,2.4-4.2,4.5-8.4,4.5-6.4,0-11.8-5-11.8-11.8"/>
  </g>
  <g>
    <path class="cls-1" d="M709.2,286.6c-2.8,0-5.2,1.1-6.6,3.1v-2.1h-6.6v32.8h7.6v-11.4c1.7,1.4,3.8,2.1,5.9,2.1,6.6,0,11.8-5.6,11.8-12.5s-5.2-12-12.1-12ZM721.2,298.8c0-6.6-5.2-12.5-11.8-12.5M708.4,304.3c-2.8,0-5.2-2.4-5.2-5.6s2.4-5.6,5.2-5.6,5.2,2.4,5.2,5.6c0,3.1-2,5.6-5.2,5.6Z"/>
    <circle class="cls-5" cx="729.2" cy="306.7" r="4.5"/>
    <circle class="cls-1" cx="687" cy="280.4" r="4.1"/>
    <rect class="cls-1" x="683.2" y="287.7" width="7.6" height="22.5"/>
    <polygon class="cls-10" points="639.2 277.3 639.2 283.5 648.9 283.5 648.9 309.8 656.6 309.8 656.6 283.5 665.9 283.5 665.9 277.3 639.2 277.3"/>
    <path class="cls-1" d="M749.2,304.3c-2.8,0-5.2-2.4-5.2-5.6s2.4-5.6,5.2-5.6,2.8.7,3.8,1.7l4.8-4.8c-2.1-2.1-5.2-3.8-8.6-3.8-6.6,0-12.5,5.6-12.5,12.5s5.6,12.5,12.5,12.5,6.6-1.4,8.6-3.8l-4.8-4.8c-1,1-2.4,1.7-3.8,1.7Z"/>
    <path class="cls-10" d="M814.6,286.6c-3.1,0-5.6,1.1-6.9,3.8-1.4-2.4-3.8-3.8-6.6-3.8s-5.2,1.4-6.6,3.8v-2.4h-6.5v22.1h7.6v-13.8c0-2.1,1.4-3.4,3.4-3.4s3.4,1.4,3.4,3.4v13.8h6.9v-13.8c0-2.1,1.4-3.4,3.4-3.4s3.4,1.4,3.4,3.4v13.8h7.6v-15.2c-1.2-5.1-4.2-8.3-9.1-8.3Z"/>
    <path class="cls-1" d="M771.7,286.6c-6.6,0-12.5,5.6-12.5,12.5s5.6,12.5,12.5,12.5,12.5-5.6,12.5-12.5c-.4-7.3-5.9-12.5-12.5-12.5ZM771.7,304.3c-2.8,0-5.2-2.4-5.2-5.6s2.4-5.6,5.2-5.6,5.2,2.4,5.2,5.6-2.4,5.6-5.2,5.6Z"/>
    <path class="cls-1" d="M678,287.4c-2.8,0-5.2,1.4-6.6,3.8v-3.4h-6.6v22h7.6v-9.3c0-3.8,2.8-6.3,6.3-6.3h1.1v-6.6c-.7,0-1.4-.2-1.8-.2Z"/>
  </g>
  <rect class="cls-4" x="186.9" y="373.6" width="596.8" height="88.6"/>
  <g>
    <path class="cls-21" d="M253.4,401.1h-42.7v-5.7h42.7v5.7ZM240.3,403c7.3,0,11.3,3.2,11.3,7.8s-4.1,7.9-11.4,7.9h-16.2c-7.2,0-11.4-3.2-11.4-7.9s4-7.8,11.3-7.8h16.4ZM267.7,421.3v14.9h-44v3.4h45v6h-52.7v-15.3h44v-3h-44v-6h51.7ZM247.6,393.3h-31.5v-5.8h31.5v5.8ZM224.6,413h15.1c3.1,0,4.3-.6,4.3-2.1s-1.3-2.1-4.3-2.1h-15.1c-3.1,0-4.3.6-4.3,2.1,0,1.4,1.3,2.1,4.3,2.1ZM267.7,401.3h7.8v6.9h-7.8v10.8h-7.7v-31.1h7.7v13.4Z"/>
    <path class="cls-21" d="M303.5,419h-9.2c-8.7,0-16.1-6.3-16.1-15.7s7.2-15.6,16-15.6h9.3c8.9,0,16.1,6.3,16.1,15.6,0,9.4-7.1,15.7-16.1,15.7ZM284.8,444.9v-20.8h7.8v14.2h44.8v6.6h-52.6ZM302.9,412.2c5.1,0,9.1-3.3,9.1-8.9s-4-8.9-9.1-8.9h-7.9c-5.2,0-9.1,3.4-9.1,8.9s3.9,8.9,9.1,8.9h7.9ZM336.2,428.4h-7.7v-40.5h7.7v40.5Z"/>
    <path class="cls-21" d="M374.9,437.1h29.6v6.6h-58.5v-6.6h20.9v-15.9h7.9v15.9h.1ZM394.6,430.3v-14.2h-46.5v-6.7h46.5v-14.1h-46.5v-6.7h54.1v41.8h-7.6Z"/>
    <path class="cls-21" d="M412.4,443.7v-6.7h58.6v6.7h-58.6ZM415.3,423v-34.5h52.7v6.6h-44.8v21.2h45.3v6.6h-53.2Z"/>
    <path class="cls-21" d="M524,414.8h-10.6c-8.8,0-15.6-5.6-15.6-13.8s6.6-13.7,15.5-13.7h10.7c8.8,0,15.5,5.6,15.5,13.7s-6.6,13.8-15.5,13.8ZM504.2,419.4h7.7v6.5h36.3v-6.5h7.7v25.5h-51.6v-25.5h-.1ZM523.2,408.2c5.1,0,8.7-2.6,8.7-7.2s-3.7-7.2-8.7-7.2h-8.9c-5.2,0-8.7,2.9-8.7,7.2s3.5,7.2,8.7,7.2h8.9ZM548.2,438.8v-6.7h-36.3v6.7h36.3ZM555.9,416h-7.7v-28.2h7.7v28.2Z"/>
    <path class="cls-21" d="M602.9,394.5h12v-6.6h7.7v34.3h-7.7v-8.1h-10.4v6h-37.9v-19h25.8v-6.7h-25.8v-6.2h33.4v19.1h-25.8v6.6h28v-6.3h12.6v-6.4h-12v-6.7h.1ZM614.8,446.1v-13.6h-43.8v-6.6h51.6v20.2h-7.8Z"/>
    <path class="cls-21" d="M672.1,408.4h-41.5v-6.5h41.5v6.5ZM656.4,444h-9.3c-8.7,0-15.3-6.1-15.3-14.7s6.5-14.7,15.2-14.7h9.3c8.7,0,15.3,6.1,15.3,14.7,0,8.6-6.5,14.7-15.2,14.7ZM667.4,395h-32.3v-6.5h32.3v6.5ZM655.6,437.5c4.7,0,8.5-2.9,8.5-8.1s-3.6-8.1-8.5-8.1h-7.9c-4.7,0-8.4,3.1-8.4,8.2s3.7,8.1,8.4,8.1h7.9ZM686.5,413h8.1v7h-8.1v24.7h-7.7v-56.7h7.7v25Z"/>
    <path class="cls-21" d="M699.4,419.4v-31.3h34.8v6.1h13.5v-6.4h7.7v40.5h-7.7v-15h-13.5v6.1h-34.8ZM704,444.9v-20.2h7.9v13.6h44.7v6.6h-52.6ZM726.6,394.5h-19.5v18.5h19.5v-18.5ZM734.3,407h13.5v-6.4h-13.5v6.4Z"/>
  </g>
  <g>
    <path class="cls-4" d="M1104,410.6v13.7h-93.2v-13.7h93.2ZM1101.1,382h-32.8c2.9,8.2,13.1,12.7,34.6,12.2v13.2c-17.3.2-36.9-2.9-45.4-13.2-8.9,10.2-27.9,13.4-45.4,13.2v-13.2c20.4.4,31.3-4.1,34.5-12.2h-32.8v-13.7h87.5l-.2,13.7h0ZM1083.9,458.6v-16.1h-71.1v-13.5h89.1v29.6h-18Z"/>
    <path class="cls-4" d="M1152.4,398.8c0,14.6,6.2,30.7,24.8,40.2v15.8c-14.4-3-28.3-16.2-32.9-25-4.3,10.7-19.5,23.4-32.3,26.2v-15.3c19.1-9.5,23.5-27.3,23.5-41.4v-31h16.9v30.5ZM1203.9,456.8h-16.7v-88.5h16.7v88.5Z"/>
    <path class="cls-4" d="M1279.9,391.1h-66.3v-11h66.3v11h0ZM1216.4,404.5c0-7.4,6.3-11.8,16.2-11.8h29.2c9.8,0,16.2,4.4,16.2,11.8s-6.3,12.1-16.2,12.1h-29.2c-9.9,0-16.2-4.8-16.2-12.1ZM1303.3,419.3v24.9h-64.9v2.7h66.1v11.2h-83.3v-25h64.7v-2.6h-64.7v-11.2h82.1ZM1272,378.6h-50.3v-11.2h50.3v11.2ZM1261.7,404.6c0-1.6-1.6-2.1-4.2-2.1h-20.9c-2.6,0-4.2.5-4.2,2.1s1.6,2.2,4.2,2.2h20.9c2.6,0,4.2-.5,4.2-2.2ZM1303.3,387.2h10.9v14.4h-10.9v15.1h-16.6v-48.7h16.6v19.2Z"/>
    <path class="cls-4" d="M1356.6,418.1h-14.2c-13.5,0-25.2-10.2-25.2-25.5s11.5-25.3,25.1-25.3h14.3c13.5,0,25,10.1,25,25.3,0,15.3-11.5,25.5-25,25.5ZM1327.3,457.1v-33h17.2v18.8h66v14.1h-83.2ZM1353.6,404.1c6,0,11.7-3.9,11.7-11.4s-5.7-11.4-11.7-11.4h-8.3c-6.1,0-11.7,4.1-11.7,11.4s5.6,11.4,11.7,11.4h8.3ZM1409.1,431.6h-16.6v-63.7h16.6v63.7Z"/>
  </g>
  <g>
    <path class="cls-4" d="M925.5,479c0,29.5-19.6,50-54.3,49.4-30.2-.6-50.2-18.5-50.2-46.5v-6h36.6v4.7c0,11.9,7.1,18.3,15.7,18.3s16-5.6,16-19.6v-15.9c0-15.9-9.7-19.8-18.1-19.2-6,.4-13.1,3.9-15.3,13.2l-33.8-2.6,9.9-86.9h90.1v31.2h-58.6l-2.4,19.2c6.4-2,13.4-3,20.9-3,22.6,0,43.5,15.3,43.5,42.1v21.6h0Z"/>
    <path class="cls-4" d="M967.5,474.2c0,8.8-7.2,13.9-14.8,13.9s-14.6-4.6-14.6-13.4v-14.4c0-8.7,7.1-13.4,14.7-13.4s14.7,4.7,14.7,13.4v13.9h0ZM959.1,461.4c0-4.4-2.7-6.8-6.3-6.8s-6.5,2.4-6.5,6.8v12.1c0,4.6,2.7,6.8,6.5,6.8s6.3-2.2,6.3-6.8v-12.1ZM983.6,449h9.3l-32.9,67.7h-9.3l32.9-67.7ZM1005.6,505.3c0,8.7-7.1,13.4-14.7,13.4s-14.7-4.7-14.7-13.4v-13.8c0-8.7,7.2-14,14.7-14s14.7,4.8,14.7,13.5v14.3ZM997.3,492.1c0-4.4-2.7-6.9-6.3-6.9s-6.5,2.5-6.5,6.9v12.1c0,4.5,2.6,6.7,6.5,6.7s6.3-2.2,6.3-6.7v-12.1Z"/>
  </g>
  <rect class="cls-29" x="391.7" y="68.2" width="864" height="106.9"/>
  <g>
    <path class="cls-21" d="M1004.2,107.6h-28.9c-2,0-2.9-.9-2.9-2.9v-6.5h11.6c-.5-2.6-.9-5.3-1.4-7.4,2-1.9,5.1-2.7,8-1.7,3.5,1.2,4.4,4.6,2.6,9.1h8.2c2,0,2.9.9,2.9,2.9v6.5h0ZM1015.3,87.9c2,0,2.9.9,2.9,2.9v58.9c0,3.3-.9,4.6-3,5.3-2.1.7-4.7.5-7.2.1v-17.5c-3.6,0-5.1-.9-5.9-2.6-.2-.6-.5-1.5-.5-2.6-1.7,6.3-6.5,10-13.2,10s-14-5.9-14-15.9,6-16.9,14-16.9,14,7,14,16.9v1.1h0c0-.1,5.7-.1,5.7-.1v-6.6c-3.6,0-5.1-.9-5.9-2.6-.7-1.5-.7-4.9.2-7.5h5.7v-23h7.2ZM992.1,125.9c0-4.6-1.5-7.4-3.9-7.4s-3.9,2.7-3.9,7.4,1.3,7,3.9,7,3.9-2.4,3.9-7ZM1032.8,145.1c0,3.9.2,6.6-.4,9-.8,3.6-3.9,5-10.4,4.3v-72.2h7.7c2,0,2.9.9,2.9,2.9l.2,56h0Z"/>
    <path class="cls-21" d="M1070.6,125.4c-5.7,1.2-12.7,1.6-18.1,1.2-8.7-1.2-12.4-4.4-13.2-12.2-.6-5.7-.5-15,1.5-24.6h22.1c2,0,2.9.9,2.9,2.6v6h-16.3c-.2,1.5-.4,3.3-.4,5.3h12.2c2,0,2.9.9,2.9,2.9v5.5h-14.9c.2,3.5,1.2,5.1,5.1,5.9,4.4.6,10.6.4,15.9-.7v-30h7c2,0,2.9.9,2.9,2.9v12h5.7v-15.8h7.5c2,0,2.9.9,2.9,2.9v27.3c0,3.9.2,6.6-.4,9-.7,3.6-3.7,5-10.1,4.3v-16.8h-5.7v10.7c0,3.3-.9,4.6-2.9,5.3-2.1.7-4.6.5-7,.1v-3.8h.4ZM1096.8,142.3c0,2.3.2,8.5-.3,12.2-.6,3.6-4.1,5-10.4,4.3v-15.2h-33.2c-2,0-2.9-.9-2.9-2.9v-6.7h44c2,0,2.9.9,2.9,2.9v5.4h0Z"/>
  </g>
  <g>
    <path class="cls-21" d="M520.3,143.3c0-13.5-2-32.6-4.4-43-1-4.3-3-7.3-6.2-9.6-1.8-1.3-3.8-2.3-6.1-3-.2-.1-.3-.1-.5-.2-8.4-2.7-16.3-3.9-24.5-3.7-8.2-.2-16.1,1-24.5,3.7-.2.1-.3.1-.5.2-2.3.7-4.4,1.7-6.1,3-3.2,2.3-5.2,5.3-6.2,9.6-2.4,10.4-4.4,29.5-4.4,43s0,6.6.4,9.1c.3,2.8.9,4.9,1.7,5.8,1.3,1.5,3.3,4.1,11.4,4.1h56.2c8.1,0,10-2.6,11.4-4.1.8-.9,1.3-3,1.7-5.8.4-2.5.6-5.6.6-9.1"/>
    <path class="cls-21" d="M446.2,99.4h0c-5.3,0-9.6-4.3-9.6-9.6s4.3-9.6,9.6-9.6,9.6,4.3,9.6,9.6-4.3,9.6-9.6,9.6"/>
    <path class="cls-21" d="M511.2,99.4h0c-5.3,0-9.6-4.3-9.6-9.6s4.3-9.6,9.6-9.6,9.6,4.3,9.6,9.6-4.4,9.6-9.6,9.6"/>
    <path class="cls-4" d="M452.5,115.2c0,.5,0,.9,0,1.4,0,2.9,2.5,5.4,5.5,5.5,3.2.1,5.9-2.5,5.9-5.7s0-.8,0-1.2c0-.3-.4-.5-.7-.5h-9.7c-.4,0-.7.2-.8.5"/>
    <path class="cls-4" d="M491.6,115.2c0,.5,0,.9,0,1.4,0,2.9,2.5,5.3,5.5,5.5,3.2.1,5.9-2.5,5.9-5.7s0-.8,0-1.2c0-.3-.4-.5-.7-.5h-9.7c-.5,0-.8.2-.8.5"/>
    <path class="cls-15" d="M493.1,140.7c0-.2,0-.4,0-.7v-1.2c0-5-2.3-18-3.6-23.1h0c0-.5-.5-.9-1.2-1h-21.4c-.7.1-1.1.5-1.2,1h0c-1.3,5-3.6,18.1-3.6,23.1v1.1h0c0,3.4,7,7.3,15.6,7.3s14.4-3.2,15.5-6.3q-.2-.1-.2-.2"/>
    <path class="cls-4" d="M488.4,114.7h-21.4c-.8.2-1.2.6-1.2,1.3s0,.5,0,.8c.7,1.6,1.5,3.1,2.4,4.6,1.5,2.6,3.2,4.9,5.6,7.2.8.8,1.6,1.5,2.4,2.2.5.4,1.1.6,1.6.6s1.1-.2,1.6-.6c.8-.7,1.6-1.4,2.4-2.2,2.3-2.3,4.1-4.6,5.6-7.2.9-1.5,1.7-3,2.4-4.6,0-.3.2-.5,0-.8-.3-.6-.8-1.1-1.6-1.3"/>
    <g>
      <path class="cls-21" d="M627.2,122.6v-7.3c-3.1.9-7.3,1.2-12.9,1.2s-2.7-1.5-2.7-3.4h11.7v-7.5h-11.7v-2.9h12.8v-8.2h-22.4v19c0,5.9,2.7,11.1,11.7,11.1,5.4-.1,9.8-.7,13.5-2Z"/>
      <rect class="cls-21" x="876.6" y="91.6" width="10.3" height="45.4"/>
      <path class="cls-21" d="M574.6,135.9c11.5-1.2,16-6.2,16-11.9s-7.4-13.3-21.2-13.3-21,6.3-21,13.3,4.4,10.8,16,11.9v5.9h-22.9v8.5h56v-8.4h-22.9v-6h0ZM559,123.8c0-2.9,2.7-4.8,10.3-4.8s10.5,1.9,10.5,4.8-2.7,4.2-10.5,4.2c-7.9-.1-10.3-1.3-10.3-4.2Z"/>
      <polygon class="cls-21" points="594.3 99.9 574.6 99.9 574.6 91.8 564.2 91.8 564.2 99.9 544.5 99.9 544.5 108.4 594.3 108.4 594.3 99.9"/>
      <polygon class="cls-21" points="630.8 124.1 640 124.1 640 91.9 630.8 91.9 630.8 103.9 625.3 103.9 625.3 112 630.8 112 630.8 124.1"/>
      <rect class="cls-21" x="643.2" y="91.6" width="9.5" height="32.5"/>
      <path class="cls-21" d="M686.9,117.1c5.3,7,13.8,10.6,22.5,10.6s2.1-.1,3.2-.5v-7.9h-1.1c-12.1,0-19.2-5.8-19.2-17.3v-7.7h-10.5v7.7c0,11.5-7.2,17.3-19.2,17.3h-1.1v7.9c1.1.4,2.1.5,3.2.5,8.4,0,17-3.6,22.2-10.6Z"/>
      <path class="cls-21" d="M749.9,94.7h-28.2v8.8h18.3c0,1.4,0,2.7-.3,3.9h-19.6v8.4h15.6c-3.2,3.1-8.1,4.4-14.9,4.4h-1.1v7.6c1.1.4,2.1.5,3.2.5,18,0,29-12.4,27-33.6Z"/>
      <path class="cls-21" d="M871.6,112.2c0-9.5-6-17.8-17.3-17.8s-17.2,8.4-17.2,17.8,5.3,15.9,17.2,15.9c11.8,0,17.3-7.4,17.3-15.9ZM847.3,111.7c0-5.2,1.9-8.4,7-8.4s7,3.2,7,8.4-2.2,7.5-7,7.5-7-2.3-7-7.5Z"/>
      <polygon class="cls-21" points="825 91.6 814.7 91.6 814.7 151.2 825 151.2 825 120.2 833 120.2 833 111.3 825 111.3 825 91.6"/>
      <path class="cls-21" d="M620.8,144.4h31.7v-17.7h-42.1v8h32v2.5h-31.9v8c0,5.9,3.7,10.1,13,10.1h30v-8.2h-30c-2.2,0-2.7-1.1-2.7-2.7Z"/>
      <path class="cls-21" d="M860.3,146.2c-3.1,0-4.7-1.9-4.7-5.4v-8.5h-10.7v8.6c0,9.6,4.9,13.9,15.5,13.9h27.7v-8.6h-27.8Z"/>
      <path class="cls-21" d="M797.7,108.5h-9.2v-13.9h-10.3v31c0,8.5,5.5,13.9,17,13.9s12.7-2.2,12.7-8v-36.9h-10.3v13.9h0ZM797.7,129.1c0,1.3-1.5,2-3.6,2-3.8,0-5.7-1.7-5.7-5.1v-9.2h9.2v12.3h0Z"/>
      <rect class="cls-21" x="658.9" y="138.6" width="56" height="8.6"/>
      <polygon class="cls-21" points="759.2 106.6 750.2 106.6 750.2 115.3 759.2 115.3 759.2 126.9 769.5 126.9 769.5 91.6 759.2 91.6 759.2 106.6"/>
      <path class="cls-21" d="M728.4,141.8c0,8.8,7.6,13.9,23.5,13.9s17.6-2.2,17.6-8v-17.8h-41.1v11.9ZM738.6,137.9h20.6v7.4c0,1.5-3.9,2.1-7.9,2.1-8.4,0-12.7-1.7-12.7-5.3v-4.2h0Z"/>
    </g>
  </g>
  <rect class="cls-29" x="388.6" y="748.1" width="864" height="106.9"/>
  <g>
    <path class="cls-21" d="M1001.1,787.5h-28.9c-2,0-2.9-.9-2.9-2.9v-6.5h11.6c-.5-2.6-.9-5.3-1.4-7.4,2-1.9,5.1-2.7,8-1.7,3.5,1.2,4.4,4.6,2.6,9.1h8.2c2,0,2.9.9,2.9,2.9v6.5h0ZM1012.2,767.8c2,0,2.9.9,2.9,2.9v58.9c0,3.3-.9,4.6-3,5.3-2.1.7-4.7.5-7.2,0v-17.5c-3.6,0-5.1-.9-5.9-2.6-.2-.6-.5-1.5-.5-2.6-1.7,6.3-6.5,10-13.2,10s-14-5.9-14-15.9,6-16.9,14-16.9,14,7,14,16.9v1.1h0c0,0,5.6,0,5.6,0v-6.5c-3.6,0-5.1-.9-5.9-2.6-.7-1.5-.7-4.9.2-7.5h5.6v-23h7.4ZM989,805.8c0-4.6-1.5-7.4-3.9-7.4s-3.9,2.7-3.9,7.4,1.3,7,3.9,7,3.9-2.5,3.9-7ZM1029.7,825c0,3.9.2,6.6-.4,9-.8,3.6-3.9,5-10.4,4.3v-72.2h7.7c2,0,2.9.9,2.9,2.9l.2,56h0Z"/>
    <path class="cls-21" d="M1067.5,805.3c-5.7,1.2-12.7,1.6-18.1,1.2-8.7-1.2-12.4-4.4-13.2-12.2-.6-5.7-.5-15,1.5-24.6h22.1c2,0,2.9.9,2.9,2.6v6h-16.3c-.2,1.5-.4,3.3-.4,5.3h12.2c2,0,2.9.9,2.9,2.9v5.5h-14.9c.2,3.5,1.2,5.1,5.1,5.9,4.4.6,10.6.4,15.9-.7v-30h7c2,0,2.9.9,2.9,2.9v12h5.7v-15.8h7.5c2,0,2.9.9,2.9,2.9v27.3c0,3.9.2,6.6-.4,9-.7,3.6-3.7,5-10.1,4.3v-16.8h-5.7v10.7c0,3.3-.9,4.6-2.9,5.3-2.1.7-4.6.5-7,0l.4-3.8h0ZM1093.7,822.2c0,2.3.2,8.5-.3,12.2-.6,3.6-4.1,5-10.4,4.3v-15.2h-33.2c-2,0-2.9-.9-2.9-2.9v-6.7h44c2,0,2.9.9,2.9,2.9v5.4h0Z"/>
  </g>
  <g>
    <path class="cls-21" d="M517.2,823.1c0-13.5-2-32.6-4.4-43-1-4.3-3-7.3-6.2-9.6-1.8-1.3-3.8-2.3-6.1-3-.2,0-.3,0-.5-.2-8.4-2.7-16.3-3.9-24.5-3.7-8.2-.2-16.1,1-24.5,3.7-.2,0-.3,0-.5.2-2.3.7-4.4,1.7-6.1,3-3.2,2.3-5.2,5.3-6.2,9.6-2.4,10.4-4.4,29.5-4.4,43s0,6.6.4,9.1c.3,2.8.9,4.9,1.7,5.8,1.3,1.5,3.3,4.1,11.4,4.1h56.2c8.1,0,10-2.6,11.4-4.1.8-.9,1.3-3,1.7-5.8.4-2.5.6-5.6.6-9.1"/>
    <path class="cls-21" d="M443.1,779.3h0c-5.3,0-9.6-4.3-9.6-9.6s4.3-9.6,9.6-9.6,9.6,4.3,9.6,9.6c0,5.3-4.3,9.6-9.6,9.6"/>
    <path class="cls-21" d="M508.1,779.3h0c-5.3,0-9.6-4.3-9.6-9.6s4.3-9.6,9.6-9.6,9.6,4.3,9.6,9.6c0,5.3-4.4,9.6-9.6,9.6"/>
    <path class="cls-4" d="M449.4,795.1c0,.5,0,.9,0,1.4,0,2.9,2.5,5.4,5.5,5.5,3.2,0,5.9-2.5,5.9-5.7s0-.8,0-1.2c0-.3-.4-.5-.7-.5h-9.7c-.4-.1-.7,0-.8.5"/>
    <path class="cls-4" d="M488.5,795.1c0,.5,0,.9,0,1.4,0,2.9,2.5,5.3,5.5,5.5,3.2,0,5.9-2.5,5.9-5.7s0-.8,0-1.2c0-.3-.4-.5-.7-.5h-9.7c-.5-.1-.8.2-.8.5"/>
    <path class="cls-15" d="M490,820.6c0-.2,0-.4,0-.7v-1.2c0-5-2.3-18-3.6-23.1h0c0-.5-.5-.9-1.2-1h-21.4c-.7,0-1.1.5-1.2,1h0c-1.3,5-3.6,18.1-3.6,23.1v1.1h0c0,3.4,7,7.3,15.6,7.3s14.4-3.2,15.5-6.3c-.2,0-.2-.2-.2-.2"/>
    <path class="cls-4" d="M485.3,794.6h-21.4c-.8.2-1.2.6-1.2,1.3s0,.5,0,.8c.7,1.6,1.5,3.1,2.4,4.6,1.5,2.6,3.2,4.9,5.6,7.2.8.8,1.6,1.5,2.4,2.2.5.4,1.1.6,1.6.6s1.1-.2,1.6-.6c.8-.7,1.6-1.4,2.4-2.2,2.3-2.3,4.1-4.6,5.6-7.2.9-1.5,1.7-3,2.4-4.6,0-.3.2-.5,0-.8-.3-.7-.8-1.2-1.6-1.3"/>
    <g>
      <path class="cls-21" d="M624.1,802.4v-7.3c-3.1.9-7.3,1.2-12.9,1.2s-2.7-1.5-2.7-3.4h11.7v-7.5h-11.7v-2.9h12.8v-8.2h-22.4v19c0,5.9,2.7,11.1,11.7,11.1,5.4,0,9.8-.6,13.5-2Z"/>
      <rect class="cls-21" x="873.5" y="771.5" width="10.3" height="45.4"/>
      <path class="cls-21" d="M571.5,815.8c11.5-1.2,16-6.2,16-11.9s-7.4-13.3-21.2-13.3-21,6.3-21,13.3,4.4,10.8,16,11.9v5.9h-22.9v8.5h56v-8.5h-22.9v-5.9h0ZM555.9,803.7c0-2.9,2.7-4.8,10.3-4.8s10.5,1.9,10.5,4.8-2.7,4.2-10.5,4.2c-7.9,0-10.3-1.3-10.3-4.2Z"/>
      <polygon class="cls-21" points="591.2 779.7 571.5 779.7 571.5 771.7 561.1 771.7 561.1 779.7 541.4 779.7 541.4 788.2 591.2 788.2 591.2 779.7"/>
      <polygon class="cls-21" points="627.7 803.9 636.9 803.9 636.9 771.7 627.7 771.7 627.7 783.7 622.2 783.7 622.2 791.9 627.7 791.9 627.7 803.9"/>
      <rect class="cls-21" x="640.1" y="771.5" width="9.5" height="32.5"/>
      <path class="cls-21" d="M683.8,797c5.3,7,13.8,10.6,22.5,10.6s2.1,0,3.2-.5v-7.9h-1.1c-12.1,0-19.2-5.8-19.2-17.3v-7.7h-10.5v7.7c0,11.5-7.2,17.3-19.2,17.3h-1.1v7.9c1.1.4,2.1.5,3.2.5,8.4,0,17-3.7,22.2-10.6Z"/>
      <path class="cls-21" d="M746.8,774.6h-28.2v8.8h18.3c0,1.4,0,2.7-.3,3.9h-19.6v8.4h15.6c-3.2,3.1-8.1,4.4-14.9,4.4h-1.1v7.6c1.1.4,2.1.5,3.2.5,18,0,29-12.5,27-33.6Z"/>
      <path class="cls-21" d="M868.5,792.1c0-9.5-6-17.8-17.3-17.8s-17.2,8.4-17.2,17.8,5.3,15.9,17.2,15.9c11.8,0,17.3-7.4,17.3-15.9ZM844.2,791.5c0-5.2,1.9-8.4,7-8.4s7,3.2,7,8.4-2.2,7.5-7,7.5-7-2.2-7-7.5Z"/>
      <polygon class="cls-21" points="821.9 771.5 811.6 771.5 811.6 831.1 821.9 831.1 821.9 800 829.9 800 829.9 791.1 821.9 791.1 821.9 771.5"/>
      <path class="cls-21" d="M617.7,824.3h31.7v-17.7h-42.1v8h32v2.5h-31.9v8c0,5.9,3.7,10.1,13,10.1h30v-8.2h-30c-2.2-.1-2.7-1.2-2.7-2.7Z"/>
      <path class="cls-21" d="M857.2,826c-3.1,0-4.7-1.9-4.7-5.4v-8.5h-10.7v8.6c0,9.6,4.9,13.9,15.5,13.9h27.7v-8.6h-27.8Z"/>
      <path class="cls-21" d="M794.6,788.4h-9.2v-13.9h-10.3v31c0,8.5,5.5,13.9,17,13.9s12.7-2.2,12.7-8v-36.9h-10.3v13.9h0ZM794.6,809c0,1.3-1.5,2-3.6,2-3.8,0-5.7-1.7-5.7-5.1v-9.2h9.2v12.3h0Z"/>
      <rect class="cls-21" x="655.8" y="818.5" width="56" height="8.6"/>
      <polygon class="cls-21" points="756.1 786.4 747.1 786.4 747.1 795.1 756.1 795.1 756.1 806.8 766.4 806.8 766.4 771.5 756.1 771.5 756.1 786.4"/>
      <path class="cls-21" d="M725.3,821.7c0,8.8,7.6,13.9,23.5,13.9s17.6-2.2,17.6-8v-17.8h-41.1v11.9ZM735.5,817.8h20.6v7.4c0,1.5-3.9,2.1-7.9,2.1-8.4,0-12.7-1.7-12.7-5.3v-4.2h0Z"/>
    </g>
  </g>
  <g>
    <g>
      <path class="cls-28" d="M1648.5,111c6.7,2.9,9.5,10.9,6.2,17.4l-15.3,29.9c-7.9,15.5-24.8,24.4-42.1,22-11.7-1.6-26-3.7-41.7-6.4l-5-9.6c-3.3-6.4-9.3-11-16.3-12.7l-11.7-2.8c-6.7-1.6-12.2,5.6-8.9,11.6l3.4,6.2c-32.5-6.8-65.5-15.5-88.2-26.3,16.7-15,2.1-29.7,2.1-29.7,2.1-1,4.3-2,6.5-3,6.8,8.7,16.3,13.3,21.7,15.4,1,.4,2.1.6,3.2.6,1.6,0,3.3-.5,4.7-1.4,6-3.7,5.6-12.5-.6-15.7-6.2-3.3-9.4-6.1-9.4-6.1,12.9-3.9,26.2-5.9,37.3-3.3,29.5,6.7,83.4,22.4,98.4,26.7,2.6.8,5.3.7,7.9-.3l37.3-13.4c3.1-1.1,6.4-.9,9.4.4l1.1.5ZM1601.3,154.8c3.5-.5,5.9-3.7,5.4-7.2s-3.7-5.9-7.2-5.4-5.9,3.7-5.4,7.2,3.7,5.9,7.2,5.4ZM1575,149.6c3.5-.5,5.9-3.7,5.4-7.2s-3.7-5.9-7.2-5.4-5.9,3.7-5.4,7.2c.5,3.5,3.7,5.9,7.2,5.4ZM1547.8,143.4c3.5-.5,5.9-3.7,5.4-7.2s-3.7-5.9-7.2-5.4-5.9,3.7-5.4,7.2c.4,3.5,3.7,5.9,7.2,5.4ZM1521.5,138.2c3.5-.5,5.9-3.7,5.4-7.2s-3.7-5.9-7.2-5.4-5.9,3.7-5.4,7.2,3.7,5.9,7.2,5.4ZM1494.8,132.2c3.5-.5,5.9-3.7,5.4-7.2s-3.7-5.9-7.2-5.4-5.9,3.7-5.4,7.2c.5,3.5,3.7,5.9,7.2,5.4Z"/>
      <path class="cls-27" d="M1606.7,147.6c.5,3.5-1.9,6.7-5.4,7.2s-6.7-1.9-7.2-5.4,1.9-6.7,5.4-7.2,6.8,2,7.2,5.4Z"/>
      <path class="cls-27" d="M1580.4,142.4c.5,3.5-1.9,6.7-5.4,7.2s-6.7-1.9-7.2-5.4,1.9-6.7,5.4-7.2c3.5-.5,6.8,1.9,7.2,5.4Z"/>
      <path class="cls-28" d="M1572,205.6c3.1,6-2.1,12.9-8.7,11.6l-9.8-2c-7.2-1.4-13.4-6-16.9-12.4l-19.5-36c13.1,2.7,26.2,5.1,38.5,7.2l16.4,31.6Z"/>
      <path class="cls-28" d="M1550.6,164.3l5,9.6c-12.2-2.1-25.3-4.5-38.5-7.2l-3.4-6.2c-3.3-6.1,2.1-13.2,8.9-11.6l11.7,2.8c7,1.6,12.9,6.2,16.3,12.6Z"/>
      <path class="cls-27" d="M1553.2,136.3c.5,3.5-1.9,6.7-5.4,7.2s-6.7-1.9-7.2-5.4,1.9-6.7,5.4-7.2c3.5-.6,6.7,1.9,7.2,5.4Z"/>
      <path class="cls-27" d="M1526.9,131c.5,3.5-1.9,6.7-5.4,7.2s-6.7-1.9-7.2-5.4,1.9-6.7,5.4-7.2c3.5-.5,6.7,1.9,7.2,5.4Z"/>
      <path class="cls-27" d="M1500.2,125.1c.5,3.5-1.9,6.7-5.4,7.2s-6.7-1.9-7.2-5.4,1.9-6.7,5.4-7.2c3.5-.6,6.7,1.9,7.2,5.4Z"/>
      <path class="cls-27" d="M1466.5,106.5c6.2,3.3,6.6,12.1.6,15.7-1.4.9-3.1,1.4-4.7,1.4s-2.1-.2-3.2-.6c-5.5-2.1-15-6.7-21.7-15.4,6.2-2.7,12.8-5.2,19.6-7.2,0,0,3.2,2.9,9.4,6.1Z"/>
      <path class="cls-28" d="M1431,110.6s14.6,14.7-2.1,29.7c-2.2-1-4.3-2.1-6.4-3.2-9-4.8-9-17.8,0-22.5,2.6-1.2,5.4-2.6,8.4-4Z"/>
    </g>
    <g>
      <path class="cls-31" d="M1517.1,166.7c-32.5-6.8-65.5-15.5-88.2-26.3-2.2-1-4.3-2.1-6.4-3.2-9-4.8-9-17.8,0-22.5,2.6-1.3,5.4-2.7,8.3-4.1,2.1-1,4.3-2,6.5-3,6.2-2.7,12.8-5.2,19.6-7.2,12.9-3.9,26.2-5.9,37.3-3.3,29.5,6.7,83.4,22.4,98.4,26.7,2.6.8,5.3.7,7.9-.3l37.3-13.4c3.1-1.1,6.4-.9,9.4.4l1,.5c6.7,2.9,9.5,10.9,6.2,17.4l-15.3,29.9c-7.9,15.5-24.8,24.4-42.1,22-11.7-1.6-26-3.7-41.7-6.4"/>
      <path class="cls-31" d="M1555.6,173.9l-5-9.6c-3.3-6.4-9.3-11-16.3-12.7l-11.7-2.8c-6.7-1.6-12.2,5.6-8.9,11.6l3.4,6.2,19.5,36c3.5,6.5,9.7,11,16.9,12.4l9.8,2c6.6,1.3,11.7-5.6,8.7-11.6l-16.4-31.5Z"/>
      <path class="cls-31" d="M1457.1,100.4s3.2,2.8,9.4,6.1c6.2,3.3,6.6,12.1.6,15.7-1.4.9-3.1,1.4-4.7,1.4s-2.1-.2-3.2-.6c-5.5-2.1-15-6.7-21.7-15.4"/>
      <path class="cls-31" d="M1594.1,149.4c.5,3.5,3.7,5.9,7.2,5.4s5.9-3.7,5.4-7.2-3.7-5.9-7.2-5.4c-3.4.5-5.9,3.7-5.4,7.2Z"/>
      <path class="cls-31" d="M1567.8,144.2c.5,3.5,3.7,5.9,7.2,5.4s5.9-3.7,5.4-7.2-3.7-5.9-7.2-5.4c-3.4.5-5.9,3.7-5.4,7.2Z"/>
      <path class="cls-31" d="M1540.6,138c.5,3.5,3.7,5.9,7.2,5.4s5.9-3.7,5.4-7.2-3.7-5.9-7.2-5.4-5.9,3.7-5.4,7.2Z"/>
      <path class="cls-31" d="M1514.3,132.8c.5,3.5,3.7,5.9,7.2,5.4s5.9-3.7,5.4-7.2-3.7-5.9-7.2-5.4-5.9,3.7-5.4,7.2Z"/>
      <path class="cls-31" d="M1487.6,126.8c.5,3.5,3.7,5.9,7.2,5.4s5.9-3.7,5.4-7.2-3.7-5.9-7.2-5.4c-3.4.5-5.9,3.7-5.4,7.2Z"/>
    </g>
  </g>
  <path class="cls-21" d="M1147.4,151.7h-11.8v-44.4c-4.3,4-9.4,7-15.2,8.9v-10.7c3.1-1,6.4-2.9,10-5.7s6.1-6.1,7.4-9.8h9.6v61.7Z"/>
  <path class="cls-21" d="M1156.9,821.8v10.9h-41.3c.4-4.1,1.8-8.1,4-11.8,2.2-3.7,6.7-8.6,13.2-14.7,5.3-4.9,8.6-8.3,9.8-10.1,1.6-2.4,2.4-4.8,2.4-7.2s-.7-4.6-2.1-6.1c-1.4-1.4-3.4-2.1-5.8-2.1s-4.4.7-5.9,2.2-2.3,3.9-2.5,7.4l-11.7-1.2c.7-6.5,2.9-11.1,6.6-14,3.7-2.8,8.3-4.2,13.8-4.2s10.8,1.6,14.3,4.9c3.5,3.3,5.2,7.3,5.2,12.2s-.5,5.4-1.5,7.9-2.6,5.1-4.7,7.9c-1.4,1.8-4,4.4-7.7,7.8s-6.1,5.7-7.1,6.8-1.8,2.2-2.4,3.3h23.4Z"/>
</svg>