<?xml version="1.0" encoding="utf-8"?>
<!-- Generator: Adobe Illustrator 28.3.0, SVG Export Plug-In . SVG Version: 6.00 Build 0)  -->
<svg version="1.1" id="레이어_1" xmlns="http://www.w3.org/2000/svg" xmlns:xlink="http://www.w3.org/1999/xlink" x="0px"
	 y="0px" width="1920px" height="996px" viewBox="0 0 1920 996" style="enable-background:new 0 0 1920 996;" xml:space="preserve">
<style type="text/css">
	.st0{fill:#FFFFFF;}
	.st1{fill:#2E4162;}
	.st2{fill:#2CABE1;}
	.st3{fill:#2E4162;stroke:#2E4162;stroke-width:5.0473;stroke-linecap:round;stroke-linejoin:round;stroke-miterlimit:10;}
</style>
<g>
	<path class="st0" d="M741,231.3c0-20-2.9-48.4-6.5-63.7c-1.5-6.4-4.4-10.9-9.1-14.2c-2.6-1.9-5.7-3.5-9.1-4.4
		c-0.2-0.1-0.5-0.2-0.7-0.2c-12.5-4-24.1-5.8-36.2-5.5c-12.1-0.2-23.8,1.5-36.2,5.5c-0.2,0.1-0.5,0.2-0.7,0.2
		c-3.4,1-6.5,2.5-9.1,4.4c-4.7,3.4-7.7,7.9-9.1,14.2c-3.6,15.4-6.5,43.7-6.5,63.7c0,5.2,0.2,9.8,0.7,13.5c0.5,4.2,1.3,7.2,2.5,8.6
		c2,2.3,4.9,6.1,16.8,6.1h0.2h82.9h0.2c12,0,14.9-3.8,16.8-6.1c1.2-1.3,2-4.4,2.5-8.6C740.8,241,741,236.4,741,231.3"/>
	<path class="st0" d="M631.3,166.4L631.3,166.4c-7.8,0-14.2-6.4-14.2-14.2c0-7.8,6.4-14.2,14.2-14.2c7.8,0,14.2,6.4,14.2,14.2
		C645.5,160,639.1,166.4,631.3,166.4"/>
	<path class="st0" d="M727.5,166.4L727.5,166.4c-7.8,0-14.2-6.4-14.2-14.2c0-7.8,6.4-14.2,14.2-14.2c7.8,0,14.2,6.4,14.2,14.2
		C741.7,160,735.3,166.4,727.5,166.4"/>
	<path class="st1" d="M640.7,189.7c-0.1,0.7-0.2,1.4-0.2,2.1c0.2,4.4,3.7,7.9,8.1,8.1c4.8,0.2,8.7-3.7,8.7-8.4
		c0-0.6-0.1-1.2-0.2-1.8c-0.1-0.5-0.5-0.8-1-0.8h-14.4C641.2,188.9,640.8,189.2,640.7,189.7"/>
	<path class="st1" d="M698.5,189.7c-0.1,0.7-0.2,1.4-0.2,2.1c0.2,4.4,3.7,7.9,8.1,8.1c4.8,0.2,8.7-3.7,8.7-8.4
		c0-0.6-0.1-1.2-0.2-1.8c-0.1-0.5-0.5-0.8-1-0.8h-14.4C699,188.9,698.6,189.2,698.5,189.7"/>
	<path class="st2" d="M700.8,227.4c0.1-0.3,0.1-0.6,0.2-1c0-0.5,0.1-1.1,0.1-1.8c0-7.4-3.4-26.7-5.4-34.1c0,0,0,0,0,0
		c-0.2-0.8-0.8-1.3-1.8-1.5c0,0,0,0,0,0c-0.1,0-0.1,0-0.2,0c-0.1,0-0.1,0-0.2,0c0,0,0,0,0,0c-0.1,0-0.2,0-0.3,0h-30.6h-0.1
		c-0.1,0-0.2,0-0.3,0c0,0,0,0,0,0c-0.1,0-0.1,0-0.2,0c-0.1,0-0.1,0-0.2,0c0,0,0,0,0,0c-1,0.2-1.6,0.7-1.8,1.5c0,0,0,0,0,0
		c-2,7.4-5.4,26.8-5.4,34.1c0,0.6,0,1.1,0,1.6c0,0,0,0.1,0,0.1c0,4.9,10.4,10.6,23.2,10.6c11.6,0,21.3-4.8,22.9-9.3
		C700.7,227.7,700.8,227.6,700.8,227.4"/>
	<path class="st1" d="M693.8,189C693.8,189,693.8,189,693.8,189c-0.1,0-0.1,0-0.2,0c-0.1,0-0.1,0-0.2,0c0,0,0,0,0,0
		c-0.1,0-0.2,0-0.3,0H693h-30.5h-0.1c-0.1,0-0.2,0-0.3,0c0,0,0,0,0,0c-0.1,0-0.1,0-0.2,0c-0.1,0-0.1,0-0.2,0c0,0,0,0,0,0
		c-1.2,0.2-1.8,0.9-1.8,2c0,0.4,0,0.8,0.2,1.1c1,2.4,2.2,4.7,3.5,6.8c2.2,3.8,4.8,7.2,8.3,10.6c1.1,1.1,2.3,2.2,3.5,3.2
		c0.7,0.6,1.6,0.9,2.4,0.9c0.8,0,1.6-0.3,2.4-0.9c1.2-1,2.4-2.1,3.5-3.2c3.5-3.4,6.1-6.8,8.3-10.6c1.3-2.2,2.5-4.5,3.5-6.8
		c0.2-0.4,0.2-0.8,0.2-1.1C695.7,189.9,695,189.2,693.8,189"/>
	<g>
		<g>
			<path class="st0" d="M899.4,200.6v-10.8c-4.6,1.3-10.8,1.8-19.2,1.8c-3,0-4-2.2-4-5.1h17.3v-11.1h-17.3v-4.3h19v-12.2h-33.2V187
				c0,8.7,4,16.5,17.3,16.5C887.4,203.5,893.9,202.6,899.4,200.6z"/>
		</g>
		<g>
			<rect x="1268.7" y="154.8" class="st0" width="15.3" height="67.3"/>
		</g>
		<g>
			<path class="st0" d="M821.4,220.4c17-1.7,23.6-9.2,23.6-17.6c0-10.4-10.9-19.8-31.4-19.8c-20.8,0-31.2,9.3-31.2,19.8
				c0,8.5,6.5,16,23.6,17.6v8.8h-33.9v12.6h83v-12.6h-33.9V220.4z M798.4,202.4c0-4.3,4.1-7.1,15.3-7.1c11.4,0,15.6,2.8,15.6,7.1
				c0,4.5-4,6.2-15.6,6.2C802,208.6,798.4,206.8,798.4,202.4z"/>
		</g>
		<g>
			<polygon class="st0" points="850.7,167 821.5,167 821.5,155.1 806,155.1 806,167 777,167 777,179.6 850.7,179.6 			"/>
		</g>
		<g>
			<polygon class="st0" points="904.8,202.8 918.4,202.8 918.4,155.2 904.8,155.2 904.8,172.9 896.5,172.9 896.5,184.9 904.8,184.9 
							"/>
		</g>
		<g>
			<rect x="923" y="154.8" class="st0" width="14" height="48.2"/>
		</g>
		<g>
			<path class="st0" d="M987.9,192.5c7.8,10.3,20.5,15.7,33.3,15.7c1.6,0,3.1-0.2,4.7-0.8v-11.7h-1.7c-17.9,0-28.5-8.5-28.5-25.6
				v-2.2v-6.2v-3h-15.5v3v6.2v2.2c0,17.1-10.6,25.6-28.5,25.6H950v11.7c1.6,0.6,3.1,0.8,4.7,0.8
				C967.4,208.2,980.1,202.8,987.9,192.5z"/>
		</g>
		<g>
			<path class="st0" d="M1081.1,159.3h-9.8h-5.9h-26v13h27.1c0,2.1-0.2,4-0.5,5.8H1037v12.4h23.1c-4.7,4.5-12,6.6-22,6.6h-1.7v11.3
				c1.6,0.6,3.1,0.8,4.7,0.8C1067.8,209.2,1084.1,190.7,1081.1,159.3z"/>
		</g>
		<g>
			<path class="st0" d="M1261.4,185.2c0-14-8.9-26.4-25.6-26.4c-17,0-25.5,12.4-25.5,26.4c0,12.6,7.8,23.5,25.5,23.5
				C1253.2,208.8,1261.4,197.8,1261.4,185.2z M1225.4,184.4c0-7.7,2.8-12.5,10.3-12.5c7.5,0,10.4,4.8,10.4,12.5
				c0,8.3-3.3,11.1-10.4,11.1C1228.8,195.6,1225.4,192.3,1225.4,184.4z"/>
		</g>
		<g>
			<polygon class="st0" points="1192.4,154.8 1177.1,154.8 1177.1,243 1192.4,243 1192.4,197.1 1204.2,197.1 1204.2,183.8 
				1192.4,183.8 			"/>
		</g>
		<g>
			<path class="st0" d="M889.9,233h47v-26.2h-62.3v11.8h47.4v3.7h-47.3v11.8c0,8.7,5.5,14.9,19.3,14.9h44.4v-12.1h-44.4
				C890.7,236.9,889.9,235.3,889.9,233z"/>
		</g>
		<g>
			<path class="st0" d="M1244.7,235.6c-4.6,0-6.9-2.9-6.9-7.9V215h-15.9v12.7c0,14.2,7.2,20.6,22.9,20.6h41.1v-12.7H1244.7z"/>
		</g>
		<g>
			<path class="st0" d="M1151.9,179.8h-13.7v-20.6h-15.2v46c0,12.6,8.1,20.6,25.2,20.6c8.5,0,18.9-3.3,18.9-11.9v-54.6h-15.2V179.8z
				 M1151.9,210.4c0,2-2.3,3-5.3,3c-5.6,0-8.4-2.5-8.4-7.5v-13.7h13.7V210.4z"/>
		</g>
		<g>
			<rect x="946.4" y="224.4" class="st0" width="83" height="12.7"/>
		</g>
		<g>
			<polygon class="st0" points="1094.9,176.9 1081.6,176.9 1081.6,189.8 1094.9,189.8 1094.9,207.1 1110.1,207.1 1110.1,154.8 
				1094.9,154.8 			"/>
		</g>
		<g>
			<path class="st0" d="M1049.3,229.1c0,13,11.2,20.6,34.8,20.6c11.7,0,26-3.3,26-11.9v-26.3h-60.9V229.1z M1064.5,223.4h30.5v11
				c0,2.2-5.8,3.1-11.7,3.1c-12.4,0-18.8-2.6-18.8-7.8V223.4z"/>
		</g>
	</g>
</g>
<g>
	<rect x="97" y="384.8" class="st1" width="1709" height="194.8"/>
	<g>
		<g>
			<path class="st2" d="M119.3,541.3V522h54.2v-10.1h-15.7c-19,0-30.8-9.9-30.8-25.3c0-15.2,11.4-25,30.6-25h57.6
				c19.2,0,30.6,9.7,30.6,25c0,15.4-11.4,25.3-30.6,25.3h-15.8V522h54.1v19.3H119.3z M251.9,456.3H120.8v-18.7h131.1V456.3z
				 M236.7,431.8H136v-18.9h100.7V431.8z M213.1,492.9c4.4,0,7.2-2.4,7.2-6.1c0-3.5-2.7-5.9-7.2-5.9h-53.3c-4.6,0-7.2,2.6-7.2,5.9
				c0,3.5,2.6,6.1,7.2,6.1H213.1z"/>
			<path class="st2" d="M338,459.8v16.8h-69.6v-62.9h65.2v16.6h-40.5v6.1h36.1V453h-36.1v6.9H338z M404.1,482.4v40.1h-98.9v5.3
				h100.7v17.5H279.4v-40.5h98.6v-4.9h-98.6v-17.5H404.1z M333.3,433.3h15.2v-20.4h24.1v64.9h-24.1v-24.1h-15.2V433.3z M380,412.9
				h24.1v64.9H380V412.9z"/>
			<path class="st2" d="M546.8,426.8c0,41-32.6,56.1-80.7,53.6v-20.3c46.6,1.5,55.4-11.7,55.4-26.7h-53.2v-19.8h78.4V426.8z
				 M477.5,544.4v-56.1H598v56.1H477.5z M573.2,508.1h-71v16.3h71V508.1z M546.4,436.2h27.1v-23.3H598v69.2h-24.5v-24.4h-27.1V436.2
				z"/>
			<path class="st2" d="M660.2,425.9c0,19,5.6,32,24.7,38.1v21.5c-15.2-1.4-31.1-11.4-37.2-22.5c-7.2,14.5-24.5,24.2-38.2,26.4
				v-20.9c19.3-6.2,26.2-21.9,26.2-41.7v-13.3h24.5V425.9z M725.8,546.1v-29.9h-99.2V495h124.7v51H725.8z M727.3,460.6h-11.4v26
				h-24.1v-73.7h24.1v26.4h11.4v-26.4h24.1v73.7h-24.1V460.6z"/>
			<path class="st2" d="M854.4,505.7c0,24.8-17.8,39.1-43,39.1c-25,0-43-14.3-43-39.1v-56.5c0-24.8,18-39.1,43-39.1
				c25.1,0,43,14.3,43,39.1V505.7z M811.4,430.9c-10.8,0-18.6,7.3-18.6,18.4v56.2c0,11.1,7.8,18.4,18.6,18.4
				c10.7,0,18.6-7.3,18.6-18.4v-56.2C830,438.2,822.1,430.9,811.4,430.9z M899.6,543.3h-24.5V413.4h24.5V543.3z"/>
		</g>
		<g>
			<path class="st3" d="M1113,451.4v19.8h-53.5v8.5h55.4v20.4H978v-20.4h55.6v-8.5h-53.3v-50.9h62v20h-37v11.1h37.8v12.3h5.5v-43.4
				h63.7v20h-38.5v11.1H1113z M1085.4,553v-25H981.1v-20.4h130.8V553H1085.4z"/>
			<path class="st3" d="M1263.8,451.4v19.8h-53.5v8.5h55.4v20.4h-136.9v-20.4h55.6v-8.5h-53.3v-50.9h62v20h-37v11.1h37.8v12.3h5.5
				v-43.4h63.7v20h-38.5v11.1H1263.8z M1236.2,553v-25h-104.3v-20.4h130.8V553H1236.2z"/>
		</g>
		<g>
			<path class="st3" d="M1103,444.5v19.8h-53.5v8.5h55.4v20.4H968.1v-20.4h55.6v-8.5h-53.3v-50.9h62v20h-37v11.1h37.8v12.3h5.5
				v-43.4h63.7v20h-38.5v11.1H1103z M1075.5,546.1v-25H971.1v-20.4H1102v45.4H1075.5z"/>
			<path class="st3" d="M1253.8,444.5v19.8h-53.5v8.5h55.4v20.4h-136.9v-20.4h55.6v-8.5h-53.3v-50.9h62v20h-37v11.1h37.8v12.3h5.5
				v-43.4h63.7v20h-38.5v11.1H1253.8z M1226.3,546.1v-25h-104.3v-20.4h130.8v45.4H1226.3z"/>
		</g>
		<g>
			<path class="st0" d="M1103,444.5v19.8h-53.5v8.5h55.4v20.4H968.1v-20.4h55.6v-8.5h-53.3v-50.9h62v20h-37v11.1h37.8v12.3h5.5
				v-43.4h63.7v20h-38.5v11.1H1103z M1075.5,546.1v-25H971.1v-20.4H1102v45.4H1075.5z"/>
			<path class="st0" d="M1253.8,444.5v19.8h-53.5v8.5h55.4v20.4h-136.9v-20.4h55.6v-8.5h-53.3v-50.9h62v20h-37v11.1h37.8v12.3h5.5
				v-43.4h63.7v20h-38.5v11.1H1253.8z M1226.3,546.1v-25h-104.3v-20.4h130.8v45.4H1226.3z"/>
		</g>
		<g>
			<path class="st2" d="M1351.3,462.9h-75.1v-20.4h75.1V462.9z M1348.9,513.6c0,18-14.9,30-34.4,30s-34.4-12-34.4-30v-15.2
				c0-18,14.9-30,34.4-30s34.4,12,34.4,30V513.6z M1345.1,434.6h-61.8v-20.4h61.8V434.6z M1314.4,488.2c-7.2,0-11.1,4.4-11.1,11.6
				v12.5c0,7.2,4,11.6,11.1,11.6c7,0,11.1-4.3,11.1-11.3v-13.1C1325.6,492.4,1321.5,488.2,1314.4,488.2z M1358.9,413.4h23.9v54.2
				h10.1v-54.2h24.1v129.9h-24.1v-53.8h-10.1v53.8h-23.9V413.4z"/>
			<path class="st2" d="M1521.6,433.5h-32.9c0.3,17.5,11,31.2,35.8,34.9V488c-20.7-0.3-39.8-10.7-48.1-23.2
				c-8.4,13.4-29.1,24.4-48.6,25.6V471c25-4.1,35.8-19.5,35.9-37.5H1433v-19.8h88.7V433.5z M1443.3,543.8v-46.3h25.3v25.6h97v20.7
				H1443.3z M1563.6,506.4h-24.5v-93.5h24.5V506.4z"/>
			<path class="st2" d="M1584.1,414.1h82.9v20.7H1609v85.6h51.2c8.8,0,18.9-4.7,24.7-10.2v-96.9h24.5v50.6h16.1v21.9h-16.1v57.4
				h-24.5v-9.9c-5.6,4.1-15.1,7.5-23.6,7.5h-77.2V414.1z"/>
			<path class="st2" d="M1769,501.6h-23.5l-2.6-89.9h28.6L1769,501.6z M1771,543.3h-27.7V517h27.7V543.3z"/>
		</g>
		<circle class="st0" cx="1039.5" cy="352.7" r="15.2"/>
		<circle class="st0" cx="1182.3" cy="352.7" r="15.2"/>
	</g>
</g>
<g>
	<g>
		<path class="st1" d="M496.8,727.9c3.4-1.7,7.2-2.9,10.9-3.7c2,6.1,6.4,9.7,14.2,9.7c8.7,0,13.5-5.2,13.5-13.3
			c0-8.9-5.4-13.8-13.5-13.8h-5.5c-0.3-2.4-0.3-7.6,0-10h5.5c6.2,0,11.1-4.2,11.1-11.1c0-6.8-4-11.2-11.3-11.2
			c-5.7,0-10.1,3-11.4,7.9c-3.2-0.6-7.9-2.4-10.7-4c2.6-8,9.7-14.2,22.1-14.2c14.8,0,22.9,8.6,22.9,20.9c0,7.9-3.4,14.2-9.9,16.9
			c7.7,2.4,12.2,9.1,12.2,19.6c0,14.9-10.4,23.2-25,23.2C506.7,744.5,500,738.1,496.8,727.9z"/>
		<path class="st1" d="M581.2,706.4c-17.5,0-25.3-8-25.3-22.2c0-14.1,7.8-22.2,25.3-22.2c17.5,0,25.3,8.1,25.3,22.2
			C606.4,698.5,598.6,706.4,581.2,706.4z M633.6,746.9c-2.3,0.3-8.4,0.3-11.1,0c-0.2-5.3,0-16.9,0-23.2c-18.2,0-52.1,0.3-59.5,0
			c-0.4-2.9-0.4-7.2,0-10c7.8-0.4,61.3-0.5,70.5,0C634.1,722.9,633.9,741.7,633.6,746.9z M581.2,696.8c10.1,0,14.3-4.8,14.3-12.6
			s-4.2-12.6-14.3-12.6c-10.2,0-14.3,4.8-14.3,12.6S571,696.8,581.2,696.8z M609.7,688.7c-0.3-2.9-0.3-7.5,0-10.3
			c2.6-0.1,7.9-0.1,12.6-0.1c0-7.4,0.1-14,0.2-17.2c2.2-0.4,8.5-0.4,11.1,0c0.2,10.1,0.3,38.3,0,48c-2.4,0.4-8.4,0.3-11.1,0
			c-0.1-3.8-0.2-11.8-0.2-20.3C617.7,688.8,612.4,688.8,609.7,688.7z"/>
		<path class="st1" d="M666.4,702.8c-0.4-10-0.4-30.4,0-39.7c6.4-0.4,39.3-0.4,47.1,0c0.5,10,0.5,30.9,0,39.7
			C706.6,703.2,674.3,703.3,666.4,702.8z M743.8,729.8c0,13.2-8.6,18.4-36.6,18.4c-28.9,0-36.6-6.1-36.6-18.4
			c0-13.2,8.6-18.4,36.6-18.4C736.2,711.3,743.8,717.4,743.8,729.8z M677.2,693.4c6.2,0.2,19.4,0.3,25.6,0c0.2-4,0.2-16.7,0-20.9
			c-6.1-0.2-18.2-0.1-25.6,0C677,676.6,677,689.2,677.2,693.4z M732.5,729.8c0-5.7-3.4-9-25.3-9c-22,0-25.3,3.2-25.3,9
			c0,5.6,3.4,8.9,25.3,8.9C729.2,738.7,732.5,735.5,732.5,729.8z M730.9,689.2V679c-4.7,0-10.2-0.1-12.9-0.2c-0.3-2.9-0.3-7.2,0-10
			c2.7-0.1,8.1-0.1,13-0.1c0-3.3,0-5.9,0.1-7.6c2.2-0.4,8.5-0.4,11.1,0c0.2,10.1,0.3,38.3,0,47.9c-2.4,0.4-8.4,0.3-11.1,0
			c-0.1-2.1-0.1-5.5-0.2-9.4c-4.7,0-10.1-0.1-12.9-0.2c-0.3-2.9-0.3-7.2,0-10.1C720.7,689.2,726.1,689.2,730.9,689.2z"/>
		<path class="st1" d="M773,702.2c0-31,8.1-40.3,26.6-40.3s26.5,9.2,26.5,40.3c0,31-8,40.3-26.5,40.3S773,733.2,773,702.2z
			 M814.6,702.2c0-23.8-3.8-29.8-15-29.8c-11.1,0-15.1,6-15.1,29.8c0,23.8,4,29.8,15.1,29.8C810.7,732,814.6,726,814.6,702.2z
			 M839.5,661.1c2.3-0.5,8.6-0.4,11.3,0c0.3,12.9,0.3,74.5,0,85.9c-2.4,0.3-8.6,0.3-11.3,0C839.3,735.6,839.3,672.6,839.5,661.1z"/>
		<path class="st1" d="M866.3,706.5c-2-1.5-5.7-5.6-7-8c7-6.6,15.6-14.4,23.1-21.2c0-4.9,0-11.3,0.1-15.3c2.2-0.5,8.8-0.5,11.6,0
			c0.1,3.9,0.1,10.4,0.1,15.3c7.8,6,16.6,12.7,23.8,18.4c-1.1,2.5-4.3,6.9-6.2,8.6c-6.9-5-15.9-11.8-23.4-18
			C881.2,693.2,872.8,700.9,866.3,706.5z M937.2,729.5c0,13.5-8.6,18.9-36.5,18.9c-28.7,0-36.4-6.2-36.4-18.9
			c0-13.5,8.6-18.8,36.4-18.8C929.5,710.7,937.2,717,937.2,729.5z M925.7,729.5c0-5.8-3.3-9.1-25.1-9.1s-25.1,3.2-25.1,9.1
			c0,5.9,3.3,9.2,25.1,9.2C922.6,738.7,925.7,735.5,925.7,729.5z M944.8,687.9c-1.6,0.1-5.2,0.2-9,0.2c0,8.1-0.1,15.8-0.2,20
			c-2.4,0.4-8.4,0.3-11.1,0c-0.3-8.7-0.3-39,0-47c2.2-0.4,8.5-0.4,11.1,0c0.1,3.7,0.1,9.8,0.2,16.5c3.6,0,7,0,9,0.1
			C945,680.6,945,684.9,944.8,687.9z"/>
		<path class="st1" d="M948.9,729.9c9.3-0.3,52-0.3,61,0c0.3,3.3,0.3,6.9,0,9.8c-7,0.4-47.2,0.4-61,0
			C948.5,736.7,948.5,732.8,948.9,729.9z M952.5,687.8c0-16.8,7.9-26.3,26.8-26.3c18.9,0,26.8,9.5,26.8,26.3
			c0,17-7.9,26.3-26.8,26.3C960.4,714.1,952.5,704.8,952.5,687.8z M994.6,687.8c0-10.6-4.1-16.3-15.3-16.3
			c-11.2,0-15.3,5.8-15.3,16.3c0,10.7,4,16.5,15.3,16.5C990.5,704.3,994.6,698.5,994.6,687.8z M1015.6,661.1c2.3-0.5,8.6-0.5,11.3,0
			c0.3,12.7,0.3,74.3,0,85.9c-2.4,0.3-8.6,0.3-11.3,0C1015.2,735.5,1015.3,672.5,1015.6,661.1z"/>
		<path class="st1" d="M1109.7,702.2c0,31-7.7,40.3-25.7,40.3c-18,0-25.8-9.2-25.8-40.3c0-31,7.8-40.3,25.8-40.3
			C1102.1,661.9,1109.7,671.2,1109.7,702.2z M1098.2,702.2c0-23.8-3.7-29.8-14.1-29.8c-10.4,0-14.2,6-14.2,29.8
			c0,23.8,3.8,29.8,14.2,29.8C1094.6,732,1098.2,726,1098.2,702.2z M1136.3,747c-2.4,0.3-8.6,0.3-11.3,0c-0.1-3.7-0.2-13-0.2-24.1
			c-4.2,0.1-9,0-12-0.1c-0.3-3-0.3-7.7,0-10.5c2.9-0.1,7.8-0.1,12-0.1v-23.9c-4.2,0.1-9,0-12-0.1c-0.3-3-0.3-7.7,0-10.5
			c2.9-0.1,7.8-0.1,12-0.1c0.1-7.6,0.1-13.6,0.2-16.5c2.3-0.5,8.6-0.4,11.3,0C1136.5,674,1136.5,735.5,1136.3,747z"/>
		<path class="st1" d="M1145.5,675.3c-0.4-2.9-0.4-6.4,0-9.1c3-0.1,9-0.2,16-0.2c0-2.5,0-5,0.2-6.6c2.2-0.5,8.7-0.6,11.5,0
			c0.2,1.6,0.2,4.1,0.2,6.6c5.9,0,11.5,0.1,16,0.2c0.3,2.8,0.3,6.5,0,9.1C1181.1,675.5,1152,675.7,1145.5,675.3z M1167.5,710.5
			c-14.7,0-20.8-5.3-20.8-15.9c0-10.9,6.5-15.9,20.8-15.9c14.7,0,20.8,5.3,20.8,15.9C1188.2,705.5,1181.6,710.5,1167.5,710.5z
			 M1226.2,732c0,11.7-8.6,16.4-36.6,16.4c-28.9,0-36.6-5.6-36.6-16.4c0-11.5,8.6-16.3,36.6-16.3
			C1218.5,715.7,1226.2,721.2,1226.2,732z M1167.5,701.5c7.8,0,10.3-2.5,10.3-6.9c0-4.3-2.7-6.8-10.3-6.8c-7.8,0-10.4,2.5-10.4,6.8
			C1157.1,699,1159.8,701.5,1167.5,701.5z M1214.9,732c0-4.2-3.3-6.8-25.3-6.8s-25.3,2.5-25.3,6.8c0,4.3,3.3,7,25.3,7
			S1214.9,736.4,1214.9,732z M1194.8,711.5c-0.3-8.1-0.3-43.4,0-50c2.3-0.5,8.4-0.4,10.7,0c0.1,3.3,0.2,11,0.2,19.4h9.1
			c0.1-9,0.1-17.2,0.2-19.9c2.2-0.5,8.4-0.5,10.7,0c0.3,7.9,0.2,43.9,0,52.1c-2.1,0.4-7.9,0.2-10.7,0c-0.1-3.6-0.2-12.6-0.2-22.2
			c-3.1,0.1-6.2,0.1-9.1,0c0,8.9-0.1,17.2-0.2,20.6C1203.3,711.8,1197.6,711.8,1194.8,711.5z"/>
		<path class="st1" d="M1234.8,673.2c-0.3-3-0.3-7.2,0-10c7.5-0.3,28.4-0.4,36.8,0.1c0.7,11,0.8,31,0.3,41.5
			c-2.7,0.4-8.5,0.4-11.1,0c0-7.8,0.1-24.7,0-31.7C1255.2,673.3,1242,673.3,1234.8,673.2z M1314.1,746.9c-2.4,0.3-8.5,0.3-11.1,0
			c-0.2-5.3,0-16.7,0-23c-18.3,0-53,0.3-60.4,0c-0.4-2.9-0.4-7.2,0-10c7.8-0.4,62.3-0.5,71.6,0
			C1314.5,723.1,1314.4,741.7,1314.1,746.9z M1282,708.2c-0.3-7.9-0.3-40.3,0-46.6c2.3-0.5,8.4-0.4,10.7,0c0.1,2.9,0.2,9,0.2,16
			h10.3c0.1-7.5,0.1-13.9,0.2-16.4c2.2-0.5,8.4-0.5,10.7,0c0.3,7.7,0.2,39.8,0,47.8c-2.1,0.4-7.9,0.2-10.7,0
			c-0.1-3.6-0.2-12.3-0.2-21.3c-3.6,0.1-7.1,0.1-10.3,0c0,8.7-0.1,17.1-0.2,20.7C1290.6,708.5,1284.8,708.5,1282,708.2z"/>
		<path class="st1" d="M1323.5,702.2c0-31,8.1-40.3,26.6-40.3c18.5,0,26.5,9.2,26.5,40.3c0,31-8,40.3-26.5,40.3
			C1331.6,742.5,1323.5,733.2,1323.5,702.2z M1365.1,702.2c0-23.8-3.8-29.8-15-29.8c-11.1,0-15.1,6-15.1,29.8
			c0,23.8,4,29.8,15.1,29.8C1361.3,732,1365.1,726,1365.1,702.2z M1390.1,661.1c2.3-0.5,8.6-0.4,11.3,0c0.3,12.9,0.3,74.5,0,85.9
			c-2.4,0.3-8.6,0.3-11.3,0C1389.8,735.6,1389.8,672.6,1390.1,661.1z"/>
		<path class="st0" d="M144.2,840.6c-6.5,5.3-13.5,10.5-19.9,14.9c-2.4-1.8-6.6-7.2-8.1-10.1c6.8-5,13.5-10.3,20.2-15.4v-15.1
			c-8.2,0-15.3,0-18.2-0.2c-0.4-3.8-0.4-8.9,0-12.4c7.8-0.2,33.8-0.4,51,0c0.3,3.7,0.3,9,0,12.4c-3.6,0.1-10.3,0.1-17.8,0.2v15
			c7.3,4.8,14.2,9.2,22,14.5c-1.2,2.9-5.1,8.4-7.4,10.6C158.8,850.6,151.3,845.7,144.2,840.6z M197.4,887.5
			c-7.7,0.5-61.9,0.5-70.6,0c-0.5-7.1-0.3-22.6,0-28.2c3-0.3,10.9-0.3,14.3,0c0.2,4.8,0.2,10.6,0,15.8c21.2-0.1,49.1-0.2,56.3,0
			C197.8,878.4,197.8,883.9,197.4,887.5z M181.2,819.9c0-9,0.1-16.6,0.2-19.2c2.6-0.4,11-0.5,14.3,0c0.2,10.4,0.3,52.5,0,62
			c-3,0.4-11,0.3-14.3,0c-0.1-3.9-0.2-16.4-0.2-29.2c-5.2,0-10.8-0.1-13.3-0.2c-0.3-3.7-0.3-9.6,0-13.3
			C170.4,819.9,176,819.9,181.2,819.9z"/>
		<path class="st0" d="M255.2,837.4c5.7,12.9,13.3,29.3,16.7,38c-2.7,2.4-8.9,5.5-11.7,6.1c-2.5-4.8-7.9-16.6-12.8-28.5
			c-4.5,12.1-9.4,24.2-11.9,29.3c-2.9-0.5-9.5-2.9-12.1-5.2c3.6-8.9,11.1-27.5,16.3-40.7c-0.1-12.3,0-28.5,0.2-33.2
			c2.6-0.5,11.7-0.6,15.1,0C255.2,808.6,255.3,825.5,255.2,837.4z M287.3,801.2c0.3,12.1,0.1,73.7,0,85.1c-2.6,0.3-10.4,0.3-13.7,0
			c-0.2-6-0.3-25.3-0.3-44.1c-4.5,0-9.1,0-11.9-0.2c-0.3-2.8-0.3-11.1,0-13.3c2.7-0.1,7.3-0.1,12-0.1c0-12.9,0.1-23.7,0.2-27.5
			C276.2,800.6,284.4,800.7,287.3,801.2z M306.4,887.2c-2.6,0.4-10.4,0.2-13.7,0c-0.2-11.6-0.1-76.4,0-86.5c2.6-0.6,10.9-0.6,13.7,0
			C306.5,812.7,306.5,875.5,306.4,887.2z"/>
		<path class="st0" d="M348.7,803.4c0.7,11.1,0.9,66.2,0.3,77.3c-2.5,0.5-11.1,0.4-14.6,0c0-7.1,0.1-57.2,0-64.2
			c-5,0.2-14.3,0.2-19.7,0c-0.4-3.7-0.4-9.6,0-13.2C322.4,803,340.3,802.9,348.7,803.4z M375.2,801.2c0.3,12.1,0.1,73.7,0,85.1
			c-2.6,0.3-10.4,0.3-13.7,0c-0.1-3.6-0.2-11.8-0.2-21.9c-3.4,0.1-6.9,0-8.6-0.1c-0.4-3.7-0.4-9.9,0-13.5c1.8-0.1,5.3-0.2,8.6-0.1
			c0-7,0-14.2,0.1-20.9c-3.4,0.1-6.9,0-8.6-0.1c-0.4-3.7-0.4-9.9,0-13.5c1.8-0.1,5.4-0.2,8.6-0.1c0.1-7.1,0.1-12.6,0.2-15
			C364.1,800.6,372.4,800.7,375.2,801.2z M394.8,887.2c-2.6,0.4-10.4,0.2-13.7,0c-0.2-11.6-0.1-76.4,0-86.5c2.6-0.6,10.9-0.6,13.7,0
			C394.9,812.7,394.9,875.5,394.8,887.2z"/>
		<path class="st0" d="M505.2,884.9c-8.3,0.6-71.3,0.4-82.6,0c-0.4-3.5-0.4-8.7,0-12.5c7.8-0.2,20.6-0.2,33.8-0.2v-8.7
			c-20.5-1.2-26.8-7.2-26.8-18.9c0-13,7.9-19.1,34.3-19.1s34.3,6.1,34.3,19.1c0,11.7-6.3,17.8-26.8,18.9v8.7
			c15.7,0,29.6,0.1,33.8,0.2C505.5,875.9,505.5,880.8,505.2,884.9z M426.4,822.1c-0.4-3.8-0.4-9.2,0-12.7c3.6-0.1,15.8-0.2,29.7-0.2
			c0-2.8,0-5.5,0.2-8c4.4-0.4,11.8-0.4,15.2,0c0.2,2.5,0.2,5.2,0.2,8c11.9,0,23.3,0,29.8,0.2c0.3,3.7,0.3,9.3,0,12.7
			C491.6,822.3,433.5,822.5,426.4,822.1z M463.8,850.8c16,0,19.9-1.6,19.9-6.2c0-4.5-3.9-6.2-19.9-6.2c-16,0-19.9,1.7-19.9,6.2
			C443.9,849.1,447.8,850.8,463.8,850.8z"/>
		<path class="st0" d="M512.6,841.8c-0.6-8.4-0.5-31.6,0-39.8c8.6-0.4,29.6-0.3,38.1,0c0.4,3.4,0.4,7.1,0,10.8
			c-5.8,0.2-16.9,0.1-23.7,0c0,1.2-0.1,2.5-0.1,3.8c6.7-0.1,12.9-0.1,20,0c0.4,3.7,0.3,6.8,0,10.5c-7,0.2-12.9,0.2-20,0.1
			c0,1.3,0.1,2.7,0.1,3.8c6.9-0.2,20.5-0.2,26.6,0c0.4,3.7,0.4,7.1,0,10.8C545.6,842.2,522,842.3,512.6,841.8z M593.4,876.3
			c0.4,3.2,0.2,8.1,0,11.1c-6.2,0.6-61.7,0.6-74,0c-0.4-5.3-0.6-16,0-24.9h57.8v-3.4h-57.7c-0.4-3.2-0.4-8.9,0-11.1
			c28-0.3,60.3-0.3,72.2,0c0.5,3.7,0.5,20.7,0,24.9h-57.8v3.4H593.4z M558.8,816.3c0-6.7,0.1-12.6,0.2-15.1c2.6-0.5,10.7-0.4,13.5,0
			c0.3,8.3,0.1,34.5,0,43c-2.6,0.3-10.2,0.3-13.5,0c-0.1-3.2-0.2-8.9-0.3-15.2c-3.3,0-6.3-0.1-8.6-0.2c-0.3-3.7-0.3-8.8,0-12.5
			C552.2,816.3,555.3,816.3,558.8,816.3z M578.1,844.9c-0.2-8.7-0.1-38.1,0-44.2c2.6-0.5,10.8-0.5,13.6,0c0.2,8.2,0.2,35.5,0,44.2
			C589.1,845.3,581.5,845.1,578.1,844.9z"/>
		<path class="st0" d="M618,836.5c6.7-6.3,14.8-13.5,22.1-20.3c0-4.9,0-11.2,0.1-14.6c2.6-0.5,11.5-0.6,14.9,0
			c0.1,3.4,0.1,9.7,0.1,14.6c7.6,5.7,15.9,11.8,22.9,17.2c-1.3,3-5.7,8.8-7.9,11c-6.4-4.5-14.9-10.8-22.4-16.7
			c-6.9,6.7-14.8,13.8-20.9,19C624.5,844.8,619.6,839.4,618,836.5z M697.5,869.6c0,14.2-8.8,19.4-37.3,19.4
			c-29.9,0-37.3-6.5-37.3-19.4c0-14.1,8.8-19.3,37.3-19.3C690.1,850.3,697.5,856.8,697.5,869.6z M682.9,869.6c0-4.5-2.5-7-22.7-7
			c-20.3,0-22.7,2.2-22.7,7c0,4.6,2.5,7.1,22.7,7.1C680.5,876.7,682.9,874.5,682.9,869.6z M704.3,829.3c-1.5,0.2-4.4,0.3-8.3,0.3
			c0,7.5-0.1,14.4-0.2,18.4c-3,0.4-11,0.3-14.3,0c-0.3-8.3-0.3-40,0-47.3c2.6-0.4,11-0.5,14.3,0c0.1,3.6,0.1,9.2,0.2,15.5
			c3.4,0,6.2,0.1,8.3,0.2C704.6,820,704.6,825.7,704.3,829.3z"/>
		<path class="st0" d="M790.5,850.1c-3.7,0.3-18,0.4-33.8,0.4c0.1,2.3,0,4.5,0,6.6c13.8,0,26.2,0,28.5,0.1c0.4,8.6,0.4,23.1,0,30.3
			c-7.4,0.6-64.6,0.7-72.1,0c-0.5-7.6-0.3-22.4,0-30.3c2.5-0.1,14.8-0.1,28.6-0.1c-0.1-2-0.1-4.3-0.1-6.6c-15.1-0.1-29-0.2-33.8-0.4
			c-0.4-3.3-0.4-8.5,0-12c20-0.4,73.6-0.2,82.6,0C790.9,841.4,790.9,846.3,790.5,850.1z M712.2,833.3c-0.3-3.9-0.3-7.9,0-11.6
			c2.4-0.1,6.8-0.1,12.2-0.2v-8.2c-4.9-0.1-8.8-0.1-11.2-0.2c-0.3-3.7-0.3-8.1,0-11.6c15.9-0.3,63.2-0.4,72.2,0
			c0.2,3.6,0.2,7.4,0,11.6c-2.5,0.1-6.5,0.1-11.3,0.2v8.2c5.4,0.1,9.7,0.1,12.3,0.2c0.3,3.7,0.3,7.2,0,11.6
			C773.9,833.7,723.6,833.7,712.2,833.3z M771.4,868.8c-5.4-0.1-38.1-0.2-44.4,0v7.1c4.4,0.3,40.4,0.2,44.4,0V868.8z M738.6,821.5
			c6.9-0.1,14.4-0.1,21.3-0.1v-8c-6.9,0-14.4,0-21.3,0V821.5z"/>
		<path class="st0" d="M796.3,833.5c20-0.4,73.6-0.2,82.6,0c0.4,3.4,0.4,7.3,0,11.1c-8.3,0.6-71.3,0.4-82.6,0
			C795.9,841.2,795.9,837,796.3,833.5z M800.4,814.6c0-10.8,6.6-15,37.2-15c30.6,0,37.2,4.2,37.2,15c0,10.9-6.6,15.1-37.2,15.1
			C807.1,829.7,800.4,825.5,800.4,814.6z M801.6,863.1h57.3v-3.6h-57.1c-0.4-3.2-0.4-8.6,0-10.8c28-0.3,59.8-0.3,71.6,0
			c0.5,3.7,0.5,20.4,0,24.5h-57.3v3.6h59.5c0.4,3.2,0.2,7.6,0,10.7c-6.2,0.5-61.7,0.6-74,0C801.2,882.2,801,871.9,801.6,863.1z
			 M859.9,814.6c0-2.5-1.8-3.5-22.3-3.5s-22.3,1-22.3,3.5c0,2.6,1.8,3.6,22.3,3.6S859.9,817.2,859.9,814.6z"/>
		<path class="st0" d="M904.4,819c-0.4-3.7-0.4-8.6,0-12.1c1.9-0.1,10.8-0.2,21.1-0.2c0-2.5,0-5.3,0.2-7.4c2.6-0.6,11.2-0.6,15.1,0
			c0.1,2.1,0.2,4.8,0.1,7.4c8.3,0,15.8,0.1,19.6,0.2c0.2,3.4,0.3,8.8,0,12.1C952.2,819.1,910.1,819.1,904.4,819z M933.2,858.2
			c-19.6,0-26.8-4.3-26.8-18.2c0-13.8,7.2-18.2,26.8-18.2c19.6,0,26.8,4.3,26.8,18.2C960,853.8,952.8,858.2,933.2,858.2z M982.9,875
			c0.4,3.5,0.4,8.9,0,12.5c-7.7,0.5-62.8,0.5-71.6,0c-0.5-7.1-0.3-19.3,0-25c3-0.3,10.9-0.3,14.3,0c0.2,4.8,0.2,7.3,0,12.5
			C946.9,874.9,975.7,874.8,982.9,875z M933.2,846.8c10.6,0,13.4-1.7,13.4-6.8c0-5.1-2.8-6.8-13.4-6.8c-10.6,0-13.4,1.7-13.4,6.8
			C919.9,845.1,922.7,846.8,933.2,846.8z M989.7,840.5c-1.5,0.2-4.4,0.3-8.3,0.3c0,11.9-0.1,22.7-0.2,26.7c-3,0.4-11,0.3-14.3,0
			c-0.3-8.3-0.3-59.5,0-66.8c2.6-0.4,11-0.5,14.3,0c0.1,4.3,0.1,15,0.2,26.6c3.4,0,6.2,0.1,8.3,0.2C990,831.2,990,836.8,989.7,840.5
			z"/>
		<path class="st0" d="M1075.9,851.2c-3.6,0.3-17.1,0.4-32.4,0.4c0,5.3,0,11.1-0.1,14.9c-3.6,0.3-10.9,0.3-14.7,0
			c-0.1-3.3-0.2-9.3-0.2-14.9c-15.7-0.1-30.4-0.2-35.3-0.4c-0.4-3.3-0.4-8.8,0-12.4c20-0.4,73.6-0.2,82.6,0
			C1076.3,842.2,1076.3,847.5,1075.9,851.2z M1072.6,875c0.4,3.5,0.4,8.9,0,12.5c-7.7,0.5-65.2,0.5-74,0c-0.5-7.1-0.3-23.3,0-28.9
			c3-0.3,11.2-0.3,14.7,0c0.2,4.8,0.2,12.2,0,16.4C1034.5,874.9,1065.4,874.8,1072.6,875z M999.5,831.8c-0.5-8.2-0.4-23.8,0-30.4
			c3-0.3,11.2-0.3,14.7,0c0.3,5.8,0.2,11.6,0,17.9c9.8-0.4,48.2-0.3,55.4,0c0.4,3.7,0.4,8.8,0,12.5
			C1062,832.2,1008.3,832.2,999.5,831.8z"/>
		<path class="st0" d="M1143.9,801.2c0.3,12.1,0.1,73.7,0,85.1c-2.6,0.3-10.4,0.3-13.7,0c-0.2-5.5-0.3-22.4-0.3-39.9
			c-2,0.1-4,0.1-6,0.1c-0.6,28.2-6.8,36.5-21.3,36.5c-15.3,0-21.4-9.2-21.4-40.9c0-31.7,6.1-40.9,21.4-40.9c13.7,0,20,7.4,21.1,31.8
			h6.2c0-14.7,0.1-27.7,0.2-31.8C1132.8,800.6,1141.1,800.7,1143.9,801.2z M1109.6,842.1c0-23.6-1.3-27.5-7-27.5
			c-5.7,0-7.1,3.8-7.1,27.5c0,23.6,1.4,27.5,7.1,27.5C1108.3,869.6,1109.6,865.7,1109.6,842.1z M1162.5,887.2
			c-2.6,0.4-10.4,0.2-13.7,0c-0.2-11.6-0.1-76.4,0-86.5c2.6-0.6,10.9-0.6,13.7,0C1162.7,812.7,1162.7,875.5,1162.5,887.2z"/>
		<path class="st0" d="M1243.2,803.4c0.2,22.1,0.1,73.5,0,77.3c-6.8,0.5-41.8,0.7-49.6,0c-0.3-7.4-0.4-56.6,0-77.3
			c3.7-0.4,11.1-0.3,14.4,0c0.1,2.5,0.1,12.8,0.1,24.5c6.1-0.1,14.8-0.1,20.6,0v-24.5C1232.4,803.1,1239.5,803.1,1243.2,803.4z
			 M1228.7,841c-5.9,0.1-14.6,0.1-20.6,0c-0.1,11.1-0.1,21.7-0.1,26.9c4.6,0.2,16.5,0.2,20.7,0V841z M1270,887.2
			c-3,0.4-11.1,0.3-14.4,0c-0.4-11.1-0.3-75.3,0-86.5c2.6-0.6,11.1-0.5,14.4,0C1270.4,813.9,1270.4,875.7,1270,887.2z"/>
		<path class="st0" d="M1361.3,884.9c-8.3,0.6-71.3,0.4-82.6,0c-0.4-3.5-0.4-8.7,0-12.5c3.9-0.1,9.2-0.1,15.2-0.2
			c-0.2-11.8-0.1-33.8,0.1-37.4c2.9-0.4,10.9-0.4,14.4,0c0.2,4.1,0.1,25.8,0.1,37.4h8.6c-0.2-11.9-0.1-33.8,0.1-37.4
			c2.9-0.4,10.9-0.4,14.4,0c0.2,4.1,0.1,25.8,0.1,37.4c13.9,0,25.8,0.1,29.7,0.2C1361.7,875.9,1361.7,880.8,1361.3,884.9z M1284,817
			c-0.4-3.7-0.4-9.2,0-12.9c7.7-0.3,61.5-0.5,70.2,0c0.5,8.1,0.5,51,0,56.7c-3,0.4-11.2,0.4-14.7,0c-0.2-5.4-0.2-39.1,0-43.8
			C1318.3,817,1291.2,817.3,1284,817z"/>
		<path class="st1" d="M1423.5,809.3c0.2,2.7,0.3,7.4,0,10c-7.9,0.1-50.3,0.3-56.4,0c-0.4-2.8-0.4-7.2,0-10
			c2.3-0.1,12.1-0.2,23.1-0.2c-0.1-3.4,0-7.8,0.3-10.4c2.3-0.6,8.7-0.5,11.5,0c0.2,2.6,0.3,6.8,0.2,10.4
			C1411.4,809.2,1419.8,809.2,1423.5,809.3z M1422.4,854.6c0,21-6.8,29.3-26.1,29.3c-19.3,0-26.1-8.3-26.1-29.3
			c0-21,6.8-29.3,26.1-29.3C1415.6,825.3,1422.4,833.6,1422.4,854.6z M1411.6,854.6c0-15.1-3.8-19.9-15.3-19.9
			c-11.4,0-15.3,4.8-15.3,19.9s3.8,19.9,15.3,19.9C1407.7,874.5,1411.6,869.7,1411.6,854.6z M1452.2,846.6c-2.2,0.2-5.4,0.3-9.4,0.2
			c0,17.7-0.1,34.6-0.3,40.1c-2.4,0.3-8.5,0.3-11.2,0c-0.4-11.3-0.3-74.4,0-85.9c2.2-0.5,8.6-0.4,11.2,0c0.2,5.5,0.3,19.6,0.3,35
			c3.7,0,6.9,0,9.4,0.1C1452.5,838.8,1452.5,843.7,1452.2,846.6z"/>
		<path class="st1" d="M1455.8,840.6c20.4-0.4,69.7-0.3,82.1,0c0.3,2.6,0.3,6.7,0,9.7c-11.8,0.4-67.5,0.4-82.1,0
			C1455.5,847.7,1455.5,843.4,1455.8,840.6z M1461.4,857.6c2.3-0.3,8.7-0.3,11.4,0c0.2,5.4,0.2,15.2,0,19.6
			c18.1-0.1,53.3-0.2,61.2,0c0.4,2.7,0.4,7,0,9.8c-8.3,0.5-64,0.5-72.6,0C1460.9,879.8,1461.1,863.5,1461.4,857.6z M1462.4,801.8
			c2.4-0.3,8.7-0.3,11.4,0c0.2,6,0.2,14,0,19.7c8.4-0.3,50.2-0.3,57.7,0c0.3,2.9,0.3,6.9,0,9.7c-7.9,0.4-60,0.4-69.2,0
			C1461.9,823.1,1462,808.3,1462.4,801.8z"/>
		<path class="st1" d="M1564.3,874.4c17.7-0.3,72.4-0.2,82.1,0c0.3,2.9,0.3,6.6,0,9.8c-9,0.6-70.1,0.4-82.1,0
			C1564,881.4,1564,877.4,1564.3,874.4z M1627.6,814.8c-16.6,0-49.6,0.3-57.6,0c-0.4-2.8-0.4-7.2,0-10c8.3-0.3,59.1-0.5,68.9,0
			c0.5,8.6,0.5,50.1,0,56.3c-2.3,0.4-8.6,0.4-11.3,0C1627.4,855.1,1627.4,819.8,1627.6,814.8z"/>
		<path class="st1" d="M1694.1,844.5c-14.9,0-21.4-7.7-21.4-21.3c0-13.5,6.5-21.3,21.4-21.3c14.8,0,21.4,7.8,21.4,21.3
			C1715.6,836.8,1708.9,844.5,1694.1,844.5z M1752.8,886.8c-10,0.6-60.3,0.7-71,0c-0.5-10-0.5-29.8,0-36.4c2.2-0.3,9-0.2,11,0v8.2
			c13.4-0.2,35.5-0.2,49,0v-8.2c3.9-0.2,8.3-0.2,11.1,0C1753,860.4,1753.1,876.1,1752.8,886.8z M1694.1,835
			c7.5,0,10.7-3.9,10.7-11.8c0-7.9-3.2-11.8-10.7-11.8c-7.7,0-10.8,3.9-10.8,11.8C1683.4,831.1,1686.5,835,1694.1,835z
			 M1692.7,877.4c10,0.2,40.5,0.2,49,0v-9.5c-14,0.1-35.7,0.2-49,0V877.4z M1721.9,845.2c-0.4-7.8-0.3-37.5,0-43.7
			c2.2-0.5,8.3-0.4,10.7,0c0.1,2.8,0.2,8.3,0.2,14.5h9.1c0.1-6.7,0.1-12.6,0.2-15c2.2-0.5,8.4-0.5,10.7,0c0.3,7.6,0.2,37.1,0,44.9
			c-2.1,0.4-7.9,0.2-10.7,0c-0.1-3.5-0.2-11.5-0.2-19.9c-3.2,0.1-6.3,0.1-9.2,0c0,8.2-0.1,15.8-0.1,19.2
			C1730.4,845.5,1724.7,845.5,1721.9,845.2z"/>
		<path class="st1" d="M1767.1,804.2c4.9-0.5,7.9-0.5,12.7,0c0,8.9-0.5,49.4-0.9,57.5c-3.3,0.3-7.3,0.3-11.1,0
			C1767.5,853.4,1767.2,813.1,1767.1,804.2z M1767.4,871.5c4.2-0.4,8.3-0.4,12.3,0c0.2,4,0.2,7.8,0,11.7c-4.1,0.5-8.2,0.4-12.3,0.1
			C1767.2,879.3,1767.1,875.5,1767.4,871.5z"/>
	</g>
</g>
</svg>
