<svg xmlns:xlink="http://www.w3.org/1999/xlink" width="1267.4" height="255.1" xmlns="http://www.w3.org/2000/svg" xml:space="preserve" id="Expedia_Horizontal_Logo_Product_Mono_White" x="0" y="0" style="width:inherit;height:inherit;line-height:inherit;color:inherit" version="1.1" viewBox="0 0 1267.4 255.1" role="presentation"><style>.expedia0{fill:#fff}</style><path d="m517.2 136.4 44.6-61.6c1.3-1.9.3-3.8-1.9-3.8h-24.3c-1.3 0-3 .5-3.8 1.9l-29.4 42.9-30.1-42.9c-.8-1.3-2.4-1.9-3.8-1.9h-25.9c-1.3 0-2.2 1.1-2.2 2.2 0 .5 0 1.1.5 1.6l44.7 61.8-49.3 67.8c-1.3 1.9-.3 3.8 1.6 3.8h24.5c1.3 0 3-.5 3.8-1.9l34.1-49.1 34.6 49.1c.8 1.4 2.4 1.9 3.8 1.9h26.1c1.3 0 2.2-1.1 2.2-2.2 0-.5-.3-1.1-.5-1.6l-49.3-68zM417.6 19.6c1.9 0 3.2 1.3 3.2 3.2v18.3c0 1.9-1.3 3.2-3.2 3.2h-87.1v54.4h78.2c1.9 0 3.2 1.3 3.2 3.2v18.2c0 1.9-1.3 3.2-3.2 3.2h-78.2v59.6h87.1c1.9 0 3.2 1.3 3.2 3.2V205c0 1.9-1.3 3.2-3.2 3.2H315.7c-7.8 0-13.7-5.9-13.7-13.7V33.3c0-7.8 5.9-13.7 13.7-13.7h101.9M658.8 66.8c-26.4 0-40.4 11.6-48.5 22.4v-15c0-1.9-1.3-3.2-3.2-3.2h-21.3c-1.9 0-3.2 1.4-3.2 3.2v177.6c0 1.9 1.3 3.2 3.2 3.2h21.6c1.9 0 3.2-1.3 3.2-3.2v-61.2c7.8 10.8 21.8 21.6 48.2 21.6 42.9 0 67.9-32.3 67.9-72.8s-25-72.6-67.9-72.6zM654 189.1c-26.4 0-44.5-17.8-44.5-49.3s18.1-49.9 44.5-49.9 44.2 18.3 44.2 49.9c0 31.4-17.8 49.3-44.2 49.3zM811.7 66.8c-37.5 0-67.4 27-67.4 71.7 0 45.8 26.4 73.9 70.9 73.9 25.6 0 46.9-11.3 60.1-27 .8-.8 1.1-1.6 1.1-2.4s-.3-1.6-1.1-2.4l-12.4-12.2c-.8-.8-1.6-1.1-2.4-1.1-.8 0-1.6.5-2.4 1.3-10.2 11.1-23.5 20.5-42.6 20.5-27.9 0-41.3-17.2-43.4-42h103.5c1.9 0 3.2-1.4 3.2-3.2v-5.4c0-41-24.8-71.7-67.1-71.7zm-38.6 59.3c3.2-22.5 15-37.2 38.4-37.2 24 0 36.7 13.7 38.5 37.2h-76.9zM1264.2 71.1h-21.3c-1.9 0-3.2 1.3-3.2 3.2v15.1c-8.1-10.8-22.1-22.4-49.1-22.4-42.3 0-67.4 32.3-67.4 72.8s25.1 72.8 67.4 72.8c27 0 41-11.6 49.1-22.4V205c0 1.9 1.3 3.2 3.2 3.2h21.3c1.9 0 3.2-1.3 3.2-3.2V74.2c.1-1.8-1.3-3.1-3.2-3.1zM1196 189.4c-26.4 0-44.2-18.3-44.2-49.9 0-31.5 17.8-49.3 44.2-49.3 26.4 0 44.5 17.8 44.5 49.3 0 31.6-18.1 49.9-44.5 49.9zM1037.3 19.6h-21.6c-1.9 0-3.2 1.3-3.2 3.2v66.6c-8.1-10.8-21.8-22.4-48.8-22.4-42.3 0-67.4 32.3-67.4 72.8s25.1 72.8 67.4 72.8c27 0 41-11.6 49.1-22.4V205c0 1.9 1.3 3.2 3.2 3.2h21.3c1.9 0 3.2-1.3 3.2-3.2V22.8c0-1.9-1.3-3.2-3.2-3.2zm-68.2 169.8c-26.4 0-44.2-18.3-44.2-49.9 0-31.5 17.8-49.3 44.2-49.3s44.5 17.8 44.5 49.3c0 31.6-18.1 49.9-44.5 49.9zM1096 19.6c1.9 0 3.2 1.3 3.2 3.2v22.1c0 1.9-1.3 3.2-3.2 3.2h-22.1c-1.9 0-3.2-1.3-3.2-3.2V22.8c0-1.9 1.3-3.2 3.2-3.2h22.1M1095.8 71.1c1.9 0 3.2 1.3 3.2 3.2V205c0 1.9-1.3 3.2-3.2 3.2h-21.6c-1.9 0-3.2-1.3-3.2-3.2V74.2c0-1.9 1.3-3.2 3.2-3.2h21.6M180.8.1H46.7C20.9.1-.1 21.1-.1 46.9V181c0 25.9 21 46.8 46.8 46.8h134.1c25.9 0 46.8-21 46.8-46.8V46.9C227.7 21.1 206.7.1 180.8.1zM69.5 183.6c0 1.8-1.4 3.2-3.2 3.2H44.2c-1.8 0-3.2-1.4-3.2-3.2v-22.1c0-1.8 1.4-3.2 3.2-3.2h22.1c1.8 0 3.2 1.4 3.2 3.2v22.1zm115-14.2-21.9 21.8c-1.6 1.6-4 .5-4-1.9V90.9L97.5 152c-1.1 1.1-2.2 1.6-4 1.6H77.4c-1.9 0-3.2-1.3-3.2-3.2v-16.1c0-1.9.5-3 1.6-4l61.1-61.1H38.4c-2.4 0-3.5-2.4-1.9-4l21.8-21.9C59.6 42 61 41 63.2 41h108.9c8.1 0 14.6 6.5 14.6 14.6v108.9c-.1 2.3-.9 3.6-2.2 4.9z" class="expedia0" fill="#FFFFFF"></path> </svg>