<svg xmlns:xlink="http://www.w3.org/1999/xlink" viewBox="0 0 200 200" xmlns="http://www.w3.org/2000/svg" width="200"  height="200" ><path d="M171.169 20H28.831A8.831 8.831 0 0 0 20 28.831v142.338A8.83 8.83 0 0 0 28.831 180h76.638v-61.875H84.688V93.906h20.781V76.083c0-20.666 12.621-31.919 31.056-31.919c8.83 0 16.42.657 18.632.951v21.597l-12.714.006c-10.031 0-11.974 4.767-11.974 11.762v15.425h23.982l-3.123 24.219h-20.86V180h40.701a8.831 8.831 0 0 0 8.831-8.831V28.831A8.831 8.831 0 0 0 171.169 20z" fill="#FFFFFF"></path></svg>