<?xml version="1.0" encoding="utf-8"?>
<!-- Generator: Adobe Illustrator 28.3.0, SVG Export Plug-In . SVG Version: 6.00 Build 0)  -->
<svg version="1.1" id="레이어_1" xmlns="http://www.w3.org/2000/svg" xmlns:xlink="http://www.w3.org/1999/xlink" x="0px"
	 y="0px" width="1343px" height="552px" viewBox="0 0 1343 552" style="enable-background:new 0 0 1343 552;" xml:space="preserve">
<style type="text/css">
	
		.st0{clip-path:url(#SVGID_00000093164329736226340530000011508402247965148333_);fill:#FFFFFF;stroke:#2E4162;stroke-width:7;stroke-miterlimit:10;}
	.st1{fill:#004365;}
	.st2{clip-path:url(#SVGID_00000181059234120353912310000011048419045711530641_);}
	.st3{fill:#FFFFFF;}
	.st4{fill:#00A2DE;}
	.st5{fill:#2B4160;}
	.st6{fill:#F0F3F5;}
</style>
<g>
	<g>
		<defs>
			<rect id="SVGID_1_" x="-101" y="29.3" width="1434" height="492.7"/>
		</defs>
		<clipPath id="SVGID_00000062886236529372876660000012485980358571440528_">
			<use xlink:href="#SVGID_1_"  style="overflow:visible;"/>
		</clipPath>
		
			<path style="clip-path:url(#SVGID_00000062886236529372876660000012485980358571440528_);fill:#FFFFFF;stroke:#2E4162;stroke-width:7;stroke-miterlimit:10;" d="
			M1245.1,519.4H81.8c-30.9,0-56.1-31.4-56.1-70.2l0,0c0-38.7,25.1-70.2,56.1-70.2h1163.3c30.9,0,56.1,31.4,56.1,70.2l0,0
			C1301.1,488.1,1276,519.4,1245.1,519.4z"/>
	</g>
</g>
<g>
	<path class="st1" d="M204.2,476.9c0-1.1,0.1-2.1,0.4-3c0.3-0.9,0.8-1.6,1.5-2.2s1.8-1.1,3.1-1.4s3.1-0.5,5.1-0.5H292
		c2.1,0,3.8,0.2,5.1,0.5c1.3,0.3,2.4,0.8,3.1,1.4s1.2,1.3,1.5,2.2c0.3,0.9,0.4,1.8,0.4,3c0,0.9-0.1,1.8-0.4,2.6
		c-0.3,0.9-0.8,1.6-1.5,2.2s-1.8,1.1-3.1,1.5c-1.3,0.4-3.1,0.6-5.1,0.6h-29.7v6.9c0,1.9-0.3,3.5-0.8,4.8s-1.2,2.3-2,3
		s-1.8,1.3-2.9,1.6c-1.1,0.3-2.2,0.4-3.4,0.4s-2.3-0.2-3.4-0.4c-1.1-0.3-2.1-0.8-2.9-1.6c-0.9-0.7-1.5-1.8-2-3
		c-0.5-1.3-0.7-2.9-0.7-4.8v-6.9h-29.9c-2.1,0-3.8-0.2-5.1-0.6s-2.4-0.9-3.1-1.5c-0.7-0.6-1.2-1.3-1.5-2.2
		C204.3,478.7,204.2,477.8,204.2,476.9z M209.5,425c0-1.1,0.1-2.1,0.4-2.9c0.3-0.8,0.8-1.5,1.5-2.1s1.8-1,3.1-1.3s3.1-0.4,5.1-0.4
		h66.6c2.1,0,3.8,0.2,5.1,0.4c1.3,0.3,2.4,0.7,3.1,1.3c0.7,0.6,1.2,1.2,1.5,2.1c0.3,0.8,0.4,1.8,0.4,2.9c0,0.9-0.1,1.8-0.4,2.6
		c-0.3,0.8-0.8,1.5-1.5,2.1s-1.8,1-3.1,1.3c-1.3,0.3-3.1,0.5-5.1,0.5h-66.6c-2.1,0-3.8-0.2-5.1-0.5s-2.4-0.8-3.1-1.3
		c-0.7-0.6-1.2-1.2-1.5-2.1C209.7,426.8,209.5,425.9,209.5,425z M214.2,449.5c0-2.6,0.6-4.8,1.7-6.6c1.1-1.8,2.7-3.2,4.9-4.4
		c2.1-1.1,4.7-1.9,7.6-2.4c2.9-0.5,6.3-0.7,10-0.7h29.5c3.7,0,7,0.2,10,0.7s5.5,1.3,7.7,2.4c2.1,1.1,3.7,2.6,4.9,4.4
		c1.1,1.8,1.7,4,1.7,6.6v2.9c0,4-2,7.2-5.9,9.6s-9.8,3.6-17.7,3.7h-30.5c-7.9-0.1-13.8-1.2-17.8-3.5s-5.9-5.5-5.9-9.8v-2.9H214.2z
		 M223.9,408.5c0-1.8,0.4-3.3,1.2-4.6c0.8-1.3,2.5-1.9,5.1-1.9h43.6c2.6,0,4.3,0.6,5.1,1.9c0.8,1.3,1.2,2.8,1.2,4.6
		c0,0.7-0.1,1.5-0.3,2.2c-0.2,0.7-0.5,1.4-1,2c-0.4,0.6-1.1,1.1-1.9,1.5s-1.9,0.6-3.1,0.6h-43.6c-1.3,0-2.3-0.2-3.1-0.6
		s-1.5-0.9-1.9-1.5s-0.8-1.3-1-2C224,410,223.9,409.2,223.9,408.5z M232,450.9c0,1,0.8,1.6,2.3,1.9c1.6,0.3,4,0.5,7.3,0.7h23
		c3.3-0.1,5.7-0.4,7.3-0.7c1.6-0.3,2.3-0.9,2.3-1.9v-0.2c0-1-0.8-1.7-2.3-2.1c-1.6-0.3-4.1-0.5-7.6-0.5H242c-3.5,0-6,0.2-7.6,0.5
		s-2.3,1-2.3,2.1L232,450.9L232,450.9z"/>
	<path class="st1" d="M310.4,465.1c0-1.1,0.1-2.1,0.4-3.1c0.3-0.9,0.8-1.8,1.5-2.5s1.8-1.3,3.1-1.7c1.3-0.4,3.1-0.6,5.1-0.6h77.7
		c2.1,0,3.8,0.2,5.1,0.6c1.3,0.4,2.4,1,3.1,1.7s1.2,1.5,1.5,2.5c0.3,0.9,0.4,2,0.4,3.1c0,0.9-0.1,1.8-0.4,2.7
		c-0.3,0.9-0.8,1.8-1.5,2.5s-1.8,1.3-3.1,1.7c-1.3,0.4-3.1,0.7-5.1,0.7h-29.7v15.8c0,1.9-0.3,3.5-0.8,4.8s-1.2,2.3-2,3
		s-1.8,1.3-2.9,1.6c-1.1,0.3-2.2,0.4-3.4,0.4c-1.2,0-2.3-0.2-3.4-0.4c-1.1-0.3-2.1-0.8-2.9-1.6c-0.9-0.7-1.5-1.8-2-3
		c-0.5-1.3-0.7-2.9-0.7-4.8v-15.8h-29.9c-2.1,0-3.8-0.2-5.1-0.7c-1.3-0.4-2.4-1-3.1-1.7s-1.2-1.5-1.5-2.5
		C310.5,466.9,310.4,466,310.4,465.1z M390.5,403.5c2,0,3.6,0.2,4.7,0.6s2,1,2.6,1.7s1,1.6,1.1,2.6s0.2,2.2,0.2,3.6v11.2
		c0,1.9-0.1,4-0.2,6.3s-0.4,4.7-0.7,7c-0.3,2.4-0.8,4.7-1.4,6.9c-0.6,2.2-1.4,4.2-2.5,5.9c-0.6,1-1.4,1.9-2.3,2.5s-1.9,1-2.9,1.2
		s-2,0.3-3.1,0.2c-1-0.1-2-0.3-2.9-0.6c-1.9-0.6-3.3-1.6-4.2-3.1c-1-1.5-1.2-3.4-0.7-5.7l0.3-1.8H327c-2.1,0-3.8-0.2-5.1-0.5
		c-1.3-0.3-2.4-0.8-3.1-1.5c-0.7-0.6-1.2-1.4-1.5-2.3s-0.4-1.9-0.4-3c0-0.9,0.1-1.8,0.4-2.6c0.3-0.9,0.8-1.6,1.5-2.3
		c0.7-0.7,1.8-1.2,3.1-1.6c1.3-0.4,3.1-0.6,5.1-0.6h53.6v-1.2v-8.2h-51.2c-2.1,0-3.8-0.2-5.1-0.6c-1.3-0.4-2.4-0.9-3.1-1.6
		s-1.2-1.5-1.5-2.3c-0.3-0.9-0.4-1.9-0.4-3c0-0.9,0.1-1.8,0.4-2.7c0.3-0.9,0.8-1.7,1.5-2.3c0.7-0.7,1.8-1.2,3.1-1.6
		c1.3-0.4,3.1-0.6,5.1-0.6H390.5z"/>
	<path class="st1" d="M423.2,427.7c0-3,0.6-5.9,1.7-8.8s2.7-5.5,4.9-7.8c2.1-2.3,4.7-4.1,7.6-5.5s6.3-2.1,10-2.1h36.5
		c3.7,0,7,0.7,10,2.1s5.5,3.3,7.7,5.5c2.1,2.3,3.7,4.9,4.9,7.8c1.1,2.9,1.7,5.9,1.7,8.8v7.8c0,3.1-0.5,5.9-1.5,8.7
		c-1,2.7-2.4,5.1-4.4,7.3c-2,2.1-4.4,3.8-7.4,5.1c-2.9,1.3-6.4,1.9-10.3,1.9H475v23h29.7c2.1,0,3.8,0.2,5.1,0.6
		c1.3,0.4,2.4,1,3.1,1.7s1.2,1.5,1.5,2.5c0.3,0.9,0.4,2,0.4,3.1c0,0.9-0.1,1.8-0.4,2.7c-0.3,0.9-0.8,1.8-1.5,2.5s-1.8,1.3-3.1,1.7
		c-1.3,0.4-3.1,0.7-5.1,0.7H427c-2.1,0-3.8-0.2-5.1-0.7c-1.3-0.4-2.4-1-3.1-1.7s-1.2-1.5-1.5-2.5c-0.3-0.9-0.4-1.8-0.4-2.7
		c0-1.1,0.1-2.1,0.4-3.1c0.3-0.9,0.8-1.8,1.5-2.5s1.8-1.3,3.1-1.7c1.3-0.4,3.1-0.6,5.1-0.6h29.9v-23h-9.7c-4,0-7.4-0.6-10.3-1.9
		s-5.4-3-7.4-5.1s-3.5-4.5-4.5-7.3c-1-2.7-1.5-5.6-1.5-8.7v-7.8H423.2z M441.3,432.7c0,2.8,0.8,5.1,2.3,7s3.9,3,7.1,3.1h29.7
		c3.2-0.1,5.6-1.2,7.1-3.1s2.3-4.3,2.3-7v-3.6c0-2.8-0.8-5.2-2.3-7.2s-4-3-7.4-3H451c-3.4,0-5.9,1-7.4,3s-2.3,4.4-2.3,7.2
		L441.3,432.7L441.3,432.7z"/>
	<path class="st1" d="M562.1,403.7c2,0,3.6,0.2,4.7,0.6c1.1,0.4,2,1,2.6,1.7s1,1.6,1.1,2.6s0.2,2.2,0.2,3.6v43.6
		c0,1.9-0.2,4.6-0.6,7.9c-0.4,3.4-1.1,6.9-2.1,10.5c-1,3.7-2.3,7.2-4,10.7s-3.7,6.4-6.2,8.6c-1,1-2.2,1.8-3.4,2.4s-2.5,1-3.8,1.1
		s-2.6-0.1-3.8-0.5s-2.4-1.3-3.5-2.5c-1.4-1.5-2.2-3.4-2.2-5.6c-0.1-2.2,0.6-4.3,2.1-6.1c1.9-2.3,3.4-4.5,4.5-6.6
		c1.2-2.1,2-4.2,2.7-6.3c0.6-2.1,1.1-4.3,1.3-6.5c0.3-2.2,0.4-4.7,0.5-7.3H532c-2.1,0-3.8-0.2-5.1-0.6s-2.4-1-3.1-1.7
		c-0.7-0.7-1.2-1.5-1.5-2.5c-0.3-0.9-0.4-2-0.4-3.1c0-0.9,0.1-1.8,0.4-2.7c0.3-0.9,0.8-1.8,1.5-2.5s1.8-1.3,3.1-1.7
		c1.3-0.4,3.1-0.7,5.1-0.7h20.2V419h-18.8c-2.1,0-3.8-0.2-5.1-0.6s-2.4-1-3.1-1.7c-0.7-0.7-1.2-1.5-1.5-2.5c-0.3-0.9-0.4-2-0.4-3.1
		c0-0.9,0.1-1.8,0.3-2.7c0.2-0.9,0.7-1.8,1.4-2.5s1.7-1.3,3-1.7c1.3-0.4,2.9-0.7,5-0.7h29.1V403.7z M590,412.1
		c0-3.7,0.9-6.3,2.7-7.7c1.8-1.4,3.9-2.1,6.3-2.1c1.2,0,2.3,0.2,3.4,0.4c1.1,0.3,2,0.8,2.9,1.6c0.8,0.7,1.5,1.8,2,3
		c0.5,1.3,0.8,2.8,0.8,4.7v26.8h7c2.1,0,3.8,0.2,5.1,0.7s2.4,1.1,3.1,1.8c0.7,0.7,1.2,1.6,1.5,2.5s0.4,1.8,0.4,2.7
		c0,1.1-0.1,2.2-0.4,3.1c-0.3,1-0.8,1.8-1.5,2.5s-1.8,1.3-3.1,1.7c-1.3,0.4-3.1,0.7-5.1,0.7h-7v33.7c0,1.9-0.3,3.5-0.8,4.8
		s-1.2,2.3-2,3s-1.8,1.3-2.9,1.6c-1.1,0.3-2.2,0.4-3.4,0.4s-2.3-0.2-3.4-0.4c-1.1-0.3-2.1-0.8-2.9-1.6c-0.9-0.7-1.5-1.8-2-3
		c-0.5-1.3-0.7-2.9-0.7-4.8L590,412.1L590,412.1z"/>
	<path class="st1" d="M672.6,455c0-3,0.6-5.5,1.7-7.6c1.1-2.1,2.7-3.8,4.9-5.1c2.1-1.3,4.7-2.3,7.6-2.9c2.9-0.6,6.3-0.9,10-0.9h29.7
		c3.7,0,7,0.3,10,0.9s5.5,1.5,7.7,2.9c2.1,1.3,3.7,3,4.9,5.1c1.1,2.1,1.7,4.6,1.7,7.6v3.4c0,4.7-2,8.4-5.9,11.2
		c-3.9,2.8-9.8,4.2-17.7,4.3h-6.3v7.6h29.7c2.1,0,3.8,0.2,5.1,0.6s2.4,1,3.1,1.7c0.7,0.7,1.2,1.5,1.5,2.5c0.3,0.9,0.4,2,0.4,3.1
		c0,0.9-0.1,1.8-0.4,2.7c-0.3,0.9-0.8,1.8-1.5,2.5s-1.8,1.3-3.1,1.7c-1.3,0.4-3.1,0.7-5.1,0.7h-77.7c-2.1,0-3.8-0.2-5.1-0.7
		c-1.3-0.4-2.4-1-3.1-1.7c-0.7-0.7-1.2-1.5-1.5-2.5c-0.3-0.9-0.4-1.8-0.4-2.7c0-1.1,0.1-2.1,0.4-3.1c0.3-0.9,0.8-1.8,1.5-2.5
		s1.8-1.3,3.1-1.7c1.3-0.4,3.1-0.6,5.1-0.6h29.9v-7.6h-6.4c-7.9-0.1-13.8-1.5-17.8-4.1c-4-2.7-5.9-6.5-5.9-11.4V455H672.6z
		 M668,426.7c0-1.1,0.1-2.1,0.4-3c0.3-0.9,0.8-1.7,1.5-2.3c0.7-0.6,1.8-1.1,3.1-1.5c1.3-0.3,3.1-0.5,5.1-0.5h66.6
		c2.1,0,3.8,0.2,5.1,0.5s2.4,0.8,3.1,1.5c0.7,0.6,1.2,1.4,1.5,2.3s0.4,1.9,0.4,3c0,0.9-0.1,1.8-0.4,2.6c-0.3,0.9-0.8,1.6-1.5,2.3
		c-0.7,0.7-1.8,1.2-3.1,1.6s-3.1,0.6-5.1,0.6h-66.6c-2.1,0-3.8-0.2-5.1-0.6s-2.4-0.9-3.1-1.6c-0.7-0.7-1.2-1.4-1.5-2.3
		C668.1,428.5,668,427.6,668,426.7z M682.3,408.5c0-1.8,0.4-3.3,1.2-4.6c0.8-1.3,2.5-1.9,5.1-1.9h43.6c2.6,0,4.3,0.6,5.1,1.9
		s1.2,2.8,1.2,4.6c0,0.7-0.1,1.5-0.3,2.2s-0.5,1.4-0.9,2s-1.1,1.1-1.9,1.5c-0.8,0.4-1.9,0.6-3.1,0.6h-43.6c-1.3,0-2.3-0.2-3.1-0.6
		s-1.5-0.9-1.9-1.5s-0.8-1.3-1-2C682.4,410,682.3,409.2,682.3,408.5z M690.7,456.7c0,1.7,0.8,2.9,2.3,3.4c1.5,0.6,3.9,0.9,7.1,1h23
		c3.2-0.1,5.6-0.4,7.1-1s2.3-1.7,2.3-3.4v-0.6c0-1.8-0.8-3-2.3-3.5c-1.5-0.6-4-0.8-7.4-0.8h-22.4c-3.4,0-5.9,0.3-7.4,0.8
		c-1.5,0.6-2.3,1.7-2.3,3.5L690.7,456.7L690.7,456.7z"/>
	<path class="st1" d="M800.9,403.3c2.1,0,3.8,0.2,5.1,0.5s2.4,0.8,3.1,1.4c0.7,0.6,1.2,1.3,1.5,2.2c0.3,0.9,0.4,1.8,0.4,3
		c0,1.9-0.6,3.3-1.8,4.4c-1.2,1-3.5,1.6-6.9,1.6h-15.7v4.4h8.7c4.2,0,6.9,0.5,8.2,1.4s2,2.5,2,4.6c0,0.9-0.1,1.7-0.4,2.4
		c-0.3,0.7-0.8,1.3-1.5,1.8s-1.8,0.8-3.1,1.1c-1.3,0.2-3.1,0.3-5.1,0.3h-8.7v4.5h16.5c2.1,0,3.8,0.2,5.1,0.4
		c1.3,0.3,2.4,0.7,3.1,1.2c0.7,0.5,1.2,1.2,1.5,2s0.4,1.6,0.4,2.5c0,1.1-0.1,2.1-0.4,2.9c-0.3,0.8-0.8,1.5-1.5,2.1s-1.8,1-3.1,1.3
		s-3.1,0.4-5.1,0.4H779c-2.1,0-3.7-0.2-4.9-0.6s-2.1-0.9-2.7-1.5c-0.6-0.6-1-1.4-1.2-2.3s-0.2-1.9-0.2-3v-31.4
		c0-1.1,0.1-2.1,0.2-3.1c0.1-0.9,0.5-1.7,1.2-2.4c0.6-0.7,1.5-1.2,2.7-1.6s2.8-0.6,4.9-0.6h21.9V403.3z M792.5,482.3v4.5h61.9
		c1.8,0,3.3,0.2,4.4,0.5c1.2,0.3,2,0.8,2.7,1.3c0.6,0.6,1.1,1.2,1.3,2.1c0.2,0.8,0.3,1.7,0.3,2.6c0,1.1-0.1,2-0.3,2.8
		c-0.2,0.7-0.7,1.4-1.3,1.9s-1.5,0.9-2.7,1.1s-2.6,0.3-4.4,0.3h-71.3c-2.1,0-3.7-0.2-4.9-0.6s-2.1-0.9-2.6-1.5
		c-0.6-0.6-0.9-1.4-1-2.3s-0.2-1.9-0.2-3v-14.9c0-0.7,0.1-1.5,0.3-2.2s0.6-1.4,1.2-2c0.6-0.6,1.5-1.1,2.6-1.4s2.6-0.5,4.5-0.5h60
		v-3.8h-60.4c-1.9,0-3.4-0.1-4.5-0.4s-2-0.7-2.6-1.2s-1-1.2-1.2-1.9c-0.2-0.7-0.3-1.6-0.3-2.6c0-0.7,0.1-1.5,0.3-2.3
		s0.6-1.5,1.2-2.1c0.6-0.6,1.5-1.1,2.6-1.5s2.6-0.6,4.5-0.6h70c1.8,0,3.2,0.2,4.4,0.6c1.1,0.4,2,0.9,2.6,1.5s1,1.3,1.2,2.1
		c0.2,0.8,0.3,1.5,0.3,2.3v15.2c0,0.9-0.1,1.7-0.3,2.5c-0.2,0.7-0.6,1.4-1.1,1.9c-0.6,0.5-1.4,0.9-2.5,1.2c-1.1,0.3-2.5,0.4-4.3,0.4
		H792.5z M823.3,434.6h-5.1c-2.1,0-3.7-0.2-5-0.6c-1.2-0.4-2.2-1-2.9-1.7s-1.1-1.6-1.3-2.5s-0.3-2-0.3-3.1c0-0.9,0.1-1.8,0.3-2.7
		c0.2-0.9,0.6-1.8,1.3-2.5s1.6-1.3,2.9-1.8c1.2-0.4,2.9-0.7,5-0.7h5.1v-6.9c0-3.7,0.7-6.3,2.1-7.7c1.4-1.4,3.3-2.1,5.7-2.1
		c2.3,0,4.2,0.7,5.6,2.1c1.5,1.4,2.2,3.9,2.2,7.7v29.4c0,3.9-0.7,6.5-2.1,7.8c-1.4,1.3-3.3,2-5.6,2c-2.4,0-4.3-0.7-5.8-2
		s-2.2-3.9-2.2-7.8L823.3,434.6L823.3,434.6z M845.7,412.1c0-3.7,0.7-6.3,2.1-7.7c1.4-1.4,3.3-2.1,5.7-2.1c2.3,0,4.2,0.7,5.6,2.1
		c1.5,1.4,2.2,3.9,2.2,7.7v29.5c0,3.9-0.7,6.5-2.1,7.8c-1.4,1.3-3.3,2-5.6,2c-2.4,0-4.3-0.7-5.8-2s-2.2-3.9-2.2-7.8L845.7,412.1
		L845.7,412.1z"/>
	<path class="st1" d="M917,466.2c-1.9,0-3.4-0.1-4.5-0.4s-2-0.7-2.6-1.3c-0.6-0.6-1-1.2-1.2-2s-0.3-1.7-0.3-2.7
		c0-0.8,0.1-1.6,0.3-2.4s0.6-1.5,1.2-2.1c0.6-0.6,1.5-1.1,2.6-1.5s2.6-0.6,4.5-0.6h81.3c1.9,0,3.4,0.2,4.5,0.6s2,0.9,2.6,1.5
		s1,1.3,1.2,2.1c0.2,0.8,0.3,1.6,0.3,2.4c0,1-0.1,2-0.3,2.7c-0.2,0.8-0.6,1.5-1.2,2c-0.6,0.6-1.5,1-2.6,1.3s-2.6,0.4-4.5,0.4H917z
		 M980.8,485.1h-54.9c-2.1,0-3.8-0.2-5.1-0.6s-2.4-0.9-3.1-1.5c-0.7-0.6-1.2-1.3-1.5-2.2c-0.3-0.9-0.4-1.7-0.4-2.6
		c0-1.1,0.1-2.1,0.4-3c0.3-0.9,0.8-1.6,1.5-2.2s1.8-1,3.1-1.3s3.1-0.4,5.1-0.4h64c2.1,0,3.7,0.2,4.9,0.4c1.2,0.3,2.1,0.7,2.7,1.3
		c0.6,0.6,1,1.3,1.2,2.2c0.1,0.9,0.2,1.8,0.2,3v11.5c0,1.9-0.3,3.4-0.8,4.7c-0.5,1.3-1.2,2.3-2,3s-1.8,1.3-2.9,1.6
		c-1.1,0.3-2.2,0.4-3.4,0.4c-2.4,0-4.5-0.7-6.3-2.1s-2.7-3.9-2.7-7.7V485.1z M990.2,403.8c1.9,0,3.4,0.1,4.5,0.4s2,0.7,2.6,1.2
		s1,1.2,1.2,1.9c0.2,0.7,0.3,1.6,0.3,2.6c0,0.8-0.1,1.6-0.3,2.2c-0.2,0.7-0.6,1.3-1.2,1.8c-0.6,0.5-1.5,0.9-2.6,1.2
		c-1.1,0.3-2.6,0.4-4.5,0.4h-55.8v4.6h54.7c1.9,0,3.4,0.1,4.5,0.3c1.1,0.2,2,0.6,2.6,1.1s1,1.1,1.2,1.8c0.2,0.7,0.3,1.5,0.3,2.5
		c0,0.8-0.1,1.5-0.3,2.2c-0.2,0.6-0.6,1.2-1.2,1.7c-0.6,0.5-1.5,0.9-2.6,1.1c-1.1,0.3-2.6,0.4-4.5,0.4h-54.7v4.7h55.8
		c1.9,0,3.4,0.2,4.5,0.4c1.1,0.3,2,0.7,2.6,1.2s1,1.1,1.2,1.8c0.2,0.7,0.3,1.4,0.3,2.2c0,1-0.1,1.8-0.3,2.6
		c-0.2,0.7-0.6,1.4-1.2,1.9c-0.6,0.5-1.5,0.9-2.6,1.2c-1.1,0.3-2.6,0.4-4.5,0.4h-64.9c-2.1,0-3.7-0.2-4.9-0.6s-2.1-1-2.7-1.6
		c-0.6-0.7-1-1.5-1.2-2.4s-0.2-2-0.2-3.1v-28.4c0-1.1,0.1-2.1,0.2-3.1c0.1-0.9,0.5-1.7,1.2-2.4c0.6-0.7,1.5-1.2,2.7-1.6
		s2.8-0.6,4.9-0.6L990.2,403.8L990.2,403.8z"/>
	<path class="st1" d="M1052.3,403.7c2,0,3.6,0.2,4.7,0.6s2,1,2.6,1.7s1,1.6,1.1,2.6s0.2,2.2,0.2,3.6v43.6c0,1.9-0.2,4.6-0.6,7.9
		c-0.4,3.4-1.1,6.9-2.1,10.5c-1,3.7-2.3,7.2-4,10.7s-3.7,6.4-6.2,8.6c-1,1-2.2,1.8-3.4,2.4c-1.2,0.6-2.5,1-3.8,1.1s-2.6-0.1-3.8-0.5
		c-1.2-0.4-2.4-1.3-3.5-2.5c-1.4-1.5-2.2-3.4-2.2-5.6c-0.1-2.2,0.6-4.3,2.1-6.1c2.1-2.5,3.7-5,4.9-7.3c1.2-2.3,2.1-4.7,2.7-7
		c0.6-2.4,1-4.9,1.2-7.4c0.2-2.6,0.3-5.4,0.3-8.6v-33h-18.8c-2.1,0-3.8-0.2-5.1-0.6s-2.4-1-3.1-1.7c-0.7-0.7-1.2-1.5-1.5-2.5
		c-0.3-0.9-0.4-2-0.4-3.1c0-0.9,0.1-1.8,0.3-2.7c0.2-0.9,0.7-1.8,1.4-2.5s1.7-1.3,3-1.7c1.3-0.4,2.9-0.7,5-0.7h29V403.7z
		 M1080.3,412.1c0-3.7,0.9-6.3,2.7-7.7c1.8-1.4,3.9-2.1,6.3-2.1c1.2,0,2.3,0.2,3.4,0.4c1.1,0.3,2,0.8,2.9,1.6c0.8,0.7,1.5,1.8,2,3
		c0.5,1.3,0.8,2.8,0.8,4.7v26.8h8.8c2.1,0,3.8,0.2,5.1,0.7c1.3,0.5,2.4,1.1,3.1,1.8c0.7,0.7,1.2,1.6,1.5,2.5s0.4,1.8,0.4,2.7
		c0,1.1-0.1,2.2-0.4,3.1c-0.3,1-0.8,1.8-1.5,2.5s-1.8,1.3-3.1,1.7c-1.3,0.4-3.1,0.7-5.1,0.7h-8.8v33.7c0,1.9-0.3,3.5-0.8,4.8
		s-1.2,2.3-2,3s-1.8,1.3-2.9,1.6c-1.1,0.3-2.2,0.4-3.4,0.4c-1.2,0-2.3-0.2-3.4-0.4c-1.1-0.3-2.1-0.8-2.9-1.6c-0.9-0.7-1.5-1.8-2-3
		c-0.5-1.3-0.7-2.9-0.7-4.8V412.1z"/>
</g>
<g>
	<defs>
		<rect id="SVGID_00000021080553283704184100000001750333527569997724_" x="340" y="14" width="682" height="361"/>
	</defs>
	<clipPath id="SVGID_00000116921187331180933620000002156538627832505749_">
		<use xlink:href="#SVGID_00000021080553283704184100000001750333527569997724_"  style="overflow:visible;"/>
	</clipPath>
	<g style="clip-path:url(#SVGID_00000116921187331180933620000002156538627832505749_);">
		<g>
			<circle class="st3" cx="570.4" cy="100.5" r="36.8"/>
		</g>
		<g>
			<circle class="st4" cx="570.4" cy="100.5" r="25.1"/>
		</g>
		<g>
			<circle class="st3" cx="745.5" cy="100.5" r="36.8"/>
		</g>
		<g>
			<line class="st3" x1="774.8" y1="122.8" x2="771.8" y2="126.3"/>
			<path class="st5" d="M771.8,130c-0.9,0-1.7-0.3-2.4-0.9c-1.5-1.3-1.7-3.7-0.4-5.2l3-3.5c1.3-1.5,3.7-1.7,5.2-0.4
				c1.5,1.3,1.7,3.7,0.4,5.2l-3,3.5C773.8,129.6,772.8,130,771.8,130z"/>
		</g>
		<g>
			<g>
				<path class="st5" d="M603.6,602.8c-1.6,0-3.1-1-3.5-2.6c-0.7-2.2-1-4.5-1-6.9c0-4.9,1.5-9.6,4.1-13.4c1.2-1.7,3.5-2,5.2-0.9
					c1.7,1.2,2,3.5,0.9,5.2c-1.8,2.5-2.8,5.7-2.8,9c0,1.7,0.2,3.3,0.7,4.8c0.6,2-0.5,4-2.5,4.6C604.4,602.8,604,602.8,603.6,602.8z"
					/>
			</g>
			<g>
				<path class="st5" d="M574.5,600.3c-1.6,0-3.1-1-3.5-2.6c-0.7-2.2-1-4.5-1-6.9c0-4.9,1.5-9.6,4.1-13.4c1.2-1.7,3.5-2,5.2-0.9
					c1.7,1.2,2,3.5,0.9,5.2c-1.8,2.5-2.8,5.7-2.8,9c0,1.7,0.2,3.3,0.7,4.8c0.6,2-0.5,4-2.5,4.6C575.2,600.3,574.8,600.3,574.5,600.3
					z"/>
			</g>
		</g>
		<g>
			<g>
				<path class="st3" d="M857.3,386.3c-4.5-45.2-56.5-124-56.5-124.1h0c-4.5-47.8-11.7-79.5-15.2-101.6c-0.1-0.6-0.2-1.1-0.3-1.6
					l-0.4-2.5c-0.3-1.7-0.6-3.3-0.9-5c0,0,0,0,0-0.1c0-0.1,0-0.2-0.1-0.3c-0.4-1.9-0.6-2.9-0.6-2.9h0c-0.9-4.3-1.9-8.6-3.3-12.8
					c-5.1-15.1-13.4-29.4-26.7-38.7c-6.5-4.6-11.7-6.8-21.6-9.9c-17.5-4.9-43.9-7.2-69-7.6c-25.1,0.4-51.5,2.7-69,7.6
					c-9.8,3.1-15.1,5.3-21.6,9.9c-13.2,9.4-21.5,23.6-26.7,38.7c-1.4,4.2-2.6,8.5-3.6,12.8h0c0,0-22.2,77.9-13.2,161.7
					c-3.4,19.6-17.8,122,34.3,207.7h-0.5l1.3,6.9l-0.6,31.6h-0.2c0,0-5.3,4.6-8,12.7c-3.1,9-3.1,21.8,9.6,26.3
					c15.2,5.7,78.3,6.7,100.3,1.4c1.8,2.6,4.5,4.8,8.4,6.2c17,6.4,90.3,6.5,104.2,0.5c0,0,14.9-1.1,17-42.5l13.9-37.1
					c0,0,34.5-30.7,48.7-84.5C861.8,421.8,859,403.9,857.3,386.3z"/>
			</g>
			<g>
				<path class="st5" d="M718.3,611.3c-1.6,0-3.1-1-3.5-2.6l-0.1-0.4c-0.9-2.7-3.6-11,2-22.9c0.9-1.8,3.1-2.6,4.9-1.8
					c1.8,0.9,2.6,3.1,1.8,4.9c-4.4,9.2-2.4,15.2-1.7,17.4l0.2,0.5c0.6,2-0.5,4-2.5,4.6C719,611.3,718.7,611.3,718.3,611.3z"/>
			</g>
			<g>
				<path class="st5" d="M684.6,608.9c-1.6,0-3.1-1-3.6-2.6l-0.1-0.4c-0.9-2.7-3.7-11,1.7-22.9c0.9-1.9,3.1-2.7,4.9-1.8
					c1.9,0.9,2.7,3.1,1.8,4.9c-4.2,9.2-2.2,15.2-1.5,17.4l0.2,0.5c0.6,2-0.5,4-2.4,4.6C685.3,608.8,684.9,608.9,684.6,608.9z"/>
			</g>
		</g>
		<g>
			<path class="st5" d="M673.5,606.5c-0.4,0-0.8-0.1-1.2-0.2c-14.4-5-17-15.6-16.4-20.8c-0.2-14.1,7.5-21.3,11.1-23.9l3.3-32.7
				c-6.4,0.7-14.6,0.5-21.5-1.7c-2-0.6-3.1-2.7-2.5-4.6c0.6-2,2.7-3,4.6-2.5c7.3,2.2,16.9,2,22.6,0.7c1.2-0.3,2.4,0,3.3,0.8
				c0.9,0.8,1.4,2,1.2,3.2l-4,39.3c-0.1,1.2-0.9,2.3-2,2.9c-0.4,0.2-9.3,5.2-8.9,18.6c0,0.2,0,0.4,0,0.6c-0.1,0.8-0.7,8.8,11.5,13
				c1.9,0.7,3,2.8,2.3,4.7C676.4,605.5,675,606.5,673.5,606.5z"/>
		</g>
		<g>
			<g>
				<path class="st6" d="M663.3,228.7c-6.3,17.9-27.2,24.7-43.6,24.7h0c-16.4,0-37.3-6.7-43.6-24.7c-5.8-16.5,1.2-41.3,14.2-51.9
					c8.1-6.7,19.2-6.9,29-6.9h0.9c9.8,0,20.9,0.2,29,6.9C662.1,187.4,669.1,212.2,663.3,228.7z"/>
			</g>
			<g>
				<path class="st4" d="M636.2,171.1c-5.9-0.7-11.9-1.1-17.8-1.1c-5.9,0-11.9,0.4-17.8,1.1c-8.7,1.6-9.9,6.1-7.3,14.5
					c2.9,9,13.1,23.8,25.1,24.1c12-0.3,22.2-15.1,25.1-24.1C646.2,177.2,644.9,172.7,636.2,171.1z"/>
			</g>
			<g>
				<path class="st5" d="M587.2,154.9c-0.9,0-1.7-0.3-2.4-0.9c-2.4-2.1-6.6-7.8-7.4-8.9c-1.2-1.7-0.9-4,0.8-5.2
					c1.6-1.2,4-0.9,5.2,0.8c1.7,2.3,4.9,6.5,6.3,7.7c1.5,1.3,1.7,3.7,0.4,5.2C589.2,154.5,588.2,154.9,587.2,154.9z"/>
			</g>
			<g>
				<path class="st5" d="M650.7,153.8c-1.2,0-2.3-0.5-3-1.6c-1.2-1.7-0.8-4,0.9-5.2c0,0,4.3-3.1,6.9-6.3c1.3-1.6,3.6-1.9,5.2-0.6
					c1.6,1.3,1.9,3.6,0.6,5.2c-3.3,4.1-8.2,7.6-8.4,7.7C652.2,153.6,651.4,153.8,650.7,153.8z"/>
			</g>
			<g>
				<g>
					<circle class="st5" cx="575" cy="170.7" r="11.9"/>
				</g>
				<g>
					<circle class="st3" cx="577.8" cy="167.6" r="4.5"/>
				</g>
			</g>
			<g>
				<path class="st5" d="M652.5,174.4c-0.4,0-0.8-0.1-1.3-0.2c-1.9-0.7-2.9-2.8-2.2-4.7c1-2.7,4.4-7.5,11.3-8.7
					c10.4-1.7,16.2,7.6,16.5,8c1.1,1.8,0.5,4-1.3,5.1c-1.8,1.1-4,0.5-5.1-1.3c-0.1-0.2-3.5-5.4-8.9-4.5c-4.2,0.7-5.5,3.8-5.5,3.9
					C655.4,173.5,654,174.4,652.5,174.4z"/>
			</g>
			<g>
				<path class="st5" d="M614.5,226.3c-3.4-0.1-7,9.4-4.9,14c2.1,4.7,8.3,4.7,11.2,3.6c4.3-1.7,3.5-6.3,1.8-9.7
					C621.1,231.3,618.3,226.4,614.5,226.3z"/>
			</g>
		</g>
		<g>
			<path class="st5" d="M727.7,611.4c-4,0-7.3,0-9.5-0.1c0,0,0,0,0,0c-21.6-0.4-38.8-2.3-46.1-5c-3.8-1.3-7-3.1-9.6-5.4
				c-25.2,4.7-83.8,3.5-99.1-2.3c-14.7-5.3-15.6-20-11.8-31c2.3-6.7,6.1-11.3,8-13.2l0.6-29.6l-1.1-5.8
				c-56.3-92.3-36.2-205.1-34.5-213.7c-7.6-81.7,13.6-157.4,13.8-158.2c0-0.1,0-0.1,0.1-0.2c1.1-4.7,2.3-8.9,3.6-12.8
				c0.4-1.2,0.8-2.3,1.3-3.5c-9.7-8.7-14.6-21.4-13.2-34.5c2-19,17.3-34.1,36.3-35.9c16.1-1.5,31.1,6.3,39.1,20.1
				c15.5-2.9,35.7-4.6,57.3-4.9c17.8,0.2,34.5,1.4,48.5,3.4c8.3-13,23.2-20.3,38.8-18.6c18.4,2,33.3,16.8,35.6,35.1
				c1.2,9.9-1.1,19.6-6.6,27.8c1.7,3.6,3.2,7.3,4.4,11c1.5,4.6,2.6,9,3.4,12.9c0,0.1,0.1,0.2,0.1,0.3c0,0,0.2,1.1,0.6,3
				c0,0,0.1,0.3,0.1,0.3l1.6,9.3c0.9,5.7,2,12,3.4,19.3c3.6,19.7,8.5,46.7,11.8,81.8c4,7.2,8.2,14.4,12.3,21.4
				c18.6,31.9,37.9,64.8,44.1,102.2c2.6,15.8,5,36.5,0,55.5c-13.3,50.7-43.9,80.9-49.1,85.7l-13.4,35.8c-1,17.2-4.3,30.2-10,38.6
				c-2.3,3.4-6.5,5.7-9.5,6.6C766.6,610.7,742.4,611.4,727.7,611.4z M718.4,603.9C718.4,603.9,718.4,603.9,718.4,603.9
				c20.6,0.4,46.7-0.4,58.1-4.1c2.3-0.7,4.7-2.3,5.6-3.7c5-7.4,8-19.3,8.8-35.4c0-0.4,0.1-0.7,0.2-1.1l13.9-37.1
				c0.2-0.6,0.6-1.1,1-1.5c0.3-0.3,33.9-30.7,47.5-82.7c4.6-17.7,2.4-37.3-0.2-52.4c-6-36-24.9-68.4-43.1-99.6
				c-4.2-7.2-8.6-14.7-12.7-22c-0.3-0.4-0.5-1.1-0.5-1.6c-3.3-35.2-8-61.1-11.8-82c-1.3-7.3-2.5-13.6-3.4-19.4l-1.5-9
				c0,0-0.1-0.4-0.1-0.4c-0.2-1.2-0.4-2.1-0.5-2.5c0-0.1-0.1-0.2-0.1-0.3c-0.8-3.7-1.7-8-3.2-12.3c-1.4-4.1-3.1-8.2-5-12.1
				c-0.6-1.3-0.5-2.8,0.4-3.9c5.3-6.9,7.6-15.5,6.5-24.2c-1.9-15-14.1-27-29.1-28.7c-13.5-1.5-26.3,5.2-32.8,17
				c-0.7,1.4-2.3,2.1-3.8,1.9c-14.2-2.2-31.5-3.5-49.9-3.7c-22.3,0.3-43.2,2.2-58.6,5.3c-1.6,0.3-3.3-0.5-4.1-2
				c-6.1-12.6-19.1-19.8-33-18.5c-15.5,1.5-28,13.8-29.6,29.3c-1.2,11.5,3.5,22.6,12.6,29.7c1.3,1,1.8,2.8,1.2,4.3
				c-0.8,1.9-1.5,3.8-2.1,5.7c-1.3,3.8-2.4,7.8-3.5,12.4c0,0.2-0.1,0.3-0.1,0.5c-1.5,5.3-20.8,77.9-13.4,155.7c0,0.5,0,0.9-0.1,1.4
				c-1.2,6.1-22,118.2,33.9,209.1c0.2,0.4,0.4,0.8,0.5,1.3l1.3,6.9c0,0.2,0.1,0.5,0.1,0.7l-0.6,31.6c0,1.3-0.8,2.5-1.8,3.1
				c-1.2,1.2-4.6,5-6.5,10.7c-1.4,4-4.8,17.3,7.4,21.7c14.2,5.4,74.9,6.3,96.9,1.6c1.3-0.3,2.6,0.1,3.5,1.1c2,2.1,4.7,3.7,8.3,5
				C681.2,601.7,697.9,603.5,718.4,603.9z"/>
		</g>
		<g>
			<g>
				<path class="st3" d="M557.9,300.6c0,0,10.6-21.3,25.2-12.5c14.7,8.7,0.6,23.9-3.4,27.9c-4,4.1-45.2,38-62.6,45.8
					c-23.2,10.4-47-6.3-57.8-26.8c-7.7-14.7-7.4-32.3,0.3-46.9c8.8-16.7,23-23.3,39.8-29.3c20.4-7.2,47.3-20.5,69.3-14.6
					c0,0,3.3-6.3,6.2-12.3c8.1-16.7,29.4-9.9,23.9,10.4c-2.6,9.6-5.4,15.4-7.8,19.6"/>
				<path class="st5" d="M502.5,368.6c-19.4,0-37.4-14.5-46.5-32c-8.2-15.6-8.1-34.4,0.3-50.4c9.6-18.4,25.3-25.2,41.9-31.1
					c3.4-1.2,7-2.6,10.7-4c18.4-7.1,39.2-15.1,57.9-11.4c1.2-2.4,3.1-6.1,4.8-9.7c5.2-10.8,14.8-13.1,21.6-10.6
					c7.1,2.6,12.7,10.9,9.3,23.5c-2.8,10.3-5.9,16.4-8.2,20.5c-1,1.8-3.3,2.4-5.1,1.4c-1.8-1-2.4-3.3-1.4-5.1
					c2.1-3.7,4.9-9.2,7.5-18.8c2.3-8.7-1.1-13.3-4.7-14.6c-3.8-1.4-9.1,0.2-12.3,6.9c-2.9,6-6.2,12.4-6.3,12.4
					c-0.8,1.5-2.6,2.3-4.2,1.9c-17.2-4.5-37.9,3.4-56.2,10.5c-3.8,1.4-7.4,2.8-10.8,4.1c-15.1,5.4-29.4,11.5-37.8,27.6
					c-7.2,13.8-7.3,30-0.3,43.5c10.1,19.2,32.1,34.5,53,25.2c17-7.6,58-41.5,61.5-45c6.1-6.2,9.3-12.1,8.8-16.2
					c-0.3-2.3-1.8-4.2-4.7-5.9c-2.6-1.6-5.1-2-7.7-1.2c-6,1.7-10.9,9.4-12.3,12.2c-0.9,1.8-3.1,2.6-5,1.7c-1.8-0.9-2.6-3.1-1.7-5
					c0.3-0.5,6.5-13,16.8-16c4.6-1.3,9.2-0.7,13.6,1.9c4.9,2.9,7.6,6.7,8.2,11.4c1.1,8.3-5.3,16.7-10.9,22.4
					c-3.7,3.8-45.7,38.5-63.8,46.6C513.2,367.6,507.8,368.6,502.5,368.6z"/>
			</g>
			<g>
				<path class="st3" d="M530.3,284.6c0,0,4.5,13.8,20.4,11.7l29.6-9.6l4.5-1.3c0,0,6.9-2.5,7.8-13.2c0.9-10.6-10-17.2-10-17.2"/>
				<path class="st5" d="M547.5,300.2c-12.6,0-19-9.2-20.8-14.5c-0.6-1.9,0.4-4,2.4-4.7c1.9-0.6,4,0.4,4.7,2.3
					c0.4,1.1,4.1,10.6,16.1,9.3l29.2-9.5l4.4-1.3c0.5-0.3,4.7-2.5,5.3-10c0.7-8.2-8.2-13.7-8.3-13.7c-1.8-1.1-2.3-3.3-1.3-5.1
					c1.1-1.8,3.3-2.3,5.1-1.3c0.5,0.3,12.9,7.9,11.8,20.7c-1.1,12.8-9.8,16.2-10.2,16.3c-0.1,0-0.2,0.1-0.2,0.1l-4.5,1.3l-29.5,9.6
					c-0.2,0.1-0.4,0.1-0.7,0.1C549.9,300.1,548.7,300.2,547.5,300.2z"/>
			</g>
			<g>
				<path class="st3" d="M560,270.9c0,0,8.7,1.4,10,19.1"/>
				<path class="st5" d="M570,293.7c-1.9,0-3.5-1.5-3.7-3.4c-1.1-14.1-7-15.8-7.1-15.8c-2-0.3-3.3-2.2-3-4.2c0.3-2,2.3-3.4,4.3-3
					c1.2,0.2,11.6,2.5,13.1,22.5c0.2,2-1.4,3.8-3.4,4C570.2,293.7,570.1,293.7,570,293.7z"/>
			</g>
			<g>
				<path class="st3" d="M557.9,300.6c0,0,10.6-21.3,25.2-12.5c14.7,8.7,0.6,23.9-3.4,27.9"/>
				<path class="st5" d="M579.7,319.7c-0.9,0-1.9-0.4-2.6-1.1c-1.5-1.4-1.5-3.8,0-5.2c6.1-6.2,9.3-12.1,8.8-16.2
					c-0.3-2.3-1.8-4.2-4.7-5.9c-2.6-1.6-5.1-2-7.7-1.2c-6,1.7-10.9,9.4-12.3,12.2c-0.9,1.8-3.1,2.6-5,1.7c-1.8-0.9-2.6-3.1-1.7-5
					c0.3-0.5,6.5-13,16.8-16c4.6-1.3,9.1-0.7,13.6,1.9c4.9,2.9,7.6,6.7,8.2,11.4c1.1,8.3-5.3,16.7-10.9,22.4
					C581.6,319.3,580.6,319.7,579.7,319.7z"/>
			</g>
		</g>
		<g>
			<path class="st3" d="M778.4,355.5c1.6,2.7,10.8,13.3,13.8,16.4c0,0-9,36.1,21.4,54.3c30.5,18.1,54.9-3.3,59-13.6
				c3.7-9.2,4-16,1.7-23.2l-0.3-0.1c5.9-15.2,15.2-48.2,8.7-78.9c-9.5-44.5-67.7-70.8-85.4-78.2l-12.2-5.8"/>
		</g>
		<g>
			<path class="st5" d="M870.8,400.2c-0.6,0-1.2-0.1-1.8-0.4c-1.8-1-2.5-3.2-1.5-5c3.5-6.4,19.4-46.7,11.5-83.7
				c-8.2-38.8-55.7-64-83.2-75.6c-1.2-0.5-2.1-1.6-2.2-2.9l-1.5-11.3c-0.3-2,1.1-3.9,3.2-4.2c2-0.3,3.9,1.1,4.2,3.2l1.3,9.2
				c29.1,12.5,76.9,38.9,85.7,80c8.3,39.1-7.8,80.6-12.3,88.8C873.4,399.5,872.2,400.2,870.8,400.2z"/>
		</g>
		<g>
			<path class="st5" d="M837.4,436.8c-7.4,0-16.2-1.9-25.7-7.5c-28.2-16.8-24.9-48.1-23.5-56.3c-3.6-3.9-11.3-12.7-13-15.7
				c-1-1.8-0.4-4,1.3-5.1c1.8-1,4-0.4,5.1,1.3c1.3,2.2,10,12.3,13.3,15.7c0.9,0.9,1.2,2.2,0.9,3.5c-0.3,1.4-7.9,33.7,19.7,50.2
				c11.2,6.6,22.8,8.2,33.5,4.6c10.9-3.7,18.3-11.8,20.1-16.4c3.2-8.1,3.7-14.1,1.6-20.7c-0.6-1.9,0.5-4,2.4-4.7
				c1.9-0.6,4,0.5,4.7,2.4c2.6,8.3,2.1,16-1.8,25.7c-2.8,7.1-12.2,16.4-24.7,20.6C847.7,435.8,842.9,436.8,837.4,436.8z"/>
		</g>
		<g>
			<path class="st4" d="M770.4,102.5c1.1-12.6-7.9-24.4-20.4-26.7c-13-2.4-25.3,5.6-28.7,17.8c-0.4,1.3,0.1,2.8,1.2,3.6
				c7,5,22.6,18.7,28.4,25.6c1,1.1,2.5,1.5,3.9,0.9C763.2,120.3,769.5,112.4,770.4,102.5z"/>
		</g>
	</g>
</g>
</svg>
