<svg xmlns:xlink="http://www.w3.org/1999/xlink" viewBox="0 0 200 200" width="200" height="200" xmlns="http://www.w3.org/2000/svg" role="presentation" style="width: inherit; height: inherit; line-height: inherit; color: inherit;"><g fill-rule="evenodd" clip-rule="evenodd"><path fill="#3E82F1" d="M180 101.856c0-5.79-.519-11.356-1.484-16.701h-76.883v31.582h43.933c-1.892 10.206-7.644 18.853-16.289 24.643v20.486h26.382C171.095 147.652 180 126.721 180 101.856zm0 0"></path><path fill="#32A753" d="M101.633 181.647c22.041 0 40.52-7.311 54.026-19.781l-26.382-20.486c-7.31 4.899-16.661 7.794-27.644 7.794c-21.262 0-39.258-14.363-45.677-33.661H28.683v21.154c13.432 26.684 41.038 44.98 72.95 44.98zm0 0"></path><path fill="#F9BB00" d="M55.955 115.513c-1.633-4.899-2.56-10.131-2.56-15.513c0-5.381.928-10.614 2.56-15.513V63.333H28.683C23.154 74.356 20 86.825 20 100s3.154 25.645 8.683 36.667l27.272-21.154zm0 0"></path><path fill="#E74133" d="M101.633 50.826c11.985 0 22.746 4.12 31.206 12.21l23.413-23.418c-14.137-13.175-32.616-21.266-54.619-21.266c-31.911 0-59.518 18.297-72.95 44.98l27.273 21.154c6.418-19.297 24.415-33.66 45.677-33.66zm0 0"></path></g></svg>