<svg xmlns:xlink="http://www.w3.org/1999/xlink" width="185" height="62" viewBox="0 0 185 62" fill="none" xmlns="http://www.w3.org/2000/svg" class="react-app-store-sites__icon" role="presentation"> <path d="M169.899 0.000154H14.7087C14.143 0.000154 13.5841 0.000153999 13.0198 0.00323399C12.5476 0.00631398 12.0791 0.015246 11.6023 0.0227919C10.5664 0.0349558 9.53296 0.125925 8.51094 0.294909C7.49035 0.467573 6.50173 0.793102 5.57852 1.26049C4.65647 1.73185 3.81398 2.34432 3.08159 3.07568C2.34536 3.80493 1.73164 4.64785 1.26405 5.57201C0.795147 6.49443 0.470018 7.48289 0.299891 8.50324C0.128134 9.52227 0.0357098 10.553 0.0234482 11.5863C0.00910162 12.0585 0.00755897 12.5322 0 13.0045V48.6003C0.00755897 49.0784 0.00910162 49.5417 0.0234482 50.0202C0.0357214 51.0533 0.128145 52.084 0.299891 53.1029C0.469561 54.1238 0.794708 55.1128 1.26405 56.0355C1.73142 56.9568 2.34522 57.7963 3.08159 58.5215C3.8112 59.2561 4.65424 59.869 5.57852 60.3367C6.50173 60.8054 7.49024 61.1328 8.51094 61.3082C9.53313 61.4758 10.5665 61.5668 11.6023 61.5804C12.0789 61.5909 12.5476 61.5969 13.0199 61.5969C13.5841 61.6 14.143 61.6 14.7087 61.6H169.899C170.454 61.6 171.017 61.6 171.571 61.5969C172.041 61.5969 172.524 61.5909 172.994 61.5804C174.027 61.5675 175.059 61.4765 176.079 61.3082C177.103 61.1316 178.095 60.8042 179.023 60.3367C179.946 59.8687 180.788 59.2559 181.517 58.5215C182.252 57.7935 182.867 56.9545 183.34 56.0355C183.806 55.1121 184.128 54.1232 184.295 53.1029C184.467 52.0838 184.563 51.0533 184.581 50.02C184.588 49.5417 184.588 49.0784 184.588 48.6003C184.6 48.0408 184.6 47.4844 184.6 46.9158V14.6859C184.6 14.1218 184.6 13.5624 184.588 13.0045C184.588 12.5322 184.588 12.0585 184.581 11.5862C184.563 10.5528 184.467 9.52225 184.295 8.50309C184.128 7.48343 183.805 6.49516 183.34 5.57217C182.388 3.71961 180.878 2.21164 179.023 1.26033C178.095 0.794094 177.103 0.468651 176.079 0.294755C175.059 0.125053 174.028 0.0340773 172.994 0.0226379C172.524 0.015092 172.041 0.00600599 171.571 0.00307999C171.017 0 170.454 0 169.899 0L169.899 0.000154Z" fill="black"></path> <path d="M13.0274 60.2525C12.5573 60.2525 12.0987 60.2465 11.6324 60.2361C10.6664 60.2235 9.70261 60.1396 8.74901 59.985C7.85983 59.8321 6.99846 59.5477 6.19331 59.1411C5.39551 58.738 4.66786 58.2094 4.03823 57.5756C3.39943 56.9492 2.8676 56.2228 2.4638 55.425C2.0556 54.622 1.7731 53.7613 1.62614 52.8729C1.4675 51.9183 1.38168 50.953 1.36945 49.9854C1.35958 49.6606 1.34677 48.5794 1.34677 48.5794V13.0044C1.34677 13.0044 1.36035 11.9396 1.36945 11.6267C1.3812 10.6607 1.46655 9.69693 1.62476 8.74383C1.772 7.85297 2.05474 6.9898 2.46319 6.1842C2.86543 5.38694 3.39424 4.65991 4.02913 4.03129C4.66334 3.39669 5.39335 2.86535 6.19254 2.45664C6.99585 2.05146 7.85561 1.76911 8.74299 1.61904C9.69974 1.46291 10.6669 1.37854 11.6362 1.36663L13.0282 1.34753H171.564L172.972 1.36709C173.933 1.37848 174.891 1.46219 175.839 1.6175C176.736 1.76949 177.605 2.05387 178.417 2.46126C180.018 3.2849 181.321 4.588 182.143 6.1879C182.545 6.98797 182.823 7.84414 182.968 8.72735C183.128 9.68825 183.218 10.6595 183.236 11.6335C183.241 12.0696 183.241 12.5381 183.241 13.0044C183.253 13.5819 183.253 14.1315 183.253 14.6857V46.9157C183.253 47.4752 183.253 48.0211 183.241 48.5715C183.241 49.0723 183.241 49.5311 183.235 50.0032C183.217 50.9599 183.129 51.9139 182.971 52.8576C182.827 53.7525 182.546 54.6199 182.138 55.4294C181.731 56.2185 181.203 56.9387 180.571 57.5634C179.941 58.2006 179.212 58.7323 178.413 59.138C177.602 59.5477 176.735 59.8331 175.839 59.9847C174.886 60.1402 173.922 60.2242 172.956 60.2359C172.495 60.2467 172.033 60.2522 171.572 60.2524L169.899 60.2555L13.0274 60.2525Z" fill="#F9FAFB"></path> <path d="M64.8401 17.9981C64.8401 19.1436 64.5009 20.0558 63.8214 20.7363C63.0496 21.5455 62.0438 21.9503 60.8072 21.9503C59.623 21.9503 58.6162 21.5402 57.7882 20.7187C56.9588 19.8978 56.5448 18.8798 56.5448 17.6653C56.5448 16.4503 56.9588 15.4329 57.7882 14.6114C58.6162 13.7905 59.623 13.3798 60.8072 13.3798C61.3948 13.3798 61.9573 13.4947 62.4914 13.7238C63.0255 13.9535 63.454 14.2584 63.7745 14.6402L63.0533 15.3618C62.5101 14.7129 61.7623 14.3887 60.8072 14.3887C59.9436 14.3887 59.1968 14.6921 58.5666 15.2993C57.9362 15.9072 57.6211 16.6954 57.6211 17.6653C57.6211 18.6353 57.9362 19.4235 58.5666 20.0314C59.1968 20.6386 59.9435 20.942 60.8072 20.942C61.7234 20.942 62.4872 20.637 63.0987 20.026C63.4957 19.628 63.7252 19.0748 63.7867 18.3644H60.8071V17.379H64.7829C64.8213 17.5933 64.8401 17.7989 64.8401 17.9981Z" fill="#192024"></path> <path d="M64.8401 17.9981L64.7034 17.9981C64.7023 19.1175 64.3753 19.987 63.7247 20.6397L63.7233 20.6408L63.7227 20.6419C62.9754 21.4231 62.0149 21.812 60.8072 21.8136C59.6546 21.812 58.6899 21.4189 57.8844 20.622C57.0806 19.8236 56.6831 18.8488 56.6816 17.6653C56.6831 16.4813 57.0806 15.5071 57.8844 14.7092C58.6899 13.9118 59.6546 13.5181 60.8072 13.5165C61.3772 13.5165 61.9199 13.6277 62.4374 13.8493C62.9555 14.0726 63.3648 14.3652 63.6697 14.7285L63.7745 14.6402L63.6778 14.5436L62.9566 15.2656L63.0533 15.3618L63.1586 15.2743C62.5902 14.5932 61.7923 14.2499 60.8072 14.252C59.9116 14.2509 59.1237 14.5709 58.472 15.2011C57.8139 15.8334 57.4833 16.6661 57.4844 17.6653C57.4833 18.6647 57.8139 19.4972 58.472 20.1296C59.1237 20.7599 59.9116 21.0798 60.8072 21.0787C61.7537 21.0804 62.5604 20.7593 63.1954 20.1227C63.6195 19.6975 63.8599 19.1085 63.923 18.3762L63.9357 18.2277H60.944V17.5158H64.7829L64.7829 17.379L64.6483 17.4031C64.6857 17.6104 64.7034 17.8074 64.7034 17.9981H64.9768C64.9768 17.7903 64.9576 17.5767 64.9175 17.3546L64.8972 17.2423H60.6705V18.5011H63.7867L63.7867 18.3644L63.6505 18.3527C63.5902 19.0407 63.3711 19.5587 63.0021 19.9294C62.4145 20.5147 61.6934 20.8036 60.8072 20.8053C59.9757 20.8042 59.2701 20.5179 58.6617 19.9331C58.0592 19.3504 57.7595 18.6064 57.7579 17.6653C57.7595 16.7243 58.0592 15.9803 58.6617 15.3976C59.2701 14.8128 59.9756 14.5265 60.8072 14.5254C61.7319 14.5276 62.4301 14.8331 62.9488 15.4499L63.0449 15.5642L63.9598 14.6484L63.8791 14.5526C63.5432 14.1522 63.0956 13.8343 62.5454 13.5983C61.9942 13.3616 61.4125 13.243 60.8072 13.243C59.5916 13.242 58.5426 13.6692 57.6916 14.5148C56.8376 15.3586 56.4071 16.4194 56.4082 17.6653C56.4071 18.9108 56.8376 19.9721 57.6922 20.8164C58.5426 21.6614 59.5916 22.0882 60.8072 22.0871C62.0732 22.0882 63.1234 21.6678 63.9203 20.8308L63.8214 20.7363L63.9181 20.833C64.6264 20.1253 64.9778 19.1693 64.9768 17.9981L64.8401 17.9981ZM71.1429 14.5714H67.4066V17.1725H70.7761V18.1582H67.4066V20.7593H71.1429V21.7671H66.3533V13.5636H71.1429V14.5714Z" fill="#192024"></path> <path d="M71.1429 14.5714L71.1429 14.4346H67.2699V17.3092H70.6393V18.0211L67.2698 18.0215V20.896H71.0061V21.6304H66.4901V13.7003H71.0061V14.5714L71.1429 14.5714L71.2796 14.5714V13.4268H66.2166V21.9038H71.2796V20.6226H67.5433V18.2949H70.9128V17.0357H67.5433V14.7081H71.2796V14.5714L71.1429 14.5714ZM75.5886 21.7672H74.5337V14.5713H72.2421V13.5635H77.8801V14.5713H75.5886V21.7672Z" fill="#192024"></path> <path d="M75.5886 21.7672L75.5886 21.6304H74.6704V14.4346H72.3789V13.7003H77.7433V14.4346H75.4519V21.7671L75.5886 21.7672L75.7253 21.7671V14.7081H78.0168V13.4268H72.1054V14.708H74.3969V21.9038H75.7253V21.7671L75.5886 21.7672ZM81.9593 21.7672V13.5635H83.0132V21.7671L81.9593 21.7672Z" fill="#192024"></path> <path d="M81.9593 21.7672H82.096V13.7003H82.8764V21.6304H81.9593L81.9593 21.7672L81.9593 21.9038H83.1498V13.4268H81.8226V21.9038H81.9593L81.9593 21.7672ZM87.6895 21.7672H86.6346V14.5713H84.3432V13.5635H89.981V14.5713H87.6895V21.7672Z" fill="#192024"></path> <path d="M87.6895 21.7672L87.6896 21.6304H86.7714V14.4346H84.48V13.7003H89.8443V14.4346H87.5528V21.7671L87.6895 21.7672L87.8263 21.7671V14.7081H90.1178V13.4268H84.2065V14.708H86.4979V21.9038H87.8263V21.7671L87.6895 21.7672ZM95.4165 20.0202C96.0238 20.6349 96.7668 20.9419 97.6455 20.9419C98.5242 20.9419 99.2676 20.6349 99.8739 20.0202C100.482 19.4055 100.786 18.6197 100.786 17.6653C100.786 16.711 100.482 15.9252 99.8739 15.3105C99.2676 14.6958 98.5242 14.3887 97.6455 14.3887C96.7668 14.3887 96.0238 14.6958 95.4165 15.3105C94.8102 15.9252 94.5058 16.711 94.5058 17.6653C94.5058 18.6197 94.8102 19.4055 95.4165 20.0202ZM100.654 20.7069C99.8472 21.5363 98.8441 21.9503 97.6455 21.9503C96.4458 21.9503 95.4431 21.5363 94.6383 20.7069C93.8312 19.8785 93.4295 18.8644 93.4295 17.6653C93.4295 16.4662 93.8312 15.452 94.6383 14.6237C95.4432 13.7942 96.4458 13.3798 97.6455 13.3798C98.8377 13.3798 99.8381 13.7964 100.648 14.6291C101.458 15.4617 101.863 16.4737 101.863 17.6653C101.863 18.8644 101.459 19.8785 100.654 20.7069Z" fill="#192024"></path> <path d="M95.4165 20.0202L95.3192 20.1163C95.9491 20.7556 96.7348 21.0804 97.6455 21.0787C98.5556 21.0804 99.3424 20.7556 99.9712 20.1163C100.605 19.4764 100.924 18.6486 100.923 17.6653C100.924 16.6822 100.605 15.8543 99.9712 15.2144C99.3424 14.5751 98.5556 14.2504 97.6455 14.252C96.7348 14.2504 95.9491 14.5751 95.3192 15.2144C94.6868 15.8543 94.3674 16.6822 94.369 17.6653C94.3674 18.6485 94.6868 19.4764 95.3192 20.1163L95.4165 20.0202L95.5138 19.924C94.9337 19.3338 94.6436 18.5914 94.6425 17.6653C94.6436 16.7393 94.9337 15.9969 95.5137 15.4066C96.0991 14.8165 96.7983 14.5271 97.6455 14.5255C98.492 14.5271 99.1928 14.8165 99.7767 15.4066C100.358 15.9969 100.648 16.7393 100.649 17.6653C100.648 18.5914 100.358 19.3338 99.7767 19.924C99.1928 20.5142 98.4921 20.8036 97.6455 20.8052C96.7983 20.8036 96.0991 20.5142 95.5138 19.924L95.4165 20.0202ZM100.654 20.7069L100.556 20.612C99.7719 21.4152 98.8131 21.812 97.6455 21.8136C96.4773 21.812 95.5185 21.4152 94.7359 20.612C93.9535 19.8059 93.5674 18.834 93.5663 17.6653C93.5674 16.4967 93.9535 15.5247 94.7359 14.7188C95.5185 13.9155 96.4773 13.5181 97.6455 13.5166C98.8056 13.5181 99.7622 13.9171 100.551 14.7246C101.336 15.5343 101.724 16.5048 101.726 17.6653C101.724 18.834 101.337 19.8059 100.556 20.612L100.654 20.7069L100.752 20.8019C101.581 19.9507 102 18.8948 101.999 17.6653C102 16.4429 101.579 15.3891 100.747 14.5341C99.9134 13.6756 98.8697 13.2416 97.6455 13.243C96.4148 13.2416 95.3679 13.6736 94.54 14.5287V14.5281C93.7094 15.38 93.2917 16.4359 93.2928 17.6653C93.2917 18.8948 93.7094 19.9507 94.54 20.8025L94.5437 20.8064L94.54 20.8019C95.3679 21.6571 96.4148 22.0882 97.6455 22.0871C98.8756 22.0882 99.9225 21.6571 100.752 20.8019L100.654 20.7069ZM103.342 21.7672V13.5635H104.625L108.612 19.9453H108.658L108.612 18.3644V13.5635H109.667V21.7671H108.567L104.395 15.076H104.35L104.395 16.6575V21.7671L103.342 21.7672Z" fill="#192024"></path> <path d="M103.342 21.7672L103.479 21.7672V13.7003H104.549L108.537 20.0821H108.798L108.749 18.3624V13.7003H109.531V21.6304H108.643L104.471 14.9393H104.21L104.259 16.6597V21.6304H103.342L103.342 21.7672L103.342 21.9038H104.532V16.6554L104.487 15.0724L104.35 15.076L104.35 15.2128H104.395L104.395 15.076L104.279 15.1487L108.491 21.9038H109.804V13.4268H108.476V18.366L108.521 19.9491L108.658 19.9453L108.658 19.8086H108.612L108.612 19.9453L108.728 19.8728L104.701 13.4268H103.205V21.9038H103.342L103.342 21.7672ZM146.225 45.0106H148.776V27.9182H146.225L146.225 45.0106ZM169.207 34.0753L166.282 41.4857H166.194L163.159 34.0752H160.41L164.962 44.4326L162.367 50.1939H165.029L172.044 34.0752L169.207 34.0753ZM154.737 43.0692C153.9 43.0692 152.735 42.6515 152.735 41.6176C152.735 40.2983 154.187 39.7926 155.44 39.7926C156.562 39.7926 157.089 40.0344 157.771 40.3647C157.573 41.9476 156.209 43.0692 154.737 43.0692ZM155.044 33.7013C153.197 33.7013 151.284 34.5152 150.492 36.3184L152.757 37.2637C153.241 36.3184 154.142 36.0102 155.088 36.0102C156.408 36.0102 157.749 36.8022 157.771 38.2096V38.3853C157.309 38.1214 156.32 37.7257 155.11 37.7257C152.669 37.7257 150.183 39.0667 150.183 41.5737C150.183 43.8607 152.185 45.3342 154.428 45.3342C156.144 45.3342 157.089 44.5646 157.684 43.6631H157.771V44.9823H160.234V38.429C160.234 35.3949 157.969 33.7013 155.044 33.7013ZM139.276 36.1559H135.646V30.2971H139.276C141.183 30.2971 142.266 31.8763 142.266 33.2264C142.266 34.551 141.183 36.1559 139.276 36.1559ZM139.21 27.9182H133.096V45.0106H135.646V38.5348H139.21C142.038 38.5348 144.818 36.4876 144.818 33.2264C144.818 29.9654 142.038 27.9182 139.21 27.9182ZM105.871 43.0724C104.108 43.0724 102.633 41.5967 102.633 39.5698C102.633 37.5217 104.108 36.0235 105.871 36.0235C107.612 36.0235 108.977 37.5216 108.977 39.5698C108.977 41.5967 107.611 43.0724 105.871 43.0724ZM108.801 35.0323H108.713C108.14 34.3496 107.038 33.7329 105.651 33.7329C102.743 33.7329 100.077 36.2879 100.077 39.5698C100.077 42.83 102.743 45.3631 105.651 45.3631C107.038 45.3631 108.14 44.7462 108.713 44.0417H108.801V44.8786C108.801 47.1037 107.612 48.2931 105.695 48.2931C104.131 48.2931 103.162 47.1694 102.765 46.2224L100.54 47.1475C101.179 48.6893 102.875 50.5838 105.695 50.5838C108.691 50.5838 111.224 48.8213 111.224 44.5262V34.0854H108.801V35.0323ZM112.987 45.0106H115.542V27.9176H112.987V45.0106ZM119.309 39.3717C119.243 37.1248 121.049 35.9797 122.349 35.9797C123.363 35.9797 124.222 36.486 124.508 37.2135L119.309 39.3717ZM127.24 37.4335C126.756 36.1335 125.279 33.7329 122.261 33.7329C119.265 33.7329 116.776 36.0897 116.776 39.548C116.776 42.8081 119.243 45.3631 122.547 45.3631C125.213 45.3631 126.756 43.733 127.394 42.786L125.411 41.4642C124.751 42.4336 123.847 43.0724 122.547 43.0724C121.248 43.0724 120.323 42.4774 119.727 41.3103L127.504 38.0942L127.24 37.4335ZM65.285 35.5172V37.9841H71.1888C71.0126 39.3717 70.5499 40.3849 69.8449 41.0898C68.986 41.9492 67.6422 42.8961 65.285 42.8961C61.65 42.8961 58.8085 39.9666 58.8085 36.3321C58.8085 32.6977 61.65 29.7678 65.285 29.7678C67.2458 29.7678 68.6773 30.5389 69.7348 31.5302L71.4751 29.7902C69.9993 28.3802 68.0385 27.3009 65.285 27.3009C60.3062 27.3009 56.1207 31.354 56.1207 36.3321C56.1207 41.3103 60.3062 45.3631 65.285 45.3631C67.9728 45.3631 69.9993 44.4824 71.5852 42.83C73.2154 41.1999 73.7223 38.9092 73.7223 37.0591C73.7223 36.486 73.6785 35.9578 73.5898 35.5172H65.285ZM80.4344 43.0724C78.6716 43.0724 77.1515 41.6185 77.1515 39.548C77.1515 37.4553 78.6716 36.0235 80.4344 36.0235C82.1964 36.0235 83.7165 37.4553 83.7165 39.548C83.7165 41.6186 82.1964 43.0724 80.4344 43.0724ZM80.4344 33.7329C77.2177 33.7329 74.5961 36.1778 74.5961 39.548C74.5961 42.8961 77.2177 45.3631 80.4344 45.3631C83.6504 45.3631 86.2719 42.8961 86.2719 39.548C86.2719 36.1778 83.6504 33.7329 80.4344 33.7329ZM93.1692 43.0724C91.4072 43.0724 89.8869 41.6185 89.8869 39.548C89.8869 37.4553 91.4072 36.0235 93.1693 36.0235C94.9314 36.0235 96.4516 37.4553 96.4516 39.548C96.4516 41.6186 94.9314 43.0724 93.1692 43.0724ZM93.1692 33.7329C89.9527 33.7329 87.3317 36.1778 87.3317 39.548C87.3317 42.8961 89.9527 45.3631 93.1693 45.3631C96.3854 45.3631 99.007 42.8961 99.007 39.548C99.007 36.1778 96.3853 33.7329 93.1692 33.7329Z" fill="#192024"></path> <path fill-rule="evenodd" clip-rule="evenodd" d="M28.9338 31.4434L12.8782 47.4718C12.7674 47.1508 12.7054 46.7773 12.7054 46.3519V16.5348C12.7054 16.1102 12.7676 15.7369 12.8786 15.4155L28.9338 31.4434ZM42.4743 29.4968L36.6495 26.1928L31.3901 31.4432L36.6495 36.6935L42.4743 33.3895C44.3615 32.3192 44.3615 30.5674 42.4743 29.4968ZM30.162 30.2173L35.083 25.3045L16.1371 14.558C15.3742 14.1253 14.67 14.0186 14.0986 14.1814L30.162 30.2173ZM30.162 32.6694L14.0988 48.7054C14.6712 48.868 15.3763 48.7603 16.1371 48.3287L35.083 37.5822L30.162 32.6694Z" fill="#192024"></path> </svg>