<svg width="654" height="163" version="1.1" xmlns="http://www.w3.org/2000/svg" xmlns:xlink="http://www.w3.org/1999/xlink" x="0px" y="0px" viewBox="0 0 654 163" style="width:inherit;height:inherit;line-height:inherit;color:inherit" xml:space="preserve" role="presentation"><!--?xml version="1.0" encoding="utf-8"?--> <!-- Generator: Adobe Illustrator 27.4.0, SVG Export Plug-In . SVG Version: 6.00 Build 0) --> <style type="text/css"> .st0{fill:#FFFFFF;} </style> <g id="레이어_3"> </g> <g id="레이어_1"> <g> <g> <path class="st0" d="M54,137.1l-27.5-13.8c-1.4-0.7-2.3-2.2-2.3-3.7V22.5c0-1.9,2-3.1,3.6-2.2L55.3,34c1.4,0.7,2.3,2.2,2.3,3.7 v97.1C57.7,136.8,55.7,138,54,137.1z" fill="#FFFFFF"></path> <path class="st0" d="M147.8,137.1l-27.5-13.8c-1.4-0.7-2.3-2.2-2.3-3.7V22.5c0-1.9,2-3.1,3.6-2.2L149.1,34 c1.4,0.7,2.3,2.2,2.3,3.7v97.1C151.4,136.8,149.4,138,147.8,137.1z" fill="#FFFFFF"></path> <path class="st0" d="M74.7,76.9l27.5-13.8c1.4-0.7,2.3-2.2,2.3-3.7V22.5c0-1.9-2-3.1-3.6-2.2L73.4,34c-1.4,0.7-2.3,2.2-2.3,3.7 v36.9C71.1,76.5,73,77.7,74.7,76.9z" fill="#FFFFFF"></path> <path class="st0" d="M74.7,137.1l27.5-13.8c1.4-0.7,2.3-2.2,2.3-3.7V82.8c0-1.9-2-3.1-3.6-2.2L73.4,94.3C72,95,71.1,96.4,71.1,98 v36.9C71.1,136.8,73,138,74.7,137.1z" fill="#FFFFFF"></path> </g> <g> <path class="st0" d="M429.8,85h75.8c0.6,0,1.1-0.5,1.1-1.1V72.6c0-0.6-0.5-1.1-1.1-1.1h-60.1v-6.8h57.3c0.6,0,1.1-0.5,1.1-1.1 V52.6c0-0.6-0.5-1.1-1.1-1.1h-57.3v-6.7h58.9c0.6,0,1.1-0.5,1.1-1.1V32.3c0-0.6-0.5-1.1-1.1-1.1h-74.6c-0.6,0-1.1,0.5-1.1,1.1 v51.5C428.6,84.5,429.2,85,429.8,85z" fill="#FFFFFF"></path> <path class="st0" d="M228.2,31.1c0-0.6-0.5-1.1-1.1-1.1h-15c-0.6,0-1.1,0.5-1.1,1.1v18.5h-26.1c-0.6,0-1.1,0.5-1.1,1.1v13.2 c0,0.6,0.5,1.1,1.1,1.1h14.4c-6,3.7-10.3,9.7-10.3,19.5c0,15.9,13.6,27.9,30.6,27.9s30.6-11.9,30.6-27.9 c0-9.7-4.3-15.8-10.3-19.5h15.5V49.6h-27.2V31.1z M219.5,97.9c-7.6,0-14.5-5.7-14.5-15.2c0-8.5,7-15.2,14.5-15.2 c7.6,0,14.5,6.7,14.5,15.2C234,92.1,227.1,97.9,219.5,97.9z" fill="#FFFFFF"></path> <path class="st0" d="M620.9,28.4h-14.7c-0.6,0-1.1,0.5-1.1,1.1v33.2h-13.9c-3.4-15.1-16.6-25.1-32.5-25.1 c-18.6,0-32.9,13.5-32.9,32.9s14.4,33.3,32.9,33.3c15.8,0,29-10,32.5-25.1H605v56.3c0,0.8,0.7,1.3,1.5,1.1l14.7-4.3 c0.5-0.1,0.8-0.6,0.8-1.1V29.5C622,28.9,621.5,28.4,620.9,28.4z M558.6,88c-10.1,0-16.4-7.7-16.4-17.3s6.3-17,16.4-17 s16.9,7.4,16.9,17C575.4,80.1,568.6,88,558.6,88z" fill="#FFFFFF"></path> <path class="st0" d="M518.1,91.7H415.4c-0.6,0-1.1,0.5-1.1,1.1v12.7c0,0.6,0.5,1.1,1.1,1.1h42.8v29.4c0,0.8,0.7,1.3,1.5,1.1 l15-4.4c0.5-0.1,0.8-0.6,0.8-1.1v-25h42.6c0.6,0,1.1-0.5,1.1-1.1V92.8C519.3,92.2,518.8,91.7,518.1,91.7z" fill="#FFFFFF"></path> <path class="st0" d="M295.9,62.7h-18V29.5c0-0.6-0.5-1.1-1.1-1.1h-14.9c-0.6,0-1.1,0.5-1.1,1.1v106.5c0,0.8,0.7,1.3,1.5,1.1 l14.9-4.4c0.5-0.1,0.8-0.6,0.8-1.1V78.8h18c0.6,0,1.1-0.5,1.1-1.1V63.9C297,63.3,296.5,62.7,295.9,62.7z" fill="#FFFFFF"></path> <path class="st0" d="M410.2,62.7h-18V29.5c0-0.6-0.5-1.1-1.1-1.1h-14.7c-0.6,0-1.1,0.5-1.1,1.1v55.9c-16.9,3.8-39.5,4.7-50.1,4.7 h-0.8V34.5c0-0.6-0.5-1.1-1.1-1.1h-14.9c-0.6,0-1.1,0.5-1.1,1.1v70.9c0,0.6,0.5,1.1,1.1,1.1h9.5c21.9,0,42-1.5,57.4-4.4v34 c0,0.8,0.7,1.3,1.5,1.1l14.7-4.4c0.5-0.1,0.8-0.6,0.8-1.1V78.8h18c0.6,0,1.1-0.5,1.1-1.1V63.9C411.3,63.3,410.8,62.7,410.2,62.7z " fill="#FFFFFF"></path> </g> </g> </g> <g id="레이어_2"> </g> </svg>