<svg xmlns:xlink="http://www.w3.org/1999/xlink" width="1303.3" height="227.8" xmlns="http://www.w3.org/2000/svg" xml:space="preserve" id="Hotels_Horizontal_Logo_Mono_White" x="0" y="0" style="width:inherit;height:inherit;line-height:inherit;color:inherit" version="1.1" viewBox="0 0 1303.3 227.8" role="presentation"><style>.hotelscom0{fill:#fff}</style><path d="M766 126c3.2-22.5 15-37.2 38.4-37.2 24 0 36.7 13.8 38.5 37.2H766zm39-59.3c-37.5 0-67.4 27-67.4 71.7 0 45.8 26.4 73.9 70.9 73.9 25.6 0 46.9-11.3 60.1-27 .8-.8 1.1-1.6 1.1-2.4s-.3-1.6-1.1-2.4l-12.4-12.1c-.8-.8-1.6-1.1-2.4-1.1s-1.6.5-2.4 1.4c-10.2 11.1-23.5 20.5-42.6 20.5-27.9 0-41.3-17.2-43.4-42.1h103.5c1.9 0 3.2-1.4 3.2-3.2v-5.4c0-41-24.8-71.8-67.1-71.8zM447.2 19.5h-22.4c-1.9 0-3.2 1.4-3.2 3.2v75.5h-90.9V22.8c0-1.9-1.3-3.2-3.2-3.2h-22.4c-1.9 0-3.2 1.4-3.2 3.2V205c0 1.9 1.3 3.2 3.2 3.2h22.4c1.9 0 3.2-1.4 3.2-3.2v-81.4h90.9V205c0 1.9 1.3 3.2 3.2 3.2h22.4c1.9 0 3.2-1.4 3.2-3.2V22.8c.1-1.9-1.3-3.3-3.2-3.3zM921.2 19.5h-21.6c-1.9 0-3.2 1.4-3.2 3.2V205c0 1.9 1.3 3.2 3.2 3.2h21.6c1.9 0 3.2-1.4 3.2-3.2V22.8c0-1.9-1.4-3.3-3.2-3.3zM549.2 188.6c-29.9 0-45.8-22.4-45.8-49.1 0-26.7 15.9-49.1 45.8-49.1s45.8 22.4 45.8 49.1c0 26.7-15.9 49.1-45.8 49.1zm0-121.9c-40.2 0-73.9 29.7-73.9 72.8 0 43.1 33.7 72.8 73.9 72.8s73.9-29.7 73.9-72.8-33.8-72.8-73.9-72.8zM721.1 71h-35V25.4c0-2.4-2.4-3.5-4-1.9l-21.8 21.8c-1.3 1.3-2.2 2.7-2.2 4.8V71h-24c-1.9 0-3.2 1.3-3.2 3.2v15.1c0 1.9 1.3 3.2 3.2 3.2h24v73.6c0 25.6 12.1 42.1 37.7 42.1h25.3c1.9 0 3.2-1.3 3.2-3.2v-17.2c0-1.9-1.3-3.2-3.2-3.2h-17.8c-12.7 0-17.2-4.9-17.2-17.5V92.6h35c1.9 0 3.2-1.3 3.2-3.2V74.3c.1-1.9-1.3-3.3-3.2-3.3zM1085 196.5h-9.3c-.9 0-1.6.6-1.6 1.6v8.7c0 .9.6 1.6 1.6 1.6h9.3c.9 0 1.6-.6 1.6-1.6v-8.7c0-.9-.6-1.6-1.6-1.6zM1168.9 200.9c-8.7 0-13.1-5.9-13.1-13.7 0-7.5 4.3-13.7 13.1-13.7 8.7 0 13.1 6.2 13.1 13.7-.1 7.8-4.4 13.7-13.1 13.7zm0-35.7c-12.1 0-22.4 9-22.4 22.1 0 13.4 10.3 22.1 22.4 22.1s22.4-8.7 22.4-22.1c0-13.1-10.3-22.1-22.4-22.1zM1010.4 126c-22.1-4.8-32.9-8.6-32.9-20 0-10.8 9.7-17.2 27-17.2 15.4 0 27.5 7 35.3 18.1 1.1 1.6 3 1.9 4.6.8l14.6-9.4c1.6-1.1 2.2-2.7 1.1-4.6-11.9-18.1-30.7-27-55.3-27-27.5 0-52 13.5-52 41 0 28.9 22.9 36.4 53.1 42.9 21.3 4.6 30.7 8.1 30.7 20.8 0 12.4-11.1 18.9-29.7 18.9-19.4 0-31.8-7.6-40.4-20.2-1.1-1.9-3-2.4-4.9-1.1L947 179.1c-1.6 1.1-1.9 2.7-1.1 4.3 11 18.6 31.5 29.1 60.7 29.1 36.4 0 57.4-18.1 57.4-42.3 0-28.3-23.4-37.4-53.6-44.2zM1246.8 165.2c-6.2 0-10.3 2.5-13.7 6.5-2.2-3.7-6.8-6.5-12.4-6.5-5.9 0-9.6 2.8-11.8 5.9V168c0-.9-.6-1.6-1.6-1.6h-6.2c-.9 0-1.6.6-1.6 1.6v38.9c0 .9.6 1.6 1.6 1.6h6.5c.9 0 1.6-.6 1.6-1.6v-20.2c0-7.8 2.2-13.1 9-13.1 5.9 0 7.8 3.4 7.8 9v24.2c0 .9.6 1.6 1.6 1.6h6.5c.9 0 1.6-.6 1.6-1.6v-20.2c0-7.8 2.5-13.1 9.3-13.1 5.6 0 7.8 3.4 7.8 9v24.2c0 .9.6 1.6 1.6 1.6h6.5c.9 0 1.6-.6 1.6-1.6v-25.5c-.2-9.5-6.1-16-15.7-16zM1136.2 194.4c-.9-.9-1.9-.6-2.5 0-4.3 4.7-7.2 6.5-11.8 6.5-7.8 0-11.8-5.9-11.8-13.7 0-7.5 3.4-13.7 11.5-13.7 5.3 0 8.1 2.2 10.9 5.3.6.6 1.6.9 2.5.3l3.7-3.1c.9-.6 1.6-1.6.6-2.8-3.4-4.7-9.3-8.1-17.7-8.1-12.8 0-21.1 8.7-21.1 22.1s8.4 22.4 20.8 22.4c8.7 0 14.9-3.7 19-9.3.6-.9.6-1.6 0-2.2l-4.1-3.7zM180.9 0H46.8C21 0 0 21 0 46.8v134.1c0 25.9 21 46.8 46.8 46.8h134.1c25.9 0 46.8-21 46.8-46.8V46.8C227.8 21 206.8 0 180.9 0zM81.2 123c0 1.9-1.3 3.2-3.2 3.2H55.8c-1.9 0-3.2-1.3-3.2-3.2v-22.1c0-1.9 1.3-3.2 3.2-3.2h22.1c1.9 0 3.2 1.3 3.2 3.2V123zm48.9 49c0 1.9-1.3 3.2-3.2 3.2h-22.1c-1.9 0-3.2-1.4-3.2-3.2v-22.1c0-1.9 1.3-3.2 3.2-3.2h22.1c1.9 0 3.2 1.4 3.2 3.2V172zm0-49c0 1.9-1.3 3.2-3.2 3.2h-22.1c-1.9 0-3.2-1.3-3.2-3.2v-22.1c0-1.9 1.3-3.2 3.2-3.2h22.1c1.9 0 3.2 1.3 3.2 3.2V123zm56.6-67.4v108.9c0 2.1-.8 3.5-2.1 4.9l-21.9 21.8c-1.6 1.6-4.1.5-4.1-1.9V69.1H38.4c-2.4 0-3.5-2.4-1.9-4.1l21.8-21.8c1.3-1.3 2.7-2.2 4.8-2.2H172c8.3 0 14.8 6.5 14.7 14.6zM1302.8 166.4h-2.7c-.5 0-.7 0-1 .5l-4.4 11.4-4.6-11.4c-.2-.5-.5-.5-1-.5h-2.7c-.2 0-.5.2-.5.5v13.6c0 .2.2.5.5.5h1.5c.2 0 .5-.2.5-.5v-11.9l4.9 11.9c.2.5.5.5 1 .5h1c.5 0 .7 0 1-.5l4.6-11.9v11.9c0 .2.2.5.5.5h1.5c.2 0 .5-.2.5-.5v-13.6c-.1-.3-.3-.5-.6-.5zM1282.9 166.4h-11.2c-.2 0-.5.2-.5.5v1.2c0 .2.2.5.5.5h4.4v11.9c0 .2.2.5.5.5h1.7c.2 0 .5-.2.5-.5v-11.9h4.1c.2 0 .5-.2.5-.5v-1.2c0-.3-.3-.5-.5-.5z" class="hotelscom0" fill="#FFFFFF"></path> </svg>