<svg xmlns:xlink="http://www.w3.org/1999/xlink" viewBox="0 0 200 200" xmlns="http://www.w3.org/2000/svg" width="200"  height="200" ><path d="M132.313 34.909c21.483.98 31.797 11.276 32.778 32.778c.668 14.642.668 49.977 0 64.625c-.98 21.483-11.276 31.797-32.778 32.778c-14.64.668-49.979.668-64.625 0c-21.483-.98-31.797-11.276-32.778-32.778c-.668-14.642-.668-49.977 0-64.625c.98-21.483 11.276-31.797 32.778-32.778c14.641-.668 49.976-.668 64.625 0zM67.031 20.516C38.273 21.828 21.85 37.812 20.516 67.031c-.688 15.09-.688 50.854 0 65.939c1.312 28.751 17.288 45.181 46.514 46.514c15.086.688 50.856.688 65.939 0c28.751-1.312 45.181-17.288 46.514-46.514c.688-15.09.688-50.854 0-65.939c-1.312-28.758-17.296-45.181-46.514-46.514c-15.089-.689-50.854-.689-65.938-.001zM100 58.937c-22.678 0-41.063 18.385-41.063 41.063S77.322 141.063 100 141.063s41.063-18.385 41.063-41.063c0-22.679-18.385-41.063-41.063-41.063zm0 67.718c-14.721 0-26.655-11.934-26.655-26.655c0-14.721 11.934-26.655 26.655-26.655c14.721 0 26.655 11.934 26.655 26.655c0 14.721-11.934 26.655-26.655 26.655z" fill="#FFFFFF"></path><circle cx="142.685" cy="57.315" r="9.596" fill="#FFFFFF"></circle></svg>