<svg width="160" height="160" viewBox="0 0 160 160" fill="none" xmlns="http://www.w3.org/2000/svg">
<path d="M160 80C160 35.9 124.1 0 80 0C35.9 0 0 35.9 0 80C0 124.1 35.9 160 80 160C124.1 160 160 124.1 160 80ZM80 10C118.6 10 150 41.4 150 80C150 96.3 144.4 111.3 135 123.2C134.5 122.5 134 121.8 133.3 121.2C130.1 118.1 116 114.1 106 111.6C115.5 101.4 119.9 86.1 119.9 73.3C119.9 44.6 106.4 30 79.9 30C53.4 30 39.9 44.6 39.8 73.3C39.8 86.1 44.2 101.4 53.7 111.6C43.8 114.1 29.7 118.1 26.5 121.1C25.9 121.7 25.3 122.3 24.8 123.1C15.6 111.2 10 96.2 10 80C10 41.4 41.4 10 80 10ZM32 130.9C32.6 129.5 33.1 128.8 33.3 128.5C36.7 126.3 58.4 120.5 65.8 119C70.3 118.1 71.3 112 67.2 109.7C56.8 103.9 49.8 89.2 49.8 73.3C50 50 59 40 80 40C100.7 40 110 50.3 110 73.3C110 89 102.8 104 92.6 109.7C88.6 111.9 89.5 118 94 118.9C103.6 121 123.4 126.3 126.6 128.4C126.9 128.7 127.4 129.5 128 130.8C100.9 156.3 59 156.4 32 130.9Z" fill="black"/>
</svg>
