<svg width="416" height="212" viewBox="0 0 416 212" fill="none" xmlns="http://www.w3.org/2000/svg">
    <g clip-path="url(#clip0)">
        <rect width="416" height="212" rx="8" fill="#DFEBFE"/>
        <path opacity="0.53" d="M220.192 158.944L146.08 202L108.784 180.496L182.896 137.44L220.192 158.944Z" fill="url(#paint0_linear)"/>
        <path d="M238.384 146.752C238.144 145.264 237.376 143.92 236.176 143.008C235.696 142.672 227.584 138.016 227.008 137.728L203.296 151.504C204.544 152.224 212.32 156.64 212.896 157.12C213.664 157.84 214.24 158.752 214.528 159.76C214.816 160.672 214.96 162.064 214 162.64C216.832 160.96 237.568 148.96 237.712 148.864C238.384 148.48 238.48 147.568 238.384 146.752Z" fill="#5FCDF8"/>
        <path d="M195.904 121.312C194.512 120.496 193.312 121.168 193.312 122.752C193.312 122.8 193.264 135.952 193.264 140.656C193.264 142.768 193.36 144.928 193.6 147.04C194.608 155.344 212.128 162.448 212.128 162.448C213.52 163.264 214.72 162.592 214.72 161.008C214.624 159.232 213.664 157.552 212.176 156.592L202.72 151.216C202.144 150.88 201.616 150.496 201.088 150.064C200.512 149.584 200.032 149.008 199.6 148.384C199.312 147.952 199.072 147.472 198.928 146.944C198.592 145.888 198.4 144.784 198.448 143.68C198.448 136.576 198.496 130.048 198.496 127.216C198.496 126.256 198.496 125.776 198.496 125.728C198.4 123.952 197.44 122.272 195.904 121.312Z" fill="#2DB9F0"/>
        <path d="M195.328 121.072C194.896 120.928 194.464 120.928 194.08 121.12L202.72 116.128L215.68 108.592L217.456 107.536C218.128 107.104 218.944 107.104 219.616 107.536C221.152 108.496 222.112 110.176 222.16 111.952C222.16 113.536 222.064 130.576 222.256 131.872C222.784 134.512 224.512 136.72 226.96 137.776L203.296 151.6C201.424 150.688 199.936 149.2 199.024 147.328C197.68 144.496 198.208 131.392 198.448 126.592C198.544 125.584 198.352 124.624 197.968 123.712C197.44 122.608 196.528 121.456 195.328 121.072Z" fill="url(#paint1_linear)"/>
        <path d="M159.808 91.5999C159.856 104.944 159.952 144.496 160 151.792C160 153.76 159.328 159.184 161.488 160.432C158.416 158.656 154.528 157.168 154.48 153.52C154.384 148 154.336 105.04 154.288 88.3359L159.808 91.5999Z" fill="#2DB9F0"/>
        <path d="M245.728 29.776C249.04 27.856 252.016 31.024 254.848 32.656C252.64 31.36 182.944 72.448 164.8 82.912L159.232 79.696L245.728 29.776Z" fill="#96E0FF"/>
        <path d="M164.8 82.9119C162.016 84.4959 159.808 88.3839 159.808 91.5519L160 157.168C160 160.336 162.256 161.632 165.04 160.048L251.488 110.128C254.272 108.544 256.48 104.656 256.48 101.488L256.288 35.9199C256.288 32.7519 254.032 31.4559 251.248 33.0399L164.8 82.9119Z" fill="#199ED6"/>
        <path d="M163.84 83.632C161.536 85.504 159.808 88.624 159.808 91.6L154.24 88.384C154.24 87.472 154.96 81.472 159.232 79.744L164.8 82.96C164.464 83.152 164.128 83.344 163.84 83.632Z" fill="#5FCDF8"/>
        <path d="M256.432 89.632L256.48 101.488C256.48 104.656 254.272 108.544 251.488 110.128L165.04 160.048C162.256 161.632 160 160.336 160 157.168L159.952 145.36L255.904 90.016C256.048 89.872 256.24 89.776 256.432 89.632Z" fill="#5FCDF8"/>
        <path d="M178.048 84.208C173.296 86.944 169.408 93.616 169.456 99.088C169.504 104.56 173.344 106.768 178.096 104.032C182.848 101.296 186.736 94.624 186.688 89.152C186.64 83.68 182.8 81.472 178.048 84.208Z" fill="#2DB9F0"/>
        <path d="M179.248 88.816L176.656 90.304V91.792L175.36 92.56V91.072C175.456 90.16 175.936 89.392 176.656 88.864L179.248 87.376C179.632 87.136 180.16 87.232 180.4 87.616C180.496 87.76 180.544 87.952 180.544 88.144V89.632L179.248 90.4V88.816Z" fill="#117EAA"/>
        <path d="M183.808 88.864V95.68C183.76 96.448 183.376 97.168 182.752 97.648L173.392 103.072C172.768 103.36 172.336 103.072 172.336 102.352V95.536L183.808 88.864Z" fill="#117EAA"/>
        <path d="M178.048 109.024C173.296 111.76 169.408 118.432 169.456 123.904C169.504 129.376 173.344 131.584 178.096 128.848C182.848 126.112 186.736 119.44 186.688 113.968C186.64 108.496 182.8 106.288 178.048 109.024Z" fill="#2DB9F0"/>
        <path d="M178.048 113.728C176.56 114.688 175.648 116.272 175.6 118.048V119.872C175.6 121.456 176.704 122.08 178.096 121.312C179.584 120.352 180.496 118.768 180.544 116.992V115.168C180.544 113.584 179.392 112.96 178.048 113.728Z" fill="#117EAA"/>
        <path d="M178.096 128.848C175.744 130.24 173.584 130.336 172 129.472C173.536 126.832 175.696 124.528 178.048 123.184C180.4 121.84 182.56 121.696 184.144 122.56C182.56 125.2 180.448 127.504 178.096 128.848Z" fill="#117EAA"/>
        <path opacity="0.3" d="M206.992 78.208C204.064 79.888 200.608 84.064 200.608 87.424V121.456L198.016 122.992C195.088 124.672 192.688 123.328 192.688 119.968L192.592 86.176C192.592 82.816 194.944 78.736 197.872 77.008L252.784 45.52L256.24 43.504L256.288 49.888L206.992 78.208Z" fill="url(#paint2_linear)"/>
        <path opacity="0.8" d="M205.408 78.928L249.28 53.68L273.424 39.76C276.112 38.224 278.272 39.472 278.272 42.544L278.368 81.856C278.368 84.928 276.208 88.672 273.52 90.256L249.376 104.176L205.504 129.376C202.816 130.912 200.656 129.664 200.656 126.592L200.56 87.28C200.608 84.208 202.768 80.464 205.408 78.928Z" fill="#EBF9FE"/>
        <path d="M217.744 79.312C215.728 80.608 214.48 82.816 214.336 85.216V89.152C214.336 91.312 215.872 92.224 217.744 91.12C219.76 89.824 221.008 87.616 221.152 85.216V81.28C221.152 79.12 219.616 78.208 217.744 79.312Z" fill="#043A4E"/>
        <path d="M217.792 93.328C214.576 95.248 211.696 97.648 209.296 100.48V103.168L226.288 93.328V90.64C223.6 90.688 220.672 91.648 217.792 93.328Z" fill="#043A4E"/>
        <path d="M231.328 87.376C230.464 87.904 229.936 88.864 229.888 89.824C229.888 90.736 230.512 91.072 231.328 90.64L258.208 75.088C259.072 74.56 259.6 73.648 259.648 72.64C259.648 71.728 259.024 71.392 258.208 71.824L231.328 87.376Z" fill="#043A4E"/>
        <path d="M231.328 79.6479C230.464 80.1759 229.936 81.0879 229.888 82.0959C229.888 83.0079 230.512 83.3439 231.328 82.9119L268.384 61.5039C269.248 60.9759 269.776 60.0639 269.824 59.0559C269.824 58.1439 269.2 57.8079 268.384 58.2399L231.328 79.6479Z" fill="#043A4E"/>
        <path d="M231.328 71.3919C230.464 71.9199 229.936 72.8319 229.888 73.8399C229.888 74.7519 230.512 75.0879 231.328 74.6559L248.704 64.5759C249.568 64.0479 250.096 63.1359 250.144 62.1279C250.144 61.2159 249.52 60.8319 248.704 61.3119L231.328 71.3919Z" fill="#043A4E"/>
        <path d="M270.88 72.688C272.176 71.92 273.232 72.544 273.232 74.032V81.904C273.136 83.584 272.272 85.072 270.88 85.984L210.88 120.688C209.584 121.456 208.528 120.832 208.528 119.344L208.48 111.616C208.576 109.888 209.488 108.304 210.928 107.344L270.88 72.688ZM272.512 82.336V74.464C272.512 73.456 271.792 73.024 270.88 73.552L210.928 108.16C209.92 108.832 209.296 109.936 209.2 111.136L209.248 118.864C209.248 119.872 209.968 120.304 210.88 119.776L270.976 85.072C271.888 84.496 272.464 83.488 272.512 82.336Z" fill="#106E84"/>
    </g>
    <defs>
        <linearGradient id="paint0_linear" x1="150.298" y1="177.966" x2="166.328" y2="150.226" gradientUnits="userSpaceOnUse">
            <stop stop-color="#199ED6" stop-opacity="0"/>
            <stop offset="1" stop-color="#199ED6" stop-opacity="0.31"/>
        </linearGradient>
        <linearGradient id="paint1_linear" x1="218.542" y1="142.779" x2="203.014" y2="115.883" gradientUnits="userSpaceOnUse">
            <stop stop-color="#5FCDF8"/>
            <stop offset="1" stop-color="#2DB9F0"/>
        </linearGradient>
        <linearGradient id="paint2_linear" x1="228.812" y1="86.3744" x2="217.966" y2="67.4448" gradientUnits="userSpaceOnUse">
            <stop stop-color="#0A5D7E" stop-opacity="0"/>
            <stop offset="1" stop-color="#0A5D7E"/>
        </linearGradient>
        <clipPath id="clip0">
            <rect width="416" height="212" rx="8" fill="white"/>
        </clipPath>
    </defs>
</svg>
