<svg width="371" height="76" viewBox="0 0 371 76" fill="none" xmlns="http://www.w3.org/2000/svg">
<path d="M0 0.120117H7.747V20.7561H30.714V0.120117H38.461V49.1391H30.714V26.9951H7.747V49.1391H0V0.120117Z" fill="white"/>
<path d="M47.4761 21.065C48.8241 18.253 50.7681 16.0501 53.3041 14.4491C55.8411 12.8501 58.8231 12.05 62.2501 12.05C65.6791 12.05 68.6711 12.8501 71.2311 14.4491C73.7911 16.0501 75.7441 18.254 77.0931 21.065C78.4411 23.876 79.1161 27.0411 79.1161 30.5601V31.3131C79.1161 34.8341 78.4411 37.998 77.0931 40.809C75.7441 43.62 73.8021 45.8251 71.2651 47.4251C68.7281 49.0251 65.7461 49.824 62.3181 49.824C58.8901 49.824 55.8961 49.0241 53.3371 47.4251C50.7761 45.8251 48.8231 43.62 47.4751 40.809C46.1271 37.998 45.4531 34.8331 45.4531 31.3131V30.5601C45.4541 27.0411 46.1271 23.876 47.4761 21.065ZM55.3261 40.295C56.9261 42.671 59.2571 43.8591 62.3191 43.8591C65.3361 43.8591 67.6431 42.671 69.2441 40.295C70.8431 37.919 71.6431 34.9241 71.6431 31.3131V30.5601C71.6431 26.9951 70.8311 24.013 69.2091 21.613C67.5861 19.213 65.2671 18.0131 62.2501 18.0131C59.2341 18.0131 56.9261 19.202 55.3261 21.578C53.7251 23.955 52.9261 26.949 52.9261 30.559V31.312C52.9261 34.924 53.7261 37.919 55.3261 40.295Z" fill="white"/>
<path d="M95.8095 42.7291C96.4715 43.3011 97.4435 43.5851 98.7235 43.5851C99.7285 43.5851 100.688 43.4731 101.603 43.2421V49.0701C99.9115 49.5721 98.1975 49.8251 96.4615 49.8251C93.6725 49.8251 91.4565 49.0252 89.8105 47.4262C88.1645 45.8262 87.3425 43.2672 87.3425 39.7472V18.2881H81.1035V12.7351H87.3425V3.75415H94.8155V12.7351H101.466V18.2881H94.8155V39.4031C94.8155 41.0481 95.1465 42.1581 95.8095 42.7291Z" fill="white"/>
<path d="M113.393 47.5271C110.788 45.9961 108.776 43.8941 107.36 41.2201C105.942 38.5461 105.234 35.5191 105.234 32.1361C105.234 27.9781 105.964 24.3791 107.428 21.3391C108.89 18.3001 110.856 15.9911 113.324 14.4141C115.792 12.8381 118.534 12.0491 121.551 12.0491C126.625 12.0491 130.451 13.6721 133.035 16.9161C135.617 20.1621 136.908 24.4811 136.908 29.8741V33.1651H112.776C112.959 36.2721 113.952 38.8321 115.758 40.8431C117.563 42.8551 119.928 43.8601 122.854 43.8601C126.647 43.8601 129.755 42.2841 132.178 39.1301L136.292 42.9011C134.965 44.9121 133.161 46.5691 130.875 47.8711C128.589 49.1731 125.778 49.8261 122.442 49.8261C119.015 49.8251 115.998 49.0601 113.393 47.5271ZM115.792 20.5161C114.284 22.1851 113.324 24.5271 112.913 27.5431H129.504V26.9261C129.367 24.3671 128.658 22.2411 127.379 20.5501C126.099 18.8601 124.133 18.0131 121.483 18.0131C119.196 18.0141 117.3 18.8481 115.792 20.5161Z" fill="white"/>
<path d="M143.283 0.120117H150.756V49.1391H143.283V0.120117Z" fill="white"/>
<path d="M160.492 29.04L166.783 32.49L150.716 49.139L145.477 43.812L160.492 29.04Z" fill="white"/>
<path d="M181.897 58.6782C181.281 57.7182 180.183 56.8252 178.607 56.0042C177.031 55.1812 174.778 54.3362 171.854 53.4672C166.689 51.9142 162.724 49.9932 159.959 47.7082C157.193 45.4222 155.811 42.4302 155.811 38.7282C155.811 36.1232 156.531 33.7912 157.97 31.7352C159.41 29.6772 161.432 28.0792 164.037 26.9362C166.642 25.7942 169.613 25.2222 172.95 25.2222C176.515 25.2222 179.634 25.8972 182.308 27.2442C184.982 28.5932 187.027 30.3972 188.443 32.6612C189.859 34.9232 190.568 37.4032 190.568 40.0992H182.753C182.753 37.4952 181.931 35.4032 180.286 33.8272C178.64 32.2492 176.171 31.4612 172.881 31.4612C169.865 31.4612 167.568 32.1242 165.991 33.4492C164.414 34.7742 163.626 36.4892 163.626 38.5912C163.626 40.4662 164.483 42.0532 166.197 43.3552C167.911 44.6592 170.663 45.8582 174.458 46.9562C180.034 48.5562 184.113 50.5542 186.695 52.9542C189.277 55.3532 190.568 58.4732 190.568 62.3112C190.568 65.0082 189.859 67.3642 188.443 69.3732C187.026 71.3872 185.005 72.9302 182.376 74.0012C179.748 75.0752 176.697 75.6142 173.224 75.6142C170.024 75.6142 166.974 75.0292 164.071 73.8642C161.168 72.6992 158.814 70.9522 157.009 68.6202C155.203 66.2902 154.301 63.5032 154.301 60.2572H162.048C162.048 63.3192 163.087 65.6152 165.167 67.1482C167.247 68.6782 169.932 69.4442 173.223 69.4442C176.285 69.4442 178.649 68.8042 180.318 67.5232C181.985 66.2452 182.821 64.5072 182.821 62.3132C182.824 60.8482 182.515 59.6362 181.897 58.6782Z" fill="white"/>
<path d="M229.922 64.5722L236.16 38.5222H243.429L233.349 74.9262H227.178L219.022 49.0102L211 74.9262H204.899L194.752 38.5222H202.087L208.393 64.1612L216.21 38.5222H221.969L229.922 64.5722Z" fill="white"/>
<path d="M267.286 45.3092C266.095 44.1212 264.382 43.5272 262.142 43.5272C260.087 43.5272 258.428 44.0412 257.172 45.0692C255.914 46.0992 255.288 47.3672 255.288 48.8742H247.745C247.745 47.0012 248.361 45.2062 249.596 43.4922C250.83 41.7792 252.567 40.4072 254.806 39.3792C257.045 38.3512 259.628 37.8362 262.553 37.8362C266.803 37.8362 270.197 38.8992 272.734 41.0252C275.271 43.1502 276.539 46.2242 276.539 50.2452V66.6982C276.539 69.8532 276.995 72.4132 277.911 74.3782V74.9272H270.164C269.843 74.1972 269.548 72.9832 269.273 71.2932C268.083 72.5742 266.643 73.6122 264.953 74.4122C263.263 75.2122 261.389 75.6132 259.331 75.6132C256.908 75.6132 254.773 75.1422 252.922 74.2072C251.071 73.2702 249.619 71.9782 248.568 70.3322C247.514 68.6882 246.992 66.8352 246.992 64.7802C246.992 60.8952 248.441 57.9242 251.346 55.8682C254.248 53.8102 258.304 52.7832 263.514 52.7832H269.066V50.1782C269.066 48.1202 268.474 46.4992 267.286 45.3092ZM265.743 68.1032C267.226 67.1682 268.337 66.0142 269.067 64.6422V57.5812H264.338C261.139 57.5812 258.692 58.1302 257.002 59.2252C255.309 60.3232 254.465 61.8992 254.465 63.9572C254.465 65.6032 255.014 66.9392 256.109 67.9662C257.207 68.9962 258.716 69.5092 260.634 69.5092C262.554 69.5092 264.257 69.0422 265.743 68.1032Z" fill="white"/>
<path d="M295.016 68.515C295.676 69.087 296.65 69.372 297.928 69.372C298.932 69.372 299.893 69.261 300.809 69.03V74.857C299.116 75.359 297.402 75.613 295.665 75.613C292.877 75.613 290.662 74.813 289.015 73.214C287.369 71.614 286.548 69.054 286.548 65.534V44.074H280.307V38.522H286.548V29.54H294.021V38.522H300.671V44.074H294.021V65.191C294.022 66.835 294.351 67.945 295.016 68.515Z" fill="white"/>
<path d="M325.97 67.7612C327.432 66.5062 328.256 64.9162 328.437 62.9962H335.499C335.408 65.2822 334.689 67.3832 333.34 69.3042C331.991 71.2242 330.208 72.7542 327.992 73.8962C325.777 75.0402 323.364 75.6122 320.76 75.6122C317.196 75.6122 314.177 74.7992 311.711 73.1762C309.242 71.5562 307.391 69.3712 306.156 66.6302C304.924 63.8892 304.305 60.8032 304.305 57.3742V56.0722C304.305 52.6452 304.924 49.5592 306.156 46.8182C307.39 44.0742 309.241 41.8922 311.711 40.2692C314.178 38.6492 317.172 37.8362 320.69 37.8362C323.571 37.8362 326.107 38.4082 328.3 39.5502C330.495 40.6942 332.219 42.2822 333.477 44.3152C334.735 46.3502 335.408 48.6922 335.498 51.3432H328.436C328.299 49.1482 327.535 47.3442 326.14 45.9262C324.745 44.5092 322.907 43.8002 320.621 43.8002C317.422 43.8002 315.146 44.9672 313.8 47.2972C312.451 49.6302 311.776 52.5542 311.776 56.0722V57.3742C311.776 60.9412 312.451 63.8762 313.8 66.1852C315.146 68.4942 317.422 69.6462 320.621 69.6462C322.724 69.6462 324.507 69.0202 325.97 67.7612Z" fill="white"/>
<path d="M341.049 25.9072H348.522V42.6352C349.803 41.0822 351.323 39.8942 353.083 39.0712C354.841 38.2482 356.771 37.8362 358.876 37.8362C366.737 37.8362 370.667 42.3392 370.667 51.3432V74.9262H363.194V51.2732C363.194 48.6692 362.634 46.8072 361.516 45.6872C360.395 44.5662 358.715 44.0072 356.476 44.0072C354.692 44.0072 353.126 44.4422 351.781 45.3092C350.432 46.1792 349.345 47.3672 348.522 48.8732V74.9262H341.049V25.9072Z" fill="white"/>
</svg>
