<svg xmlns:xlink="http://www.w3.org/1999/xlink" viewBox="0 0 200 200" width="16" height="16" xmlns="http://www.w3.org/2000/svg" class="IirT-location-icon" role="presentation"><path d="M173.2 179.7c-.3-.1-26.4-9.7-73.2-9.7c-46.8 0-73 9.6-73.2 9.7c-2.6 1-5.5-.3-6.4-2.9c-1-2.6.3-5.5 2.9-6.4c1-.4 22.9-8.5 63.1-10.1C69.7 145.7 40 114.6 40 80c0-33.1 26.9-60 60-60s60 26.9 60 60c0 34.6-29.7 65.7-46.3 80.3c40.1 1.6 62.1 9.7 63.1 10.1c2.6 1 3.9 3.9 2.9 6.4c-1 2.6-3.9 3.8-6.5 2.9zM100 30c-27.6 0-50 22.4-50 50c0 36.1 38.9 69.8 50 78.7c11.1-8.9 50-42.6 50-78.7c0-27.6-22.4-50-50-50zm0 75c-13.8 0-25-11.2-25-25s11.2-25 25-25s25 11.2 25 25s-11.2 25-25 25zm0-40c-8.3 0-15 6.7-15 15s6.7 15 15 15s15-6.7 15-15s-6.7-15-15-15z" fill="#5A6472"></path></svg>