<svg xmlns:xlink="http://www.w3.org/1999/xlink" viewBox="0 0 200 200" width="200" height="200" xmlns="http://www.w3.org/2000/svg" role="presentation" style="width:inherit;height:inherit;line-height:inherit;color:inherit"><path d="M123.1 169.6L75 150.4l-34.4 13.8c-10.3 4-20.6-3.7-20.6-13.9V61.8c0-6.1 3.8-11.7 9.5-14l43.7-17.5c1.2-.5 2.5-.5 3.7 0L125 49.6l34.4-13.8c10.4-4 20.6 3.8 20.6 13.9v91.8c0 4.1-2.5 7.8-6.3 9.3l-46.8 18.8c-1.2.5-2.5.5-3.8 0zm-46.2-29.2l48.1 19.3l45-18V49.8c0-3.2-3.2-6.1-6.9-4.6l-36.3 14.5c-1.2.5-2.5.5-3.7 0L75 40.4L33.2 57.1c-1.9.8-3.2 2.6-3.2 4.7v88.4c0 3.2 3.2 6.1 6.9 4.6l36.3-14.5c1.1-.4 2.5-.4 3.7.1zM80 53.3c0 2.8-2.2 5-5 5s-5-2.2-5-5s2.2-5 5-5s5 2.2 5 5zm-5 13.4c-2.8 0-5 2.2-5 5s2.2 5 5 5s5-2.2 5-5s-2.2-5-5-5zM75 85c-2.8 0-5 2.2-5 5s2.2 5 5 5s5-2.2 5-5s-2.2-5-5-5zm0 18.3c-2.8 0-5 2.2-5 5s2.2 5 5 5s5-2.2 5-5s-2.2-5-5-5zm0 18.4c-2.8 0-5 2.2-5 5s2.2 5 5 5s5-2.2 5-5s-2.2-5-5-5zm50-53.4c-2.8 0-5 2.2-5 5s2.2 5 5 5s5-2.2 5-5s-2.2-5-5-5zm0 18.4c-2.8 0-5 2.2-5 5s2.2 5 5 5s5-2.2 5-5s-2.2-5-5-5zm0 18.3c-2.8 0-5 2.2-5 5s2.2 5 5 5s5-2.2 5-5s-2.2-5-5-5zm0 18.3c-2.8 0-5 2.2-5 5s2.2 5 5 5s5-2.2 5-5s-2.2-5-5-5zm0 18.4c-2.8 0-5 2.2-5 5s2.2 5 5 5s5-2.2 5-5s-2.2-5-5-5z" fill="#191E24"></path></svg>