<?xml version="1.0" encoding="utf-8"?>
<!-- Generator: Adobe Illustrator 28.3.0, SVG Export Plug-In . SVG Version: 6.00 Build 0)  -->
<svg version="1.1" id="레이어_1" xmlns="http://www.w3.org/2000/svg" xmlns:xlink="http://www.w3.org/1999/xlink" x="0px"
	 y="0px" width="1343px" height="552px" viewBox="0 0 1343 552" style="enable-background:new 0 0 1343 552;" xml:space="preserve">
<style type="text/css">
	
		.st0{clip-path:url(#SVGID_00000008861395767752270270000006757064786649429134_);fill:#FFFFFF;stroke:#2E4162;stroke-width:7;stroke-miterlimit:10;}
	.st1{fill:#004365;}
	.st2{clip-path:url(#SVGID_00000060002825140122323740000004306288281560407430_);}
	.st3{fill:#BC8152;}
	.st4{fill:#2B4160;}
	.st5{fill:#A0D7E5;}
	.st6{fill:none;stroke:#FFFFFF;stroke-width:27;stroke-miterlimit:10;}
	.st7{fill:#FFFFFF;}
	.st8{fill:#00A2DE;}
	.st9{fill:#F0F3F5;}
	.st10{fill:#FFFFFF;stroke:#2B4160;stroke-width:3;stroke-linecap:round;stroke-linejoin:round;stroke-miterlimit:10;}
	.st11{fill:none;stroke:#2B4160;stroke-width:3;stroke-linecap:round;stroke-linejoin:round;stroke-miterlimit:10;}
	.st12{fill:#FBD58B;}
	.st13{opacity:0.5;clip-path:url(#SVGID_00000063593439697920279920000016388568968803796648_);}
	.st14{fill:#EFBB4D;}
	.st15{opacity:0.5;}
</style>
<g>
	<g>
		<defs>
			<rect id="SVGID_1_" x="-101" y="29.3" width="1434" height="492.7"/>
		</defs>
		<clipPath id="SVGID_00000107585853866006998520000015722706065804136890_">
			<use xlink:href="#SVGID_1_"  style="overflow:visible;"/>
		</clipPath>
		
			<path style="clip-path:url(#SVGID_00000107585853866006998520000015722706065804136890_);fill:#FFFFFF;stroke:#2E4162;stroke-width:7;stroke-miterlimit:10;" d="
			M1245.1,519.4H81.8c-30.9,0-56.1-31.4-56.1-70.2l0,0c0-38.7,25.1-70.2,56.1-70.2h1163.3c30.9,0,56.1,31.4,56.1,70.2l0,0
			C1301.1,488.1,1276,519.4,1245.1,519.4z"/>
	</g>
</g>
<g>
	<path class="st1" d="M260.8,484.1h16.9c2.2,0,3.9,0.2,5.3,0.7s2.5,1.1,3.2,1.8c0.8,0.7,1.3,1.6,1.6,2.5c0.3,1,0.4,1.9,0.4,2.8
		c0,1.2-0.1,2.2-0.4,3.2s-0.8,1.8-1.6,2.5c-0.8,0.7-1.8,1.3-3.2,1.7c-1.4,0.4-3.2,0.6-5.3,0.6h-26.2c-2.2,0-3.9-0.2-5.1-0.6
		c-1.2-0.4-2.2-1-2.8-1.7c-0.7-0.7-1.1-1.6-1.2-2.5c-0.2-1-0.2-2-0.2-3.2V415c0-3.8,0.9-6.5,2.8-7.9c1.9-1.4,4.1-2.1,6.5-2.1
		c1.2,0,2.4,0.2,3.5,0.5c1.1,0.3,2.1,0.8,2.9,1.6c0.8,0.8,1.5,1.8,2.1,3.1c0.5,1.3,0.8,2.9,0.8,4.9V484.1z M305.6,413.9
		c0-3.8,0.9-6.5,2.8-7.9s4.1-2.1,6.5-2.1c1.2,0,2.4,0.2,3.5,0.5s2.1,0.8,2.9,1.6c0.8,0.8,1.5,1.8,2.1,3.1c0.5,1.3,0.8,2.9,0.8,4.9
		v27.7h7.3c2.2,0,3.9,0.2,5.3,0.7s2.5,1.1,3.2,1.8c0.8,0.7,1.3,1.6,1.6,2.5c0.3,1,0.4,1.9,0.4,2.8c0,1.2-0.1,2.2-0.4,3.2
		s-0.8,1.8-1.6,2.5c-0.8,0.7-1.8,1.3-3.2,1.7c-1.4,0.4-3.2,0.6-5.3,0.6h-7.3v35.2c0,2-0.3,3.7-0.8,5s-1.2,2.3-2.1,3.1
		c-0.8,0.8-1.8,1.3-2.9,1.6c-1.1,0.3-2.3,0.5-3.5,0.5s-2.4-0.2-3.5-0.5s-2.1-0.8-3-1.6c-0.9-0.8-1.6-1.8-2.1-3.1
		c-0.5-1.3-0.8-3-0.8-5v-78.8H305.6z"/>
	<path class="st1" d="M346.9,493.7c0-1.2,0.1-2.2,0.4-3.2s0.8-1.8,1.6-2.5c0.8-0.7,1.8-1.3,3.2-1.7c1.4-0.4,3.2-0.6,5.3-0.6h80.3
		c2.2,0,3.9,0.2,5.3,0.6s2.5,1,3.2,1.7c0.8,0.7,1.3,1.6,1.6,2.5c0.3,1,0.4,2,0.4,3.2c0,0.9-0.1,1.9-0.4,2.8c-0.3,1-0.8,1.8-1.6,2.5
		c-0.8,0.7-1.8,1.3-3.2,1.8s-3.2,0.7-5.3,0.7h-80.3c-2.2,0-3.9-0.2-5.3-0.7s-2.5-1.1-3.2-1.8c-0.8-0.7-1.3-1.6-1.6-2.5
		S346.9,494.7,346.9,493.7z M364.6,469.6c-2.2,0-3.9-0.2-5.1-0.7s-2.2-1.1-2.8-1.9c-0.7-0.8-1.1-1.7-1.2-2.8c-0.2-1-0.2-2.1-0.2-3.3
		v-46.8c0-1.9,0.2-3.5,0.8-4.7c0.5-1.2,1.2-2.1,2.1-2.8c0.9-0.7,1.9-1.1,3-1.3c1.1-0.2,2.3-0.3,3.5-0.3h65.5c1.9,0,3.5,0.2,4.6,0.7
		c1.2,0.5,2,1.1,2.7,1.8c0.6,0.8,1,1.6,1.2,2.5s0.3,1.9,0.3,2.9c0,0.8-0.1,1.7-0.3,2.6c-0.2,0.9-0.6,1.7-1.2,2.5s-1.5,1.5-2.7,2
		s-2.7,0.8-4.6,0.8h-56.1v8.4h56.1c1.9,0,3.5,0.2,4.6,0.7c1.2,0.5,2,1.1,2.7,1.8c0.6,0.8,1,1.6,1.2,2.5s0.3,1.9,0.3,2.9
		c0,0.8-0.1,1.7-0.3,2.6c-0.2,0.9-0.6,1.7-1.2,2.5s-1.5,1.5-2.7,2s-2.7,0.8-4.6,0.8h-56.1v8.7h57.3c1.9,0,3.5,0.3,4.6,0.8
		c1.2,0.5,2,1.2,2.7,2c0.6,0.8,1,1.7,1.2,2.6s0.3,1.8,0.3,2.5c0,1-0.1,2-0.3,2.9c-0.2,1-0.6,1.8-1.2,2.5s-1.5,1.3-2.7,1.8
		s-2.7,0.7-4.6,0.7L364.6,469.6L364.6,469.6z"/>
	<path class="st1" d="M477.7,445h23.8c2.2,0,3.9,0.2,5.3,0.6s2.5,0.9,3.2,1.5c0.8,0.6,1.3,1.4,1.6,2.3c0.3,0.9,0.4,1.8,0.4,2.7
		c0,1.2-0.1,2.2-0.4,3.1s-0.8,1.7-1.6,2.4c-0.8,0.7-1.8,1.2-3.2,1.6c-1.4,0.4-3.2,0.6-5.3,0.6h-33.2c-2.2,0-3.9-0.3-5.1-0.8
		s-2.2-1.3-2.8-2.1c-0.7-0.9-1.1-1.9-1.2-2.9c-0.2-1.1-0.2-2.2-0.2-3.3v-15c0-1.5,0.1-2.8,0.2-4c0.2-1.2,0.6-2.3,1.2-3.1
		c0.7-0.8,1.6-1.5,2.8-2c1.2-0.5,2.9-0.8,5.1-0.8h20.6v-5.9h-19.4c-2.2,0-3.9-0.2-5.3-0.6s-2.5-0.9-3.2-1.6
		c-0.8-0.7-1.3-1.4-1.6-2.3c-0.3-0.9-0.4-1.8-0.4-2.7c0-1.2,0.1-2.2,0.4-3.1s0.8-1.7,1.6-2.4c0.8-0.7,1.8-1.2,3.2-1.6
		c1.4-0.4,3.2-0.6,5.3-0.6h28.8c2.2,0,3.9,0.2,5.1,0.6s2.2,1,2.8,1.7c0.7,0.7,1.1,1.5,1.2,2.5c0.2,1,0.2,2,0.2,3.2v16.8
		c0,1.5-0.1,2.8-0.2,4c-0.2,1.2-0.6,2.2-1.2,3c-0.7,0.8-1.6,1.4-2.8,1.8c-1.2,0.4-2.9,0.6-5.1,0.6h-20.6L477.7,445L477.7,445z
		 M479.5,504.4c-3.6-0.1-6.7-0.7-9.2-1.7c-2.5-1.1-4.6-2.5-6.1-4.2s-2.7-3.8-3.4-6.1c-0.7-2.3-1-4.8-1-7.5s0.3-5.2,0.9-7.6
		c0.6-2.3,1.7-4.4,3.2-6.2c1.5-1.8,3.5-3.2,6.1-4.2s5.8-1.5,9.8-1.6h48.3c3.9,0,7.2,0.5,9.8,1.5s4.6,2.4,6.1,4.2
		c1.5,1.8,2.6,3.9,3.2,6.2c0.6,2.4,0.9,4.9,0.9,7.6s-0.3,5.2-1,7.5s-1.8,4.3-3.4,6.1c-1.6,1.7-3.6,3.1-6.1,4.2s-5.6,1.7-9.2,1.7
		h-48.9V504.4z M523.1,489c2.2,0,3.9-0.3,4.9-0.8s1.5-1.6,1.5-3.4s-0.5-3-1.5-3.5s-2.6-0.8-4.9-0.8h-38.4c-2.2,0-3.9,0.3-4.9,0.8
		s-1.5,1.7-1.5,3.5s0.5,2.9,1.5,3.4s2.6,0.8,4.9,0.8H523.1z M525,413.9c0-3.8,0.9-6.5,2.8-7.9c1.9-1.4,4.1-2.1,6.5-2.1
		c1.2,0,2.4,0.2,3.5,0.5s2.1,0.8,2.9,1.6c0.8,0.8,1.5,1.8,2.1,3.1c0.5,1.3,0.8,2.9,0.8,4.9v10.7h8.4c2.2,0,3.9,0.3,5.3,0.8
		c1.4,0.5,2.5,1.1,3.2,1.9c0.8,0.8,1.3,1.6,1.6,2.6s0.4,1.9,0.4,2.8c0,1.2-0.1,2.2-0.4,3.2c-0.3,1-0.8,1.9-1.6,2.6s-1.8,1.3-3.2,1.8
		s-3.2,0.7-5.3,0.7h-8.4v10.3c0,2-0.3,3.7-0.8,5s-1.2,2.3-2.1,3.1c-0.8,0.8-1.8,1.3-2.9,1.6c-1.1,0.3-2.3,0.5-3.5,0.5
		s-2.4-0.2-3.5-0.5s-2.1-0.8-3-1.6c-0.9-0.8-1.6-1.8-2.1-3.1c-0.5-1.3-0.8-3-0.8-5L525,413.9L525,413.9z"/>
	<path class="st1" d="M611.3,458.3c0-3.1,0.6-5.7,1.7-7.9c1.2-2.2,2.8-3.9,5-5.3c2.2-1.3,4.8-2.3,7.9-2.9c3-0.6,6.5-0.9,10.3-0.9
		H667c3.8,0,7.2,0.3,10.3,0.9s5.7,1.6,7.9,2.9s3.9,3.1,5,5.3c1.2,2.2,1.7,4.8,1.7,7.9v3.5c0,4.9-2,8.7-6.1,11.6s-10.1,4.4-18.3,4.4
		H661v7.9h30.7c2.2,0,3.9,0.2,5.3,0.6c1.4,0.4,2.5,1,3.2,1.7c0.8,0.7,1.3,1.6,1.6,2.5c0.3,1,0.4,2,0.4,3.2c0,0.9-0.1,1.9-0.4,2.8
		c-0.3,1-0.8,1.8-1.6,2.5s-1.8,1.3-3.2,1.8s-3.2,0.7-5.3,0.7h-80.3c-2.2,0-3.9-0.2-5.3-0.7c-1.4-0.5-2.5-1.1-3.2-1.8
		c-0.8-0.7-1.3-1.6-1.6-2.5c-0.3-1-0.4-1.9-0.4-2.8c0-1.2,0.1-2.2,0.4-3.2c0.3-1,0.8-1.8,1.6-2.5s1.8-1.3,3.2-1.7
		c1.4-0.4,3.2-0.6,5.3-0.6h30.8v-7.9h-6.6c-8.2-0.1-14.3-1.5-18.4-4.3c-4.1-2.8-6.1-6.7-6.1-11.8v-3.4H611.3z M606.6,429
		c0-1.2,0.1-2.2,0.4-3.1c0.3-0.9,0.8-1.7,1.6-2.4c0.8-0.7,1.8-1.2,3.2-1.5s3.2-0.5,5.3-0.5H686c2.2,0,3.9,0.2,5.3,0.5
		c1.4,0.3,2.5,0.8,3.2,1.5c0.8,0.7,1.3,1.4,1.6,2.4c0.3,0.9,0.4,2,0.4,3.1c0,0.9-0.1,1.8-0.4,2.7c-0.3,0.9-0.8,1.7-1.6,2.4
		c-0.8,0.7-1.8,1.2-3.2,1.6s-3.2,0.6-5.3,0.6h-68.9c-2.2,0-3.9-0.2-5.3-0.6c-1.4-0.4-2.5-0.9-3.2-1.6c-0.8-0.7-1.3-1.5-1.6-2.4
		C606.7,430.9,606.6,430,606.6,429z M621.4,410.2c0-1.8,0.4-3.4,1.2-4.7c0.8-1.3,2.6-2,5.3-2H673c2.7,0,4.4,0.7,5.3,2
		c0.8,1.3,1.2,2.9,1.2,4.7c0,0.8-0.1,1.5-0.3,2.3s-0.5,1.5-1,2.1s-1.1,1.1-2,1.5c-0.8,0.4-1.9,0.6-3.2,0.6h-45.1
		c-1.3,0-2.4-0.2-3.2-0.6s-1.5-0.9-2-1.5s-0.8-1.3-1-2.1C621.5,411.8,621.4,411,621.4,410.2z M630.1,460c0,1.8,0.8,2.9,2.4,3.5
		c1.6,0.6,4,0.9,7.3,1h23.8c3.3-0.1,5.8-0.4,7.3-1c1.6-0.6,2.4-1.8,2.4-3.5v-0.6c0-1.8-0.8-3.1-2.4-3.6c-1.6-0.6-4.1-0.9-7.7-0.9
		h-23.1c-3.5,0-6.1,0.3-7.7,0.9c-1.6,0.6-2.4,1.8-2.4,3.6v0.6H630.1z"/>
	<path class="st1" d="M744,404.9c2.2,0,3.9,0.2,5.3,0.5c1.4,0.3,2.5,0.8,3.2,1.4c0.8,0.6,1.3,1.4,1.6,2.3s0.4,1.9,0.4,3.1
		c0,1.9-0.6,3.4-1.9,4.5c-1.3,1.1-3.6,1.6-7.1,1.6h-16.2v4.5h9c4.3,0,7.1,0.5,8.5,1.4c1.3,1,2,2.6,2,4.8c0,0.9-0.1,1.8-0.4,2.5
		c-0.3,0.7-0.8,1.3-1.6,1.8s-1.8,0.9-3.2,1.1s-3.2,0.3-5.3,0.3h-9v4.6h17.1c2.2,0,3.9,0.2,5.3,0.5c1.4,0.3,2.5,0.7,3.2,1.3
		c0.8,0.5,1.3,1.2,1.6,2s0.4,1.7,0.4,2.6c0,1.2-0.1,2.2-0.4,3c-0.3,0.8-0.8,1.6-1.6,2.2s-1.8,1.1-3.2,1.4s-3.2,0.5-5.3,0.5h-25.1
		c-2.2,0-3.9-0.2-5.1-0.6c-1.2-0.4-2.2-0.9-2.8-1.6c-0.7-0.7-1.1-1.4-1.2-2.4c-0.2-0.9-0.2-2-0.2-3.1v-32.5c0-1.2,0.1-2.2,0.2-3.2
		c0.2-1,0.6-1.8,1.2-2.5c0.7-0.7,1.6-1.2,2.8-1.6s2.9-0.6,5.1-0.6H744V404.9z M735.3,486.5v4.6h64c1.8,0,3.4,0.2,4.6,0.5
		c1.2,0.3,2.1,0.8,2.8,1.4s1.1,1.3,1.3,2.1c0.2,0.8,0.3,1.7,0.3,2.7c0,1.2-0.1,2.1-0.3,2.9s-0.7,1.4-1.3,2c-0.7,0.5-1.6,0.9-2.8,1.2
		c-1.2,0.2-2.7,0.3-4.6,0.3h-73.7c-2.2,0-3.9-0.2-5.1-0.6c-1.2-0.4-2.1-0.9-2.7-1.6c-0.6-0.7-0.9-1.4-1-2.4c-0.1-0.9-0.2-2-0.2-3.1
		v-15.4c0-0.8,0.1-1.5,0.3-2.3s0.6-1.5,1.2-2.1c0.6-0.6,1.5-1.1,2.7-1.4s2.7-0.5,4.6-0.5h62v-3.9H725c-1.9,0-3.5-0.2-4.6-0.5
		c-1.2-0.3-2-0.7-2.7-1.3c-0.6-0.5-1-1.2-1.2-2s-0.3-1.7-0.3-2.7c0-0.8,0.1-1.6,0.3-2.4s0.6-1.5,1.2-2.2c0.6-0.7,1.5-1.2,2.7-1.6
		s2.7-0.6,4.6-0.6h72.3c1.8,0,3.4,0.2,4.5,0.6c1.2,0.4,2.1,0.9,2.7,1.6c0.7,0.6,1.1,1.3,1.3,2.1c0.2,0.8,0.3,1.6,0.3,2.4V480
		c0,0.9-0.1,1.8-0.3,2.5c-0.2,0.8-0.6,1.4-1.2,2c-0.6,0.5-1.4,1-2.5,1.3s-2.6,0.5-4.4,0.5h-62.4V486.5z M767.1,437.2h-5.3
		c-2.2,0-3.9-0.2-5.1-0.6c-1.3-0.4-2.3-1-2.9-1.8c-0.7-0.8-1.1-1.6-1.3-2.6s-0.3-2-0.3-3.2c0-0.9,0.1-1.9,0.3-2.8
		c0.2-1,0.6-1.8,1.3-2.6c0.7-0.8,1.7-1.4,2.9-1.8c1.3-0.5,3-0.7,5.1-0.7h5.3v-7.2c0-3.8,0.7-6.5,2.2-7.9s3.4-2.1,5.9-2.1
		c2.4,0,4.3,0.7,5.8,2.1s2.3,4.1,2.3,7.9v30.4c0,4-0.7,6.7-2.1,8.1c-1.4,1.4-3.4,2.1-5.8,2.1c-2.5,0-4.4-0.7-5.9-2.1
		s-2.3-4.1-2.3-8.1v-7.1H767.1z M790.2,413.9c0-3.8,0.7-6.5,2.2-7.9s3.4-2.1,5.9-2.1c2.4,0,4.3,0.7,5.8,2.1s2.3,4.1,2.3,7.9v30.5
		c0,4-0.7,6.7-2.1,8.1c-1.4,1.4-3.4,2.1-5.8,2.1c-2.5,0-4.4-0.7-5.9-2.1s-2.3-4.1-2.3-8.1v-30.5H790.2z"/>
	<path class="st1" d="M863.9,469.8c-1.9,0-3.5-0.2-4.6-0.5c-1.2-0.3-2-0.8-2.7-1.3c-0.6-0.6-1-1.3-1.2-2.1c-0.2-0.8-0.3-1.8-0.3-2.8
		c0-0.8,0.1-1.7,0.3-2.5s0.6-1.5,1.2-2.2c0.6-0.7,1.5-1.2,2.7-1.6s2.7-0.6,4.6-0.6h84c1.9,0,3.5,0.2,4.6,0.6c1.2,0.4,2,0.9,2.7,1.6
		c0.6,0.7,1,1.4,1.2,2.2c0.2,0.8,0.3,1.6,0.3,2.5c0,1.1-0.1,2-0.3,2.8s-0.6,1.5-1.2,2.1c-0.6,0.6-1.5,1-2.7,1.3s-2.7,0.5-4.6,0.5
		H863.9z M929.8,489.3h-56.7c-2.2,0-3.9-0.2-5.3-0.6c-1.4-0.4-2.5-0.9-3.2-1.5c-0.8-0.6-1.3-1.4-1.6-2.3s-0.4-1.8-0.4-2.7
		c0-1.2,0.1-2.2,0.4-3.1c0.3-0.9,0.8-1.6,1.6-2.3c0.8-0.6,1.8-1.1,3.2-1.4s3.2-0.5,5.3-0.5h66.1c2.2,0,3.8,0.2,5.1,0.5
		c1.2,0.3,2.2,0.8,2.8,1.4c0.7,0.6,1.1,1.4,1.2,2.3c0.2,0.9,0.2,1.9,0.2,3.1v11.9c0,1.9-0.3,3.5-0.8,4.9c-0.5,1.3-1.2,2.3-2.1,3.1
		c-0.8,0.8-1.8,1.3-2.9,1.6c-1.1,0.3-2.3,0.5-3.5,0.5c-2.5,0-4.6-0.7-6.5-2.1s-2.8-4.1-2.8-7.9L929.8,489.3L929.8,489.3z
		 M939.5,405.4c1.9,0,3.5,0.1,4.6,0.4c1.2,0.3,2,0.7,2.7,1.2c0.6,0.5,1,1.2,1.2,2s0.3,1.7,0.3,2.7c0,0.8-0.1,1.6-0.3,2.3
		c-0.2,0.7-0.6,1.3-1.2,1.8c-0.6,0.5-1.5,1-2.7,1.3s-2.7,0.5-4.6,0.5h-57.6v4.7h56.5c1.9,0,3.5,0.1,4.6,0.3c1.2,0.2,2,0.6,2.7,1.1
		c0.6,0.5,1,1.1,1.2,1.8c0.2,0.7,0.3,1.6,0.3,2.6c0,0.8-0.1,1.6-0.3,2.3c-0.2,0.7-0.6,1.2-1.2,1.7c-0.6,0.5-1.5,0.9-2.7,1.2
		c-1.2,0.3-2.7,0.4-4.6,0.4h-56.5v4.9h57.6c1.9,0,3.5,0.2,4.6,0.5c1.2,0.3,2,0.7,2.7,1.3c0.6,0.5,1,1.2,1.2,1.9
		c0.2,0.7,0.3,1.5,0.3,2.3c0,1-0.1,1.9-0.3,2.7c-0.2,0.8-0.6,1.4-1.2,2c-0.6,0.5-1.5,0.9-2.7,1.2c-1.2,0.3-2.7,0.4-4.6,0.4h-67
		c-2.2,0-3.9-0.2-5.1-0.6c-1.2-0.4-2.2-1-2.8-1.7c-0.7-0.7-1.1-1.5-1.2-2.5c-0.2-1-0.2-2-0.2-3.2v-29.3c0-1.2,0.1-2.2,0.2-3.2
		c0.2-1,0.6-1.8,1.2-2.5c0.7-0.7,1.6-1.2,2.8-1.7c1.2-0.4,2.9-0.6,5.1-0.6h67V405.4z"/>
	<path class="st1" d="M1003.7,405.2c2.1,0,3.7,0.2,4.9,0.6s2,1,2.7,1.7c0.6,0.7,1,1.6,1.2,2.7s0.2,2.3,0.2,3.7V459
		c0,2-0.2,4.7-0.6,8.2c-0.4,3.5-1.2,7.1-2.2,10.9s-2.4,7.5-4.2,11.1c-1.7,3.6-3.9,6.6-6.4,8.9c-1.1,1-2.3,1.8-3.5,2.5
		c-1.3,0.7-2.6,1-3.9,1.2c-1.3,0.1-2.7-0.1-3.9-0.5s-2.5-1.3-3.6-2.5c-1.5-1.5-2.2-3.5-2.3-5.8s0.7-4.4,2.2-6.4
		c2.2-2.6,3.9-5.1,5.1-7.5c1.2-2.4,2.2-4.8,2.8-7.3s1-5,1.2-7.7s0.3-5.6,0.3-8.8v-34.1H974c-2.2,0-3.9-0.2-5.3-0.6
		c-1.4-0.4-2.5-1-3.2-1.7c-0.8-0.7-1.3-1.6-1.6-2.5c-0.3-1-0.4-2-0.4-3.2c0-0.9,0.1-1.9,0.3-2.8c0.2-1,0.7-1.8,1.4-2.5
		s1.8-1.3,3.1-1.8s3-0.7,5.2-0.7h30.2V405.2z M1032.6,413.9c0-3.8,0.9-6.5,2.8-7.9s4.1-2.1,6.5-2.1c1.2,0,2.4,0.2,3.5,0.5
		s2.1,0.8,2.9,1.6c0.8,0.8,1.5,1.8,2.1,3.1c0.5,1.3,0.8,2.9,0.8,4.9v27.7h9.1c2.2,0,3.9,0.3,5.3,0.8s2.5,1.1,3.2,1.9
		c0.8,0.8,1.3,1.6,1.6,2.6c0.3,1,0.4,1.9,0.4,2.8c0,1.2-0.1,2.2-0.4,3.2s-0.8,1.9-1.6,2.6c-0.8,0.7-1.8,1.3-3.2,1.8
		c-1.4,0.5-3.2,0.7-5.3,0.7h-9.1v34.8c0,2-0.3,3.7-0.8,5s-1.2,2.3-2.1,3.1c-0.8,0.8-1.8,1.3-2.9,1.6c-1.1,0.3-2.3,0.5-3.5,0.5
		s-2.4-0.2-3.5-0.5s-2.1-0.8-3-1.6c-0.9-0.8-1.6-1.8-2.1-3.1c-0.5-1.3-0.8-3-0.8-5L1032.6,413.9L1032.6,413.9z"/>
</g>
<g>
	<defs>
		<rect id="SVGID_00000124130521871859471950000010382748453385759392_" x="295" y="13" width="737" height="363"/>
	</defs>
	<clipPath id="SVGID_00000160884101699913286430000013167478535008109973_">
		<use xlink:href="#SVGID_00000124130521871859471950000010382748453385759392_"  style="overflow:visible;"/>
	</clipPath>
	<g style="clip-path:url(#SVGID_00000160884101699913286430000013167478535008109973_);">
		<g>
			<g>
				<g>
					<path class="st3" d="M892.6,463.5c-1.1,0-2.2-0.1-3.3-0.5L775,431.1c-6.5-1.8-10.2-8.5-8.4-14.9c1.8-6.5,8.5-10.2,14.9-8.4
						l114.3,31.9c6.5,1.8,10.2,8.5,8.4,14.9C902.7,460,897.9,463.5,892.6,463.5z"/>
					<path class="st4" d="M892.6,466.5c-1.4,0-2.7-0.2-4.1-0.6L774.2,434c-3.9-1.1-7.1-3.6-9.1-7.1c-2-3.5-2.5-7.6-1.4-11.5
						c1.1-3.9,3.6-7.1,7.2-9.1c3.5-2,7.6-2.5,11.5-1.4l114.3,31.9c3.9,1.1,7.1,3.6,9.1,7.1c2,3.5,2.5,7.6,1.4,11.5
						C905.3,462,899.3,466.5,892.6,466.5z M778.2,410.3c-1.5,0-3.1,0.4-4.5,1.2c-2.1,1.2-3.7,3.2-4.3,5.5c-0.7,2.4-0.4,4.8,0.8,6.9
						c1.2,2.1,3.2,3.7,5.5,4.3l114.3,31.9c0.8,0.2,1.6,0.3,2.5,0.3c4.1,0,7.7-2.7,8.8-6.7c0.7-2.4,0.4-4.8-0.8-6.9s-3.2-3.7-5.5-4.3
						l-114.3-31.9C779.9,410.4,779.1,410.3,778.2,410.3z"/>
				</g>
			</g>
			<g>
				<g>
					<line class="st3" x1="395.8" y1="414" x2="570.3" y2="389.8"/>
					<path class="st4" d="M395.8,417c-1.5,0-2.8-1.1-3-2.6c-0.2-1.6,0.9-3.1,2.6-3.4l174.6-24.2c1.6-0.2,3.1,0.9,3.4,2.6
						c0.2,1.6-0.9,3.1-2.6,3.4L396.2,417C396,417,395.9,417,395.8,417z"/>
				</g>
				<g>
					<path class="st3" d="M395.7,426.2c-6,0-11.2-4.4-12-10.5c-0.9-6.6,3.7-12.8,10.4-13.7l174.6-24.2c6.6-0.9,12.8,3.7,13.7,10.4
						c0.9,6.6-3.7,12.8-10.4,13.7L397.4,426C396.9,426.1,396.3,426.2,395.7,426.2z"/>
					<path class="st4" d="M395.7,429.2c-7.5,0-13.9-5.6-15-13c-1.1-8.3,4.6-15.9,12.9-17.1l174.6-24.2c8.3-1.2,15.9,4.6,17.1,12.9
						c1.1,8.3-4.6,15.9-12.9,17.1L397.8,429C397.1,429.1,396.4,429.2,395.7,429.2z M570.3,380.7c-0.4,0-0.8,0-1.3,0.1L394.5,405
						c-5,0.7-8.5,5.3-7.8,10.3c0.7,4.9,5.3,8.5,10.3,7.8l174.6-24.2c5-0.7,8.5-5.3,7.8-10.3C578.7,384,574.8,380.7,570.3,380.7z"/>
				</g>
			</g>
			<g>
				<g>
					<path class="st3" d="M691.9,80.7L421.5,504c-3.6,5.6-2,13.1,3.7,16.8c1.8,1.2,3.9,1.8,5.9,1.9c4.2,0.2,8.4-1.8,10.8-5.6
						L714.3,90.7L691.9,80.7z"/>
					<path class="st4" d="M431.7,525.6c-0.2,0-0.5,0-0.7,0c-2.6-0.1-5.2-0.9-7.4-2.4c-3.4-2.2-5.8-5.5-6.6-9.5
						c-0.9-3.9-0.2-8,2-11.4L689.4,79c0.8-1.3,2.4-1.7,3.7-1.1l22.4,10c0.8,0.4,1.4,1,1.6,1.9c0.2,0.8,0.1,1.7-0.3,2.5L444.5,518.7
						C441.7,523,436.9,525.6,431.7,525.6z M693,84.4l-269,421.2c-1.3,2.1-1.7,4.5-1.2,6.9c0.5,2.4,1.9,4.4,4,5.7
						c1.3,0.9,2.9,1.4,4.5,1.4c3.3,0.1,6.4-1.5,8.1-4.2L709.9,92L693,84.4z"/>
				</g>
			</g>
			<g>
				<g>
					<line class="st3" x1="411.2" y1="416.8" x2="679.6" y2="497.5"/>
					<path class="st4" d="M679.6,500.5c-0.3,0-0.6,0-0.9-0.1l-268.3-80.7c-1.6-0.5-2.5-2.1-2-3.7c0.5-1.6,2.1-2.5,3.7-2l268.3,80.7
						c1.6,0.5,2.5,2.1,2,3.7C682.1,499.7,680.9,500.5,679.6,500.5z"/>
				</g>
				<g>
					<path class="st3" d="M679.6,509.6c-1.2,0-2.3-0.2-3.5-0.5l-268.3-80.7c-6.4-1.9-10.1-8.7-8.1-15.1c1.9-6.4,8.7-10,15.1-8.1
						l268.3,80.7c6.4,1.9,10.1,8.7,8.1,15.1C689.6,506.3,684.8,509.6,679.6,509.6z"/>
					<path class="st4" d="M679.6,512.6c-1.5,0-2.9-0.2-4.4-0.6l-268.3-80.7c-8-2.4-12.5-10.9-10.1-18.8c2.4-8,10.9-12.5,18.8-10.1
						L683.9,483c3.9,1.2,7.1,3.8,9,7.3s2.3,7.6,1.2,11.5C692.2,508.2,686.2,512.6,679.6,512.6z M411.2,407.6c-3.9,0-7.6,2.6-8.8,6.5
						c-1.5,4.8,1.3,9.9,6.1,11.4l268.3,80.7c0.9,0.3,1.7,0.4,2.6,0.4c4,0,7.6-2.7,8.7-6.5c0.7-2.3,0.5-4.8-0.7-7
						c-1.2-2.1-3.1-3.7-5.4-4.4L413.9,408C413,407.8,412.1,407.6,411.2,407.6z"/>
				</g>
			</g>
			<g>
				<path class="st5" d="M703.6,79l232.9,48c0,0-88.4,228.1-125.4,276.9s-93.2,87.3-169.6,94.4l-216.9-64.8c-0.4-0.8-2.1-8,0-13.8
					c1.8-5,7.1-8.9,8.1-9.4c9.2,0.9,23.4,1.2,40.6,0c22.7-1.6,42.7-10.6,61.8-23.5C573.3,361.1,703.6,79,703.6,79z"/>
				<path class="st4" d="M641.5,501.3c-0.3,0-0.6,0-0.9-0.1l-216.9-64.8c-0.8-0.2-1.4-0.8-1.8-1.5c-0.8-1.6-2.5-9.6-0.2-16.2
					c2.1-6,8.2-10.3,9.5-11c0.5-0.3,1.1-0.4,1.7-0.3c10.6,1.1,25.2,1.1,40.1,0c20.1-1.4,39.2-8.7,60.3-23
					c37.1-25.1,166.2-303.9,167.5-306.7c0.6-1.3,2-2,3.3-1.7l232.9,48c0.9,0.2,1.6,0.7,2,1.5c0.4,0.8,0.5,1.7,0.2,2.5
					c-3.6,9.3-89,229.1-125.8,277.6c-29.7,39.1-83.6,87.4-171.7,95.6C641.7,501.3,641.6,501.3,641.5,501.3z M427,431.2l214.8,64.1
					c85.6-8.1,138-55.1,166.9-93.2c33.9-44.7,112.7-244.7,123.7-272.9L705.3,82.4c-13.1,28.1-131.4,281.8-168.5,307
					c-22,14.9-42.1,22.5-63.2,24c-14.7,1.1-29.2,1.1-40.1,0.1c-1.5,1.1-4.9,4-6.1,7.3C426.2,424.4,426.6,429,427,431.2z"/>
			</g>
			<g>
				<g>
					<line class="st3" x1="853.3" y1="292.2" x2="902.1" y2="459.8"/>
					<path class="st4" d="M902.1,462.8c-1.3,0-2.5-0.8-2.9-2.2l-48.7-167.5c-0.5-1.6,0.5-3.2,2-3.7c1.6-0.5,3.2,0.4,3.7,2L905,458.9
						c0.5,1.6-0.5,3.2-2,3.7C902.6,462.7,902.4,462.8,902.1,462.8z"/>
				</g>
				<g>
					<path class="st3" d="M902.1,471.9c-5.3,0-10.1-3.4-11.6-8.7l-48.7-167.5c-1.9-6.4,1.8-13.2,8.3-15c6.4-1.9,13.2,1.8,15,8.3
						l48.7,167.5c1.9,6.4-1.8,13.2-8.3,15C904.3,471.8,903.2,471.9,902.1,471.9z"/>
					<path class="st4" d="M902.1,474.9c-6.7,0-12.6-4.5-14.5-10.9l-48.7-167.5c-1.1-3.9-0.7-8,1.3-11.5c1.9-3.5,5.2-6.1,9-7.2
						c3.9-1.1,8-0.7,11.5,1.3c3.5,1.9,6.1,5.2,7.2,9l48.7,167.5c2.3,8-2.3,16.4-10.3,18.7C904.9,474.7,903.5,474.9,902.1,474.9z
						 M853.3,283.1c-0.9,0-1.7,0.1-2.6,0.4c-2.3,0.7-4.3,2.2-5.5,4.4c-1.2,2.1-1.4,4.6-0.8,7l48.7,167.5c1.1,3.9,4.7,6.6,8.8,6.6
						c0.9,0,1.7-0.1,2.6-0.4c4.8-1.4,7.6-6.5,6.2-11.3l-48.7-167.5c-0.7-2.3-2.2-4.3-4.4-5.5C856.4,283.5,854.9,283.1,853.3,283.1z"
						/>
				</g>
			</g>
			<g>
				<g>
					<line class="st3" x1="680.1" y1="499.7" x2="929.6" y2="459.9"/>
					<path class="st4" d="M680.1,502.7c-1.4,0-2.7-1-3-2.5c-0.3-1.6,0.9-3.2,2.5-3.4L929.1,457c1.6-0.3,3.2,0.9,3.4,2.5
						c0.3,1.6-0.9,3.2-2.5,3.4l-249.4,39.7C680.5,502.7,680.3,502.7,680.1,502.7z"/>
				</g>
				<g>
					<path class="st3" d="M680.1,511.8c-5.9,0-11-4.3-12-10.2c-1.1-6.6,3.5-12.8,10.1-13.9L927.7,448c6.6-1.1,12.8,3.5,13.9,10.1
						c1.1,6.6-3.5,12.8-10.1,13.9l-249.4,39.7C681.4,511.8,680.8,511.8,680.1,511.8z"/>
					<path class="st4" d="M680.1,514.8c-7.5,0-13.7-5.4-14.9-12.7c-0.6-4,0.3-8,2.7-11.3c2.4-3.3,5.9-5.4,9.9-6.1L927.2,445
						c4-0.6,8,0.3,11.2,2.7c3.3,2.4,5.4,5.9,6.1,9.9c0.6,4-0.3,8-2.7,11.3c-2.4,3.3-5.9,5.4-9.9,6.1l-249.4,39.7
						C681.7,514.8,680.9,514.8,680.1,514.8z M929.6,450.8c-0.5,0-1,0-1.5,0.1l-249.4,39.8c-2.4,0.4-4.5,1.7-6,3.7
						c-1.4,2-2,4.4-1.6,6.8c0.7,4.5,4.5,7.7,9,7.7c0.5,0,1,0,1.5-0.1L931,469c2.4-0.4,4.5-1.7,6-3.7c1.4-2,2-4.4,1.6-6.8
						c-0.4-2.4-1.7-4.5-3.7-6C933.4,451.4,931.5,450.8,929.6,450.8z"/>
				</g>
			</g>
			<g>
				<path class="st6" d="M904.8,199"/>
			</g>
			<g>
				<path class="st6" d="M676,151.3"/>
			</g>
			<g>
				<path class="st6" d="M874.9,276.2"/>
			</g>
			<g>
				<path class="st6" d="M646.2,228.6"/>
			</g>
			<g>
				<path class="st6" d="M827.3,370.8"/>
			</g>
			<g>
				<path class="st6" d="M602.3,307.5"/>
			</g>
			<g>
				<path class="st6" d="M775.7,468.2"/>
			</g>
			<g>
				<path class="st6" d="M502.7,386.4"/>
			</g>
		</g>
		<g>
			<g>
				<path class="st7" d="M835.6,154.9c0,0,7.2-0.1,21,7.2c13.6,7.3,26.1,21.4,28.9,46.8c2.8,25.1-8.6,47.2-21,59.9
					c-20.5,21.9-52.4,34.4-52.4,34.4l-11.6,4.7L835.6,154.9z"/>
			</g>
			<g>
				<circle class="st7" cx="684.6" cy="72.8" r="29.7"/>
			</g>
			<g>
				<circle class="st8" cx="684.6" cy="72.8" r="20.3"/>
			</g>
			<g>
				<path class="st7" d="M839.6,158.4c0.1-1.5,0.2-2.4,0.2-2.4l0,0c0.2-3.5,0.4-7.1,0.2-10.7c-0.7-12.9-4.1-25.8-12.3-35.9
					c-4.1-5-7.6-7.9-14.6-12.4c-12.5-7.6-32.5-15.1-52-20.9c-19.6-5.2-40.6-9.1-55.3-9c-8.3,0.3-12.9,0.9-18.9,3.1
					c-12.3,4.4-21.9,13.7-29.1,24.3c-2,3-3.9,6-5.6,9.1l0,0c0,0-16.7,29.9-34.3,69.8l-1.3-0.9c0,0-36.6,46.1-72.5,90
					c-24.6,30.1-28.1,71.8-8.7,98.4l95.9,45l87.3,51.6c11.7-5.6,24.6-8.5,33.3-16.5c63.8-58.9,69.3-156.3,69.3-156.3l-1.5-0.7
					c10.2-48.9,17-97.6,19.4-118.1c0.1-0.5,0.1-0.9,0.1-1.3l0.3-2c0.1-1.4,0.2-2.7,0.3-4.1c0,0,0,0,0,0
					C839.6,158.6,839.6,158.5,839.6,158.4z"/>
			</g>
			<g>
				<circle class="st7" cx="820.7" cy="110.8" r="29.7"/>
			</g>
			<g>
				<path class="st8" d="M839.6,117.8c3.6-9.6-0.9-20.7-10.1-25.2c-9.6-4.7-20.9-1.1-26.2,7.6c-0.6,1-0.5,2.2,0.2,3
					c4.4,5.4,13.5,19.4,16.6,26.1c0.5,1.1,1.6,1.7,2.8,1.6C830.2,130,836.8,125.3,839.6,117.8z"/>
			</g>
			<g>
				<line class="st7" x1="838.6" y1="134.5" x2="835.5" y2="136.6"/>
				<path class="st4" d="M835.5,139.6c-1,0-1.9-0.5-2.5-1.3c-0.9-1.4-0.5-3.2,0.8-4.1l3.1-2.1c1.4-0.9,3.2-0.5,4.1,0.8
					c0.9,1.4,0.5,3.2-0.8,4.1l-3.1,2.1C836.6,139.4,836.1,139.6,835.5,139.6z"/>
			</g>
			<g>
				<g>
					<g>
						<circle class="st4" cx="673.7" cy="128.6" r="9.6"/>
					</g>
					<g>
						<circle class="st7" cx="676.6" cy="126.8" r="3.6"/>
					</g>
				</g>
				<g>
					<path class="st4" d="M744,156.9c-0.9,0-1.9-0.1-2.9-0.4c-7.2-1.7-9.4-8.4-9.5-11.6c-0.1-1.7,1.2-3,2.9-3.1
						c1.6-0.1,3,1.2,3.1,2.9c0,0.5,0.4,5,4.9,6.1c4.5,1.1,6.6-2.8,6.7-3c0.8-1.5,2.6-2,4-1.3c1.5,0.8,2,2.6,1.3,4
						C753.2,152.9,749.6,156.9,744,156.9z"/>
				</g>
				<g>
					<path class="st9" d="M729.1,193.8c-8.6,12.7-26.3,13.6-39.1,10.3l0,0c-12.8-3.4-27.7-12.9-28.9-28.2c-1.1-14,9.4-32,21.7-37.6
						c7.7-3.6,16.4-1.5,24,0.5l0.7,0.2c7.7,2,16.2,4.5,21.2,11.4C736.7,161.3,737,182.1,729.1,193.8z"/>
				</g>
				<g>
					<path class="st8" d="M718.2,141.7c-4.5-1.8-9-3.3-13.7-4.5c-4.6-1.2-9.3-2.2-14.1-2.8c-7.1-0.6-9,2.7-8.7,9.8
						c0.4,7.6,4,20.9,13.3,23.6c9.5,2.2,21.8-6.9,25.9-13.3C724.7,148.5,724.7,144.7,718.2,141.7z"/>
				</g>
				<g>
					<path class="st4" d="M695.3,179.1c0,0-13.8-3.4-21.9-4.2c-2.2-0.2-4.1,1.6-4,3.9c0.3,5.6,3.5,15.6,20.7,20.1
						c17.2,4.6,24.9-2.5,27.9-7.3c1.2-1.9,0.5-4.4-1.6-5.4C709,182.9,695.3,179.1,695.3,179.1z"/>
				</g>
			</g>
			<g>
				<path class="st4" d="M785,224.5c-1.1,0-2.1-0.6-2.7-1.6c-0.8-1.5-0.2-3.3,1.3-4c12.7-6.6,46.4-25.9,50.1-36.4
					c0.5-1.6,2.3-2.4,3.8-1.8c1.6,0.5,2.4,2.3,1.8,3.8c-5.1,14.6-48.1,37.2-53,39.7C785.9,224.4,785.5,224.5,785,224.5z"/>
			</g>
			<g>
				<path class="st4" d="M812.1,306.2c-1.2,0-2.3-0.7-2.8-1.9c-0.6-1.5,0.2-3.3,1.7-3.9c0.5-0.2,48.6-18.9,64.6-52.6
					c9.4-19.8,9.7-43.1,0.8-60.9c-7.3-14.8-20.2-24.4-37.2-28c-1.6-0.3-2.7-1.9-2.3-3.5c0.3-1.6,1.9-2.7,3.5-2.3
					c18.9,3.9,33.2,14.7,41.4,31.1c9.7,19.4,9.4,44.7-0.8,66.1c-17,35.9-65.8,54.8-67.8,55.6C812.8,306.1,812.5,306.2,812.1,306.2z"
					/>
			</g>
			<g>
				<g>
					<path class="st7" d="M555.9,224.2l13.3,24.3l39.1-18.1l29.4-48.7l-30.5-13.2C607.3,168.4,552.3,206.6,555.9,224.2z"/>
				</g>
				<g>
					<path class="st8" d="M547.8,270.4l-5.1-9.2c0,0-20.6,25.1-19.8,56.8c0.3,11,5.7,29.9,5.7,29.9l61.7,50.9l96.6,66.2l28.3-6.4
						c0,0,28-8.3,41.5-21.8c12.4-12.5,22.8-28.9,38.1-53.8c0,0-92.5-8.3-164.4-45.7C573.8,307.8,557.2,282.6,547.8,270.4z"/>
				</g>
				<g>
					<path class="st7" d="M578.8,400.7c-0.9-10.6-4.1-26.1-18.4-44.9c-22.4-26.7-36.3-24.8-44.8-23.7l-2.4,0.6
						c-4.3-5.2-13.6-14.8-33.9-9.7c-20.8,6.3-28.3,32.8-11.2,71.1c4.8,10.1,10.5,17.8,16.4,24.3c16.5,16.8,34.7,23.3,55.4,9.1
						C554.3,417.8,578.8,400.7,578.8,400.7z"/>
				</g>
				<g>
					<path class="st7" d="M617.2,171.8c0,0-12.4,0-24.8-18s-23.2-40.5-47.9-32.2c-24.7,8.3-33.5,41.8-17.7,76.3
						c11.8,25.8,27.3,37.8,34.4,42.3"/>
					<path class="st4" d="M561.2,243.2c-0.5,0-1.1-0.1-1.6-0.5c-8.2-5.1-23.6-17.6-35.5-43.6c-9.5-20.7-10.8-42-3.7-58.4
						c4.7-10.9,12.8-18.5,23.2-22c24-8,36.2,10.5,47,26.9c1.4,2.2,2.9,4.4,4.3,6.5c11.2,16.3,21.9,16.7,22.3,16.7c1.6,0,3,1.4,2.9,3
						s-1.3,3-3,3c0,0,0,0,0,0c-0.6,0-14.1-0.2-27.2-19.3c-1.5-2.1-2.9-4.4-4.4-6.6c-10.5-16-20.5-31.1-40.1-24.5
						c-8.8,2.9-15.6,9.4-19.6,18.7c-6.4,14.8-5.1,34.3,3.7,53.5c11.7,25.5,27.1,37.1,33.3,41c1.4,0.9,1.8,2.7,0.9,4.1
						C563.2,242.7,562.2,243.2,561.2,243.2z"/>
				</g>
				<g>
					<path class="st10" d="M555.1,361.1"/>
				</g>
				<g>
					<path class="st11" d="M601.4,206.4"/>
				</g>
				<g>
					<path class="st4" d="M680.1,468.5c-1.5,0-2.8-1.2-3-2.7c-0.2-1.6,1.1-3.1,2.7-3.3c20.8-1.9,39.4-7,56.8-15.7
						c17.7-8,27.6-22.3,37.1-36.2l0.7-1c21.9-31.9,36.7-70.1,41.6-107.7l0.2-1.8c0.2-1.6,1.7-2.8,3.3-2.6c1.6,0.2,2.8,1.7,2.6,3.3
						l-0.2,1.8c-5,38.5-20.2,77.7-42.6,110.4l-0.7,1c-10,14.6-20.4,29.6-39.5,38.2c-18,8.9-37.3,14.3-58.8,16.2
						C680.2,468.5,680.1,468.5,680.1,468.5z"/>
				</g>
				<g>
					<path class="st4" d="M524.1,333.2c-1.4,0-2.7-1-2.9-2.5c-11.6-67.6,65.5-114.3,66.3-114.8c1.4-0.8,3.3-0.4,4.1,1
						c0.8,1.4,0.4,3.3-1,4.1c-0.7,0.4-74.4,45.1-63.4,108.6c0.3,1.6-0.8,3.2-2.4,3.5C524.4,333.2,524.2,333.2,524.1,333.2z"/>
				</g>
				<g>
					<path class="st4" d="M793.8,385.9c-0.1,0-0.1,0-0.2,0l-7.8-0.5c-0.1,0-0.1,0-0.2,0c-171.2-23.3-235.5-97.6-244.5-121.7
						c-0.6-1.5,0.2-3.3,1.8-3.8c1.5-0.6,3.3,0.2,3.8,1.8c3.8,10.3,20.8,34.3,60.2,59c32,20.1,89.2,46.6,179.3,58.9l7.6,0.5
						c1.6,0.1,2.9,1.5,2.8,3.2C796.7,384.7,795.3,385.9,793.8,385.9z"/>
				</g>
				<g>
					<path class="st4" d="M589,336.7c-0.5,0-0.9-0.1-1.4-0.3c-1.5-0.8-2-2.6-1.3-4c4.4-8.5,13-13.8,13.3-14.1c1.4-0.9,3.2-0.4,4.1,1
						c0.9,1.4,0.4,3.2-1,4.1l0,0c-0.1,0-7.5,4.7-11.2,11.7C591.1,336.1,590.1,336.7,589,336.7z"/>
				</g>
				<g>
					<path class="st4" d="M613.6,350.4c-1.4,0-2.7-1-2.9-2.4c-1.7-8.9,2.1-16.9,2.3-17.2c0.7-1.5,2.5-2.1,4-1.4
						c1.5,0.7,2.1,2.5,1.4,4c-0.1,0.1-3.1,6.6-1.8,13.4c0.3,1.6-0.7,3.2-2.4,3.5C614,350.4,613.8,350.4,613.6,350.4z"/>
				</g>
				<g>
					
						<ellipse transform="matrix(0.997 -7.698856e-02 7.698856e-02 0.997 -24.2515 46.1786)" class="st4" cx="586.8" cy="337.6" rx="5.7" ry="5.9"/>
				</g>
				<g>
					
						<ellipse transform="matrix(0.997 -7.698856e-02 7.698856e-02 0.997 -25.2066 48.3656)" class="st4" cx="614.7" cy="351.1" rx="5.7" ry="5.9"/>
				</g>
				<g>
					<g>
						<g>
							<path class="st12" d="M559.3,63c0-12.7,10.3-23,23-23s23,10.3,23,23"/>
						</g>
						<g>
							<defs>
								<path id="SVGID_00000097465437364975337610000015586456304581912966_" d="M559.3,63c0-12.7,10.3-23,23-23s23,10.3,23,23"/>
							</defs>
							<clipPath id="SVGID_00000008141288717331734890000008792561346253654924_">
								<use xlink:href="#SVGID_00000097465437364975337610000015586456304581912966_"  style="overflow:visible;"/>
							</clipPath>
							<g style="opacity:0.5;clip-path:url(#SVGID_00000008141288717331734890000008792561346253654924_);">
								<g>
									<path class="st7" d="M582.3,87.2c-1.1,0-2-0.9-2-2V40.8c0-1.1,0.9-2,2-2s2,0.9,2,2v44.4C584.3,86.3,583.4,87.2,582.3,87.2z
										"/>
								</g>
								<g>
									<path class="st7" d="M566.6,80.7c-0.5,0-1-0.2-1.4-0.6c-0.8-0.8-0.8-2,0-2.8l31.4-31.4c0.8-0.8,2-0.8,2.8,0
										c0.8,0.8,0.8,2,0,2.8L568,80.1C567.6,80.5,567.1,80.7,566.6,80.7z"/>
								</g>
								<g>
									<path class="st7" d="M598,80.7c-0.5,0-1-0.2-1.4-0.6l-31.4-31.4c-0.8-0.8-0.8-2,0-2.8c0.8-0.8,2-0.8,2.8,0l31.4,31.4
										c0.8,0.8,0.8,2,0,2.8C599,80.5,598.5,80.7,598,80.7z"/>
								</g>
							</g>
						</g>
						<g>
							<path class="st14" d="M605.3,66c-1.7,0-3-1.3-3-3c0-11-9-20-20-20s-20,9-20,20c0,1.7-1.3,3-3,3s-3-1.3-3-3
								c0-14.3,11.7-26,26-26s26,11.7,26,26C608.3,64.6,606.9,66,605.3,66z"/>
						</g>
					</g>
					<g>
						<g>
							<path class="st7" d="M583.1,66v1c0,13.8-11.2,25-25,25h-3.4v7.9c0,3.9-2.6,7.3-6.2,8.5l0,0c-0.9,0.3-1.8,0.4-2.8,0.4h-4.4
								c-1.3,0-2.6-0.3-3.7-0.8c-3.1-1.4-5.3-4.5-5.3-8.1V92h-3.5c-13.8,0-25-11.2-25-25v-1c0-1.5,1.3-2.8,2.8-2.8h73.7
								C581.8,63.2,583.1,64.5,583.1,66z"/>
						</g>
						<g>
							<g>
								<path class="st4" d="M541.3,136.9c0.2-6.2-0.5-14.3-0.9-19c-0.2-2.4-1.2-7.7-2.9-9.4c-0.1-0.1-0.2-0.2-0.3-0.4h0.4
									c1.1,0.5,2.4,0.8,3.7,0.8h4.4c1,0,1.9-0.2,2.8-0.4c-1.6,1.8-2.6,7-2.9,9.4c-0.5,4.7-1.2,12.8-0.9,19
									c0.3,9.4-1.9,18.2,15.9,22.1h-35.1C543.2,155.1,541,146.3,541.3,136.9z"/>
								<path class="st4" d="M560.5,161.9h-35.1c-1.5,0-2.8-1.2-3-2.7c-0.2-1.5,0.8-2.9,2.3-3.2c13.5-2.9,13.5-8.1,13.5-16
									c0-1.1,0-2.1,0-3.2c0,0,0,0,0,0c0.2-4.5-0.1-10.8-0.9-18.6c-0.3-3-1.4-6.9-2.1-7.7c-0.1-0.1-0.3-0.3-0.4-0.5
									c-0.8-0.9-0.9-2.1-0.4-3.2c0.5-1.1,1.5-1.7,2.7-1.7h0.4c0.4,0,0.9,0.1,1.3,0.3c0.7,0.3,1.5,0.5,2.4,0.5h4.4
									c0.6,0,1.2-0.1,1.8-0.3c1.3-0.4,2.7,0.1,3.4,1.2c0.7,1.1,0.6,2.6-0.3,3.6c-0.8,0.8-1.8,4.7-2.1,7.7
									c-0.5,5.3-1.1,12.9-0.9,18.6c0,1.1,0,2.2,0,3.2c0,7.9,0.1,13.1,13.5,16c1.5,0.3,2.5,1.7,2.3,3.2
									C563.3,160.8,562,161.9,560.5,161.9z M539.3,155.9h7.4c-1.8-1.7-3-3.5-3.7-5.5C542.2,152.4,541.1,154.3,539.3,155.9z
									 M542.3,111.9c0.3,1,0.5,2.1,0.7,2.9c0.2-0.9,0.4-1.9,0.7-2.9H542.3z"/>
							</g>
						</g>
						<g>
							<path class="st4" d="M545.6,111.9h-4.4c-1.8,0-3.5-0.4-5-1.1c-4.2-1.9-7-6.2-7-10.8V95h-0.5c-15.4,0-28-12.6-28-28v-1
								c0-3.2,2.6-5.8,5.8-5.8h73.7c3.2,0,5.8,2.6,5.8,5.8v1c0,15.5-12.6,28-28,28h-0.5v4.9c0,5.1-3.2,9.6-8,11.3
								c-0.1,0-0.2,0.1-0.3,0.1C548.1,111.7,546.9,111.9,545.6,111.9z M506.8,66.2V67c0,12.2,9.9,22,22,22h3.5c1.7,0,3,1.3,3,3v7.9
								c0,2.3,1.4,4.4,3.5,5.4c0.8,0.4,1.6,0.6,2.5,0.6h4.4c0.5,0,1.1-0.1,1.7-0.2c0.1,0,0.1-0.1,0.2-0.1c2.4-0.8,4.1-3.1,4.1-5.6
								V92c0-1.7,1.3-3,3-3h3.4c12.2,0,22-9.9,22-22v-0.8H506.8z"/>
						</g>
						<g>
							<path class="st12" d="M559,86.3h-31.2c-7.4,0-15.4-6-15.4-13.4v0c0-0.6,0.5-1.1,1.1-1.1h59.8c0.6,0,1.1,0.5,1.1,1.1v0
								C574.4,80.3,566.4,86.3,559,86.3z"/>
						</g>
						<g class="st15">
							<g>
								<circle class="st7" cx="556.8" cy="81.6" r="2.7"/>
							</g>
							<g>
								<circle class="st7" cx="562.3" cy="77.9" r="1.1"/>
							</g>
							<g>
								<circle class="st7" cx="537.5" cy="77.7" r="0.8"/>
							</g>
							<g>
								<circle class="st7" cx="526" cy="74.2" r="0.7"/>
							</g>
							<g>
								<ellipse class="st7" cx="555.2" cy="73.8" rx="0.6" ry="0.6"/>
							</g>
							<g>
								<ellipse class="st7" cx="523.3" cy="78.7" rx="1.8" ry="1.7"/>
							</g>
						</g>
					</g>
				</g>
				<g>
					<path class="st7" d="M518.8,342.9c0,0-8.8-28.2-39.6-19.8c-12.2,3.3-28.9,18.6-16.2,58.5c7.2,22.6,25.4,49.5,50.7,53.8
						c8.6,1.5,16.9-2.5,24.1-6.6c7.7-4.5,14.4-10.1,21.7-14.7"/>
					<path class="st4" d="M517.5,438.7c-1.4,0-2.8-0.1-4.2-0.4c-25.7-4.4-45.2-31.2-53-55.8c-6.3-19.8-6.3-35.8,0.1-47.5
						c4-7.3,10.6-12.7,18.1-14.8c33.2-9,43.1,21.5,43.2,21.8c0.5,1.6-0.4,3.3-2,3.7c-1.6,0.5-3.2-0.4-3.7-2l0,0
						c-0.3-1-8.4-25.3-35.9-17.8c-2.8,0.8-9.9,3.5-14.5,11.8c-5.5,10.1-5.4,24.9,0.4,42.8c7.3,22.9,25.1,47.8,48.3,51.7
						c7.6,1.3,15.5-2.4,22.1-6.3c4.3-2.5,8.4-5.4,12.4-8.3c3-2.1,6-4.3,9.2-6.4c1.4-0.9,3.2-0.5,4.1,0.9c0.9,1.4,0.5,3.2-0.9,4.1
						c-3,1.9-5.9,4-8.9,6.2c-4.1,2.9-8.3,6-12.9,8.6C532.9,435.1,525.4,438.7,517.5,438.7z"/>
				</g>
				<g>
					<path class="st9" d="M508.3,381.5c8.4,19.8,12.9,39,4.3,43.5c-8.6,4.5-25.2-8.1-35.3-27.1c-10.1-19-13-36.7-2.8-42.6
						C485.9,348.7,499.7,361.2,508.3,381.5z"/>
				</g>
				<g>
					<path class="st4" d="M576.3,389.9c-1.3,0-2.6-0.9-2.9-2.3c-2.1-8.5-8.9-22.6-17.2-32.1c-11.8-13.5-22.7-20.3-33.4-20.9
						c-3.2-0.2-5.1,0.1-8.7,1.1c-1.6,0.5-3.2-0.5-3.7-2c-0.5-1.6,0.5-3.2,2-3.7c3.6-1,6.4-1.6,10.7-1.3c12.4,0.7,24.7,8.2,37.6,23
						c9,10.3,16.1,25.2,18.5,34.6c0.4,1.6-0.6,3.2-2.2,3.6C576.8,389.9,576.5,389.9,576.3,389.9z"/>
				</g>
				<g>
					<g>
						<path class="st7" d="M686.9,465c-0.9-10.6-5.5-31-21-49.4c-22.4-26.7-49.4-26.2-57.9-25.1l-1.3,0.2c-6.5-6-16.2-11.3-27.9-6.7
							c-21.3,8.2-30,34.8-9.5,71.2c20.3,35.9,43.7,41.4,77.1,29.2C662.8,478.4,686.9,465,686.9,465z"/>
					</g>
					<g>
						<path class="st7" d="M686.9,465c-14.5,7.1-24.1,13.4-40.4,19.3c-33.4,12.2-56.8,6.7-77.1-29.2c-20.6-36.4-11.8-63,9.5-71.2
							c21.9-8.5,36.8,17.7,36.8,17.7"/>
						<path class="st4" d="M618.3,493.1c-21.3,0-37.5-11.8-51.5-36.5c-11.5-20.3-14.9-39.6-9.6-54.4c3.5-9.8,10.8-17.3,20.6-21.1
							c19.3-7.4,34.9,9.2,40.5,19c0.8,1.4,0.3,3.3-1.1,4.1c-1.4,0.8-3.3,0.3-4.1-1.1c0-0.1-3.6-6.3-9.6-11.3
							c-7.6-6.4-15.5-8.1-23.5-5c-8.3,3.2-14.2,9.3-17.1,17.5c-4.7,13.1-1.4,30.6,9.2,49.4c18.4,32.6,39,40.4,73.5,27.9
							c11-4,19-8.2,27.5-12.7c4-2.1,8-4.2,12.6-6.5c1.5-0.7,3.3-0.1,4,1.4c0.7,1.5,0.1,3.3-1.4,4c-4.5,2.2-8.5,4.3-12.4,6.4
							c-8.7,4.6-16.9,8.9-28.2,13.1C636.8,491.1,627.1,493.1,618.3,493.1z"/>
					</g>
					<g>
						<path class="st4" d="M686.9,468c-1.5,0-2.8-1.2-3-2.7c-0.7-7.9-4-28.3-20.3-47.7c-22.6-26.9-49.9-24.7-55.2-24
							c-1.6,0.2-3.1-0.9-3.4-2.6c-0.2-1.6,0.9-3.1,2.6-3.4c5.8-0.8,36-3.2,60.6,26.1c17.4,20.7,21,42.6,21.7,51.1
							c0.1,1.6-1.1,3.1-2.7,3.2C687.1,468,687,468,686.9,468z"/>
					</g>
					<g>
						<path class="st9" d="M608.7,439.8c9.1,19.1,14.3,37.8,5.9,42.7c-8.3,4.9-25.4-6.7-36.1-24.9c-10.8-18.2-14.3-35.6-4.4-41.9
							C585.1,408.7,599.4,420.3,608.7,439.8z"/>
					</g>
				</g>
				<g>
					<path class="st10" d="M611.7,371.5"/>
				</g>
				<g>
					<polygon class="st7" points="551.8,161.9 574.9,164.7 572.7,150.6 554.8,142.2 					"/>
				</g>
				<g>
					<path class="st7" d="M560.3,135.7c0,0-18.1-11.4-24.4,5.6c-4.4,12,16.6,21,16.6,21"/>
					<path class="st4" d="M552.5,165.3c-0.4,0-0.8-0.1-1.2-0.2c-1-0.4-23.6-10.3-18.3-24.8c2-5.4,5.3-9,9.8-10.5
						c8.7-3,18.6,3.1,19,3.4c1.4,0.9,1.8,2.7,0.9,4.1c-0.9,1.4-2.7,1.8-4.1,0.9c-0.1-0.1-7.9-4.9-13.9-2.8c-2.7,0.9-4.7,3.2-6.1,6.9
						c-3.3,9,14.8,17.2,15,17.2c1.5,0.7,2.2,2.4,1.6,3.9C554.7,164.6,553.6,165.3,552.5,165.3z"/>
				</g>
			</g>
			<g>
				<g>
					<path class="st3" d="M669.6,616.1c-2,0-4.1-0.5-6-1.6c-5.8-3.3-7.8-10.7-4.5-16.6l273.3-476.2c3.3-5.8,10.8-7.8,16.6-4.5
						c5.8,3.3,7.8,10.7,4.5,16.6L680.1,610C677.9,613.9,673.8,616.1,669.6,616.1z"/>
					<path class="st4" d="M669.6,619.1c-2.6,0-5.2-0.7-7.5-2c-7.2-4.2-9.7-13.4-5.6-20.6l273.3-476.2c4.2-7.2,13.4-9.7,20.6-5.6
						c7.2,4.1,9.7,13.4,5.6,20.6L682.7,611.5C680,616.2,675,619.1,669.6,619.1z M942.9,118.6c-3.2,0-6.3,1.6-7.9,4.6L661.7,599.4
						c-2.5,4.4-1,10,3.4,12.5c1.4,0.8,3,1.2,4.5,1.2c3.3,0,6.3-1.8,7.9-4.6l273.3-476.2c2.5-4.4,1-10-3.4-12.5
						C946,119,944.5,118.6,942.9,118.6z"/>
				</g>
			</g>
			<g>
				<path class="st4" d="M608.3,198.8c-1.7,0-3-1.3-3-3c0-0.5,0.1-0.9,0.3-1.3c20.4-50.1,43.7-91.9,43.9-92.3c0-0.1,0.1-0.2,0.1-0.2
					c1.9-3.4,3.7-6.4,5.6-9.1c0.6-0.8,1.1-1.7,1.8-2.5c-5-7.8-6.5-17.3-3.9-26.3c2.3-8.4,7.8-15.4,15.4-19.7
					c7.6-4.3,16.4-5.4,24.8-3c11.4,3.2,20,12,22.9,23.4c12.7,1.1,28.8,4.2,45.6,8.6c13.8,4.1,26.5,8.6,37,13.2
					c8.3-7.5,19.9-10.2,30.7-7.2c8.4,2.3,15.4,7.8,19.7,15.4c4.3,7.6,5.4,16.4,3,24.8c-1.8,6.3-5.3,11.9-10.3,16.1
					c0.5,3.2,0.9,6.4,1.1,9.5c0.2,3.9,0,7.6-0.2,10.8c0,0.1,0,0.2,0,0.3c0,0-0.1,0.9-0.2,2.4l-0.8,7.8c-0.4,3.3-0.8,6.5-1.4,10.5
					c-0.3,2.2-0.7,4.6-1,7.4c-0.2,1.6-1.7,2.8-3.4,2.6c-1.6-0.2-2.8-1.7-2.6-3.4c0.4-2.8,0.7-5.2,1-7.4c0.6-4,1-7.2,1.4-10.4
					l0.8-7.6c0.1-1,0.1-1.7,0.2-2.1c0-0.1,0-0.2,0-0.3c0.2-3,0.4-6.6,0.2-10.3c-0.2-3.5-0.6-7-1.3-10.5c-0.2-1.1,0.2-2.3,1.1-2.9
					c4.7-3.6,8-8.4,9.6-14.1c1.9-6.9,1-14.1-2.5-20.3c-3.5-6.2-9.2-10.7-16.1-12.6c-9.4-2.6-19.5,0.1-26.3,7.1
					c-0.9,0.9-2.2,1.2-3.4,0.6c-10.6-4.8-23.7-9.5-38-13.7c-17.4-4.6-34-7.7-46.7-8.6c-1.4-0.1-2.5-1.1-2.7-2.4
					c-1.9-10.1-9.2-18.2-19.1-20.9c-6.9-1.9-14.1-1-20.3,2.5c-6.2,3.5-10.7,9.2-12.6,16.1c-2.2,8-0.7,16.4,4.3,23
					c0.8,1.1,0.8,2.5,0,3.6c-1,1.3-2,2.6-2.9,3.9c-1.8,2.7-3.6,5.6-5.4,8.9c0,0.1-0.1,0.2-0.1,0.2c-1.9,3.4-24,43.7-43.5,91.6
					C610.6,198.1,609.5,198.8,608.3,198.8z"/>
			</g>
		</g>
	</g>
</g>
</svg>
