<svg width="71" height="57" viewBox="0 0 71 57" fill="none" xmlns="http://www.w3.org/2000/svg">
<path fill-rule="evenodd" clip-rule="evenodd" d="M70.0391 53.8225L2.31641 0.231934L0.511719 2.5127L4.03906 5.30444C3.89062 5.39355 3.75195 5.50122 3.62695 5.62573C3.22656 6.02637 3 6.56982 3 7.13647V15.949H17.4922L27.6152 23.9602H3V49.8635C3 50.4302 3.22656 50.9736 3.62695 51.3743C4.0293 51.7749 4.57422 52 5.14258 52H60.8574C61.1094 52 61.3555 51.9561 61.5879 51.8723C61.8594 51.7747 62.1094 51.623 62.3223 51.4241L68.2344 56.1033L70.0391 53.8225ZM41.0723 23.9602L63 41.3127V23.9602H41.0723ZM17.1113 5L30.9473 15.949H63V7.13647C63 6.56982 62.7734 6.02637 62.373 5.62573C61.9707 5.2251 61.4258 5 60.8574 5H17.1113ZM11.8398 31.4375C11.8398 31.1543 11.9531 30.8826 12.1523 30.6821C12.3535 30.4819 12.627 30.3694 12.9102 30.3694H25.2324C25.5156 30.3694 25.7891 30.4819 25.9902 30.6821C26.1914 30.8826 26.3027 31.1543 26.3027 31.4375V39.9829C26.3027 40.2664 26.1914 40.5378 25.9902 40.7383C25.9551 40.7739 25.916 40.8069 25.877 40.8369C25.8379 40.8657 25.7969 40.8918 25.7539 40.915C25.5957 41.0034 25.416 41.051 25.2324 41.051H12.9102C12.627 41.051 12.3535 40.9387 12.1523 40.7383C11.9531 40.5378 11.8398 40.2664 11.8398 39.9829V31.4375Z" fill="#222222"/>
</svg>
