<?xml version="1.0" encoding="utf-8"?>
<!-- Generator: Adobe Illustrator 28.3.0, SVG Export Plug-In . SVG Version: 6.00 Build 0)  -->
<svg version="1.1" id="레이어_1" xmlns="http://www.w3.org/2000/svg" xmlns:xlink="http://www.w3.org/1999/xlink" x="0px"
	 y="0px" width="1343px" height="552px" viewBox="0 0 1343 552" style="enable-background:new 0 0 1343 552;" xml:space="preserve">
<style type="text/css">
	
		.st0{clip-path:url(#SVGID_00000154391645958093882680000005399811179854914699_);fill:#FFFFFF;stroke:#2E4162;stroke-width:7;stroke-miterlimit:10;}
	.st1{clip-path:url(#SVGID_00000173155177379209262170000000362726268590973591_);}
	.st2{fill:#FFFFFF;}
	.st3{fill:#00A2DE;}
	.st4{fill:#A8A7A7;}
	.st5{fill:#2B4160;}
	.st6{fill:#8D8D8D;}
	.st7{fill:#6B6B6B;}
	.st8{fill:#F0F3F5;}
	.st9{fill:#F9C04B;}
	.st10{fill:#2E4162;}
</style>
<g>
	<g>
		<defs>
			<rect id="SVGID_1_" x="-101" y="29.3" width="1434" height="492.7"/>
		</defs>
		<clipPath id="SVGID_00000147906517155160976530000004349683513349619643_">
			<use xlink:href="#SVGID_1_"  style="overflow:visible;"/>
		</clipPath>
		
			<path style="clip-path:url(#SVGID_00000147906517155160976530000004349683513349619643_);fill:#FFFFFF;stroke:#2E4162;stroke-width:7;stroke-miterlimit:10;" d="
			M1245.1,519.4H81.8c-30.9,0-56.1-31.4-56.1-70.2l0,0c0-38.7,25.1-70.2,56.1-70.2h1163.3c30.9,0,56.1,31.4,56.1,70.2l0,0
			C1301.1,488.1,1276,519.4,1245.1,519.4z"/>
	</g>
</g>
<g>
	<defs>
		<rect id="SVGID_00000046298159061435952190000006072909551468894849_" x="164" y="-6" width="989" height="382"/>
	</defs>
	<clipPath id="SVGID_00000039122237686748822760000007216572493419711668_">
		<use xlink:href="#SVGID_00000046298159061435952190000006072909551468894849_"  style="overflow:visible;"/>
	</clipPath>
	<g style="clip-path:url(#SVGID_00000039122237686748822760000007216572493419711668_);">
		<g>
			<circle class="st2" cx="574.9" cy="113.2" r="36.2"/>
		</g>
		<g>
			<circle class="st2" cx="788.1" cy="113.2" r="36.2"/>
		</g>
		<g>
			<circle class="st3" cx="574.9" cy="113.2" r="24.7"/>
		</g>
		<g>
			<circle class="st3" cx="788.1" cy="113.2" r="24.7"/>
		</g>
		<g>
			<path class="st2" d="M796.6,530.1c56.9-73.1,27-228.5,27-228.5h0c-0.7-7-1.4-14-2.2-20.9c-7.6-65.3-21.1-120.7-21.1-120.7h0
				c-1-4.2-2.2-8.4-3.6-12.6c-5-14.8-13.2-28.9-26.2-38.1c-6.4-4.5-11.5-6.7-21.2-9.8c-17.2-4.8-43.1-7.1-67.8-7.5
				c-24.7,0.3-50.6,2.7-67.8,7.5c-9.7,3.1-14.8,5.2-21.2,9.8c-13,9.2-21.2,23.2-26.2,38.1c-1.4,4.1-2.6,8.3-3.6,12.6h0
				c0,0-16.4,67.7-23.3,141.6h0c0,0-30,155.4,27,228.5h0l-0.8,38.6c0,0-13.3,21.6,10.3,30.1c16.7,6.3,88.8,7.6,100.6,0
				c0,0,3.4-1.6,4.9-10c1.5,8.4,4.9,10,4.9,10c11.9,7.6,83.9,6.3,100.6,0c23.6-8.5,10.3-30.1,10.3-30.1L796.6,530.1z"/>
		</g>
		<g>
			<g>
				<path class="st4" d="M857.5,193.6l-2.9-77.9c-0.1-2.5,1.7-4.7,4-4.8l59.5-3.3c2.3-0.1,4.3,1.9,4.4,4.4l4.3,108.9
					c0.1,2.5-1.6,4.6-3.9,4.8l-5,0.4"/>
			</g>
			<g>
				<path class="st5" d="M918,229.9c-1.9,0-3.6-1.5-3.7-3.4c-0.2-2.1,1.4-3.9,3.4-4l5-0.4c0.1,0,0.5-0.4,0.5-0.9l-4.3-108.9
					c0-0.5-0.2-0.7-0.3-0.7l-59.6,3.2c-0.1,0-0.5,0.3-0.5,0.9l2.9,77.9c0.1,2.1-1.5,3.8-3.6,3.9c-2.1,0.1-3.8-1.5-3.9-3.6l-2.9-77.9
					c-0.2-4.5,3.2-8.4,7.5-8.7l59.5-3.3c2.1-0.1,4,0.6,5.6,2c1.7,1.5,2.7,3.7,2.7,6l4.3,108.9c0.2,4.5-3,8.3-7.3,8.7l-5,0.4
					C918.2,229.9,918.1,229.9,918,229.9z"/>
			</g>
			<g>
				<g>
					<path class="st6" d="M886,151.4l-14.2,0.7c-4.2,0.2-7.9-3.2-8.1-7.5l-0.7-19.7c-0.2-4.2,2.9-7.7,7-8l13.9-0.9
						c4.3-0.3,8,3.1,8.3,7.5l1,19.9C893.4,147.7,890.2,151.2,886,151.4z"/>
				</g>
				<g>
					<path class="st7" d="M879,126.8c0,3.4-2.3,6.2-5.3,6.2c-3,0-5.4-2.8-5.5-6.2c-0.1-3.5,2.3-6.3,5.3-6.3
						C876.5,120.5,878.9,123.4,879,126.8z"/>
				</g>
				<g>
					<path class="st7" d="M879.5,142.7c0,2.9-2,5.2-4.5,5.2c-2.5,0-4.6-2.3-4.7-5.2c-0.1-2.9,2-5.3,4.5-5.3S879.5,139.8,879.5,142.7
						z"/>
				</g>
				<g>
					<path class="st7" d="M889.4,134.3c0,2.7-1.9,4.9-4.2,4.9s-4.3-2.2-4.3-4.9c0-2.7,1.9-4.9,4.2-4.9
						C887.5,129.4,889.4,131.6,889.4,134.3z"/>
				</g>
			</g>
		</g>
		<g>
			<g>
				<path class="st5" d="M618.3,607.1c-1.6,0-3-1-3.5-2.6c-0.7-2.2-1-4.5-1-6.8c0-4.8,1.4-9.5,4.1-13.1c1.2-1.6,3.5-2,5.1-0.8
					c1.6,1.2,2,3.4,0.8,5.1c-1.7,2.4-2.7,5.6-2.7,8.9c0,1.6,0.2,3.2,0.7,4.7c0.6,1.9-0.5,4-2.4,4.5
					C619,607.1,618.7,607.1,618.3,607.1z"/>
			</g>
			<g>
				<path class="st5" d="M584.8,604.7c-1.6,0-3-1-3.5-2.6c-0.7-2.2-1-4.5-1-6.8c0-4.8,1.4-9.5,4.1-13.1c1.2-1.6,3.4-2,5.1-0.8
					c1.6,1.2,2,3.4,0.8,5.1c-1.7,2.4-2.7,5.6-2.7,8.9c0,1.6,0.2,3.2,0.7,4.7c0.6,1.9-0.5,4-2.4,4.5
					C585.5,604.6,585.1,604.7,584.8,604.7z"/>
			</g>
		</g>
		<g>
			<g>
				<path class="st5" d="M744.7,607.1c-0.3,0-0.7,0-1.1-0.2c-1.9-0.6-3-2.6-2.4-4.5c0.5-1.5,0.7-3.1,0.7-4.7c0-3.3-1-6.5-2.7-8.9
					c-1.2-1.6-0.8-3.9,0.8-5.1c1.6-1.2,3.9-0.8,5.1,0.8c2.6,3.7,4.1,8.3,4.1,13.1c0,2.3-0.3,4.6-1,6.8
					C747.7,606.1,746.2,607.1,744.7,607.1z"/>
			</g>
			<g>
				<path class="st5" d="M778.2,604.7c-0.3,0-0.7,0-1-0.2c-1.9-0.6-3-2.6-2.4-4.5c0.5-1.5,0.7-3.1,0.7-4.7c0-3.3-1-6.5-2.7-8.9
					c-1.2-1.6-0.8-3.9,0.8-5.1c1.6-1.2,3.9-0.8,5.1,0.8c2.6,3.7,4.1,8.3,4.1,13.1c0,2.3-0.3,4.6-1,6.8
					C781.2,603.7,779.8,604.7,778.2,604.7z"/>
			</g>
			<g>
				<path class="st5" d="M681.5,592.5c-2,0-3.6-1.6-3.6-3.6v-54.7c0-2,1.6-3.6,3.6-3.6c2,0,3.6,1.6,3.6,3.6v54.7
					C685.1,590.9,683.5,592.5,681.5,592.5z"/>
			</g>
		</g>
		<g>
			<path class="st5" d="M551.3,508.5c-1.4,0-2.7-0.8-3.3-2.1c-4.4-9.5-9.5-25.6-9.7-26.3c-14.3-51.4-7.7-104.7-7.4-106.9
				c0.3-2,2.1-3.4,4.1-3.2c2,0.3,3.4,2.1,3.2,4.1c-0.1,0.5-6.7,54.1,7.2,104c0,0,5.1,16.3,9.3,25.3c0.8,1.8,0.1,4-1.8,4.8
				C552.4,508.4,551.8,508.5,551.3,508.5z"/>
		</g>
		<g>
			<path class="st5" d="M811.7,508.5c-0.5,0-1-0.1-1.5-0.3c-1.8-0.8-2.6-3-1.8-4.8c4.2-9.1,9.3-25.3,9.4-25.4
				c13.8-49.8,7.2-103.3,7.2-103.8c-0.3-2,1.2-3.8,3.2-4.1c2-0.2,3.8,1.2,4.1,3.2c0.3,2.2,6.8,55.5-7.4,106.8
				c-0.3,0.8-5.4,16.9-9.8,26.4C814.4,507.8,813,508.5,811.7,508.5z"/>
		</g>
		<g>
			<g>
				<path class="st8" d="M724.4,235.3c-6.2,18.7-26.7,25.6-42.9,25.6h0c-16.1,0-36.6-7-42.9-25.6c-5.7-17.1,1.2-42.9,13.9-54
					c8-7,18.9-7.2,28.5-7.2h0.9c9.6,0,20.5,0.2,28.5,7.2C723.1,192.4,730,218.2,724.4,235.3z"/>
			</g>
			<g>
				<path class="st3" d="M699,174c-5.8-0.7-11.7-1.1-17.5-1.1c-5.8,0-11.7,0.4-17.5,1.1c-8.6,1.5-9.8,6-7.1,14.3
					c2.8,8.8,12.8,23.4,24.7,23.7c11.8-0.3,21.8-14.9,24.7-23.7C708.8,180,707.6,175.5,699,174z"/>
			</g>
			<g>
				<path class="st5" d="M627.1,187.3c-1.3,0-2.5-0.7-3.2-1.9c-1-1.8-0.3-4,1.5-4.9l11-5.9c-3.5-2.6-9.5-3.1-11.9-3.1c0,0,0,0-0.1,0
					c-2,0-3.6-1.6-3.6-3.6c0-2,1.6-3.7,3.6-3.7c0.7,0,16.2-0.2,20.9,9.9c0.8,1.7,0.1,3.8-1.6,4.7l-14.8,8
					C628.2,187.2,627.7,187.3,627.1,187.3z"/>
			</g>
			<g>
				<g>
					<circle class="st5" cx="725.5" cy="173.9" r="11.7"/>
				</g>
				<g>
					<circle class="st2" cx="728.3" cy="170.8" r="4.4"/>
				</g>
			</g>
			<g>
				<path class="st5" d="M687.6,255.8c-1.2,0-2.3-0.1-3.2-0.2c-2-0.2-3.5-1.9-3.3-3.9c0.2-2,1.9-3.6,3.9-3.3c2,0.2,5.1,0.4,6.5-0.8
					c0.8-0.7,1.2-2.1,1.4-4c0.2-4-4.9-4.5-5.9-4.6c-1.7-0.1-3.2-1.4-3.4-3.2c-0.2-1.7,0.8-3.4,2.4-3.9l0,0c0,0,1.3-0.5,2.3-1.5
					c0.7-0.8,1.3-1.8,0.6-3.9c-0.4-1.2-0.9-1.3-1-1.4c-1.1-0.4-3.4,0.5-4.3,1.1c-1.7,1.1-3.9,0.6-5-1.1c-1.1-1.7-0.6-3.9,1.1-5
					c0.6-0.4,5.7-3.6,10.6-1.9c1.8,0.6,4.2,2.1,5.6,5.8c1.4,3.9,0.7,6.8-0.2,8.7c-0.2,0.5-0.5,0.9-0.8,1.4c3.7,2.2,5.6,5.7,5.4,10
					c-0.2,4-1.5,7.1-3.8,9.1C693.7,255.3,690.4,255.8,687.6,255.8z"/>
			</g>
		</g>
		<g>
			<path class="st5" d="M631.8,607.7c-17.9,0-36.3-1.2-47.1-3c-0.3,0-0.7-0.1-1-0.2c-3.8-0.7-6.8-1.4-9-2.2
				c-8-2.9-13.1-7.5-15.3-13.7c-3.1-8.8,1.1-17.9,2.6-20.8l0.7-36.4c-6.9-9.1-12.9-19.9-17.8-32c-0.7-1.9,0.2-4,2-4.7
				c1.9-0.7,4,0.2,4.7,2c4.8,12,10.7,22.5,17.5,31.3c0.5,0.7,0.8,1.5,0.8,2.3l-0.8,38.6c0,0.7-0.2,1.3-0.5,1.8c0,0.1-5,8.4-2.5,15.5
				c1.4,4,5.1,7.1,10.9,9.2c1.9,0.7,4.6,1.4,8.1,2c0,0,0.1,0,0.1,0c25.4,4.3,80.2,4.1,89.2-1.6c0.2-0.1,0.1-0.1,0.2-0.2
				c0.4-0.4,2.1-2.2,3-7.4c0.3-1.7,1.8-3,3.6-3c1.8,0,3.3,1.3,3.6,3c0.9,5.2,2.6,7,3,7.4c0.1,0,0,0,0.2,0.2c9,5.8,63.9,6,89.2,1.6
				c0,0,0.1,0,0.1,0c3.5-0.6,6.2-1.3,8.1-2c5.9-2.1,9.6-5.2,11-9.2c2.5-7.2-2.4-15.4-2.5-15.5c-0.3-0.6-0.5-1.2-0.5-1.8l-0.8-38.6
				c0-0.8,0.3-1.7,0.8-2.3c6.8-8.8,12.7-19.3,17.6-31.3c0.7-1.9,2.9-2.8,4.7-2c1.9,0.7,2.8,2.9,2,4.7c-4.9,12.2-10.9,23-17.8,32
				l0.7,36.4c1.5,2.9,5.7,12,2.6,20.8c-2.2,6.2-7.3,10.8-15.4,13.7c-2.1,0.8-5,1.5-8.8,2.2c-0.4,0.2-0.9,0.2-1.3,0.2
				c-23.2,3.8-81.2,5-93.6-2.7c-0.6-0.4-1.8-1.2-3-3c-1.2,1.8-2.4,2.6-3,3C671.8,606.1,652.2,607.7,631.8,607.7z M688,595.6
				L688,595.6L688,595.6z M675,595.6L675,595.6L675,595.6z"/>
		</g>
		<g>
			<path class="st5" d="M815,238.6c-1.8,0-3.3-1.3-3.6-3.1c-6.5-40.5-13.7-70.9-14.5-74.3c0-0.1-0.1-0.2-0.1-0.3
				c-1-4.1-2-7.9-3.2-11.5c-0.3-1-0.2-2,0.3-2.9c0.5-0.9,1.3-1.5,2.3-1.8c14.5-3.6,24.6-16.6,24.6-31.5c0-17.9-14.6-32.5-32.5-32.5
				c-13.7,0-26.1,8.7-30.7,21.7c-0.7,1.9-2.7,2.9-4.6,2.2c-1.4-0.5-2.9-1-4.6-1.5c-15.2-4.2-39.6-6.9-66.8-7.3
				c-27.1,0.4-51.5,3.1-66.8,7.3c-1.6,0.5-3.1,1-4.5,1.5c-1.9,0.7-4-0.3-4.6-2.2c-4.6-13-16.9-21.7-30.7-21.7
				c-17.9,0-32.5,14.6-32.5,32.5c0,14.9,10.1,27.9,24.6,31.5c1,0.2,1.8,0.9,2.3,1.8c0.5,0.9,0.6,1.9,0.3,2.9
				c-1.2,3.6-2.3,7.3-3.2,11.5c0,0.1-0.1,0.2-0.1,0.3c-0.5,2.3-3.9,16.7-8,37.9c-0.4,2-2.3,3.3-4.3,2.9c-2-0.4-3.3-2.3-2.9-4.3
				c4.5-23.3,8.2-38.4,8.2-38.6c0-0.1,0.1-0.2,0.1-0.3c0.7-2.9,1.4-5.6,2.2-8.2c-15.7-5.6-26.4-20.5-26.4-37.5
				c0-22,17.9-39.8,39.8-39.8c15.6,0,29.7,9.2,36.2,23.3c0.5-0.2,1-0.3,1.5-0.5c16-4.5,41.1-7.2,68.9-7.6
				c27.9,0.4,52.9,3.2,68.9,7.6c0.6,0.2,1.1,0.4,1.7,0.5c6.4-14,20.6-23.3,36.2-23.3c22,0,39.8,17.9,39.8,39.8
				c0,17-10.7,31.9-26.4,37.5c0.8,2.6,1.5,5.3,2.2,8.2c0,0.1,0.1,0.2,0.1,0.3c0.1,0.3,7.7,32.1,14.7,75.2c0.3,2-1,3.9-3,4.2
				C815.3,238.6,815.1,238.6,815,238.6z"/>
		</g>
		<g>
			<g>
				<path class="st2" d="M799.5,251.2c0,0,25.8-25.8,36.8-41.7c11-15.9,20-27.2,44.6-23.5c24.7,3.7,43.1,20,41.9,59.9
					c-1.4,46.2-72.3,116.2-94.3,127.7"/>
				<path class="st5" d="M828.5,377.3c-1.3,0-2.6-0.7-3.2-1.9c-0.9-1.8-0.3-4,1.5-4.9c21.1-11.1,91-80.3,92.3-124.6
					c1-33.2-12.1-52.1-38.8-56.2c-22.3-3.4-30.2,6.2-41.1,22c-11,15.9-36.1,41.1-37.2,42.2c-1.4,1.4-3.7,1.4-5.2,0
					c-1.4-1.4-1.4-3.7,0-5.2c0.3-0.3,25.7-25.8,36.4-41.2c9.9-14.4,20.2-29.2,48.2-25c21.3,3.2,46.4,16.9,45,63.6
					c-1.4,47.6-73.5,118.9-96.2,130.8C829.7,377.2,829.1,377.3,828.5,377.3z"/>
			</g>
			<g>
				<path class="st5" d="M877.9,213.1c-0.7,0-1.4-0.2-2-0.6c-1.7-1.1-2.2-3.4-1.1-5c5.6-8.5,3.2-18.8,3.2-18.9
					c-0.5-2,0.7-3.9,2.7-4.4c2-0.5,3.9,0.7,4.4,2.7c0.1,0.5,3.1,13.4-4.2,24.6C880.2,212.6,879.1,213.1,877.9,213.1z"/>
			</g>
			<g>
				<path class="st5" d="M902,222.4c-0.5,0-0.9-0.1-1.4-0.3c-1.9-0.8-2.7-2.9-2-4.8c5.2-12.3,1.5-20.4,1.3-20.7
					c-0.9-1.8-0.1-4,1.7-4.9c1.8-0.9,4-0.1,4.8,1.6c0.2,0.4,5.4,11.2-1.1,26.8C904.8,221.5,903.5,222.4,902,222.4z"/>
			</g>
		</g>
		<g>
			<g>
				<path class="st2" d="M540.5,345.2c0.5-4.8,9.2-12,25.2-21.1s38-30.5,38.6-52.4c0.6-21.9-10.9-59.2-37-69.8
					c-26.1-10.6-34.4,6.9-32.4,22.3c0,0-49.7,21.1-67.7,47.6c-18,26.6-11,63.1,9.5,81.5c27.7,24.8,57.8,20.2,57.8,20.2"/>
				<path class="st5" d="M528.4,377.6c-10.8,0-33.1-2.6-54.2-21.5c-20.5-18.3-30.2-56.5-10.1-86.2c16.2-24,56.4-43.2,66.8-47.9
					c-0.6-9.6,2.6-18,8.7-22.7c4.8-3.7,13.8-6.9,28.9-0.7c27.9,11.3,40,50.4,39.3,73.3c-0.7,24.2-24.6,46.4-40.5,55.4
					c-22.2,12.6-23.3,17.7-23.3,18.3c-0.2,2-2,3.5-4,3.3c-2-0.2-3.5-2-3.3-4c0.4-4.3,3.8-10.8,27-23.9c13.9-7.9,36.2-28.2,36.8-49.3
					c0.6-21.7-11.2-56.8-34.8-66.3c-9.5-3.8-17-3.9-21.8-0.3c-5.4,4.2-6.5,12.4-5.7,18.8c0.2,1.6-0.7,3.2-2.2,3.8
					c-0.5,0.2-49,21-66.1,46.3c-17.3,25.6-9.4,60.4,8.9,76.7c26,23.2,54.6,19.4,54.9,19.3c2-0.3,3.8,1.1,4.1,3.1
					c0.3,2-1.1,3.8-3.1,4.1C534.7,377.3,532.2,377.6,528.4,377.6z"/>
			</g>
			<g>
				<path class="st5" d="M546.2,215.5c-0.2,0-0.3,0-0.5,0c-2-0.3-3.4-2.1-3.1-4.1c0-0.4,1.3-8.9,7.4-15.1c1.4-1.4,3.7-1.5,5.2-0.1
					s1.5,3.7,0.1,5.2c-4.4,4.5-5.3,11-5.4,11C549.5,214.2,548,215.5,546.2,215.5z"/>
			</g>
			<g>
				<path class="st5" d="M565.2,219C565.2,219,565.2,219,565.2,219c-2.1,0-3.7-1.7-3.6-3.7c0-0.4,0.2-9.8,6.7-14.7
					c1.6-1.2,3.9-0.9,5.1,0.7c1.2,1.6,0.9,3.9-0.7,5.1c-3.1,2.3-3.8,7.5-3.9,9.1C568.8,217.4,567.2,219,565.2,219z"/>
			</g>
		</g>
		<g>
			<g>
				<path class="st9" d="M849.9,45.6c-11,4.3-15.5,17-17.3,25c-1.8-8-6.4-20.7-17.3-25c11-4.3,15.5-17,17.4-25
					C834.5,28.7,839,41.3,849.9,45.6z"/>
				<path class="st9" d="M832.6,74.3c-1.7,0-3.2-1.2-3.6-2.8c-1.6-6.8-5.6-18.7-15.1-22.4c-1.4-0.6-2.3-1.9-2.3-3.4
					c0-1.5,0.9-2.8,2.3-3.4c9.6-3.7,13.6-15.7,15.1-22.4c0.4-1.7,1.9-2.8,3.6-2.8c0,0,0,0,0,0c1.7,0,3.2,1.2,3.5,2.8
					c1.5,6.7,5.5,18.6,15,22.4c1.4,0.6,2.3,1.9,2.3,3.4c0,1.5-0.9,2.8-2.3,3.4c-9.6,3.8-13.6,15.7-15.1,22.4
					C835.8,73.1,834.3,74.3,832.6,74.3C832.6,74.3,832.6,74.3,832.6,74.3z M822.6,45.7c4.5,3.5,7.7,8.3,9.9,13.3
					c2.2-4.9,5.4-9.8,10-13.4c-4.6-3.6-7.7-8.5-9.9-13.3C830.4,37.4,827.2,42.2,822.6,45.7z"/>
			</g>
			<g>
				<path class="st9" d="M875.1,75.1c-5.1,2-7.2,7.8-8,11.6c-0.9-3.7-2.9-9.6-8-11.5c5.1-2,7.2-7.8,8-11.6
					C868,67.2,870.1,73.1,875.1,75.1z"/>
				<path class="st9" d="M867.1,90.3c-1.7,0-3.2-1.2-3.6-2.8c-0.6-2.7-2.2-7.6-5.8-9c-1.4-0.6-2.3-1.9-2.3-3.4
					c0-1.5,0.9-2.8,2.3-3.4c3.6-1.4,5.2-6.2,5.8-9c0.4-1.7,1.9-2.8,3.6-2.8c0,0,0,0,0,0c1.7,0,3.2,1.2,3.5,2.8c0.5,2.2,2,7.5,5.7,9
					c1.4,0.6,2.3,1.9,2.3,3.4c0,1.5-0.9,2.8-2.3,3.4c-3.6,1.4-5.2,6.2-5.8,9C870.3,89.1,868.8,90.3,867.1,90.3
					C867.1,90.3,867.1,90.3,867.1,90.3z M865.4,75.1c0.6,0.7,1.2,1.4,1.7,2.1c0.5-0.8,1.1-1.5,1.7-2.1c-0.6-0.6-1.2-1.3-1.7-2.1
					C866.6,73.7,866.1,74.4,865.4,75.1z"/>
			</g>
		</g>
		<g>
			<path class="st5" d="M681.8,537.8c-13.2,0-26.5-2.5-34.7-7.5c-1.7-1-2.3-3.3-1.2-5c1-1.7,3.3-2.3,5-1.2c14.1,8.5,48,8.5,61.3,0
				c1.7-1.1,4-0.6,5,1.1c1.1,1.7,0.6,4-1.1,5C708.2,535.3,695,537.8,681.8,537.8z"/>
		</g>
	</g>
</g>
<g>
	<path class="st10" d="M291.4,428.5c0-2.9,0.5-5.7,1.6-8.5c1.1-2.8,2.6-5.3,4.7-7.4c2-2.2,4.5-3.9,7.3-5.3c2.8-1.4,6-2,9.6-2h34.9
		c3.5,0,6.7,0.7,9.5,2c2.9,1.4,5.3,3.1,7.3,5.3c2,2.2,3.6,4.7,4.7,7.4c1.1,2.8,1.6,5.6,1.6,8.5v7.5c0,2.9-0.5,5.7-1.4,8.3
		c-0.9,2.6-2.3,4.9-4.2,7c-1.9,2-4.2,3.7-7.1,4.9c-2.8,1.2-6.1,1.8-9.9,1.8h-9.2V480h28.5c2,0,3.6,0.2,4.9,0.6
		c1.3,0.4,2.3,0.9,3,1.6c0.7,0.7,1.2,1.5,1.4,2.4c0.2,0.9,0.4,1.9,0.4,2.9c0,0.9-0.1,1.7-0.4,2.6c-0.3,0.9-0.7,1.7-1.4,2.4
		c-0.7,0.7-1.7,1.2-3,1.7c-1.3,0.4-2.9,0.6-4.9,0.6h-74.4c-2,0-3.6-0.2-4.9-0.6c-1.3-0.4-2.3-1-3-1.7c-0.7-0.7-1.2-1.5-1.4-2.4
		c-0.3-0.9-0.4-1.8-0.4-2.6c0-1.1,0.1-2.1,0.4-2.9c0.2-0.9,0.7-1.7,1.4-2.4c0.7-0.7,1.7-1.2,3-1.6c1.3-0.4,2.9-0.6,4.9-0.6h28.6
		v-22.1h-9.3c-3.8,0-7.1-0.6-9.9-1.8c-2.8-1.2-5.2-2.8-7.1-4.9c-1.9-2-3.3-4.4-4.3-7c-1-2.6-1.4-5.4-1.4-8.3V428.5z M308.7,433.3
		c0,2.6,0.7,4.9,2.2,6.7c1.5,1.9,3.7,2.9,6.8,3h28.5c3.1-0.1,5.3-1.1,6.8-3c1.5-1.9,2.2-4.1,2.2-6.7v-3.4c0-2.7-0.7-5-2.2-6.9
		c-1.5-1.9-3.8-2.8-7.1-2.8H318c-3.3,0-5.7,0.9-7.1,2.8c-1.5,1.9-2.2,4.2-2.2,6.9V433.3z"/>
	<path class="st10" d="M405.3,413.5c0-1.8,0.2-3.3,0.8-4.5c0.5-1.2,1.2-2.2,2-2.9c0.8-0.7,1.8-1.2,2.8-1.5c1.1-0.3,2.2-0.4,3.3-0.4
		c1.1,0,2.2,0.1,3.3,0.4c1.1,0.3,2,0.8,2.8,1.5c0.8,0.7,1.5,1.7,2,2.9c0.5,1.2,0.7,2.7,0.7,4.5v36.6c0,3,0.2,5.7,0.7,8.2
		c0.5,2.5,1.3,4.8,2.4,7c1.1,2.2,2.7,4.3,4.6,6.3c1.9,2,4.3,4.1,7.1,6.1c2.3,1.6,3.8,3.5,4.6,5.6c0.8,2.1,0.4,4.2-1,6.5
		c-0.8,1.2-1.7,2.1-2.8,2.7c-1.1,0.6-2.3,0.9-3.6,1c-0.8,0-1.6-0.1-2.5-0.3c-0.9-0.2-1.7-0.6-2.5-1.1c-3.2-2.3-6.1-4.8-8.6-7.4
		c-2.5-2.7-4.7-5.5-6.6-8.5c-1.9,3.2-4,6.2-6.4,8.9c-2.4,2.7-5.1,5-8.1,7c-1.9,1.2-4.1,1.9-6.4,2c-1.2,0.1-2.5-0.1-3.7-0.6
		c-1.3-0.5-2.4-1.5-3.2-2.9c-1.4-2.3-1.8-4.5-1-6.5c0.8-2.1,2.3-3.9,4.6-5.6c2.9-2,5.2-4.1,7.1-6.2c1.9-2.1,3.4-4.3,4.6-6.6
		c1.1-2.3,1.9-4.7,2.4-7.3c0.5-2.6,0.7-5.4,0.7-8.4V413.5z M450.2,413.5c0-3.6,0.9-6,2.6-7.3c1.7-1.3,3.8-2,6.1-2
		c1.1,0,2.2,0.1,3.3,0.4c1,0.3,1.9,0.8,2.7,1.5c0.8,0.7,1.4,1.7,1.9,2.9c0.5,1.2,0.8,2.7,0.8,4.5v25.7h6.7c2,0,3.6,0.2,4.9,0.7
		c1.3,0.5,2.3,1.1,3,1.8c0.7,0.7,1.2,1.5,1.4,2.4c0.2,0.9,0.4,1.8,0.4,2.6c0,1.1-0.1,2.1-0.4,3c-0.3,0.9-0.7,1.7-1.4,2.4
		c-0.7,0.7-1.7,1.2-3,1.7c-1.3,0.4-2.9,0.6-4.9,0.6h-6.7v32.2c0,1.9-0.3,3.4-0.8,4.6c-0.5,1.2-1.1,2.2-1.9,2.9
		c-0.8,0.7-1.7,1.2-2.7,1.5c-1,0.3-2.1,0.4-3.3,0.4c-1.1,0-2.2-0.1-3.3-0.4c-1-0.3-2-0.8-2.8-1.5c-0.8-0.7-1.5-1.7-1.9-2.9
		c-0.5-1.2-0.7-2.7-0.7-4.6V413.5z"/>
	<path class="st10" d="M526.2,405.4c1.9,0,3.4,0.2,4.5,0.6c1.1,0.4,1.9,0.9,2.5,1.6c0.6,0.7,0.9,1.5,1.1,2.5c0.1,1,0.2,2.1,0.2,3.4
		v41.8c0,1.9-0.2,4.4-0.6,7.6c-0.4,3.2-1.1,6.6-2,10.1c-1,3.5-2.2,6.9-3.9,10.3c-1.6,3.4-3.6,6.1-5.9,8.2c-1,0.9-2.1,1.7-3.3,2.3
		c-1.2,0.6-2.4,1-3.6,1.1c-1.3,0.1-2.5-0.1-3.6-0.5s-2.3-1.2-3.4-2.4c-1.4-1.4-2.1-3.2-2.1-5.4c-0.1-2.1,0.6-4.1,2-5.9
		c1.8-2.2,3.2-4.3,4.3-6.3c1.1-2,2-4,2.6-6.1c0.6-2,1-4.1,1.3-6.3c0.2-2.1,0.4-4.5,0.5-7h-19.4c-2,0-3.6-0.2-4.9-0.6
		c-1.3-0.4-2.3-0.9-3-1.6c-0.7-0.7-1.2-1.5-1.4-2.4c-0.3-0.9-0.4-1.9-0.4-2.9c0-0.9,0.1-1.7,0.4-2.6c0.2-0.9,0.7-1.7,1.4-2.4
		c0.7-0.7,1.7-1.2,3-1.7c1.3-0.4,2.9-0.6,4.9-0.6h19.4v-20.2h-18c-2,0-3.6-0.2-4.9-0.6c-1.3-0.4-2.3-0.9-3-1.6
		c-0.7-0.7-1.2-1.5-1.4-2.4c-0.3-0.9-0.4-1.9-0.4-2.9c0-0.9,0.1-1.7,0.3-2.6c0.2-0.9,0.7-1.7,1.3-2.4c0.7-0.7,1.6-1.2,2.8-1.7
		c1.2-0.4,2.8-0.6,4.8-0.6H526.2z M552.9,413.5c0-3.6,0.9-6,2.6-7.3c1.7-1.3,3.8-2,6.1-2c1.1,0,2.2,0.1,3.3,0.4
		c1,0.3,1.9,0.8,2.7,1.5c0.8,0.7,1.4,1.7,1.9,2.9c0.5,1.2,0.7,2.7,0.7,4.5v25.7h6.7c2,0,3.6,0.2,4.9,0.7c1.3,0.5,2.3,1.1,3,1.8
		c0.7,0.7,1.2,1.5,1.4,2.4c0.2,0.9,0.4,1.8,0.4,2.6c0,1.1-0.1,2.1-0.4,3c-0.3,0.9-0.7,1.7-1.4,2.4c-0.7,0.7-1.7,1.2-3,1.7
		c-1.3,0.4-2.9,0.6-4.9,0.6h-6.7v32.2c0,1.9-0.3,3.4-0.7,4.6c-0.5,1.2-1.1,2.2-1.9,2.9c-0.8,0.7-1.7,1.2-2.7,1.5
		c-1,0.3-2.1,0.4-3.3,0.4c-1.1,0-2.2-0.1-3.3-0.4c-1-0.3-2-0.8-2.8-1.5c-0.8-0.7-1.5-1.7-1.9-2.9c-0.5-1.2-0.7-2.7-0.7-4.6V413.5z"
		/>
	<path class="st10" d="M632,454.6c0-2.9,0.5-5.3,1.6-7.3c1.1-2,2.6-3.6,4.7-4.9c2-1.2,4.5-2.2,7.3-2.7c2.8-0.6,6-0.9,9.6-0.9h28.5
		c3.5,0,6.7,0.3,9.5,0.9c2.9,0.6,5.3,1.5,7.3,2.7c2,1.3,3.6,2.9,4.7,4.9c1.1,2,1.6,4.4,1.6,7.3v3.2c0,4.5-1.9,8.1-5.6,10.8
		c-3.7,2.7-9.4,4.1-17,4.1h-6v7.3h28.5c2,0,3.6,0.2,4.9,0.6s2.3,0.9,3,1.6c0.7,0.7,1.2,1.5,1.4,2.4c0.2,0.9,0.4,1.9,0.4,2.9
		c0,0.9-0.1,1.7-0.4,2.6c-0.2,0.9-0.7,1.7-1.4,2.4c-0.7,0.7-1.7,1.2-3,1.7s-2.9,0.6-4.9,0.6h-74.4c-2,0-3.6-0.2-4.9-0.6
		c-1.3-0.4-2.3-1-3-1.7c-0.7-0.7-1.2-1.5-1.4-2.4c-0.3-0.9-0.4-1.8-0.4-2.6c0-1.1,0.1-2.1,0.4-2.9c0.2-0.9,0.7-1.7,1.4-2.4
		c0.7-0.7,1.7-1.2,3-1.6c1.3-0.4,2.9-0.6,4.9-0.6h28.6v-7.3h-6.1c-7.6-0.1-13.2-1.4-17-4c-3.8-2.6-5.7-6.2-5.7-10.9V454.6z
		 M627.6,427.5c0-1.1,0.1-2,0.4-2.9c0.2-0.9,0.7-1.6,1.4-2.2c0.7-0.6,1.7-1.1,3-1.4c1.3-0.3,2.9-0.5,4.9-0.5h63.8
		c2,0,3.6,0.2,4.9,0.5c1.3,0.3,2.3,0.8,3,1.4c0.7,0.6,1.2,1.3,1.4,2.2c0.2,0.9,0.4,1.8,0.4,2.9c0,0.9-0.1,1.7-0.4,2.5
		c-0.2,0.8-0.7,1.6-1.4,2.2c-0.7,0.6-1.7,1.1-3,1.5c-1.3,0.4-2.9,0.5-4.9,0.5h-63.8c-2,0-3.6-0.2-4.9-0.5c-1.3-0.4-2.3-0.9-3-1.5
		c-0.7-0.6-1.2-1.4-1.4-2.2C627.7,429.2,627.6,428.4,627.6,427.5z M641.3,410c0-1.7,0.4-3.2,1.1-4.4c0.8-1.2,2.4-1.8,4.9-1.8h41.8
		c2.5,0,4.1,0.6,4.9,1.8c0.8,1.2,1.1,2.7,1.1,4.4c0,0.7-0.1,1.4-0.3,2.1c-0.2,0.7-0.5,1.4-0.9,1.9c-0.4,0.6-1,1-1.8,1.4
		c-0.8,0.4-1.8,0.5-3,0.5h-41.8c-1.2,0-2.2-0.2-3-0.5c-0.8-0.4-1.4-0.8-1.8-1.4c-0.4-0.6-0.7-1.2-0.9-1.9
		C641.4,411.5,641.3,410.7,641.3,410z M649.3,456.2c0,1.6,0.7,2.7,2.2,3.3c1.5,0.5,3.7,0.8,6.8,0.9h22.1c3.1-0.1,5.3-0.4,6.8-0.9
		c1.5-0.5,2.2-1.6,2.2-3.3v-0.5c0-1.7-0.7-2.8-2.2-3.4c-1.5-0.5-3.8-0.8-7.1-0.8h-21.4c-3.3,0-5.7,0.3-7.1,0.8
		c-1.5,0.5-2.2,1.7-2.2,3.4V456.2z"/>
	<path class="st10" d="M754.9,405.1c2,0,3.6,0.2,4.9,0.5c1.3,0.3,2.3,0.8,3,1.3c0.7,0.6,1.2,1.3,1.4,2.1c0.2,0.8,0.4,1.8,0.4,2.8
		c0,1.8-0.6,3.2-1.8,4.2c-1.2,1-3.4,1.5-6.6,1.5h-15v4.2h8.4c4,0,6.6,0.4,7.9,1.3c1.2,0.9,1.9,2.4,1.9,4.4c0,0.9-0.1,1.6-0.4,2.3
		c-0.3,0.7-0.7,1.2-1.4,1.7c-0.7,0.5-1.7,0.8-3,1c-1.3,0.2-2.9,0.3-4.9,0.3h-8.4v4.3h15.9c2,0,3.6,0.1,4.9,0.4
		c1.3,0.3,2.3,0.7,3,1.2c0.7,0.5,1.2,1.1,1.4,1.9c0.2,0.7,0.4,1.6,0.4,2.4c0,1.1-0.1,2-0.4,2.8c-0.3,0.8-0.7,1.5-1.4,2
		c-0.7,0.6-1.7,1-3,1.3c-1.3,0.3-2.9,0.4-4.9,0.4h-23.2c-2,0-3.6-0.2-4.7-0.5c-1.1-0.4-2-0.8-2.6-1.4c-0.6-0.6-1-1.3-1.1-2.2
		c-0.1-0.9-0.2-1.8-0.2-2.9v-30.1c0-1.1,0.1-2.1,0.2-2.9c0.1-0.9,0.5-1.7,1.1-2.3c0.6-0.6,1.5-1.1,2.6-1.5c1.1-0.4,2.7-0.5,4.7-0.5
		H754.9z M746.9,480.7v4.3h59.3c1.7,0,3.1,0.2,4.2,0.5c1.1,0.3,2,0.8,2.6,1.3c0.6,0.5,1,1.2,1.2,2c0.2,0.8,0.3,1.6,0.3,2.5
		c0,1.1-0.1,2-0.3,2.7c-0.2,0.7-0.6,1.3-1.2,1.8c-0.6,0.5-1.5,0.9-2.6,1.1c-1.1,0.2-2.5,0.3-4.2,0.3h-68.3c-2,0-3.6-0.2-4.7-0.5
		c-1.1-0.4-2-0.8-2.5-1.4c-0.5-0.6-0.9-1.3-1-2.2c-0.1-0.9-0.2-1.8-0.2-2.9v-14.2c0-0.7,0.1-1.4,0.3-2.1c0.2-0.7,0.6-1.4,1.1-1.9
		c0.6-0.6,1.4-1,2.5-1.3c1.1-0.3,2.5-0.5,4.3-0.5h57.5v-3.6h-57.8c-1.8,0-3.2-0.1-4.3-0.4c-1.1-0.3-1.9-0.7-2.5-1.2
		c-0.6-0.5-0.9-1.1-1.1-1.8c-0.2-0.7-0.3-1.5-0.3-2.5c0-0.7,0.1-1.4,0.3-2.2c0.2-0.8,0.6-1.4,1.1-2c0.6-0.6,1.4-1.1,2.5-1.4
		c1.1-0.4,2.5-0.5,4.3-0.5h67.1c1.7,0,3.1,0.2,4.2,0.6c1.1,0.4,1.9,0.9,2.5,1.4c0.6,0.6,1,1.2,1.2,2c0.2,0.8,0.3,1.5,0.3,2.2v14.6
		c0,0.9-0.1,1.6-0.3,2.4c-0.2,0.7-0.5,1.3-1.1,1.8c-0.5,0.5-1.3,0.9-2.4,1.2c-1,0.3-2.4,0.4-4.1,0.4H746.9z M776.4,435.1h-4.9
		c-2,0-3.6-0.2-4.8-0.6c-1.2-0.4-2.1-0.9-2.7-1.7c-0.6-0.7-1.1-1.5-1.2-2.4c-0.2-0.9-0.3-1.9-0.3-2.9c0-0.9,0.1-1.7,0.3-2.6
		c0.2-0.9,0.6-1.7,1.2-2.4c0.6-0.7,1.6-1.3,2.7-1.7c1.2-0.4,2.8-0.6,4.8-0.6h4.9v-6.6c0-3.6,0.7-6,2-7.3c1.4-1.3,3.2-2,5.5-2
		c2.2,0,4,0.7,5.4,2c1.4,1.3,2.1,3.8,2.1,7.3v28.2c0,3.7-0.7,6.2-2,7.5c-1.3,1.3-3.1,1.9-5.4,1.9c-2.3,0-4.1-0.6-5.5-1.9
		c-1.4-1.3-2.1-3.8-2.1-7.5V435.1z M797.8,413.5c0-3.6,0.7-6,2-7.3c1.4-1.3,3.2-2,5.5-2c2.2,0,4,0.7,5.4,2c1.4,1.3,2.1,3.8,2.1,7.3
		v28.3c0,3.7-0.7,6.2-2,7.5c-1.3,1.3-3.1,1.9-5.4,1.9c-2.3,0-4.1-0.6-5.5-1.9c-1.4-1.3-2.1-3.8-2.1-7.5V413.5z"/>
	<path class="st10" d="M866.1,465.3c-1.8,0-3.2-0.1-4.3-0.4c-1.1-0.3-1.9-0.7-2.5-1.2c-0.6-0.5-0.9-1.2-1.1-1.9
		c-0.2-0.7-0.3-1.6-0.3-2.6c0-0.8,0.1-1.6,0.3-2.3c0.2-0.8,0.6-1.4,1.1-2c0.6-0.6,1.4-1.1,2.5-1.4c1.1-0.4,2.5-0.5,4.3-0.5H944
		c1.8,0,3.2,0.2,4.3,0.5c1.1,0.4,1.9,0.8,2.5,1.4c0.6,0.6,0.9,1.3,1.1,2c0.2,0.8,0.3,1.5,0.3,2.3c0,1-0.1,1.9-0.3,2.6
		c-0.2,0.8-0.6,1.4-1.1,1.9c-0.6,0.5-1.4,0.9-2.5,1.2c-1.1,0.3-2.5,0.4-4.3,0.4H866.1z M927.3,483.4h-52.6c-2,0-3.6-0.2-4.9-0.5
		c-1.3-0.4-2.3-0.8-3-1.4c-0.7-0.6-1.2-1.3-1.4-2.1c-0.3-0.8-0.4-1.7-0.4-2.5c0-1.1,0.1-2,0.4-2.8c0.2-0.8,0.7-1.5,1.4-2.1
		c0.7-0.6,1.7-1,3-1.3c1.3-0.3,2.9-0.4,4.9-0.4H936c2,0,3.6,0.1,4.7,0.4c1.1,0.3,2,0.7,2.6,1.3c0.6,0.6,1,1.3,1.1,2.1
		c0.1,0.8,0.2,1.8,0.2,2.8v11c0,1.8-0.3,3.3-0.7,4.5c-0.5,1.2-1.1,2.2-1.9,2.9c-0.8,0.7-1.7,1.2-2.7,1.5c-1,0.3-2.1,0.4-3.3,0.4
		c-2.3,0-4.3-0.7-6.1-2c-1.8-1.3-2.6-3.8-2.6-7.3V483.4z M936.3,405.5c1.8,0,3.2,0.1,4.3,0.4c1.1,0.3,1.9,0.6,2.5,1.1
		c0.6,0.5,0.9,1.1,1.1,1.8c0.2,0.7,0.3,1.5,0.3,2.5c0,0.8-0.1,1.5-0.3,2.1c-0.2,0.6-0.6,1.2-1.1,1.7c-0.6,0.5-1.4,0.9-2.5,1.2
		c-1.1,0.3-2.5,0.4-4.3,0.4h-53.4v4.4h52.4c1.8,0,3.2,0.1,4.3,0.3c1.1,0.2,1.9,0.6,2.5,1c0.6,0.5,0.9,1,1.1,1.7
		c0.2,0.7,0.3,1.5,0.3,2.4c0,0.8-0.1,1.5-0.3,2.1c-0.2,0.6-0.6,1.1-1.1,1.6c-0.6,0.5-1.4,0.8-2.5,1.1c-1.1,0.3-2.5,0.4-4.3,0.4
		h-52.4v4.5h53.4c1.8,0,3.2,0.1,4.3,0.4c1.1,0.3,1.9,0.7,2.5,1.2c0.6,0.5,0.9,1.1,1.1,1.8c0.2,0.7,0.3,1.4,0.3,2.1
		c0,0.9-0.1,1.8-0.3,2.5c-0.2,0.7-0.6,1.3-1.1,1.8c-0.6,0.5-1.4,0.9-2.5,1.1c-1.1,0.3-2.5,0.4-4.3,0.4h-62.1c-2,0-3.6-0.2-4.7-0.6
		c-1.1-0.4-2-0.9-2.6-1.6c-0.6-0.6-1-1.4-1.1-2.3c-0.1-0.9-0.2-1.9-0.2-2.9v-27.2c0-1.1,0.1-2.1,0.2-2.9c0.1-0.9,0.5-1.7,1.1-2.3
		c0.6-0.6,1.5-1.2,2.6-1.6c1.1-0.4,2.7-0.6,4.7-0.6H936.3z"/>
	<path class="st10" d="M995.7,405.4c1.9,0,3.4,0.2,4.5,0.6c1.1,0.4,1.9,0.9,2.5,1.6c0.6,0.7,0.9,1.5,1.1,2.5c0.1,1,0.2,2.1,0.2,3.4
		v41.8c0,1.9-0.2,4.4-0.6,7.6c-0.4,3.2-1.1,6.6-2,10.1c-1,3.5-2.2,6.9-3.9,10.3c-1.6,3.4-3.6,6.1-5.9,8.2c-1,0.9-2.1,1.7-3.3,2.3
		c-1.2,0.6-2.4,1-3.6,1.1c-1.3,0.1-2.5-0.1-3.6-0.5c-1.2-0.4-2.3-1.2-3.4-2.4c-1.4-1.4-2.1-3.2-2.1-5.4c-0.1-2.1,0.6-4.1,2-5.9
		c2-2.4,3.6-4.7,4.7-7c1.1-2.2,2-4.5,2.6-6.7c0.6-2.3,0.9-4.7,1.1-7.1c0.2-2.5,0.3-5.2,0.3-8.2v-31.6h-18c-2,0-3.6-0.2-4.9-0.6
		c-1.3-0.4-2.3-0.9-3-1.6c-0.7-0.7-1.2-1.5-1.4-2.4c-0.3-0.9-0.4-1.9-0.4-2.9c0-0.9,0.1-1.7,0.3-2.6c0.2-0.9,0.7-1.7,1.3-2.4
		c0.7-0.7,1.6-1.2,2.8-1.7c1.2-0.4,2.8-0.6,4.8-0.6H995.7z M1022.6,413.5c0-3.6,0.9-6,2.6-7.3c1.7-1.3,3.8-2,6.1-2
		c1.1,0,2.2,0.1,3.3,0.4c1,0.3,1.9,0.8,2.7,1.5c0.8,0.7,1.4,1.7,1.9,2.9c0.5,1.2,0.7,2.7,0.7,4.5v25.7h8.5c2,0,3.6,0.2,4.9,0.7
		c1.3,0.5,2.3,1.1,3,1.8c0.7,0.7,1.2,1.5,1.4,2.4c0.2,0.9,0.4,1.8,0.4,2.6c0,1.1-0.1,2.1-0.4,3c-0.3,0.9-0.7,1.7-1.4,2.4
		c-0.7,0.7-1.7,1.2-3,1.7s-2.9,0.6-4.9,0.6h-8.5v32.2c0,1.9-0.3,3.4-0.7,4.6c-0.5,1.2-1.1,2.2-1.9,2.9c-0.8,0.7-1.7,1.2-2.7,1.5
		c-1,0.3-2.1,0.4-3.3,0.4c-1.1,0-2.2-0.1-3.3-0.4c-1-0.3-2-0.8-2.8-1.5c-0.8-0.7-1.5-1.7-1.9-2.9c-0.5-1.2-0.7-2.7-0.7-4.6V413.5z"
		/>
</g>
</svg>
