<svg width="56" height="16" viewBox="0 0 56 16" fill="none" xmlns="http://www.w3.org/2000/svg">
<path d="M8 0C9.06087 0 10.0783 0.421427 10.8284 1.17157C11.5786 1.92172 12 2.93913 12 4C12 5.06087 11.5786 6.07828 10.8284 6.82843C10.0783 7.57857 9.06087 8 8 8C6.93913 8 5.92172 7.57857 5.17157 6.82843C4.42143 6.07828 4 5.06087 4 4C4 2.93913 4.42143 1.92172 5.17157 1.17157C5.92172 0.421427 6.93913 0 8 0ZM8 10C12.42 10 16 11.79 16 14V16H0V14C0 11.79 3.58 10 8 10Z" fill="#222222"/>
<path d="M48 0C49.0609 0 50.0783 0.421427 50.8284 1.17157C51.5786 1.92172 52 2.93913 52 4C52 5.06087 51.5786 6.07828 50.8284 6.82843C50.0783 7.57857 49.0609 8 48 8C46.9391 8 45.9217 7.57857 45.1716 6.82843C44.4214 6.07828 44 5.06087 44 4C44 2.93913 44.4214 1.92172 45.1716 1.17157C45.9217 0.421427 46.9391 0 48 0ZM48 10C52.42 10 56 11.79 56 14V16H40V14C40 11.79 43.58 10 48 10Z" fill="#222222"/>
<path d="M28 0C29.0609 0 30.0783 0.421427 30.8284 1.17157C31.5786 1.92172 32 2.93913 32 4C32 5.06087 31.5786 6.07828 30.8284 6.82843C30.0783 7.57857 29.0609 8 28 8C26.9391 8 25.9217 7.57857 25.1716 6.82843C24.4214 6.07828 24 5.06087 24 4C24 2.93913 24.4214 1.92172 25.1716 1.17157C25.9217 0.421427 26.9391 0 28 0ZM28 10C32.42 10 36 11.79 36 14V16H20V14C20 11.79 23.58 10 28 10Z" fill="#222222"/>
</svg>
