<svg xmlns:xlink="http://www.w3.org/1999/xlink" version="1.1" id="Layer_1" xmlns="http://www.w3.org/2000/svg" x="0" y="0" viewBox="0 0 16 16" xml:space="preserve" width="16"  height="16" ><path fill="#FFFFFF" d="M8.2 15.4s-.2.2-.4 0L7 13.9H0v.8c0 .7.6 1.3 1.3 1.3h13.4c.7 0 1.3-.6 1.3-1.3v-.8H9l-.8 1.5zM0 6.1h4.6v2.5H0zM7 13.8l-1.3-2.5H0v2.5zM0 3.5h4.6V6H0zM4.6 0H1.3C.6 0 0 .6 0 1.3v2.1h4.6V0zM11.4 3.5H16V6h-4.6zM11.4 3.4H16V1.3c0-.7-.6-1.3-1.3-1.3h-3.3v3.4zM4.6 9.1v-.4H0v2.5h5.7zM11.4 6.1H16v2.5h-4.6zM11.4 9.1l-1 2.1H16V8.7h-4.6zM9.1 13.8H16v-2.5h-5.6zM9.8 2.6H6.2c-.1 0-.2.1-.2.2v3.5c0 .1.1.2.2.2h3.6c.1 0 .2-.1.2-.2V2.8c0-.1-.1-.2-.2-.2zm-2.9 1h.8l.7 1v-1h.8v2h-.8l-.7-1v1h-.8v-2z"></path><path fill="#FFFFFF" d="M7.1 13.8h.3L6 9.1H4.7zM8.6 13.8H9l2.3-4.7h-1.2zM7.5 13.8h1L10 9.1H6.1z"></path></svg>