<svg width="721" height="155" version="1.1" id="레이어_1" xmlns="http://www.w3.org/2000/svg" xmlns:xlink="http://www.w3.org/1999/xlink" x="0px" y="0px" viewBox="0 0 721 155" style="width:inherit;height:inherit;line-height:inherit;color:inherit" xml:space="preserve" role="presentation"><!--?xml version="1.0" encoding="utf-8"?--> <!-- Generator: Adobe Illustrator 28.1.0, SVG Export Plug-In . SVG Version: 6.00 Build 0) --> <style type="text/css"> .st0{fill:#FFFFFF;} </style> <g> <g> <path class="st0" d="M463.4,47.5v57.6c0,4-3,7-7.5,7c-4,0-7.5-3-7.5-7V47.5h-15.5c-4,0-7-3-7-7s3-7,7-7h45.6c4,0,7,3,7,7s-3,7-7,7 H463.4z" fill="#FFFFFF"></path> <path class="st0" d="M500.5,55c3-3.5,7.5-5.5,11-6.5c4.5-1,8.5,2,8.5,6.5l0,0c0,3-2,6-5,6.5c-4,1-7.5,2-10.5,6.5 c-1.5,2.5-2.5,5.5-2.5,9v28.1c0,4-3.5,7.5-7.5,7.5s-7.5-3.5-7.5-7.5V55c0-3.5,3-6.5,6.5-6.5C500,48.5,500.5,55,500.5,55z" fill="#FFFFFF"></path> <path class="st0" d="M570.2,48.5c4,0,7.5,3,7.5,7v49.1c0,4-3,7-7.5,7c-6,0-7.5-6.5-7.5-6.5c-4,4.5-9,7-15,7 c-15.5,0-28.1-14.5-28.1-32.1s13-32.1,28.6-32.1c6,0,10.5,2.5,14.5,7C562.7,55,563.7,48.5,570.2,48.5L570.2,48.5z M562.7,80.1 c0-11-6-18.5-14-18.5c-8,0-14,8-14,18.5s6.5,18.5,14,18.5C556.7,98.6,562.7,90.6,562.7,80.1z" fill="#FFFFFF"></path> <path class="st0" d="M619.3,53.5c1-4,5.5-6.5,9.5-5.5c4.5,1.5,6.5,5.5,5,10l-15,46.6c-1.5,4.5-6,7.5-10.5,7.5c-5,0-9-3-10.5-7.5 l-15-46.6c-1.5-4,1-8.5,5-10c4-1,8.5,1,9.5,5.5l11,37.1L619.3,53.5z" fill="#FFFFFF"></path> <path class="st0" d="M684.9,92.6c4,2.5,4.5,8,1,11c-5.5,5.5-11.5,8.5-20.5,8.5c-17.5,0-30.1-13.5-30.1-32.1s12.5-32.6,28.6-32.6 c15.5,0,28.6,14.5,28.6,32.1c0,2.5-2,4.5-4.5,4.5h-36.1c1,8.5,6.5,14,14.5,14c3.5,0,7.5-1.5,10-5 C677.9,91.1,681.9,90.6,684.9,92.6z M675.4,71.5c-1.5-7.5-5.5-11-12-11c-6,0-10.5,4-12,11H675.4z" fill="#FFFFFF"></path> <path class="st0" d="M698,34.5c0-4,3.5-7.5,7.5-7.5c4,0,7.5,3.5,7.5,7.5v70.1c0,4-3.5,7.5-7.5,7.5c-4,0-7.5-3.5-7.5-7.5V34.5z" fill="#FFFFFF"></path> </g> <g> <polygon class="st0" points="326.7,122.6 88.6,122.6 107.7,141.7 " fill="#FFFFFF"></polygon> <path class="st0" d="M110.7,46v3c-4.5-3-8.5-4.5-14-4.5c-16.5,0-29.6,15-29.6,34.1c0,18.5,12.5,34.1,29.6,34.1 c5.5,0,9.5-1.5,14-4.5v3h14.5V46H110.7z M97.1,96.6c-8,0-14-8-14-18.5c0-10,6-18.5,14-18.5s14,8,14,18.5S105.2,96.6,97.1,96.6z" fill="#FFFFFF"></path> <path class="st0" d="M228.4,46v38.1c0,7-5,13-12,13s-12-6-12-13V46h-14.5v38.1c0,15.5,10.5,28.1,26,28.1c7,0,12.5-4,12.5-4v2.5 h14.5V46L228.4,46L228.4,46z" fill="#FFFFFF"></path> <path class="st0" d="M364.8,110.6V72.5c0-7,5-13,12-13s12,6,12,13v38.1h14.5V72.5c0-15.5-10.5-28.1-26-28.1c-7,0-12.5,4-12.5,4V46 h-14.5v64.6C350.2,110.6,364.8,110.6,364.8,110.6z" fill="#FFFFFF"></path> <path class="st0" d="M25.4,110.6v-25h11l18.5,25h19L51.4,80.6C58.5,75.6,63,67,63,58C63,42.5,50.4,30,34.9,30H9.4v80.6H25.4z M25.4,45h10c7,0,12.5,5.5,12.5,12.5S42.4,70,35.4,70h-10V45z" fill="#FFFFFF"></path> <path class="st0" d="M282.5,95.1c-1.5,1-3,1.5-5,1.5c-2.5,0-7-2-7-8V61H283V45.5h-12.5v-16h-14.5v16h-7.5V61h7.5v28.1 c0,14.5,11,23,22,23c4,0,9.5-1.5,14.5-4L282.5,95.1z" fill="#FFFFFF"></path> <polygon class="st0" points="161.8,76.1 186.8,46 166.3,46 148.7,68.5 148.7,24.5 133.7,24.5 133.7,110.6 148.7,110.6 148.7,84.1 170.3,110.6 190.8,110.6 " fill="#FFFFFF"></polygon> <path class="st0" d="M316.2,44.5c-17,0-29.1,15-29.1,34.1c0,20,15,34.1,30.6,34.1c7.5,0,17.5-2.5,26-14.5l-13-7.5 c-10,14.5-26.5,7.5-28.6-7.5h42.1C347.7,59.5,333.2,44.5,316.2,44.5z M329.2,70h-26.5C305.6,55,326.2,54,329.2,70z" fill="#FFFFFF"></path> </g> </g> </svg>