<svg xmlns:xlink="http://www.w3.org/1999/xlink" viewBox="0 0 200 200" width="200" height="200" xmlns="http://www.w3.org/2000/svg" role="presentation" style="width:inherit;height:inherit;line-height:inherit;color:inherit"><path d="M163.46 180H36.54C27.42 180 20 171.03 20 160v-45c0-2.76 2.24-5 5-5s5 2.24 5 5v45c0 5.33 3.06 10 6.54 10h126.92c3.48 0 6.54-4.67 6.54-10v-45c0-2.76 2.24-5 5-5s5 2.24 5 5v45c0 11.03-7.42 20-16.54 20zM100 140c-2.76 0-5-2.24-5-5V35.87L68.25 58.79a5.003 5.003 0 01-7.05-.54c-1.8-2.1-1.55-5.25.54-7.05l34.98-29.98c.86-.75 1.98-1.2 3.2-1.22h.14c1.23.02 2.34.47 3.2 1.22l34.98 29.98c2.1 1.8 2.34 4.95.54 7.05a5.003 5.003 0 01-7.05.54l-26.75-22.92V135c0 2.76-2.24 5-5 5z"></path></svg>