<?xml version="1.0" encoding="utf-8"?>
<!-- Generator: Adobe Illustrator 28.3.0, SVG Export Plug-In . SVG Version: 6.00 Build 0)  -->
<svg version="1.1" id="레이어_1" xmlns="http://www.w3.org/2000/svg" xmlns:xlink="http://www.w3.org/1999/xlink" x="0px"
	 y="0px" width="1343px" height="552px" viewBox="0 0 1343 552" style="enable-background:new 0 0 1343 552;" xml:space="preserve">
<style type="text/css">
	.st0{clip-path:url(#SVGID_00000157301492629175470590000000339975418730978205_);}
	.st1{fill:#FFFFFF;}
	.st2{fill:#00A6D2;}
	.st3{fill:none;stroke:#004365;stroke-width:8.0458;stroke-linecap:round;stroke-linejoin:round;stroke-miterlimit:10;}
	.st4{fill:#EDF0F2;}
	.st5{fill:#0095D5;}
	.st6{fill:#004365;}
	.st7{fill:#FFFFFF;stroke:#004365;stroke-width:8.0458;stroke-linecap:round;stroke-linejoin:round;stroke-miterlimit:10;}
	.st8{fill:#FFFFFF;stroke:#004365;stroke-width:7.6978;stroke-linecap:round;stroke-linejoin:round;stroke-miterlimit:10;}
	.st9{fill:#E43A36;}
	.st10{fill:#E76263;}
	.st11{fill:#901E23;}
	
		.st12{clip-path:url(#SVGID_00000010301567058957864050000011803936781306033050_);fill:#FFFFFF;stroke:#2E4162;stroke-width:7;stroke-miterlimit:10;}
</style>
<g>
	<defs>
		<rect id="SVGID_1_" x="-808" y="-71" width="1822" height="540"/>
	</defs>
	<clipPath id="SVGID_00000071554259517495258190000011064200709388610703_">
		<use xlink:href="#SVGID_1_"  style="overflow:visible;"/>
	</clipPath>
	<g style="clip-path:url(#SVGID_00000071554259517495258190000011064200709388610703_);">
		<circle class="st1" cx="573.7" cy="103.9" r="40"/>
		<path class="st1" d="M804.9,155.6h-262c0,0-25.3,89-13.5,182.6h144.7l152.2-27.1c-4.3-70.1-14.5-113.4-19-142.1
			C805.9,160.6,804.9,155.6,804.9,155.6z"/>
		<circle class="st2" cx="573.7" cy="103.9" r="27.3"/>
		<path class="st1" d="M806.6,164.6c-1.5-7.7-2.8-15.4-5.3-22.8c-5.6-16.4-14.6-31.9-28.9-42.1c-7.1-5-12.7-7.4-23.4-10.8
			c-19-5.3-47.6-7.9-74.9-8.2c-27.2,0.4-55.9,2.9-74.9,8.2c-10.7,3.4-16.3,5.8-23.4,10.8c-14.3,10.2-23.4,25.7-28.9,42.1
			c-2.5,7.5-4.4,15.1-5.9,22.8l-5.9,27.8h275.6L806.6,164.6z"/>
		<circle class="st1" cx="763.8" cy="103.9" r="40"/>
		<path class="st2" d="M790.8,106.1c1.1-13.7-8.6-26.5-22.2-29c-14.1-2.6-27.4,6-31.2,19.3c-0.4,1.5,0.1,3,1.3,3.9
			c7.7,5.4,24.5,20.3,30.9,27.8c1,1.2,2.8,1.6,4.2,1C783,125.4,789.9,116.8,790.8,106.1z"/>
		<line class="st3" x1="795.6" y1="128.1" x2="792.3" y2="131.9"/>
		<g>
			<path class="st4" d="M671.6,205.4c-8-21.1-21.3-23.7-42.7-23.7c-0.2,0-0.8,0-1,0c-21.4,0-34.7,2.6-42.7,23.7
				c-8.7,22.9-9.8,37.5-2.6,49.1c6.3,10.1,18.4,23.4,45.8,23.4c29.4,0,40.2-12.6,45.8-23.4C681.3,240.9,680.3,228.3,671.6,205.4z"/>
			<path class="st5" d="M643.6,181.6c-6.4-0.8-12.9-1.2-19.3-1.2s-12.9,0.4-19.3,1.2c-9.5,1.7-10.8,6.6-7.9,15.8
				c3.1,9.8,12.3,25.8,25.4,26.2c13.1-0.4,26-16.4,29.1-26.2C654.4,188.3,653.1,183.3,643.6,181.6z"/>
			<path class="st6" d="M627.7,244.6c0,0-26.8,0.3-34.9,3.1c0,0,0.6,24.5,34.9,24.3c34.2,0.1,34.9-24.3,34.9-24.3
				C654.4,245,627.7,244.6,627.7,244.6z"/>
			<g>
				<circle class="st6" cx="676.9" cy="180.1" r="12.9"/>
				<circle class="st1" cx="680.1" cy="176.7" r="4.8"/>
			</g>
			<g>
				<circle class="st6" cx="579.8" cy="180.1" r="12.9"/>
				<circle class="st1" cx="583" cy="176.7" r="4.8"/>
			</g>
		</g>
		<path class="st1" d="M528.1,326.5c0,0-26.4,126.6,37.3,230.2L671,590l146.2,13.6l15.1-40.3c0,0,37.5-33.4,52.8-91.8
			c4.9-18.8,3.1-39.6-0.1-58.6c-8.1-49-37.2-90.8-61.1-133.4c0-0.1-0.1-0.1-0.1-0.2C823.8,279.4,571.1,282.2,528.1,326.5z"/>
		<g>
			<polygon class="st1" points="565.3,556.7 566.7,564.2 565.9,606.8 688.4,606.8 688.4,556.7 			"/>
			<path class="st1" d="M565.9,598.5c0,0-5.7,5-8.7,13.8c-3.3,9.8-3.3,23.6,10.4,28.6c18.5,7,102.3,7.5,115.4-0.9
				c0,0,8.9-12.4,5.4-41.5L565.9,598.5L565.9,598.5z"/>
			<path class="st7" d="M628.6,645.2c-0.6-2-0.9-4.1-0.9-6.4c0-4.7,1.4-8.9,3.7-12.2"/>
			<path class="st7" d="M591.5,642.5c-0.6-2-0.9-4.1-0.9-6.4c0-4.7,1.4-8.9,3.7-12.2"/>
		</g>
		<g>
			<polygon class="st1" points="679.5,560 681.2,567.4 682.4,610 817.2,603.6 822.6,553.2 			"/>
			<path class="st1" d="M683.9,606.8c0,0-5.7,5-8.7,13.8c-3.3,9.8-3.3,23.6,10.4,28.6c18.5,7,100.7,7.5,113.8-0.9
				c0,0,15.9-8.7,17.8-44.7L683.9,606.8z"/>
			<path class="st7" d="M734.3,654.4c-0.6-2-3.9-10.1,1.9-22.3"/>
			<path class="st7" d="M697.3,650.8c-0.6-2-3.5-11.2,1.9-21.5"/>
		</g>
		<path class="st3" d="M660,563.3c8.9,2.7,20,2.4,26.7,0.8l-4.4,42.6c0,0-12.3,6.4-11.9,23.8c0,0-1.9,12.6,15.1,18.5"/>
		<path class="st3" d="M885,413c-8.1-49-37.2-90.8-61.1-133.4c0-0.1-0.1-0.1-0.1-0.2l0,0c-4.9-51.9-12.7-86.3-16.5-110.3
			c-0.1-0.6-0.2-1.2-0.3-1.7l-0.4-2.7c-0.3-1.8-0.7-3.6-1-5.4v-0.1c0-0.1,0-0.2-0.1-0.3c-0.4-2-0.6-3.2-0.6-3.2l0,0
			c-1-4.7-2-9.3-3.6-13.9c-1.6-4.7-3.5-9.2-5.7-13.7c5.1-6.7,8.2-15.1,8.2-24.2c0-22.1-17.9-40-40-40c-15.1,0-28.3,8.4-35.1,20.8
			c-16.5-2.5-35.9-3.8-54.7-4.1c-22.6,0.3-46.2,2.1-64.4,5.8c-6.5-13.3-20.1-22.5-35.9-22.5c-22.1,0-40,17.9-40,40
			c0,12.8,6,24.2,15.4,31.5c-0.8,2.1-1.6,4.2-2.4,6.4c-1.5,4.6-2.8,9.2-3.9,13.9l0,0c0,0-23.2,81.7-14.8,170.9l0,0
			c0,0-26.4,126.6,37.3,230.2l1.4,7.5l-0.7,34.3h-0.2c0,0-5.7,5-8.7,13.8c-3.3,9.8-3.3,23.6,10.4,28.6c16.2,6.1,82.4,7.3,107.5,1.9
			c2.3,2.4,5.6,4.7,10.6,6.4c8,3,27.7,4.8,48.7,5.2l0,0l0,0c27.8,0.6,57.6-1.3,65.1-6.1c0,0,15.9-8.7,17.8-44.7l15.1-40.3
			c0,0,37.5-33.4,52.8-91.8C890,452.7,888.1,432,885,413z"/>
		<g>
			<g>
				<path class="st8" d="M772.7,244.6c3.9-3.5,33.5-29.8,65.4-80.2c13.4-21.2,24.9-29.7,40.3-32.3h0.1c0,0,21.2-2.6,36.5,11.1
					c11.1,9.9,20.3,26.3,18.1,47.6c-2.7,25.8-43,103.8-80.3,156.2"/>
				<polygon class="st1" points="846.5,167.2 832.6,164.4 823,172.6 823.8,195 848.8,187.4 				"/>
				<path class="st8" d="M851.8,160.2c0,0-7.2-23.7-25.5-14.4c-13.7,7.2-6.8,28.5-6.8,28.5l3.3,11.9l-2,3.9"/>
			</g>
		</g>
		<g>
			<g>
				<path class="st9" d="M548.5,368.3L548.5,368.3c-7.7-0.1-13.8-6.4-13.7-14.1l1.3-93.5l27.8,0.4l-1.3,93.5
					C562.5,362.3,556.2,368.4,548.5,368.3z"/>
				<path class="st3" d="M548.5,368.3L548.5,368.3c-7.7-0.1-13.8-6.4-13.7-14.1l1.3-93.5l27.8,0.4l-1.3,93.5
					C562.5,362.3,556.2,368.4,548.5,368.3z"/>
			</g>
			<g>
				<path class="st8" d="M576.5,330.1c0,0,1.1-37.7-22.6-44.5c0,0-26.1-9.1-53.1,4.8l-30.3,12.2c0,0-61.5,24.3-44.3,75
					c0,0,18.5,47.6,76.7,29.6l37.8-23.4C540.7,383.8,572.8,382.9,576.5,330.1z"/>
				<path class="st8" d="M549.5,306.2c0,0,18.6-4.2,26,11.4"/>
				<path class="st8" d="M550.7,343.6c0,0,15.8-5.3,21.7,9.2"/>
			</g>
			<g>
				<path class="st9" d="M488.3,174L473,310.1c0,0,46.4-29.7,80.6-38c11.2-2.1,20.2-11,21.6-22.3c0.1-0.8,0.2-1.6,0.2-2.5
					c0.5-11-6.5-21-16.7-25.2C541.5,215.1,521.7,204.9,488.3,174z"/>
				<path class="st10" d="M575.5,247.4c0.5-11-6.5-21-16.7-25.2c-6-2.5-12.4-5.3-19.5-9.3c7.3,10.6,10.6,17.3,9.8,32.3
					c-0.7,13.4-3.8,23.6-7.6,30.5c4.1-1.4,8.2-2.7,12.1-3.6c11.2-2.1,20.2-11,21.6-22.3C575.4,249,575.5,248.2,575.5,247.4z"/>
				
					<ellipse transform="matrix(0.1073 -0.9942 0.9942 0.1073 175.7486 676.1816)" class="st11" cx="464.4" cy="240.2" rx="73.4" ry="45.6"/>
				<path class="st9" d="M466.3,210.8l34.6-10.5c0,0,17.7,45.2-9.2,85.4L460,269.2L466.3,210.8z"/>
				<path class="st10" d="M472.3,167.2c-25.1-2.7-48.9,27.8-53.2,68c-4.3,40.3,12.4,75.1,37.5,77.8s48.9-27.8,53.2-68
					C514.1,204.7,497.4,169.9,472.3,167.2z M457.6,303.3c-21-2.3-34.9-32.4-31.2-67.3c3.7-34.9,23.8-61.4,44.8-59.1
					c21,2.3,34.9,32.4,31.2,67.3S478.6,305.6,457.6,303.3z"/>
				<path class="st10" d="M472.3,167.2c-25.1-2.7-48.9,27.8-53.2,68c-4.3,40.3,12.4,75.1,37.5,77.8s48.9-27.8,53.2-68
					C514.1,204.7,497.4,169.9,472.3,167.2z M457.6,303.3c-21-2.3-34.9-32.4-31.2-67.3c3.7-34.9,23.8-61.4,44.8-59.1
					c21,2.3,34.9,32.4,31.2,67.3S478.6,305.6,457.6,303.3z"/>
				
					<ellipse transform="matrix(0.1073 -0.9942 0.9942 0.1073 174.8111 674.8077)" class="st10" cx="463.2" cy="240.1" rx="29.4" ry="19.3"/>
				<g>
					<path class="st6" d="M469.2,167c1,0,2.1,0.1,3.1,0.2c3.9,0.4,7.6,1.6,11.1,3.5c1.7,0.9,3.3,2,4.9,3.3l0,0c0,0,0,0,0.1,0.1
						c1.4,1.1,2.7,2.3,4,3.6c19.8,17.9,34.6,28.3,47.1,35.3c5.2,2.9,9.9,5.2,14.5,7.2c0.3,0.1,0.5,0.2,0.8,0.3
						c1.4,0.6,2.8,1.2,4.2,1.8c0.6,0.3,1.3,0.5,1.9,0.8c7.3,3.7,12.7,10.4,14.3,18.3c0.4,2,0.6,4,0.5,6.1c0,0.8-0.1,1.6-0.2,2.5
						c-0.9,7.1-4.8,13.2-10.3,17.3c-3.3,2.5-7.2,4.2-11.4,5c-1.9,0.5-3.9,1-5.8,1.6c-0.1,0-0.1,0-0.2,0.1c-2,0.6-4,1.3-6.1,2
						c-23.1,8-48.4,22.3-60.8,29.7c-0.5,0.4-1.1,0.8-1.6,1.2c-1.4,1-2.8,1.9-4.3,2.6c-0.6,0.3-1.2,0.6-1.8,0.9l0,0l0,0
						c-2.3,1.1-4.7,1.9-7.2,2.4c-1.5,0.3-3.1,0.5-4.6,0.6c-0.5,0-1.1,0-1.6,0c-1,0-2.1-0.1-3.1-0.2c-2.3-0.3-4.6-0.8-6.8-1.6
						c-1.5-0.5-2.9-1.2-4.3-1.9c-1.4-0.8-2.7-1.6-4-2.6c-6.5-4.8-11.9-12.2-15.9-21.4c-0.4-0.9-0.8-1.8-1.1-2.8
						c-0.7-1.9-1.4-3.9-2-5.9c-0.9-3-1.7-6.2-2.3-9.5c-0.6-3.3-1.1-6.7-1.4-10.2c-0.6-7-0.5-14.4,0.3-21.9c0.3-2.5,0.6-5,1-7.4
						c0.6-3.7,1.4-7.2,2.4-10.6c1.6-5.7,3.5-11.1,5.8-16.1c0.9-2,1.9-3.9,2.9-5.8c1.5-2.8,3.2-5.4,4.9-7.8c0.6-0.8,1.2-1.6,1.8-2.4
						c3-3.8,6.3-7.2,9.7-9.9c0.7-0.5,1.4-1.1,2.1-1.6c2.1-1.5,4.3-2.7,6.5-3.7s4.5-1.8,6.8-2.2c1.5-0.3,3.1-0.5,4.6-0.6
						C468.1,167,468.7,167,469.2,167 M469.2,159c-0.7,0-1.3,0-2,0.1c-2,0.1-3.9,0.4-5.9,0.8c-2.8,0.6-5.7,1.5-8.4,2.8
						c-2.6,1.2-5.3,2.7-7.8,4.5c-0.8,0.6-1.6,1.2-2.4,1.8c-3.9,3.1-7.7,6.9-11.1,11.2c-0.7,0.9-1.3,1.7-2,2.6
						c-1.9,2.7-3.8,5.6-5.4,8.6c-1.1,2-2.2,4.1-3.2,6.3c-2.5,5.4-4.6,11.3-6.3,17.4c-1,3.7-1.9,7.5-2.5,11.4
						c-0.4,2.6-0.8,5.3-1.1,7.9c-0.9,7.9-1,15.8-0.3,23.4c0.3,3.7,0.8,7.4,1.5,11c0.7,3.5,1.5,7,2.5,10.3c0.7,2.2,1.4,4.4,2.2,6.5
						c0.4,1,0.8,2.1,1.3,3.1c4.5,10.5,10.9,19.1,18.5,24.7c1.6,1.2,3.3,2.3,5,3.2c1.7,1,3.6,1.8,5.4,2.4c2.8,1,5.7,1.7,8.7,2
						c1.3,0.1,2.6,0.2,4,0.2c0.7,0,1.3,0,2-0.1c2-0.1,3.9-0.4,5.9-0.8c2.9-0.6,5.8-1.6,8.6-2.9c0.2-0.1,0.4-0.2,0.6-0.3
						c0.6-0.3,1.2-0.6,1.9-0.9c1.7-0.9,3.5-2,5.1-3.1c0.5-0.4,1-0.7,1.5-1.1c12.7-7.6,36.9-21.1,58.9-28.8c2-0.7,3.9-1.3,5.8-1.9
						l0.2-0.1c1.9-0.6,3.6-1,5.3-1.4c5.2-1,10.2-3.2,14.5-6.4c7.5-5.6,12.3-13.7,13.4-22.7c0.1-1,0.2-2.1,0.3-3.1
						c0.1-2.7-0.1-5.4-0.7-8c-2.1-10.2-9.1-19.1-18.6-23.8c-0.8-0.4-1.6-0.8-2.4-1.1c-1.3-0.5-2.6-1.1-4-1.7l-0.5-0.2l-0.2-0.1
						c-4.9-2.1-9.4-4.4-13.8-6.8c-13.8-7.7-28.2-18.5-45.4-34.1c-1.4-1.4-2.9-2.8-4.4-4c-0.2-0.1-0.3-0.3-0.5-0.4
						c-1.9-1.5-3.8-2.8-5.7-3.8c-4.5-2.4-9.2-3.9-14.1-4.5C471.8,159.1,470.5,159,469.2,159L469.2,159z"/>
				</g>
			</g>
		</g>
	</g>
</g>
<g>
	<defs>
		<rect id="SVGID_00000139992271801732334670000006256934974643020705_" x="-101" y="29.3" width="1434" height="492.7"/>
	</defs>
	<clipPath id="SVGID_00000158012705450085188240000001355832601168329892_">
		<use xlink:href="#SVGID_00000139992271801732334670000006256934974643020705_"  style="overflow:visible;"/>
	</clipPath>
	
		<path style="clip-path:url(#SVGID_00000158012705450085188240000001355832601168329892_);fill:#FFFFFF;stroke:#2E4162;stroke-width:7;stroke-miterlimit:10;" d="
		M1245.1,519.4H81.8c-30.9,0-56.1-31.4-56.1-70.2l0,0c0-38.7,25.1-70.2,56.1-70.2h1163.3c30.9,0,56.1,31.4,56.1,70.2l0,0
		C1301.1,488.1,1276,519.4,1245.1,519.4z"/>
</g>
<g>
	<path class="st6" d="M377.4,460.7v23.4h29.4c2.1,0,3.8,0.2,5.1,0.6c1.3,0.4,2.4,1,3.1,1.7c0.7,0.7,1.2,1.5,1.5,2.4
		c0.3,0.9,0.4,1.9,0.4,3c0,0.9-0.1,1.8-0.4,2.7c-0.3,0.9-0.8,1.7-1.5,2.4c-0.7,0.7-1.8,1.3-3.1,1.7s-3,0.7-5.1,0.7H330
		c-2.1,0-3.8-0.2-5.1-0.7c-1.3-0.4-2.4-1-3.1-1.7c-0.7-0.7-1.2-1.5-1.5-2.4c-0.3-0.9-0.4-1.8-0.4-2.7c0-1.1,0.1-2.1,0.4-3
		c0.3-0.9,0.8-1.7,1.5-2.4c0.7-0.7,1.8-1.3,3.1-1.7c1.3-0.4,3-0.6,5.1-0.6h29.5v-23.4h-22.6c-2.1,0-3.7-0.2-4.9-0.7
		c-1.2-0.4-2.1-1-2.7-1.8c-0.6-0.8-1-1.7-1.2-2.6c-0.1-1-0.2-2-0.2-3.1v-35.8c0-3.7,0.9-6.2,2.7-7.6c1.8-1.4,3.9-2,6.2-2h62.6
		c1.8,0,3.3,0.2,4.4,0.7c1.1,0.4,1.9,1,2.5,1.8c0.6,0.7,1,1.6,1.2,2.5c0.2,0.9,0.3,1.9,0.3,2.8c0,0.8-0.1,1.7-0.3,2.5
		c-0.2,0.9-0.6,1.7-1.2,2.4c-0.6,0.7-1.4,1.4-2.5,1.9c-1.1,0.5-2.6,0.8-4.4,0.8h-53.7v23h54.8c1.8,0,3.3,0.3,4.4,0.8
		c1.1,0.5,1.9,1.1,2.5,1.9c0.6,0.7,1,1.6,1.2,2.5c0.2,0.9,0.3,1.7,0.3,2.5c0,1-0.1,1.9-0.3,2.8c-0.2,0.9-0.6,1.7-1.2,2.5
		c-0.6,0.7-1.4,1.3-2.5,1.8c-1.1,0.4-2.6,0.7-4.4,0.7H377.4z"/>
	<path class="st6" d="M424.9,491.8c0-1.1,0.1-2.1,0.4-3c0.3-0.9,0.8-1.7,1.5-2.4c0.7-0.7,1.8-1.3,3.1-1.7c1.3-0.4,3-0.6,5.1-0.6
		h10.4v-18.8c0-3.7,0.9-6.2,2.7-7.6c1.8-1.4,3.9-2,6.2-2c1.2,0,2.3,0.1,3.4,0.4c1.1,0.3,2,0.8,2.8,1.5c0.8,0.7,1.5,1.7,2,3
		c0.5,1.3,0.8,2.8,0.8,4.6v18.8h9.4v-18.8c0-3.7,0.9-6.2,2.7-7.6c1.8-1.4,3.9-2,6.2-2c1.2,0,2.3,0.1,3.4,0.4c1.1,0.3,2,0.8,2.8,1.5
		c0.8,0.7,1.5,1.7,2,3c0.5,1.3,0.8,2.8,0.8,4.6v18.8h21.2c2.1,0,3.8,0.2,5.1,0.6c1.3,0.4,2.4,1,3.1,1.7c0.7,0.7,1.2,1.5,1.5,2.4
		c0.3,0.9,0.4,1.9,0.4,3c0,0.9-0.1,1.8-0.4,2.7c-0.3,0.9-0.8,1.7-1.5,2.4c-0.7,0.7-1.8,1.3-3.1,1.7s-3,0.7-5.1,0.7h-76.7
		c-2.1,0-3.8-0.2-5.1-0.7c-1.3-0.4-2.4-1-3.1-1.7c-0.7-0.7-1.2-1.5-1.5-2.4C425,493.6,424.9,492.7,424.9,491.8z M505.7,408.4
		c2,0,3.5,0.2,4.6,0.6c1.1,0.4,1.9,1,2.5,1.7c0.6,0.7,1,1.6,1.1,2.6c0.1,1,0.2,2.2,0.2,3.5v21.1c-0.1,4.9-0.4,9.8-1.1,14.5
		c-0.7,4.7-2,9.1-4,13.1c-0.6,1.1-1.3,2-2.3,2.5c-0.9,0.6-1.9,1-2.9,1.2c-1,0.2-2.1,0.2-3.1,0.1c-1-0.1-2-0.4-2.9-0.7
		c-1.8-0.7-3.2-1.8-4.1-3.3s-1.1-3.3-0.6-5.6c0.6-2.6,1-4.7,1.3-6.5c0.3-1.8,0.6-3.5,0.8-5.1h-54c-2.1,0-3.8-0.2-5.1-0.6
		c-1.3-0.4-2.4-1-3.1-1.7c-0.7-0.7-1.2-1.5-1.5-2.4c-0.3-0.9-0.4-1.9-0.4-3c0-0.9,0.1-1.8,0.4-2.7c0.3-0.9,0.8-1.7,1.5-2.4
		c0.7-0.7,1.8-1.3,3.1-1.7c1.3-0.4,3-0.7,5.1-0.7h54.4v-9.3h-53.4c-2.1,0-3.8-0.2-5.1-0.6c-1.3-0.4-2.4-1-3.1-1.7
		c-0.7-0.7-1.2-1.5-1.5-2.4c-0.3-0.9-0.4-1.9-0.4-3c0-0.9,0.1-1.8,0.4-2.7c0.3-0.9,0.8-1.7,1.5-2.4c0.7-0.7,1.8-1.3,3.1-1.7
		c1.3-0.4,3-0.7,5.1-0.7H505.7z"/>
	<path class="st6" d="M572.7,457.9c0-2.9,0.6-5.4,1.7-7.5c1.1-2.1,2.7-3.7,4.8-5c2.1-1.3,4.6-2.2,7.5-2.8c2.9-0.6,6.2-0.9,9.9-0.9
		h29.4c3.6,0,6.9,0.3,9.8,0.9c2.9,0.6,5.5,1.5,7.6,2.8c2.1,1.3,3.7,3,4.8,5c1.1,2.1,1.7,4.6,1.7,7.5v3.3c0,4.6-1.9,8.3-5.8,11.1
		c-3.9,2.8-9.7,4.2-17.5,4.3h-6.2v7.5h29.4c2.1,0,3.8,0.2,5.1,0.6c1.3,0.4,2.4,1,3.1,1.7c0.7,0.7,1.2,1.5,1.5,2.4
		c0.3,0.9,0.4,1.9,0.4,3c0,0.9-0.1,1.8-0.4,2.7c-0.3,0.9-0.8,1.7-1.5,2.4c-0.7,0.7-1.8,1.3-3.1,1.7s-3,0.7-5.1,0.7h-76.7
		c-2.1,0-3.8-0.2-5.1-0.7c-1.3-0.4-2.4-1-3.1-1.7c-0.7-0.7-1.2-1.5-1.5-2.4c-0.3-0.9-0.4-1.8-0.4-2.7c0-1.1,0.1-2.1,0.4-3
		c0.3-0.9,0.8-1.7,1.5-2.4c0.7-0.7,1.8-1.3,3.1-1.7c1.3-0.4,3-0.6,5.1-0.6h29.5v-7.5h-6.3c-7.8-0.1-13.7-1.4-17.6-4.1
		c-3.9-2.6-5.9-6.4-5.9-11.3V457.9z M568.2,430c0-1.1,0.1-2.1,0.4-3c0.3-0.9,0.8-1.6,1.5-2.3c0.7-0.6,1.8-1.1,3.1-1.4
		c1.3-0.3,3-0.5,5.1-0.5H644c2.1,0,3.8,0.2,5.1,0.5s2.4,0.8,3.1,1.4c0.7,0.6,1.2,1.4,1.5,2.3c0.3,0.9,0.4,1.9,0.4,3
		c0,0.9-0.1,1.7-0.4,2.6c-0.3,0.8-0.8,1.6-1.5,2.3c-0.7,0.7-1.8,1.2-3.1,1.5c-1.3,0.4-3,0.6-5.1,0.6h-65.8c-2.1,0-3.8-0.2-5.1-0.6
		c-1.3-0.4-2.4-0.9-3.1-1.5c-0.7-0.7-1.2-1.4-1.5-2.3C568.3,431.8,568.2,430.9,568.2,430z M582.3,412c0-1.8,0.4-3.3,1.2-4.5
		c0.8-1.3,2.4-1.9,5-1.9h43.1c2.6,0,4.3,0.6,5,1.9c0.8,1.3,1.2,2.8,1.2,4.5c0,0.7-0.1,1.5-0.3,2.2c-0.2,0.7-0.5,1.4-0.9,2
		c-0.4,0.6-1.1,1.1-1.9,1.4c-0.8,0.4-1.8,0.6-3.1,0.6h-43.1c-1.3,0-2.3-0.2-3.1-0.6c-0.8-0.4-1.4-0.8-1.9-1.4
		c-0.4-0.6-0.8-1.2-0.9-2C582.4,413.5,582.3,412.7,582.3,412z M590.6,459.6c0,1.7,0.8,2.8,2.3,3.4c1.5,0.6,3.8,0.9,7,0.9h22.7
		c3.2-0.1,5.5-0.4,7-0.9c1.5-0.6,2.3-1.7,2.3-3.4V459c0-1.8-0.8-2.9-2.3-3.5c-1.5-0.6-4-0.8-7.3-0.8h-22.1c-3.4,0-5.8,0.3-7.3,0.8
		c-1.5,0.6-2.3,1.7-2.3,3.5V459.6z"/>
	<path class="st6" d="M699.5,406.9c2.1,0,3.8,0.2,5.1,0.5c1.3,0.3,2.4,0.8,3.1,1.4c0.7,0.6,1.2,1.3,1.5,2.2c0.3,0.8,0.4,1.8,0.4,2.9
		c0,1.8-0.6,3.3-1.8,4.3c-1.2,1-3.5,1.5-6.8,1.5h-15.5v4.3h8.6c4.1,0,6.8,0.5,8.1,1.4c1.3,0.9,1.9,2.4,1.9,4.6
		c0,0.9-0.1,1.7-0.4,2.4c-0.3,0.7-0.8,1.3-1.5,1.8c-0.7,0.5-1.8,0.8-3.1,1c-1.3,0.2-3,0.3-5.1,0.3h-8.6v4.4h16.3
		c2.1,0,3.8,0.1,5.1,0.4c1.3,0.3,2.4,0.7,3.1,1.2c0.7,0.5,1.2,1.2,1.5,1.9c0.3,0.8,0.4,1.6,0.4,2.5c0,1.1-0.1,2.1-0.4,2.9
		c-0.3,0.8-0.8,1.5-1.5,2.1c-0.7,0.6-1.8,1-3.1,1.3c-1.3,0.3-3,0.4-5.1,0.4h-24c-2.1,0-3.7-0.2-4.9-0.6c-1.2-0.4-2.1-0.9-2.7-1.5
		c-0.6-0.6-1-1.4-1.2-2.3c-0.1-0.9-0.2-1.9-0.2-3v-31c0-1.1,0.1-2.1,0.2-3c0.1-0.9,0.5-1.7,1.2-2.4c0.6-0.7,1.5-1.2,2.7-1.5
		c1.2-0.4,2.8-0.6,4.9-0.6H699.5z M691.2,484.9v4.4h61.2c1.8,0,3.2,0.2,4.4,0.5c1.1,0.3,2,0.8,2.6,1.3c0.6,0.6,1,1.2,1.3,2
		c0.2,0.8,0.3,1.7,0.3,2.5c0,1.1-0.1,2-0.3,2.8c-0.2,0.7-0.6,1.4-1.3,1.9c-0.6,0.5-1.5,0.9-2.6,1.1c-1.1,0.2-2.6,0.3-4.4,0.3h-70.4
		c-2.1,0-3.7-0.2-4.9-0.6c-1.2-0.4-2-0.9-2.6-1.5c-0.6-0.6-0.9-1.4-1-2.3c-0.1-0.9-0.2-1.9-0.2-3v-14.7c0-0.7,0.1-1.5,0.3-2.2
		c0.2-0.7,0.6-1.4,1.2-2c0.6-0.6,1.4-1,2.5-1.4c1.1-0.3,2.6-0.5,4.4-0.5H741V470h-59.6c-1.8,0-3.3-0.1-4.4-0.4
		c-1.1-0.3-2-0.7-2.5-1.2c-0.6-0.5-1-1.1-1.2-1.9c-0.2-0.7-0.3-1.6-0.3-2.5c0-0.7,0.1-1.5,0.3-2.3c0.2-0.8,0.6-1.5,1.2-2.1
		c0.6-0.6,1.4-1.1,2.5-1.5c1.1-0.4,2.6-0.6,4.4-0.6h69.1c1.8,0,3.2,0.2,4.3,0.6c1.1,0.4,2,0.9,2.6,1.5c0.6,0.6,1,1.3,1.2,2
		c0.2,0.8,0.3,1.5,0.3,2.3v15c0,0.9-0.1,1.7-0.3,2.4c-0.2,0.7-0.6,1.4-1.1,1.9c-0.6,0.5-1.4,0.9-2.4,1.2c-1.1,0.3-2.5,0.4-4.3,0.4
		H691.2z M721.5,437.8h-5.1c-2.1,0-3.7-0.2-4.9-0.6c-1.2-0.4-2.2-1-2.8-1.7c-0.7-0.7-1.1-1.6-1.3-2.5c-0.2-0.9-0.3-1.9-0.3-3
		c0-0.9,0.1-1.8,0.3-2.7c0.2-0.9,0.6-1.7,1.3-2.5c0.7-0.7,1.6-1.3,2.8-1.8s2.9-0.7,4.9-0.7h5.1v-6.8c0-3.7,0.7-6.2,2.1-7.6
		c1.4-1.4,3.3-2,5.6-2c2.3,0,4.1,0.7,5.6,2c1.4,1.4,2.2,3.9,2.2,7.6v29c0,3.8-0.7,6.4-2,7.7c-1.4,1.3-3.2,2-5.6,2
		c-2.4,0-4.3-0.7-5.7-2c-1.4-1.3-2.2-3.9-2.2-7.7V437.8z M743.6,415.5c0-3.7,0.7-6.2,2.1-7.6c1.4-1.4,3.3-2,5.6-2
		c2.3,0,4.1,0.7,5.6,2c1.4,1.4,2.2,3.9,2.2,7.6v29.1c0,3.8-0.7,6.4-2,7.7c-1.4,1.3-3.2,2-5.6,2c-2.4,0-4.2-0.7-5.7-2
		c-1.4-1.3-2.2-3.9-2.2-7.7V415.5z"/>
	<path class="st6" d="M814.1,469c-1.8,0-3.3-0.1-4.4-0.4c-1.1-0.3-2-0.7-2.5-1.3c-0.6-0.6-1-1.2-1.2-2c-0.2-0.8-0.3-1.7-0.3-2.7
		c0-0.8,0.1-1.6,0.3-2.4c0.2-0.8,0.6-1.5,1.2-2.1c0.6-0.6,1.4-1.1,2.5-1.5c1.1-0.4,2.6-0.6,4.4-0.6h80.3c1.8,0,3.3,0.2,4.4,0.6
		c1.1,0.4,1.9,0.9,2.5,1.5c0.6,0.6,1,1.3,1.2,2.1c0.2,0.8,0.3,1.6,0.3,2.4c0,1-0.1,1.9-0.3,2.7c-0.2,0.8-0.6,1.4-1.2,2
		c-0.6,0.6-1.4,1-2.5,1.3c-1.1,0.3-2.6,0.4-4.4,0.4H814.1z M877.1,487.6h-54.2c-2.1,0-3.8-0.2-5.1-0.6c-1.3-0.4-2.4-0.8-3.1-1.4
		c-0.7-0.6-1.2-1.3-1.5-2.2c-0.3-0.8-0.4-1.7-0.4-2.6c0-1.1,0.1-2.1,0.4-2.9c0.3-0.8,0.8-1.6,1.5-2.2c0.7-0.6,1.8-1,3.1-1.3
		c1.3-0.3,3-0.4,5.1-0.4H886c2.1,0,3.7,0.1,4.9,0.4c1.2,0.3,2.1,0.7,2.7,1.3c0.6,0.6,1,1.3,1.2,2.2c0.1,0.8,0.2,1.8,0.2,2.9v11.4
		c0,1.8-0.3,3.4-0.8,4.6c-0.5,1.3-1.2,2.2-2,3c-0.8,0.7-1.7,1.2-2.8,1.5c-1.1,0.3-2.2,0.4-3.4,0.4c-2.4,0-4.4-0.7-6.2-2
		c-1.8-1.4-2.7-3.9-2.7-7.6V487.6z M886.4,407.4c1.8,0,3.3,0.1,4.4,0.4c1.1,0.3,1.9,0.6,2.5,1.2c0.6,0.5,1,1.1,1.2,1.9
		c0.2,0.7,0.3,1.6,0.3,2.5c0,0.8-0.1,1.5-0.3,2.2c-0.2,0.7-0.6,1.3-1.2,1.8c-0.6,0.5-1.4,0.9-2.5,1.2c-1.1,0.3-2.6,0.4-4.4,0.4
		h-55.1v4.5h54c1.8,0,3.3,0.1,4.4,0.3c1.1,0.2,1.9,0.6,2.5,1c0.6,0.5,1,1.1,1.2,1.8c0.2,0.7,0.3,1.5,0.3,2.5c0,0.8-0.1,1.5-0.3,2.2
		c-0.2,0.6-0.6,1.2-1.2,1.7c-0.6,0.5-1.4,0.8-2.5,1.1c-1.1,0.3-2.6,0.4-4.4,0.4h-54v4.6h55.1c1.8,0,3.3,0.1,4.4,0.4
		c1.1,0.3,1.9,0.7,2.5,1.2c0.6,0.5,1,1.1,1.2,1.8c0.2,0.7,0.3,1.4,0.3,2.2c0,1-0.1,1.8-0.3,2.5c-0.2,0.7-0.6,1.4-1.2,1.9
		c-0.6,0.5-1.4,0.9-2.5,1.2c-1.1,0.3-2.6,0.4-4.4,0.4h-64c-2.1,0-3.7-0.2-4.9-0.6c-1.2-0.4-2.1-0.9-2.7-1.6c-0.6-0.7-1-1.5-1.2-2.4
		c-0.1-0.9-0.2-1.9-0.2-3v-28c0-1.1,0.1-2.1,0.2-3c0.1-0.9,0.5-1.7,1.2-2.4c0.6-0.7,1.5-1.2,2.7-1.6c1.2-0.4,2.8-0.6,4.9-0.6H886.4z
		"/>
	<path class="st6" d="M947.7,407.3c2,0,3.5,0.2,4.6,0.6c1.1,0.4,1.9,1,2.5,1.7c0.6,0.7,1,1.6,1.1,2.6c0.1,1,0.2,2.2,0.2,3.5v43.1
		c0,1.9-0.2,4.5-0.6,7.8c-0.4,3.3-1.1,6.8-2.1,10.4c-1,3.6-2.3,7.1-4,10.6s-3.7,6.3-6.1,8.5c-1,1-2.2,1.7-3.4,2.4
		c-1.2,0.6-2.5,1-3.8,1.1c-1.3,0.1-2.5-0.1-3.8-0.5c-1.2-0.4-2.4-1.3-3.5-2.4c-1.4-1.5-2.1-3.3-2.2-5.5c-0.1-2.2,0.6-4.2,2.1-6.1
		c2.1-2.5,3.7-4.9,4.9-7.2c1.2-2.3,2.1-4.6,2.6-7c0.6-2.4,1-4.8,1.2-7.3c0.2-2.5,0.3-5.4,0.3-8.4v-32.6h-18.5
		c-2.1,0-3.8-0.2-5.1-0.6c-1.3-0.4-2.4-1-3.1-1.7c-0.7-0.7-1.2-1.5-1.5-2.4c-0.3-0.9-0.4-1.9-0.4-3c0-0.9,0.1-1.8,0.3-2.7
		c0.2-0.9,0.7-1.7,1.4-2.4c0.7-0.7,1.7-1.3,2.9-1.7c1.3-0.4,2.9-0.7,5-0.7H947.7z M975.4,415.5c0-3.7,0.9-6.2,2.7-7.6
		c1.8-1.4,3.9-2,6.2-2c1.2,0,2.3,0.1,3.4,0.4c1.1,0.3,2,0.8,2.8,1.5c0.8,0.7,1.5,1.7,2,3c0.5,1.3,0.8,2.8,0.8,4.6V442h8.7
		c2.1,0,3.8,0.2,5.1,0.7c1.3,0.5,2.4,1.1,3.1,1.8c0.7,0.7,1.2,1.6,1.5,2.5c0.3,0.9,0.4,1.8,0.4,2.7c0,1.1-0.1,2.1-0.4,3.1
		c-0.3,1-0.8,1.8-1.5,2.5c-0.7,0.7-1.8,1.3-3.1,1.7c-1.3,0.4-3,0.7-5.1,0.7h-8.7V491c0,1.9-0.3,3.5-0.8,4.7c-0.5,1.3-1.2,2.2-2,3
		c-0.8,0.7-1.7,1.3-2.8,1.5c-1.1,0.3-2.2,0.4-3.4,0.4c-1.2,0-2.3-0.1-3.4-0.4c-1.1-0.3-2-0.8-2.9-1.5c-0.8-0.7-1.5-1.7-2-3
		c-0.5-1.3-0.7-2.8-0.7-4.7V415.5z"/>
</g>
</svg>
