<?xml version="1.0" encoding="ISO-8859-1" standalone="no"?><svg xmlns="http://www.w3.org/2000/svg" xmlns:xlink="http://www.w3.org/1999/xlink" id="&#47112;&#51060;&#50612;_1" style="" version="1.1" viewBox="-21.071 -2.836 463.551 62.381" x="0px" xml:space="preserve" y="0px">
<path d="M2,28.6l-1.99,2.58v-2.53l0,0V0h42.2v11.73C37.66,7.06,31.7,4.22,25.18,4.22  c-12.33,0-21.67,9.06-24.94,23.71c-0.05,0.22-0.1,0.45-0.14,0.67C0.1,28.6,2,28.6,2,28.6z M42.21,31.41L28.57,50.09l-2.04-0.99  l15.68-20.5h-1.96L25.6,48.65l-2.02-0.98L38.19,28.6h-1.96L22.65,47.22l-2-0.97L34.17,28.6h-1.96L19.68,45.78l-1.98-0.96L30.15,28.6  h-1.96L16.72,44.35l-1.96-0.95l11.36-14.8h-1.96L13.75,42.91l-1.96-0.95l10.3-13.36h-1.95l-9.33,12.89l-1.94-0.94l9.21-11.95h-1.95  L7.84,40.05l-1.89-0.92l8.12-10.53h-1.96l-7.25,10l-1.85-0.89l7.02-9.11H8.08l-6.2,8.56l-1.8-0.87l5.93-7.69H4.06L0,34.2v2.06v0.14  v3.36v1.86v3.69v1.52v4.03v1.19v4.36v0.22v0.08h0.1h0.32h3.7h0.34h3.68h0.34h3.68h0.34h3.68h0.34h3.68h0.34h3.68h0.34h3.68h0.34  h3.68h0.34h3.68h0.34h2.79h0.95h1.83l-1.31-0.63l1.33-1.73v-1.59l-2.13,2.91l-1.8-0.87l3.93-5.14v-1.75l-4.75,6.49l-2.11-1.02  l6.86-8.98v-1.98l-7.72,10.55l-2.09-1.01l9.81-12.83v-2.19L31.54,51.53l-2.07-1l12.74-16.68V31.41z M111.86,23.66h-1.41  C105.66,7.77,101.7,6.55,95.43,6.55H93.8v43.29l7.59,2.48v1.08H76.84v-1.08l7.59-2.48V6.55h-1.39c-6.42,0-10.09,1.22-15.03,17.11  h-1.48L68.71,2.6c3.02,0.7,5.81,0.7,7.98,0.7h6.66h11.69h6.67c2.09,0,4.8,0,7.9-0.7L111.86,23.66z M167.67,28.31  c0,17.58-12.7,26.17-24.47,26.17c-12.39,0-25.01-8.91-25.01-26.17c0-17.58,12.7-26.1,24.55-26.1  C155.13,2.21,167.67,11.04,167.67,28.31z M157.92,34.35c0-14.17-5.58-28.96-17.42-28.96c-8.52,0-12.54,6.66-12.54,16.57  c0,14.33,5.5,29.35,17.27,29.35C153.58,51.31,157.92,44.81,157.92,34.35z M209.32,4.85c-4.57-1.39-10.45-2.63-14.95-2.63  c-7.59,0-17.27,3.41-17.27,13.63c0,5.58,3.41,9.52,8.52,12.62l11.54,6.97c3.25,2.01,6.27,4.72,6.27,8.44c0,3.64-2.17,7.82-8.98,7.82  c-8.91,0-14.92-7.06-16.93-20.44h-1.35l0.31,20.29c5.5,1.78,11.93,2.94,17.11,2.94c10.69,0,18.43-5.58,18.43-14.71  c0-5.34-3.79-8.67-8.13-11.46l-13.71-8.52c-2.71-1.7-4.96-3.72-4.96-7.51c0-4.41,3.33-7.36,8.05-7.36c6.49,0,11.73,4.93,14.86,18.24  h1.46L209.32,4.85z M247.09,47.44c-11.69,0-17.66-10.92-17.66-23.31c0-8.36,2.17-18.74,13.24-18.74c5.14,0,12.7,4.06,16.09,17.77  h1.49V5.39c-5.81-2.09-11-3.17-14.87-3.17c-14.25,0-25.71,10.76-25.71,26.56c0,17.73,12.7,25.71,23.39,25.71  c7.51,0,17.97-3.64,20.21-19.59h-1.63C259.63,46.04,250.96,47.44,247.09,47.44z M316.44,52.32v1.08h-24.67v-1.08l9.26-2.48  l-4.26-12.16h-17.73l-4.03,12.16l9.37,2.48v1.08h-20.13v-1.08l6.04-2.48l15.57-42.98l-1.54-4.38h9.95l16.95,47.36L316.44,52.32z   M295.61,34.43l-7.98-22.53l-7.51,22.53H295.61z M421.41,52.32v1.08h-24.67v-1.08l9.26-2.48l-4.26-12.16h-17.73l-4.03,12.16  l9.37,2.48v1.08h-20.13v-1.08l6.04-2.48l15.57-42.98l-1.54-4.38h9.95l16.95,47.36L421.41,52.32z M400.58,34.43L392.6,11.9  l-7.51,22.53H400.58z M364.56,6.8l6.76-2.48V3.23h-21.06v1.03l10.67,2.54l0.11,28.38L337.33,3.23h-17.05v1.09l6.68,2.48v43.09  l-6.68,2.48v1.09h21.15v-1.13l-10.76-2.44l-0.11-39.03l32.33,43.08h1.67L364.56,6.8L364.56,6.8z" style="fill:#C46E55;"/>
</svg>