<svg xmlns:xlink="http://www.w3.org/1999/xlink" width="335" height="335" viewBox="0 0 335 335" fill="none" xmlns="http://www.w3.org/2000/svg" role="presentation"> <g clip-path="url(#clip0)" fill="none"> <path opacity="0.53" d="M268.668 227.644L55.0718 353.293L43.3977 338.028L253.896 216.989L268.668 227.644Z" fill="url(&quot;#paint0_linear&quot;)"></path> <path opacity="0.53" d="M134.945 195.644L3.80682 267.068L76.4787 319.286L201.725 246.726C224.709 233.53 211.223 205.282 188.271 192.032C184.633 189.953 138.576 193.552 134.945 195.644Z" fill="url(&quot;#paint1_linear&quot;)"></path> <path d="M217.451 156.068C217.601 150.312 214.449 144.995 207.739 141.125C191.862 131.959 162.157 134.317 141.382 146.388C129.108 153.517 122.708 162.468 122.783 170.433C122.783 170.38 122.783 170.326 122.783 170.262L122.601 236.318C122.601 241.936 125.752 247.113 132.324 250.908C132.945 251.262 133.589 251.594 134.253 251.916L134.811 252.184C135.347 252.441 135.883 252.677 136.451 252.902L136.783 253.041L136.944 253.106L138.198 253.567L138.788 253.77C139.409 253.985 140.053 254.178 140.696 254.371C141.285 254.542 141.886 254.692 142.497 254.842L143.097 254.982L144.169 255.239H144.309L144.952 255.357C145.359 255.443 145.766 255.518 146.185 255.582L146.935 255.7L147.707 255.829H148.103L148.918 255.936L150.076 256.065L150.901 256.15H151.394H152.048L152.981 256.215L154.139 256.268H155.071H158.362H159.531H159.906H160.464L162.093 256.182L163.015 256.129L164.709 255.979H165.309H165.513C166.51 255.882 167.507 255.764 168.514 255.625L169.168 255.529L171.773 255.11L172.181 255.046H172.395C173.263 254.885 174.142 254.714 175.011 254.532L175.343 254.446C176.104 254.285 176.865 254.103 177.626 253.921L178.462 253.706L180.263 253.224L181.142 252.977L183.051 252.388L183.576 252.237L183.769 252.173L184.551 251.905L185.859 251.455L186.706 251.144L187.939 250.683L188.797 250.351L189.997 249.858L190.844 249.504L192.023 248.979L192.849 248.603L194.049 248.025L194.821 247.649L196.108 246.985C196.322 246.877 196.536 246.77 196.74 246.652C197.373 246.309 198.005 245.966 198.616 245.58C198.927 245.409 199.227 245.227 199.527 245.044L200.803 244.251L200.91 244.187C201.543 243.779 202.164 243.372 202.765 242.954L202.979 242.804C203.569 242.397 204.137 241.978 204.684 241.56L204.984 241.335C205.52 240.917 206.056 240.499 206.549 240.081L206.806 239.856C207.289 239.449 207.76 239.041 208.21 238.623L208.275 238.559L208.489 238.344C208.897 237.969 209.282 237.594 209.658 237.208L210.022 236.833C210.397 236.436 210.762 236.04 211.094 235.654L211.255 235.461C211.587 235.086 211.898 234.71 212.198 234.324L212.381 234.089L212.573 233.842C212.906 233.381 213.238 232.931 213.538 232.481L213.635 232.341C213.924 231.891 214.203 231.451 214.46 231.001C214.493 230.954 214.521 230.903 214.546 230.851V230.765C214.664 230.551 214.771 230.337 214.878 230.122C214.985 229.908 215.189 229.554 215.318 229.275C215.446 228.997 215.532 228.793 215.629 228.557C215.725 228.321 215.875 228 215.982 227.71V227.635C216.1 227.292 216.208 226.96 216.315 226.627L216.443 226.231C216.579 225.752 216.697 225.27 216.797 224.784V224.537C216.872 224.14 216.937 223.744 216.979 223.347C216.979 223.186 216.979 223.015 216.979 222.854C216.979 222.693 217.033 222.382 217.033 222.146C217.033 221.911 217.033 221.878 217.033 221.75L217.215 155.682C217.462 155.822 217.451 155.94 217.451 156.068ZM217.151 158.748C217.156 158.816 217.156 158.884 217.151 158.952C217.151 158.77 217.226 158.588 217.258 158.405C217.258 158.405 217.258 158.47 217.258 158.502C217.227 158.586 217.191 158.668 217.151 158.748ZM214.717 164.998L214.557 165.245C214.664 165.073 214.771 164.902 214.868 164.719L214.803 164.848C214.768 164.894 214.74 164.945 214.717 164.998ZM213.796 166.467L213.603 166.735L213.978 166.177L213.881 166.327L213.796 166.467ZM216.283 161.739L216.347 161.525C216.347 161.589 216.347 161.653 216.347 161.707L216.283 161.739ZM216.744 160.367L216.872 159.885C216.872 160.003 216.872 160.11 216.786 160.228L216.744 160.367ZM217.344 157.516C217.344 157.365 217.344 157.215 217.344 157.065C217.339 157.147 217.339 157.23 217.344 157.312C217.339 157.38 217.339 157.448 217.344 157.516ZM212.959 167.635L212.82 167.828L212.638 168.075L212.541 168.182C212.691 168 212.82 167.817 212.959 167.635ZM206.785 174.067L206.485 174.314L207.096 173.81L206.785 174.067ZM204.93 175.547L204.737 175.686L205.413 175.171C205.353 175.227 205.288 175.277 205.22 175.321L204.93 175.547ZM203.001 176.94L202.883 177.026L203.59 176.522L203.215 176.801L203.001 176.94ZM201.049 178.248C201.006 178.267 200.967 178.292 200.932 178.323L201.564 177.905L201.146 178.184L201.049 178.248ZM208.189 172.888L208.618 172.513L208.511 172.609C208.414 172.652 208.296 172.781 208.189 172.834V172.888ZM211.405 169.672L211.802 169.2L211.544 169.522L211.405 169.672ZM126.545 180.092C126.824 180.413 127.124 180.735 127.446 181.057C127.103 180.692 126.792 180.349 126.513 180.028L126.545 180.092ZM122.826 170.905C122.826 171.173 122.826 171.43 122.826 171.677C122.815 171.366 122.804 171.109 122.793 170.841L122.826 170.905ZM122.922 172.105C122.922 172.363 122.986 172.62 123.029 172.867C122.954 172.556 122.911 172.298 122.89 172.041L122.922 172.105ZM123.104 173.263C123.169 173.563 123.244 173.864 123.319 174.164C123.201 173.853 123.136 173.499 123.072 173.199L123.104 173.263ZM123.383 174.4C123.49 174.775 123.619 175.139 123.758 175.472C123.587 175.075 123.458 174.71 123.351 174.335L123.383 174.4ZM123.887 175.793C123.994 176.061 124.112 176.329 124.241 176.586C124.08 176.265 123.962 175.997 123.855 175.729L123.887 175.793ZM124.434 176.972C124.552 177.208 124.68 177.433 124.82 177.669C124.648 177.369 124.519 177.144 124.401 176.908L124.434 176.972ZM125.045 178.044L125.506 178.741L125.045 178.044ZM125.752 179.116C125.967 179.406 126.192 179.695 126.438 179.974C126.16 179.609 125.934 179.32 125.72 179.031L125.752 179.116ZM130.812 183.844C130.523 183.651 130.244 183.458 129.976 183.254C130.212 183.372 130.49 183.565 130.78 183.758L130.812 183.844ZM129.558 182.933C129.301 182.74 129.065 182.547 128.829 182.343C129.033 182.429 129.268 182.654 129.526 182.847L129.558 182.933ZM128.486 182.021C128.239 181.796 128.003 181.582 127.778 181.357C127.928 181.496 128.164 181.711 128.411 181.936L128.486 182.021ZM131.252 184.165C131.68 184.444 132.12 184.723 132.57 184.991C132.045 184.573 131.605 184.305 131.177 184.026L131.252 184.165Z" fill="url(&quot;#paint2_linear&quot;)"></path> <path d="M217.451 148.779C217.451 148.95 217.451 149.111 217.451 149.283C217.451 149.679 217.344 150.076 217.28 150.473C217.28 150.548 217.28 150.633 217.28 150.719C217.183 151.218 217.062 151.712 216.915 152.198C216.915 152.327 216.829 152.456 216.786 152.584C216.68 152.948 216.555 153.306 216.411 153.656C216.315 153.935 216.186 154.214 216.058 154.493C215.929 154.771 215.865 154.975 215.747 155.211C215.629 155.447 215.457 155.779 215.307 156.068C215.157 156.358 215.071 156.551 214.932 156.797L214.835 156.947C214.578 157.387 214.299 157.837 214.01 158.277L213.914 158.427C213.613 158.877 213.292 159.327 212.949 159.777L212.756 160.024C212.398 160.489 212.023 160.95 211.63 161.407L211.469 161.589C211.126 161.986 210.762 162.382 210.397 162.768L210.033 163.154C209.658 163.529 209.272 163.915 208.864 164.291L208.65 164.505C208.178 164.934 207.685 165.373 207.181 165.802L206.924 166.017C206.42 166.445 205.852 166.863 205.359 167.271L205.07 167.496C204.512 167.914 203.944 168.332 203.354 168.75L203.14 168.9C202.54 169.308 201.918 169.726 201.285 170.133L201.189 170.197C200.481 170.648 199.752 171.087 199.045 171.527C198.337 171.966 197.801 172.234 197.169 172.599L196.536 172.931L195.25 173.596L194.489 173.971L193.277 174.55L192.463 174.914L191.273 175.439L190.426 175.804C190.029 175.965 189.633 176.136 189.225 176.286L188.368 176.629L187.135 177.09L186.299 177.401L184.969 177.851L184.198 178.109C183.962 178.194 183.726 178.259 183.479 178.334C182.847 178.537 182.214 178.73 181.571 178.913L180.692 179.17L178.891 179.652L178.055 179.867C177.294 180.049 176.544 180.231 175.782 180.392L175.439 180.467C174.571 180.66 173.703 180.832 172.824 180.992L172.202 181.1C171.33 181.25 170.462 181.389 169.597 181.518L168.943 181.614C167.946 181.743 166.938 181.871 165.941 181.968L165.137 182.043C164.58 182.097 164.065 182.15 163.454 182.182L162.522 182.247L160.892 182.332H159.96H158.791H156.433H155.361H154.428H153.27L152.338 182.268L151.191 182.172L150.365 182.097L149.208 181.968L148.393 181.861L147.224 181.689L146.474 181.571C146.056 181.507 145.649 181.421 145.241 181.346L144.598 181.228C144.169 181.142 143.751 181.046 143.333 180.939L142.733 180.81C142.122 180.66 141.521 180.499 140.921 180.328C140.321 180.156 139.645 179.953 139.013 179.738L138.423 179.524C138.005 179.384 137.587 179.234 137.18 179.073L136.676 178.87C136.118 178.634 135.604 178.398 135.036 178.152L134.478 177.884C133.814 177.562 133.17 177.23 132.549 176.876C125.977 173.081 122.804 167.903 122.826 162.286L122.633 191.809C122.633 197.426 125.849 202.593 132.366 206.388C132.977 206.742 133.631 207.085 134.285 207.406L134.853 207.664C135.389 207.921 135.925 208.157 136.494 208.382L136.815 208.521L136.987 208.586C137.394 208.746 137.812 208.897 138.241 209.047L138.831 209.261C139.452 209.465 140.085 209.668 140.739 209.851C141.339 210.022 141.939 210.183 142.55 210.322L143.14 210.462L144.276 210.719H144.416L145.048 210.848L146.292 211.073L147.042 211.191L147.803 211.309L148.211 211.362L149.015 211.459L150.172 211.587L151.009 211.673H151.502H152.156L153.088 211.737L154.235 211.791H155.168H158.47H159.627H160.013H160.571L162.2 211.716L163.122 211.652L164.816 211.512L165.416 211.459H165.62C166.617 211.351 167.614 211.233 168.621 211.094L169.275 210.998C170.147 210.869 171.016 210.73 171.88 210.58L172.288 210.515H172.502L175.118 210.001L175.45 209.926C176.211 209.754 176.972 209.583 177.723 209.39L178.57 209.175C179.17 209.025 179.77 208.864 180.371 208.693L181.25 208.446L183.158 207.867L183.683 207.707L183.876 207.642L184.659 207.374L185.966 206.924L186.813 206.613L188.046 206.152L188.904 205.82L190.104 205.327L190.951 204.973L192.13 204.448L192.956 204.073L194.157 203.504L194.928 203.129L196.215 202.454L196.847 202.121C197.48 201.789 198.102 201.435 198.723 201.049L199.624 200.513C200.063 200.256 200.492 199.988 200.91 199.72L201.017 199.656C201.65 199.249 202.261 198.841 202.861 198.423L203.086 198.273C203.676 197.866 204.244 197.448 204.791 197.029L205.091 196.804C205.627 196.386 206.163 195.968 206.645 195.55L206.913 195.325C207.396 194.918 207.867 194.51 208.307 194.092L208.382 194.028L208.596 193.824C209.004 193.438 209.39 193.063 209.765 192.677L210.129 192.302C210.505 191.905 210.858 191.519 211.201 191.123L211.362 190.941C211.684 190.555 212.005 190.179 212.306 189.793L212.488 189.558C212.552 189.472 212.606 189.386 212.67 189.311C213.013 188.861 213.345 188.4 213.646 187.95L213.742 187.81C214.031 187.36 214.31 186.921 214.567 186.47C214.6 186.423 214.629 186.372 214.653 186.32L214.707 186.245C214.825 186.031 214.921 185.806 215.039 185.591L215.479 184.744C215.597 184.509 215.682 184.262 215.79 184.026C215.897 183.79 216.036 183.469 216.143 183.19V183.104C216.272 182.761 216.379 182.429 216.486 182.097C216.486 181.968 216.572 181.829 216.615 181.7C216.758 181.214 216.876 180.732 216.969 180.253V180.006C217.044 179.609 217.108 179.213 217.151 178.827V178.323C217.151 178.087 217.151 177.851 217.151 177.616C217.151 177.38 217.151 177.348 217.151 177.219L217.333 147.696C217.537 148.039 217.473 148.414 217.451 148.779Z" fill="#CCEFFC"></path> <path opacity="0.53" d="M217.451 156.068C217.601 150.312 214.449 144.995 207.739 141.125C191.862 131.959 162.157 134.317 141.382 146.388C129.108 153.517 122.708 162.468 122.783 170.433C122.783 170.38 122.783 170.326 122.783 170.262L122.601 236.318C122.601 241.936 125.752 247.113 132.324 250.908C132.945 251.262 133.589 251.594 134.253 251.916L134.811 252.184C135.347 252.441 135.883 252.677 136.451 252.902L136.783 253.041L136.944 253.106L138.198 253.567L138.788 253.77C139.409 253.985 140.053 254.178 140.696 254.371C141.285 254.542 141.886 254.692 142.497 254.842L143.097 254.982L144.169 255.239H144.309L144.952 255.357C145.359 255.443 145.766 255.518 146.185 255.582L146.935 255.7L147.707 255.829H148.103L148.918 255.936L150.076 256.065L150.901 256.15H151.394H152.048L152.981 256.215L154.139 256.268H155.071H158.362H159.531H159.906H160.464L162.093 256.182L163.015 256.129L164.709 255.979H165.309H165.513C166.51 255.882 167.507 255.764 168.514 255.625L169.168 255.529L171.773 255.11L172.181 255.046H172.395C173.263 254.885 174.142 254.714 175.011 254.532L175.343 254.446C176.104 254.285 176.865 254.103 177.626 253.921L178.462 253.706L180.263 253.224L181.142 252.977L183.051 252.388L183.576 252.237L183.769 252.173L184.551 251.905L185.859 251.455L186.706 251.144L187.939 250.683L188.797 250.351L189.997 249.858L190.844 249.504L192.023 248.979L192.849 248.603L194.049 248.025L194.821 247.649L196.108 246.985C196.322 246.877 196.536 246.77 196.74 246.652C197.373 246.309 198.005 245.966 198.616 245.58C198.927 245.409 199.227 245.227 199.527 245.044L200.803 244.251L200.91 244.187C201.543 243.779 202.164 243.372 202.765 242.954L202.979 242.804C203.569 242.397 204.137 241.978 204.684 241.56L204.984 241.335C205.52 240.917 206.056 240.499 206.549 240.081L206.806 239.856C207.289 239.449 207.76 239.041 208.21 238.623L208.275 238.559L208.489 238.344C208.897 237.969 209.282 237.594 209.658 237.208L210.022 236.833C210.397 236.436 210.762 236.04 211.094 235.654L211.255 235.461C211.587 235.086 211.898 234.71 212.198 234.324L212.381 234.089L212.573 233.842C212.906 233.381 213.238 232.931 213.538 232.481L213.635 232.341C213.924 231.891 214.203 231.451 214.46 231.001C214.493 230.954 214.521 230.903 214.546 230.851V230.765C214.664 230.551 214.771 230.337 214.878 230.122C214.985 229.908 215.189 229.554 215.318 229.275C215.446 228.997 215.532 228.793 215.629 228.557C215.725 228.321 215.875 228 215.982 227.71V227.635C216.1 227.292 216.208 226.96 216.315 226.627L216.443 226.231C216.579 225.752 216.697 225.27 216.797 224.784V224.537C216.872 224.14 216.937 223.744 216.979 223.347C216.979 223.186 216.979 223.015 216.979 222.854C216.979 222.693 217.033 222.382 217.033 222.146C217.033 221.911 217.033 221.878 217.033 221.75L217.215 155.682C217.462 155.822 217.451 155.94 217.451 156.068ZM217.151 158.748C217.156 158.816 217.156 158.884 217.151 158.952C217.151 158.77 217.226 158.588 217.258 158.405C217.258 158.405 217.258 158.47 217.258 158.502C217.227 158.586 217.191 158.668 217.151 158.748ZM214.717 164.998L214.557 165.245C214.664 165.073 214.771 164.902 214.868 164.719L214.803 164.848C214.768 164.894 214.74 164.945 214.717 164.998ZM213.796 166.467L213.603 166.735L213.978 166.177L213.881 166.327L213.796 166.467ZM216.283 161.739L216.347 161.525C216.347 161.589 216.347 161.653 216.347 161.707L216.283 161.739ZM216.744 160.367L216.872 159.885C216.872 160.003 216.872 160.11 216.786 160.228L216.744 160.367ZM217.344 157.516C217.344 157.365 217.344 157.215 217.344 157.065C217.339 157.147 217.339 157.23 217.344 157.312C217.339 157.38 217.339 157.448 217.344 157.516ZM212.959 167.635L212.82 167.828L212.638 168.075L212.541 168.182C212.691 168 212.82 167.817 212.959 167.635ZM206.785 174.067L206.485 174.314L207.096 173.81L206.785 174.067ZM204.93 175.547L204.737 175.686L205.413 175.171C205.353 175.227 205.288 175.277 205.22 175.321L204.93 175.547ZM203.001 176.94L202.883 177.026L203.59 176.522L203.215 176.801L203.001 176.94ZM201.049 178.248C201.006 178.267 200.967 178.292 200.932 178.323L201.564 177.905L201.146 178.184L201.049 178.248ZM208.189 172.888L208.618 172.513L208.511 172.609C208.414 172.652 208.296 172.781 208.189 172.834V172.888ZM211.405 169.672L211.802 169.2L211.544 169.522L211.405 169.672ZM126.545 180.092C126.824 180.413 127.124 180.735 127.446 181.057C127.103 180.692 126.792 180.349 126.513 180.028L126.545 180.092ZM122.826 170.905C122.826 171.173 122.826 171.43 122.826 171.677C122.815 171.366 122.804 171.109 122.793 170.841L122.826 170.905ZM122.922 172.105C122.922 172.363 122.986 172.62 123.029 172.867C122.954 172.556 122.911 172.298 122.89 172.041L122.922 172.105ZM123.104 173.263C123.169 173.563 123.244 173.864 123.319 174.164C123.201 173.853 123.136 173.499 123.072 173.199L123.104 173.263ZM123.383 174.4C123.49 174.775 123.619 175.139 123.758 175.472C123.587 175.075 123.458 174.71 123.351 174.335L123.383 174.4ZM123.887 175.793C123.994 176.061 124.112 176.329 124.241 176.586C124.08 176.265 123.962 175.997 123.855 175.729L123.887 175.793ZM124.434 176.972C124.552 177.208 124.68 177.433 124.82 177.669C124.648 177.369 124.519 177.144 124.401 176.908L124.434 176.972ZM125.045 178.044L125.506 178.741L125.045 178.044ZM125.752 179.116C125.967 179.406 126.192 179.695 126.438 179.974C126.16 179.609 125.934 179.32 125.72 179.031L125.752 179.116ZM130.812 183.844C130.523 183.651 130.244 183.458 129.976 183.254C130.212 183.372 130.49 183.565 130.78 183.758L130.812 183.844ZM129.558 182.933C129.301 182.74 129.065 182.547 128.829 182.343C129.033 182.429 129.268 182.654 129.526 182.847L129.558 182.933ZM128.486 182.021C128.239 181.796 128.003 181.582 127.778 181.357C127.928 181.496 128.164 181.711 128.411 181.936L128.486 182.021ZM131.252 184.165C131.68 184.444 132.12 184.723 132.57 184.991C132.045 184.573 131.605 184.305 131.177 184.026L131.252 184.165Z" fill="url(&quot;#paint3_linear&quot;)"></path> <path d="M230.401 108.793C256.879 124.08 250.244 152.745 215.586 172.931C180.928 193.117 131.38 197.008 104.902 181.721C78.4234 166.435 85.0591 137.769 119.717 117.584C154.375 97.3978 203.933 93.5064 230.401 108.793Z" fill="url(&quot;#paint4_linear&quot;)"></path> <path d="M124.637 164.312C127.747 166.06 131.064 167.411 134.51 168.332L134.382 121.014C111.152 134.661 106.767 153.999 124.637 164.312ZM209.711 114.893C207.403 113.578 204.968 112.501 202.443 111.677L202.572 156.604C223.497 143.054 226.895 124.787 209.711 114.893Z" fill="#043A4E"></path> <path d="M199.935 49.6723C198.166 48.6003 196.654 47.6999 195.271 46.8851C196.665 47.7106 198.198 48.6647 199.977 49.7045L199.935 49.6723ZM144.641 87.1388C144.614 87.5349 144.614 87.9325 144.641 88.3287V102.265C145.916 101.857 147.192 101.461 148.479 101.085V89.54C148.741 84.5901 151.36 80.0659 155.522 77.3728L163.755 72.6775C165.293 74.2023 167.648 74.5418 169.554 73.5136L180.274 67.1995C182.515 65.9024 183.308 63.8013 183.683 61.325L192.184 56.4367C195.99 54.2927 199.088 56.0079 199.088 60.3387L199.173 95.7148C200.245 95.8112 201.317 95.9292 202.389 96.0578L202.272 54.7429C202.272 52.2987 201.382 50.5299 199.977 49.7045C198.49 49.0067 196.761 49.0424 195.304 49.801C187.95 53.9282 159.928 70.169 152.67 74.3391L142.325 68.3359L152.659 74.3391C148.181 77.1659 145.23 81.8756 144.641 87.1388ZM195.025 46.7565H195.111H195.025Z" fill="#2DB9F0"></path> <path d="M148.511 114.421V101.064C147.224 101.439 145.949 101.836 144.673 102.243L144.641 115.965C145.949 115.397 147.224 114.893 148.511 114.421ZM199.184 110.68C200.256 110.969 201.393 111.291 202.4 111.645V96.0578C201.328 95.9292 200.256 95.8112 199.184 95.7148V110.68Z" fill="#2DB9F0"></path> <path d="M199.313 158.566L199.688 158.352C200.696 157.773 201.65 157.172 202.582 156.572L202.443 111.677C201.371 111.323 200.299 111.001 199.227 110.712L199.313 158.566ZM144.845 170.229C146.099 170.347 147.364 170.444 148.661 170.508L148.511 114.421C147.224 114.893 145.949 115.397 144.684 115.911L144.845 170.229Z" fill="#2DB9F0"></path> <path d="M134.285 82.3255L134.36 106.027L134.285 82.3255Z" fill="#F5833D"></path> <path d="M134.382 121.014L134.51 168.332L134.392 121.003L134.382 121.014Z" fill="#F5833D"></path> <path d="M144.641 88.3287L134.317 82.3255L134.382 106.006C137.748 104.623 141.189 103.358 144.673 102.243L144.641 88.3287Z" fill="#199ED6"></path> <path d="M144.641 115.965V102.297C141.157 103.369 137.716 104.677 134.35 106.06V121.068L134.639 120.896C137.859 119.031 141.2 117.383 144.641 115.965Z" fill="#199ED6"></path> <path d="M144.641 115.965C141.201 117.38 137.859 119.024 134.639 120.885L134.35 121.057L134.489 168.386C137.867 169.308 141.317 169.943 144.802 170.283L144.641 115.965Z" fill="#199ED6"></path> <path d="M195.153 46.8101L195.271 46.8851L195.153 46.8101Z" fill="#FBBB91"></path> <path d="M195.025 46.7565C190.04 43.8085 186.91 42.6508 180.832 46.0919C186.953 42.6615 190.083 43.8085 195.025 46.7565Z" fill="#FBBB91"></path> <path d="M195.314 49.801C196.772 49.0424 198.5 49.0067 199.988 49.7045C198.209 48.6325 196.676 47.7106 195.282 46.8851L195.164 46.8101H195.078C190.094 43.8621 186.963 42.7151 180.885 46.1455C167.957 53.4243 155.157 61.0034 142.293 68.3895L152.638 74.3927C159.981 70.1261 187.96 53.9282 195.314 49.801Z" fill="#96E0FF"></path> <path d="M199.184 110.68V95.6719L199.098 60.2959C199.098 56.0079 196 54.2069 192.195 56.3938L183.662 61.2928C183.286 63.7691 182.493 65.8703 180.253 67.1674L169.533 73.4815C167.626 74.5096 165.272 74.1702 163.733 72.6453L155.522 77.3728C151.354 80.0543 148.723 84.5704 148.446 89.5186V101.064V114.421L148.597 170.508C166.278 171.264 183.826 167.132 199.313 158.566L199.184 110.68Z" fill="#199ED6"></path> <path d="M134.285 82.3148C134.485 76.6226 137.498 71.401 142.325 68.3788C137.489 71.396 134.468 76.6185 134.264 82.3148H134.285Z" fill="#F89E62"></path> <path d="M134.285 82.3148L144.609 88.318C144.582 87.9218 144.582 87.5242 144.609 87.128C145.199 81.8707 148.145 77.166 152.616 74.3391L142.282 68.3359C137.459 71.3766 134.462 76.6155 134.285 82.3148Z" fill="#5FCCF8"></path> <path fill-rule="evenodd" clip-rule="evenodd" d="M173.328 23.5584L166.928 26.0776L162.232 20.5568L162.447 27.8357L156.047 30.3549L162.8 32.8955L163.765 40.0779L167.507 34.2784L174.132 36.0043L170.047 30.0547L173.328 23.5584Z" fill="#96E0FF"></path> <path opacity="0.8" fill-rule="evenodd" clip-rule="evenodd" d="M129.118 51.1624H126.824L126.02 48.8576L125.216 51.1624H122.922L124.723 52.7811L124.155 55.1395L126.02 53.7888L127.875 55.1395L127.317 52.7811L129.118 51.1624Z" fill="#96E0FF"></path> <path fill-rule="evenodd" clip-rule="evenodd" d="M242.493 65.5165H238.945L237.701 61.9682L236.458 65.5165H232.909L235.696 68.025L234.828 71.6591L237.701 69.5794L240.574 71.6591L239.716 68.025L242.493 65.5165Z" fill="#5FCCF8"></path> <path d="M211.116 62.7079C212.625 62.7079 213.849 61.4696 213.849 59.9421C213.849 58.4146 212.625 57.1763 211.116 57.1763C209.606 57.1763 208.382 58.4146 208.382 59.9421C208.382 61.4696 209.606 62.7079 211.116 62.7079Z" fill="#1DAFED"></path> <path d="M208.682 32.1559C209.576 32.1559 210.301 31.4215 210.301 30.5157C210.301 29.6099 209.576 28.8755 208.682 28.8755C207.788 28.8755 207.063 29.6099 207.063 30.5157C207.063 31.4215 207.788 32.1559 208.682 32.1559Z" fill="#5FCCF8"></path> <path fill-rule="evenodd" clip-rule="evenodd" d="M224.344 83.3653H221.675L220.742 80.7068L219.809 83.3653H217.151L219.241 85.252L218.587 87.9856L220.742 86.4205L222.897 87.9856L222.254 85.252L224.344 83.3653Z" fill="#5FCCF8"></path> <path fill-rule="evenodd" clip-rule="evenodd" d="M122.633 80.9855L116.233 83.5047L111.537 77.9839L111.752 85.2627L105.352 87.7819L112.106 90.3226L113.07 97.505L116.801 91.7055L123.437 93.4314L119.352 87.4818L122.633 80.9855Z" fill="#96E0FF"></path> <path fill-rule="evenodd" clip-rule="evenodd" d="M105.03 107.818H102.361L101.428 105.159L100.496 107.818H97.8373L99.9277 109.704L99.2738 112.438L101.428 110.873L103.594 112.438L102.94 109.704L105.03 107.818Z" fill="#5FCCF8"></path> <path d="M165.095 151.341C163.853 152.091 163.074 153.418 163.026 154.868C163.026 156.176 163.926 156.658 165.095 156.036L190.072 141.553C191.314 140.804 192.093 139.477 192.141 138.027C192.141 136.719 191.241 136.172 190.072 136.858L165.095 151.341ZM164.837 161.814C163.599 162.562 162.821 163.884 162.768 165.33C162.768 166.638 163.658 167.121 164.837 166.499L189.804 152.016C191.04 151.259 191.82 149.937 191.884 148.489C191.884 147.181 190.983 146.635 189.804 147.321L164.837 161.814Z" fill="#5FCCF8"></path> <path opacity="0.5" d="M205.295 145.981C183.361 158.727 152.52 161.761 134.264 153.399V168.654C152.724 173.649 178.956 169.961 198.273 158.738C210.14 151.845 217.076 143.44 218.641 135.518C214.744 139.657 210.244 143.184 205.295 145.981Z" fill="url(&quot;#paint5_linear&quot;)"></path> <path d="M88.8218 89.5508C90.3315 89.5508 91.5554 88.3125 91.5554 86.785C91.5554 85.2575 90.3315 84.0192 88.8218 84.0192C87.3121 84.0192 86.0882 85.2575 86.0882 86.785C86.0882 88.3125 87.3121 89.5508 88.8218 89.5508Z" fill="#1DAFED"></path> <path d="M275.532 227.453C275.537 227.36 275.537 227.267 275.532 227.174C275.537 227.081 275.537 226.988 275.532 226.895V226.617V226.338C275.532 226.252 275.532 226.156 275.532 226.07L275.468 225.77L275.403 225.47C275.403 225.373 275.35 225.266 275.318 225.169L275.253 224.934V224.869L275.157 224.569L275.06 224.28C275.06 224.194 274.985 224.097 274.953 224.001L274.846 223.733L274.749 223.519V223.465L274.621 223.197C274.621 223.09 274.524 222.993 274.481 222.897C274.439 222.8 274.364 222.661 274.299 222.554C274.235 222.447 274.171 222.307 274.096 222.189V222.125V222.05C273.956 221.825 273.817 221.6 273.667 221.375C273.559 221.2 273.44 221.032 273.313 220.871L273.056 220.538L272.841 220.27L272.616 220.013C272.552 219.927 272.477 219.852 272.402 219.767L272.23 219.584L271.994 219.349L271.737 219.123L271.491 218.898L271.362 218.791L271.265 218.716L271.019 218.523L270.772 218.341L270.526 218.191L270.29 218.041H270.226C270.169 217.999 270.108 217.963 270.043 217.933L269.818 217.816L269.668 217.741L269.443 217.644L269.218 217.558H269.143L268.982 217.505L268.757 217.44H268.639H268.585H268.521H268.275H267.449H267.128H267.053L266.742 217.526C266.588 217.579 266.441 217.647 266.302 217.73L236.844 234.882C235.662 235.705 235.022 237.105 235.171 238.537C235.381 242.532 237.489 246.186 240.842 248.368C242.031 249.234 243.6 249.379 244.926 248.743L274.396 231.591C274.568 231.485 274.729 231.363 274.878 231.226C274.911 231.188 274.947 231.152 274.985 231.119C275.128 230.97 275.257 230.809 275.371 230.637C275.446 230.519 275.521 230.379 275.586 230.251C275.586 230.165 275.661 230.079 275.704 229.983C275.746 229.886 275.704 229.897 275.704 229.843V229.758C275.7 229.733 275.7 229.707 275.704 229.683C275.704 229.597 275.704 229.5 275.779 229.393C275.854 229.286 275.779 229.329 275.779 229.286V229.222C275.785 229.186 275.785 229.15 275.779 229.114C275.784 229.025 275.784 228.936 275.779 228.846C275.784 228.793 275.784 228.739 275.779 228.686C275.774 228.664 275.774 228.642 275.779 228.621C275.779 228.536 275.779 228.45 275.779 228.353C275.784 228.26 275.784 228.167 275.779 228.075C275.731 227.855 275.647 227.645 275.532 227.453ZM245.409 247.542C245.409 247.478 245.495 247.392 245.537 247.317C245.58 247.242 245.462 247.478 245.42 247.542H245.409ZM245.977 246.063C246.006 245.943 246.024 245.821 246.031 245.698C246.037 245.816 246.037 245.934 246.031 246.052L245.977 246.063ZM245.848 246.599L245.913 246.32L245.848 246.599ZM245.655 247.113L245.752 246.856L245.666 247.081L245.655 247.113ZM246.063 245.462C246.074 245.252 246.074 245.041 246.063 244.83C246.067 245.041 246.06 245.252 246.041 245.462H246.063ZM237.219 234.292L237.004 234.357H237.133L237.219 234.292ZM237.648 234.292H237.476H237.648ZM238.72 234.378H238.527H238.72ZM239.266 234.528L239.073 234.474L239.266 234.528ZM239.845 234.753L239.674 234.689L239.845 234.753Z" fill="#C1E7F6"></path> <path d="M125.747 317.207C127.969 315.916 127.964 311.761 125.736 307.927C123.508 304.093 119.901 302.031 117.679 303.322C115.457 304.613 115.462 308.768 117.69 312.602C119.918 316.436 123.525 318.498 125.747 317.207Z" fill="#127DAA"></path> <path opacity="0.53" d="M275.532 227.453C275.537 227.36 275.537 227.267 275.532 227.174C275.537 227.081 275.537 226.988 275.532 226.895V226.617V226.338C275.532 226.252 275.532 226.156 275.532 226.07L275.468 225.77L275.403 225.47C275.403 225.373 275.35 225.266 275.318 225.169L275.253 224.934V224.869L275.157 224.569L275.06 224.28C275.06 224.194 274.985 224.097 274.953 224.001L274.846 223.733L274.749 223.519V223.465L274.621 223.197C274.621 223.09 274.524 222.993 274.481 222.897C274.439 222.8 274.364 222.661 274.299 222.554C274.235 222.447 274.171 222.307 274.096 222.189V222.125V222.05C273.956 221.825 273.817 221.6 273.667 221.375C273.559 221.2 273.44 221.032 273.313 220.871L273.056 220.538L272.841 220.27L272.616 220.013C272.552 219.927 272.477 219.852 272.402 219.767L272.23 219.584L271.994 219.349L271.737 219.123L271.491 218.898L271.362 218.791L271.265 218.716L271.019 218.523L270.772 218.341L270.526 218.191L270.29 218.041H270.226C270.169 217.999 270.108 217.963 270.043 217.933L269.818 217.816L269.668 217.741L269.443 217.644L269.218 217.558H269.143L268.982 217.505L268.757 217.44H268.639H268.585H268.521H268.275H267.449H267.128H267.053L266.742 217.526C266.588 217.579 266.441 217.647 266.302 217.73L236.844 234.882C235.662 235.705 235.022 237.105 235.171 238.537C235.381 242.532 237.489 246.186 240.842 248.368C242.031 249.234 243.6 249.379 244.926 248.743L274.396 231.591C274.568 231.485 274.729 231.363 274.878 231.226C274.911 231.188 274.947 231.152 274.985 231.119C275.128 230.97 275.257 230.809 275.371 230.637C275.446 230.519 275.521 230.379 275.586 230.251C275.586 230.165 275.661 230.079 275.704 229.983C275.746 229.886 275.704 229.897 275.704 229.843V229.758C275.7 229.733 275.7 229.707 275.704 229.683C275.704 229.597 275.704 229.5 275.779 229.393C275.854 229.286 275.779 229.329 275.779 229.286V229.222C275.785 229.186 275.785 229.15 275.779 229.114C275.784 229.025 275.784 228.936 275.779 228.846C275.784 228.793 275.784 228.739 275.779 228.686C275.774 228.664 275.774 228.642 275.779 228.621C275.779 228.536 275.779 228.45 275.779 228.353C275.784 228.26 275.784 228.167 275.779 228.075C275.731 227.855 275.647 227.645 275.532 227.453ZM245.409 247.542C245.409 247.478 245.495 247.392 245.537 247.317C245.58 247.242 245.462 247.478 245.42 247.542H245.409ZM245.977 246.063C246.006 245.943 246.024 245.821 246.031 245.698C246.037 245.816 246.037 245.934 246.031 246.052L245.977 246.063ZM245.848 246.599L245.913 246.32L245.848 246.599ZM245.655 247.113L245.752 246.856L245.666 247.081L245.655 247.113ZM246.063 245.462C246.074 245.252 246.074 245.041 246.063 244.83C246.067 245.041 246.06 245.252 246.041 245.462H246.063ZM237.219 234.292L237.004 234.357H237.133L237.219 234.292ZM237.648 234.292H237.476H237.648ZM238.72 234.378H238.527H238.72ZM239.266 234.528L239.073 234.474L239.266 234.528ZM239.845 234.753L239.674 234.689L239.845 234.753Z" fill="url(&quot;#paint6_linear&quot;)"></path> <path d="M248.303 243.029C248.303 242.943 248.303 242.847 248.303 242.75C248.298 242.661 248.298 242.572 248.303 242.482V242.204C248.303 242.107 248.303 242.011 248.303 241.914C248.303 241.818 248.303 241.732 248.303 241.635C248.303 241.539 248.303 241.442 248.25 241.335C248.196 241.228 248.196 241.142 248.175 241.046C248.153 240.949 248.121 240.842 248.1 240.735C248.079 240.658 248.054 240.583 248.025 240.51V240.435L247.928 240.145C247.928 240.049 247.864 239.952 247.821 239.856L247.724 239.577C247.724 239.481 247.649 239.384 247.606 239.298L247.521 239.084V239.03C247.521 238.945 247.446 238.848 247.403 238.762C247.36 238.677 247.306 238.559 247.253 238.462C247.199 238.366 247.135 238.237 247.081 238.119L246.877 237.765V237.701C246.881 237.673 246.881 237.644 246.877 237.615C246.749 237.387 246.609 237.162 246.459 236.94L246.106 236.436L245.859 236.115L245.634 235.836L245.42 235.579L245.194 235.332C245.143 235.266 245.086 235.205 245.023 235.15L244.787 234.914L244.541 234.678L244.283 234.453L244.155 234.357L244.047 234.281L243.801 234.089L243.554 233.917L243.308 233.756L243.072 233.606H243.018C241.839 232.751 240.289 232.6 238.966 233.209L117.691 303.308C119.014 302.698 120.563 302.849 121.743 303.704C122.142 303.938 122.522 304.203 122.879 304.497C123.26 304.796 123.618 305.122 123.951 305.473C124.292 305.836 124.61 306.219 124.905 306.62C125.205 307.021 125.481 307.44 125.731 307.874V307.939C125.978 308.365 126.2 308.805 126.395 309.257C126.597 309.71 126.769 310.176 126.91 310.651C127.046 311.112 127.154 311.581 127.232 312.055C127.309 312.512 127.345 312.975 127.339 313.438C127.339 313.663 127.339 313.867 127.339 314.07V314.124C127.339 314.306 127.339 314.478 127.264 314.649V314.724C127.232 314.884 127.189 315.042 127.135 315.196V315.282L126.974 315.678V315.732C126.91 315.873 126.835 316.01 126.749 316.139C126.635 316.317 126.502 316.483 126.353 316.633L126.245 316.729C126.103 316.869 125.945 316.991 125.774 317.093L246.652 246.845C246.827 246.743 246.989 246.621 247.135 246.481L247.242 246.374C247.391 246.227 247.524 246.065 247.639 245.891C247.719 245.768 247.79 245.639 247.853 245.505L247.96 245.248C247.965 245.198 247.965 245.148 247.96 245.098V245.023C247.964 244.998 247.964 244.973 247.96 244.948C247.99 244.853 248.015 244.756 248.035 244.658C248.04 244.619 248.04 244.58 248.035 244.541V244.476C248.03 244.444 248.03 244.412 248.035 244.38V244.101C248.035 244.047 248.035 243.994 248.035 243.94V243.887C248.035 243.79 248.035 243.704 248.035 243.608V243.061L248.303 243.029Z" fill="url(&quot;#paint7_linear&quot;)"></path> <path d="M191.273 96.8832L191.444 125.774L157.966 143.044L157.891 116.351L176.619 121.529L191.08 97.0226L157.891 116.179L191.273 96.8832Z" fill="#96E0FF"></path> <path d="M191.08 97.0226L177.776 121.925L157.891 116.351L157.708 116.286L157.891 116.179L191.08 97.0226Z" fill="#EFFAFE"></path> </g> <defs> <linearGradient id="paint0_linear" x1="127.34" y1="302.551" x2="161.897" y2="245.277" gradientUnits="userSpaceOnUse"> <stop stop-color="#199ED6" stop-opacity="0"></stop> <stop offset="1" stop-color="#199ED6" stop-opacity="0.31"></stop> </linearGradient> <linearGradient id="paint1_linear" x1="81.9929" y1="271.68" x2="114.523" y2="218.155" gradientUnits="userSpaceOnUse"> <stop stop-color="#199ED6" stop-opacity="0"></stop> <stop offset="1" stop-color="#199ED6" stop-opacity="0.31"></stop> </linearGradient> <linearGradient id="paint2_linear" x1="122.59" y1="196.012" x2="217.462" y2="196.012" gradientUnits="userSpaceOnUse"> <stop stop-color="#1391C7"></stop> <stop offset="1" stop-color="#1DAFED"></stop> </linearGradient> <linearGradient id="paint3_linear" x1="217.462" y1="196.012" x2="122.59" y2="196.012" gradientUnits="userSpaceOnUse"> <stop offset="0.1" stop-color="#199ED6" stop-opacity="0"></stop> <stop offset="1" stop-color="#199ED6"></stop> </linearGradient> <linearGradient id="paint4_linear" x1="88.6826" y1="145.252" x2="246.62" y2="145.252" gradientUnits="userSpaceOnUse"> <stop stop-color="#199ED6"></stop> <stop offset="1" stop-color="#1DAFED"></stop> </linearGradient> <linearGradient id="paint5_linear" x1="218.662" y1="153.142" x2="113.402" y2="153.142" gradientUnits="userSpaceOnUse"> <stop stop-color="#0A5D7E" stop-opacity="0"></stop> <stop offset="1" stop-color="#0A5D7E"></stop> </linearGradient> <linearGradient id="paint6_linear" x1="272.863" y1="251.126" x2="257.945" y2="226.2" gradientUnits="userSpaceOnUse"> <stop offset="0.91" stop-color="#199ED6" stop-opacity="0"></stop> <stop offset="1" stop-color="#199ED6" stop-opacity="0.3"></stop> </linearGradient> <linearGradient id="paint7_linear" x1="182.268" y1="273.19" x2="185.185" y2="278.188" gradientUnits="userSpaceOnUse"> <stop stop-color="#199ED6"></stop> <stop offset="0.43" stop-color="#1DAFED"></stop> </linearGradient> <clipPath id="clip0"> <rect width="335" height="335" fill="white"></rect> </clipPath> <linearGradient id="paint0_linear" x1="127.34" y1="302.551" x2="161.897" y2="245.277" gradientUnits="userSpaceOnUse"> <stop stop-color="#199ED6" stop-opacity="0"></stop> <stop offset="1" stop-color="#199ED6" stop-opacity="0.31"></stop> </linearGradient><linearGradient id="paint1_linear" x1="81.9929" y1="271.68" x2="114.523" y2="218.155" gradientUnits="userSpaceOnUse"> <stop stop-color="#199ED6" stop-opacity="0"></stop> <stop offset="1" stop-color="#199ED6" stop-opacity="0.31"></stop> </linearGradient><linearGradient id="paint2_linear" x1="122.59" y1="196.012" x2="217.462" y2="196.012" gradientUnits="userSpaceOnUse"> <stop stop-color="#1391C7"></stop> <stop offset="1" stop-color="#1DAFED"></stop> </linearGradient><linearGradient id="paint3_linear" x1="217.462" y1="196.012" x2="122.59" y2="196.012" gradientUnits="userSpaceOnUse"> <stop offset="0.1" stop-color="#199ED6" stop-opacity="0"></stop> <stop offset="1" stop-color="#199ED6"></stop> </linearGradient><linearGradient id="paint4_linear" x1="88.6826" y1="145.252" x2="246.62" y2="145.252" gradientUnits="userSpaceOnUse"> <stop stop-color="#199ED6"></stop> <stop offset="1" stop-color="#1DAFED"></stop> </linearGradient><linearGradient id="paint5_linear" x1="218.662" y1="153.142" x2="113.402" y2="153.142" gradientUnits="userSpaceOnUse"> <stop stop-color="#0A5D7E" stop-opacity="0"></stop> <stop offset="1" stop-color="#0A5D7E"></stop> </linearGradient><linearGradient id="paint6_linear" x1="272.863" y1="251.126" x2="257.945" y2="226.2" gradientUnits="userSpaceOnUse"> <stop offset="0.91" stop-color="#199ED6" stop-opacity="0"></stop> <stop offset="1" stop-color="#199ED6" stop-opacity="0.3"></stop> </linearGradient><linearGradient id="paint7_linear" x1="182.268" y1="273.19" x2="185.185" y2="278.188" gradientUnits="userSpaceOnUse"> <stop stop-color="#199ED6"></stop> <stop offset="0.43" stop-color="#1DAFED"></stop> </linearGradient></defs>  </svg>