<svg xmlns:xlink="http://www.w3.org/1999/xlink" viewBox="0 0 200 200" width="1.25" height="1.25" xmlns="http://www.w3.org/2000/svg" class="ncEv dJtn-menu-item-icon" role="presentation" aria-hidden="true"><path d="M90.7 176.6C76.1 165 60 149.7 42.9 130.9C21.1 107.1 10 85.3 10 66c0-24.2 20-44.9 44.5-46c23.6-1 38.6 15.3 45.5 25.3c6.9-10 21.9-26.3 45.5-25.3C170 21.1 190 41.8 190 66c0 19.2-11.1 41.1-32.9 65c-17.7 19.4-33.4 34.3-47.8 45.7c-5.5 4.2-13.2 4.3-18.6-.1zM56.5 30C36.7 30 20 46.4 20 66c0 16.5 10.5 36.6 30.3 58.1c16.8 18.4 32.4 33.4 46.6 44.7c1.8 1.4 4.3 1.4 6.2 0c14-11 29.2-25.6 46.6-44.5c20.1-22 30.3-41.6 30.3-58.2c0-19-15.7-35.1-34.9-36c-26.7-1.2-40.4 26.9-40.6 27.2c-1.8 3.8-7.2 3.8-9 0c-.1-.4-13.5-27.3-39-27.3z" fill="#8791A1"></path></svg>