<svg xmlns:xlink="http://www.w3.org/1999/xlink" viewBox="0 0 200 200" xmlns="http://www.w3.org/2000/svg" width="200"  height="200" ><path d="M176.66 61.49c-1.84-6.89-7.27-12.31-14.15-14.15C150.03 44 100 44 100 44s-50.03 0-62.51 3.34c-6.88 1.84-12.31 7.26-14.15 14.15C20 73.97 20 100 20 100s0 26.03 3.34 38.51c1.84 6.89 7.27 12.31 14.15 14.15C49.97 156 100 156 100 156s50.03 0 62.51-3.34c6.88-1.84 12.31-7.26 14.15-14.15C180 126.03 180 100 180 100s0-26.03-3.34-38.51zM84 124V76l41.57 24L84 124z" fill="#FFFFFF"></path></svg>